%TF.GenerationSoftware,KiCad,Pcbnew,(6.0.7)*%
%TF.CreationDate,2023-08-28T04:04:33+08:00*%
%TF.ProjectId,USB_Hub_Panelization,5553425f-4875-4625-9f50-616e656c697a,rev?*%
%TF.SameCoordinates,Original*%
%TF.FileFunction,OtherDrawing,Comment*%
%FSLAX46Y46*%
G04 Gerber Fmt 4.6, Leading zero omitted, Abs format (unit mm)*
G04 Created by KiCad (PCBNEW (6.0.7)) date 2023-08-28 04:04:33*
%MOMM*%
%LPD*%
G01*
G04 APERTURE LIST*
%ADD10C,0.150000*%
%ADD11C,0.120000*%
%ADD12C,0.200000*%
%ADD13C,0.400000*%
G04 APERTURE END LIST*
D10*
X119880952Y-121452380D02*
X120214285Y-122452380D01*
X120547619Y-121452380D01*
X120880952Y-122071428D02*
X121642857Y-122071428D01*
X122547619Y-122404761D02*
X122452380Y-122452380D01*
X122261904Y-122452380D01*
X122166666Y-122404761D01*
X122119047Y-122357142D01*
X122071428Y-122261904D01*
X122071428Y-121976190D01*
X122119047Y-121880952D01*
X122166666Y-121833333D01*
X122261904Y-121785714D01*
X122452380Y-121785714D01*
X122547619Y-121833333D01*
X123404761Y-121785714D02*
X123404761Y-122452380D01*
X122976190Y-121785714D02*
X122976190Y-122309523D01*
X123023809Y-122404761D01*
X123119047Y-122452380D01*
X123261904Y-122452380D01*
X123357142Y-122404761D01*
X123404761Y-122357142D01*
X123738095Y-121785714D02*
X124119047Y-121785714D01*
X123880952Y-121452380D02*
X123880952Y-122309523D01*
X123928571Y-122404761D01*
X124023809Y-122452380D01*
X124119047Y-122452380D01*
X139880952Y-121452380D02*
X140214285Y-122452380D01*
X140547619Y-121452380D01*
X140880952Y-122071428D02*
X141642857Y-122071428D01*
X142547619Y-122404761D02*
X142452380Y-122452380D01*
X142261904Y-122452380D01*
X142166666Y-122404761D01*
X142119047Y-122357142D01*
X142071428Y-122261904D01*
X142071428Y-121976190D01*
X142119047Y-121880952D01*
X142166666Y-121833333D01*
X142261904Y-121785714D01*
X142452380Y-121785714D01*
X142547619Y-121833333D01*
X143404761Y-121785714D02*
X143404761Y-122452380D01*
X142976190Y-121785714D02*
X142976190Y-122309523D01*
X143023809Y-122404761D01*
X143119047Y-122452380D01*
X143261904Y-122452380D01*
X143357142Y-122404761D01*
X143404761Y-122357142D01*
X143738095Y-121785714D02*
X144119047Y-121785714D01*
X143880952Y-121452380D02*
X143880952Y-122309523D01*
X143928571Y-122404761D01*
X144023809Y-122452380D01*
X144119047Y-122452380D01*
X119000000Y-119000000D02*
X120000000Y-120000000D01*
X99000000Y-119000000D02*
X100000000Y-120000000D01*
X99000000Y-125000000D02*
X99000000Y-119000000D01*
X99880952Y-121452380D02*
X100214285Y-122452380D01*
X100547619Y-121452380D01*
X100880952Y-122071428D02*
X101642857Y-122071428D01*
X102547619Y-122404761D02*
X102452380Y-122452380D01*
X102261904Y-122452380D01*
X102166666Y-122404761D01*
X102119047Y-122357142D01*
X102071428Y-122261904D01*
X102071428Y-121976190D01*
X102119047Y-121880952D01*
X102166666Y-121833333D01*
X102261904Y-121785714D01*
X102452380Y-121785714D01*
X102547619Y-121833333D01*
X103404761Y-121785714D02*
X103404761Y-122452380D01*
X102976190Y-121785714D02*
X102976190Y-122309523D01*
X103023809Y-122404761D01*
X103119047Y-122452380D01*
X103261904Y-122452380D01*
X103357142Y-122404761D01*
X103404761Y-122357142D01*
X103738095Y-121785714D02*
X104119047Y-121785714D01*
X103880952Y-121452380D02*
X103880952Y-122309523D01*
X103928571Y-122404761D01*
X104023809Y-122452380D01*
X104119047Y-122452380D01*
X119000000Y-125000000D02*
X119000000Y-119000000D01*
X139000000Y-119000000D02*
X140000000Y-120000000D01*
X139000000Y-125000000D02*
X139000000Y-119000000D01*
X93880952Y-59452380D02*
X94214285Y-60452380D01*
X94547619Y-59452380D01*
X94880952Y-60071428D02*
X95642857Y-60071428D01*
X96547619Y-60404761D02*
X96452380Y-60452380D01*
X96261904Y-60452380D01*
X96166666Y-60404761D01*
X96119047Y-60357142D01*
X96071428Y-60261904D01*
X96071428Y-59976190D01*
X96119047Y-59880952D01*
X96166666Y-59833333D01*
X96261904Y-59785714D01*
X96452380Y-59785714D01*
X96547619Y-59833333D01*
X97404761Y-59785714D02*
X97404761Y-60452380D01*
X96976190Y-59785714D02*
X96976190Y-60309523D01*
X97023809Y-60404761D01*
X97119047Y-60452380D01*
X97261904Y-60452380D01*
X97357142Y-60404761D01*
X97404761Y-60357142D01*
X97738095Y-59785714D02*
X98119047Y-59785714D01*
X97880952Y-59452380D02*
X97880952Y-60309523D01*
X97928571Y-60404761D01*
X98023809Y-60452380D01*
X98119047Y-60452380D01*
X113880952Y-59452380D02*
X114214285Y-60452380D01*
X114547619Y-59452380D01*
X114880952Y-60071428D02*
X115642857Y-60071428D01*
X116547619Y-60404761D02*
X116452380Y-60452380D01*
X116261904Y-60452380D01*
X116166666Y-60404761D01*
X116119047Y-60357142D01*
X116071428Y-60261904D01*
X116071428Y-59976190D01*
X116119047Y-59880952D01*
X116166666Y-59833333D01*
X116261904Y-59785714D01*
X116452380Y-59785714D01*
X116547619Y-59833333D01*
X117404761Y-59785714D02*
X117404761Y-60452380D01*
X116976190Y-59785714D02*
X116976190Y-60309523D01*
X117023809Y-60404761D01*
X117119047Y-60452380D01*
X117261904Y-60452380D01*
X117357142Y-60404761D01*
X117404761Y-60357142D01*
X117738095Y-59785714D02*
X118119047Y-59785714D01*
X117880952Y-59452380D02*
X117880952Y-60309523D01*
X117928571Y-60404761D01*
X118023809Y-60452380D01*
X118119047Y-60452380D01*
X133880952Y-59452380D02*
X134214285Y-60452380D01*
X134547619Y-59452380D01*
X134880952Y-60071428D02*
X135642857Y-60071428D01*
X136547619Y-60404761D02*
X136452380Y-60452380D01*
X136261904Y-60452380D01*
X136166666Y-60404761D01*
X136119047Y-60357142D01*
X136071428Y-60261904D01*
X136071428Y-59976190D01*
X136119047Y-59880952D01*
X136166666Y-59833333D01*
X136261904Y-59785714D01*
X136452380Y-59785714D01*
X136547619Y-59833333D01*
X137404761Y-59785714D02*
X137404761Y-60452380D01*
X136976190Y-59785714D02*
X136976190Y-60309523D01*
X137023809Y-60404761D01*
X137119047Y-60452380D01*
X137261904Y-60452380D01*
X137357142Y-60404761D01*
X137404761Y-60357142D01*
X137738095Y-59785714D02*
X138119047Y-59785714D01*
X137880952Y-59452380D02*
X137880952Y-60309523D01*
X137928571Y-60404761D01*
X138023809Y-60452380D01*
X138119047Y-60452380D01*
X139000000Y-63000000D02*
X138000000Y-62000000D01*
X139000000Y-57000000D02*
X139000000Y-63000000D01*
X119000000Y-63000000D02*
X118000000Y-62000000D01*
X119000000Y-57000000D02*
X119000000Y-63000000D01*
X99000000Y-63000000D02*
X98000000Y-62000000D01*
X99000000Y-57000000D02*
X99000000Y-63000000D01*
X114570216Y-129730952D02*
X114474978Y-129683333D01*
X114427359Y-129635714D01*
X114379740Y-129540476D01*
X114379740Y-129492857D01*
X114427359Y-129397619D01*
X114474978Y-129350000D01*
X114570216Y-129302380D01*
X114760692Y-129302380D01*
X114855930Y-129350000D01*
X114903549Y-129397619D01*
X114951168Y-129492857D01*
X114951168Y-129540476D01*
X114903549Y-129635714D01*
X114855930Y-129683333D01*
X114760692Y-129730952D01*
X114570216Y-129730952D01*
X114474978Y-129778571D01*
X114427359Y-129826190D01*
X114379740Y-129921428D01*
X114379740Y-130111904D01*
X114427359Y-130207142D01*
X114474978Y-130254761D01*
X114570216Y-130302380D01*
X114760692Y-130302380D01*
X114855930Y-130254761D01*
X114903549Y-130207142D01*
X114951168Y-130111904D01*
X114951168Y-129921428D01*
X114903549Y-129826190D01*
X114855930Y-129778571D01*
X114760692Y-129730952D01*
X115570216Y-129302380D02*
X115665454Y-129302380D01*
X115760692Y-129350000D01*
X115808311Y-129397619D01*
X115855930Y-129492857D01*
X115903549Y-129683333D01*
X115903549Y-129921428D01*
X115855930Y-130111904D01*
X115808311Y-130207142D01*
X115760692Y-130254761D01*
X115665454Y-130302380D01*
X115570216Y-130302380D01*
X115474978Y-130254761D01*
X115427359Y-130207142D01*
X115379740Y-130111904D01*
X115332121Y-129921428D01*
X115332121Y-129683333D01*
X115379740Y-129492857D01*
X115427359Y-129397619D01*
X115474978Y-129350000D01*
X115570216Y-129302380D01*
X116332121Y-130207142D02*
X116379740Y-130254761D01*
X116332121Y-130302380D01*
X116284502Y-130254761D01*
X116332121Y-130207142D01*
X116332121Y-130302380D01*
X116998788Y-129302380D02*
X117094026Y-129302380D01*
X117189264Y-129350000D01*
X117236883Y-129397619D01*
X117284502Y-129492857D01*
X117332121Y-129683333D01*
X117332121Y-129921428D01*
X117284502Y-130111904D01*
X117236883Y-130207142D01*
X117189264Y-130254761D01*
X117094026Y-130302380D01*
X116998788Y-130302380D01*
X116903549Y-130254761D01*
X116855930Y-130207142D01*
X116808311Y-130111904D01*
X116760692Y-129921428D01*
X116760692Y-129683333D01*
X116808311Y-129492857D01*
X116855930Y-129397619D01*
X116903549Y-129350000D01*
X116998788Y-129302380D01*
X117951168Y-129302380D02*
X118046407Y-129302380D01*
X118141645Y-129350000D01*
X118189264Y-129397619D01*
X118236883Y-129492857D01*
X118284502Y-129683333D01*
X118284502Y-129921428D01*
X118236883Y-130111904D01*
X118189264Y-130207142D01*
X118141645Y-130254761D01*
X118046407Y-130302380D01*
X117951168Y-130302380D01*
X117855930Y-130254761D01*
X117808311Y-130207142D01*
X117760692Y-130111904D01*
X117713073Y-129921428D01*
X117713073Y-129683333D01*
X117760692Y-129492857D01*
X117808311Y-129397619D01*
X117855930Y-129350000D01*
X117951168Y-129302380D01*
X118903549Y-129302380D02*
X118998788Y-129302380D01*
X119094026Y-129350000D01*
X119141645Y-129397619D01*
X119189264Y-129492857D01*
X119236883Y-129683333D01*
X119236883Y-129921428D01*
X119189264Y-130111904D01*
X119141645Y-130207142D01*
X119094026Y-130254761D01*
X118998788Y-130302380D01*
X118903549Y-130302380D01*
X118808311Y-130254761D01*
X118760692Y-130207142D01*
X118713073Y-130111904D01*
X118665454Y-129921428D01*
X118665454Y-129683333D01*
X118713073Y-129492857D01*
X118760692Y-129397619D01*
X118808311Y-129350000D01*
X118903549Y-129302380D01*
X119855930Y-129302380D02*
X119951168Y-129302380D01*
X120046407Y-129350000D01*
X120094026Y-129397619D01*
X120141645Y-129492857D01*
X120189264Y-129683333D01*
X120189264Y-129921428D01*
X120141645Y-130111904D01*
X120094026Y-130207142D01*
X120046407Y-130254761D01*
X119951168Y-130302380D01*
X119855930Y-130302380D01*
X119760692Y-130254761D01*
X119713073Y-130207142D01*
X119665454Y-130111904D01*
X119617835Y-129921428D01*
X119617835Y-129683333D01*
X119665454Y-129492857D01*
X119713073Y-129397619D01*
X119760692Y-129350000D01*
X119855930Y-129302380D01*
X121379740Y-130302380D02*
X121379740Y-129635714D01*
X121379740Y-129730952D02*
X121427359Y-129683333D01*
X121522597Y-129635714D01*
X121665454Y-129635714D01*
X121760692Y-129683333D01*
X121808311Y-129778571D01*
X121808311Y-130302380D01*
X121808311Y-129778571D02*
X121855930Y-129683333D01*
X121951168Y-129635714D01*
X122094026Y-129635714D01*
X122189264Y-129683333D01*
X122236883Y-129778571D01*
X122236883Y-130302380D01*
X122713073Y-130302380D02*
X122713073Y-129635714D01*
X122713073Y-129730952D02*
X122760692Y-129683333D01*
X122855930Y-129635714D01*
X122998788Y-129635714D01*
X123094026Y-129683333D01*
X123141645Y-129778571D01*
X123141645Y-130302380D01*
X123141645Y-129778571D02*
X123189264Y-129683333D01*
X123284502Y-129635714D01*
X123427359Y-129635714D01*
X123522597Y-129683333D01*
X123570216Y-129778571D01*
X123570216Y-130302380D01*
X158998788Y-118912124D02*
X158998788Y-131586420D01*
X78998788Y-118912124D02*
X78998788Y-131586420D01*
X158998788Y-131000000D02*
X78998788Y-131000000D01*
X158998788Y-131000000D02*
X78998788Y-131000000D01*
X158998788Y-131000000D02*
X157872284Y-130413579D01*
X158998788Y-131000000D02*
X157872284Y-131586421D01*
X78998788Y-131000000D02*
X80125292Y-131586421D01*
X78998788Y-131000000D02*
X80125292Y-130413579D01*
X84379740Y-122809743D02*
X84427359Y-122762124D01*
X84522597Y-122714504D01*
X84760692Y-122714504D01*
X84855930Y-122762124D01*
X84903549Y-122809743D01*
X84951168Y-122904981D01*
X84951168Y-123000219D01*
X84903549Y-123143076D01*
X84332121Y-123714504D01*
X84951168Y-123714504D01*
X85570216Y-122714504D02*
X85665454Y-122714504D01*
X85760692Y-122762124D01*
X85808311Y-122809743D01*
X85855930Y-122904981D01*
X85903549Y-123095457D01*
X85903549Y-123333552D01*
X85855930Y-123524028D01*
X85808311Y-123619266D01*
X85760692Y-123666885D01*
X85665454Y-123714504D01*
X85570216Y-123714504D01*
X85474978Y-123666885D01*
X85427359Y-123619266D01*
X85379740Y-123524028D01*
X85332121Y-123333552D01*
X85332121Y-123095457D01*
X85379740Y-122904981D01*
X85427359Y-122809743D01*
X85474978Y-122762124D01*
X85570216Y-122714504D01*
X86332121Y-123619266D02*
X86379740Y-123666885D01*
X86332121Y-123714504D01*
X86284502Y-123666885D01*
X86332121Y-123619266D01*
X86332121Y-123714504D01*
X86998788Y-122714504D02*
X87094026Y-122714504D01*
X87189264Y-122762124D01*
X87236883Y-122809743D01*
X87284502Y-122904981D01*
X87332121Y-123095457D01*
X87332121Y-123333552D01*
X87284502Y-123524028D01*
X87236883Y-123619266D01*
X87189264Y-123666885D01*
X87094026Y-123714504D01*
X86998788Y-123714504D01*
X86903549Y-123666885D01*
X86855930Y-123619266D01*
X86808311Y-123524028D01*
X86760692Y-123333552D01*
X86760692Y-123095457D01*
X86808311Y-122904981D01*
X86855930Y-122809743D01*
X86903549Y-122762124D01*
X86998788Y-122714504D01*
X87951168Y-122714504D02*
X88046407Y-122714504D01*
X88141645Y-122762124D01*
X88189264Y-122809743D01*
X88236883Y-122904981D01*
X88284502Y-123095457D01*
X88284502Y-123333552D01*
X88236883Y-123524028D01*
X88189264Y-123619266D01*
X88141645Y-123666885D01*
X88046407Y-123714504D01*
X87951168Y-123714504D01*
X87855930Y-123666885D01*
X87808311Y-123619266D01*
X87760692Y-123524028D01*
X87713073Y-123333552D01*
X87713073Y-123095457D01*
X87760692Y-122904981D01*
X87808311Y-122809743D01*
X87855930Y-122762124D01*
X87951168Y-122714504D01*
X88903549Y-122714504D02*
X88998788Y-122714504D01*
X89094026Y-122762124D01*
X89141645Y-122809743D01*
X89189264Y-122904981D01*
X89236883Y-123095457D01*
X89236883Y-123333552D01*
X89189264Y-123524028D01*
X89141645Y-123619266D01*
X89094026Y-123666885D01*
X88998788Y-123714504D01*
X88903549Y-123714504D01*
X88808311Y-123666885D01*
X88760692Y-123619266D01*
X88713073Y-123524028D01*
X88665454Y-123333552D01*
X88665454Y-123095457D01*
X88713073Y-122904981D01*
X88760692Y-122809743D01*
X88808311Y-122762124D01*
X88903549Y-122714504D01*
X89855930Y-122714504D02*
X89951168Y-122714504D01*
X90046407Y-122762124D01*
X90094026Y-122809743D01*
X90141645Y-122904981D01*
X90189264Y-123095457D01*
X90189264Y-123333552D01*
X90141645Y-123524028D01*
X90094026Y-123619266D01*
X90046407Y-123666885D01*
X89951168Y-123714504D01*
X89855930Y-123714504D01*
X89760692Y-123666885D01*
X89713073Y-123619266D01*
X89665454Y-123524028D01*
X89617835Y-123333552D01*
X89617835Y-123095457D01*
X89665454Y-122904981D01*
X89713073Y-122809743D01*
X89760692Y-122762124D01*
X89855930Y-122714504D01*
X91379740Y-123714504D02*
X91379740Y-123047838D01*
X91379740Y-123143076D02*
X91427359Y-123095457D01*
X91522597Y-123047838D01*
X91665454Y-123047838D01*
X91760692Y-123095457D01*
X91808311Y-123190695D01*
X91808311Y-123714504D01*
X91808311Y-123190695D02*
X91855930Y-123095457D01*
X91951168Y-123047838D01*
X92094026Y-123047838D01*
X92189264Y-123095457D01*
X92236883Y-123190695D01*
X92236883Y-123714504D01*
X92713073Y-123714504D02*
X92713073Y-123047838D01*
X92713073Y-123143076D02*
X92760692Y-123095457D01*
X92855930Y-123047838D01*
X92998788Y-123047838D01*
X93094026Y-123095457D01*
X93141645Y-123190695D01*
X93141645Y-123714504D01*
X93141645Y-123190695D02*
X93189264Y-123095457D01*
X93284502Y-123047838D01*
X93427359Y-123047838D01*
X93522597Y-123095457D01*
X93570216Y-123190695D01*
X93570216Y-123714504D01*
X98998788Y-118912124D02*
X98998788Y-124998544D01*
X78998788Y-118912124D02*
X78998788Y-124998544D01*
X98998788Y-124412124D02*
X78998788Y-124412124D01*
X98998788Y-124412124D02*
X78998788Y-124412124D01*
X98998788Y-124412124D02*
X97872284Y-123825703D01*
X98998788Y-124412124D02*
X97872284Y-124998545D01*
X78998788Y-124412124D02*
X80125292Y-124998545D01*
X78998788Y-124412124D02*
X80125292Y-123825703D01*
X67401168Y-95007362D02*
X67401168Y-95483552D01*
X67877359Y-95531171D01*
X67829740Y-95483552D01*
X67782121Y-95388314D01*
X67782121Y-95150219D01*
X67829740Y-95054981D01*
X67877359Y-95007362D01*
X67972597Y-94959743D01*
X68210692Y-94959743D01*
X68305930Y-95007362D01*
X68353549Y-95054981D01*
X68401168Y-95150219D01*
X68401168Y-95388314D01*
X68353549Y-95483552D01*
X68305930Y-95531171D01*
X67401168Y-94054981D02*
X67401168Y-94531171D01*
X67877359Y-94578790D01*
X67829740Y-94531171D01*
X67782121Y-94435933D01*
X67782121Y-94197838D01*
X67829740Y-94102600D01*
X67877359Y-94054981D01*
X67972597Y-94007362D01*
X68210692Y-94007362D01*
X68305930Y-94054981D01*
X68353549Y-94102600D01*
X68401168Y-94197838D01*
X68401168Y-94435933D01*
X68353549Y-94531171D01*
X68305930Y-94578790D01*
X68305930Y-93578790D02*
X68353549Y-93531171D01*
X68401168Y-93578790D01*
X68353549Y-93626409D01*
X68305930Y-93578790D01*
X68401168Y-93578790D01*
X67401168Y-92912124D02*
X67401168Y-92816885D01*
X67448788Y-92721647D01*
X67496407Y-92674028D01*
X67591645Y-92626409D01*
X67782121Y-92578790D01*
X68020216Y-92578790D01*
X68210692Y-92626409D01*
X68305930Y-92674028D01*
X68353549Y-92721647D01*
X68401168Y-92816885D01*
X68401168Y-92912124D01*
X68353549Y-93007362D01*
X68305930Y-93054981D01*
X68210692Y-93102600D01*
X68020216Y-93150219D01*
X67782121Y-93150219D01*
X67591645Y-93102600D01*
X67496407Y-93054981D01*
X67448788Y-93007362D01*
X67401168Y-92912124D01*
X67401168Y-91959743D02*
X67401168Y-91864504D01*
X67448788Y-91769266D01*
X67496407Y-91721647D01*
X67591645Y-91674028D01*
X67782121Y-91626409D01*
X68020216Y-91626409D01*
X68210692Y-91674028D01*
X68305930Y-91721647D01*
X68353549Y-91769266D01*
X68401168Y-91864504D01*
X68401168Y-91959743D01*
X68353549Y-92054981D01*
X68305930Y-92102600D01*
X68210692Y-92150219D01*
X68020216Y-92197838D01*
X67782121Y-92197838D01*
X67591645Y-92150219D01*
X67496407Y-92102600D01*
X67448788Y-92054981D01*
X67401168Y-91959743D01*
X67401168Y-91007362D02*
X67401168Y-90912124D01*
X67448788Y-90816885D01*
X67496407Y-90769266D01*
X67591645Y-90721647D01*
X67782121Y-90674028D01*
X68020216Y-90674028D01*
X68210692Y-90721647D01*
X68305930Y-90769266D01*
X68353549Y-90816885D01*
X68401168Y-90912124D01*
X68401168Y-91007362D01*
X68353549Y-91102600D01*
X68305930Y-91150219D01*
X68210692Y-91197838D01*
X68020216Y-91245457D01*
X67782121Y-91245457D01*
X67591645Y-91197838D01*
X67496407Y-91150219D01*
X67448788Y-91102600D01*
X67401168Y-91007362D01*
X67401168Y-90054981D02*
X67401168Y-89959743D01*
X67448788Y-89864504D01*
X67496407Y-89816885D01*
X67591645Y-89769266D01*
X67782121Y-89721647D01*
X68020216Y-89721647D01*
X68210692Y-89769266D01*
X68305930Y-89816885D01*
X68353549Y-89864504D01*
X68401168Y-89959743D01*
X68401168Y-90054981D01*
X68353549Y-90150219D01*
X68305930Y-90197838D01*
X68210692Y-90245457D01*
X68020216Y-90293076D01*
X67782121Y-90293076D01*
X67591645Y-90245457D01*
X67496407Y-90197838D01*
X67448788Y-90150219D01*
X67401168Y-90054981D01*
X68401168Y-88531171D02*
X67734502Y-88531171D01*
X67829740Y-88531171D02*
X67782121Y-88483552D01*
X67734502Y-88388314D01*
X67734502Y-88245457D01*
X67782121Y-88150219D01*
X67877359Y-88102600D01*
X68401168Y-88102600D01*
X67877359Y-88102600D02*
X67782121Y-88054981D01*
X67734502Y-87959743D01*
X67734502Y-87816885D01*
X67782121Y-87721647D01*
X67877359Y-87674028D01*
X68401168Y-87674028D01*
X68401168Y-87197838D02*
X67734502Y-87197838D01*
X67829740Y-87197838D02*
X67782121Y-87150219D01*
X67734502Y-87054981D01*
X67734502Y-86912124D01*
X67782121Y-86816885D01*
X67877359Y-86769266D01*
X68401168Y-86769266D01*
X67877359Y-86769266D02*
X67782121Y-86721647D01*
X67734502Y-86626409D01*
X67734502Y-86483552D01*
X67782121Y-86388314D01*
X67877359Y-86340695D01*
X68401168Y-86340695D01*
X78498788Y-118412124D02*
X68512368Y-118412124D01*
X78498788Y-63412124D02*
X68512368Y-63412124D01*
X69098788Y-118412124D02*
X69098788Y-63412124D01*
X69098788Y-118412124D02*
X69098788Y-63412124D01*
X69098788Y-118412124D02*
X69685209Y-117285620D01*
X69098788Y-118412124D02*
X68512367Y-117285620D01*
X69098788Y-63412124D02*
X68512367Y-64538628D01*
X69098788Y-63412124D02*
X69685209Y-64538628D01*
%TO.C,DC1*%
G36*
X151023788Y-106972124D02*
G01*
X148473788Y-106972124D01*
X148483788Y-106302124D01*
X148493788Y-106312124D01*
X151023788Y-106292124D01*
X151023788Y-106972124D01*
G37*
D11*
X151023788Y-106972124D02*
X148473788Y-106972124D01*
X148483788Y-106302124D01*
X148493788Y-106312124D01*
X151023788Y-106292124D01*
X151023788Y-106972124D01*
G36*
X150278788Y-115387124D02*
G01*
X148828788Y-115387124D01*
X148828788Y-113937124D01*
X150278788Y-113937124D01*
X150278788Y-115387124D01*
G37*
X150278788Y-115387124D02*
X148828788Y-115387124D01*
X148828788Y-113937124D01*
X150278788Y-113937124D01*
X150278788Y-115387124D01*
%TO.C,P1*%
G36*
X141755788Y-71831124D02*
G01*
X141757788Y-71942124D01*
X141238788Y-71946124D01*
X141302788Y-72016124D01*
X141241788Y-72077124D01*
X141235788Y-72081124D01*
X141232788Y-72082124D01*
X141229788Y-72082124D01*
X141075788Y-71913124D01*
X141077788Y-71820124D01*
X141755788Y-71831124D01*
G37*
X141755788Y-71831124D02*
X141757788Y-71942124D01*
X141238788Y-71946124D01*
X141302788Y-72016124D01*
X141241788Y-72077124D01*
X141235788Y-72081124D01*
X141232788Y-72082124D01*
X141229788Y-72082124D01*
X141075788Y-71913124D01*
X141077788Y-71820124D01*
X141755788Y-71831124D01*
G36*
X141765788Y-72244124D02*
G01*
X141079788Y-72487124D01*
X141079788Y-72489124D01*
X141078788Y-72381124D01*
X141764788Y-72131124D01*
X141765788Y-72244124D01*
G37*
X141765788Y-72244124D02*
X141079788Y-72487124D01*
X141079788Y-72489124D01*
X141078788Y-72381124D01*
X141764788Y-72131124D01*
X141765788Y-72244124D01*
G36*
X141577788Y-72523124D02*
G01*
X141448788Y-72471124D01*
X141449788Y-72358124D01*
X141581788Y-72311124D01*
X141577788Y-72523124D01*
G37*
X141577788Y-72523124D02*
X141448788Y-72471124D01*
X141449788Y-72358124D01*
X141581788Y-72311124D01*
X141577788Y-72523124D01*
G36*
X141763788Y-72601124D02*
G01*
X141761788Y-72725124D01*
X141116788Y-72475124D01*
X141293788Y-72414124D01*
X141763788Y-72601124D01*
G37*
X141763788Y-72601124D02*
X141761788Y-72725124D01*
X141116788Y-72475124D01*
X141293788Y-72414124D01*
X141763788Y-72601124D01*
D12*
X142598788Y-72462124D02*
G75*
G03*
X142598788Y-72462124I-100000J0D01*
G01*
X142598788Y-64962124D02*
G75*
G03*
X142598788Y-64962124I-100000J0D01*
G01*
%TO.C,J2*%
G36*
X158410288Y-98212124D02*
G01*
X156886288Y-100752124D01*
X156886288Y-95672124D01*
X158410288Y-98212124D01*
G37*
D11*
X158410288Y-98212124D02*
X156886288Y-100752124D01*
X156886288Y-95672124D01*
X158410288Y-98212124D01*
%TO.C,P5*%
G36*
X154765788Y-72244124D02*
G01*
X154079788Y-72487124D01*
X154079788Y-72489124D01*
X154078788Y-72381124D01*
X154764788Y-72131124D01*
X154765788Y-72244124D01*
G37*
X154765788Y-72244124D02*
X154079788Y-72487124D01*
X154079788Y-72489124D01*
X154078788Y-72381124D01*
X154764788Y-72131124D01*
X154765788Y-72244124D01*
G36*
X154755788Y-71831124D02*
G01*
X154757788Y-71942124D01*
X154238788Y-71946124D01*
X154302788Y-72016124D01*
X154241788Y-72077124D01*
X154235788Y-72081124D01*
X154232788Y-72082124D01*
X154229788Y-72082124D01*
X154075788Y-71913124D01*
X154077788Y-71820124D01*
X154755788Y-71831124D01*
G37*
X154755788Y-71831124D02*
X154757788Y-71942124D01*
X154238788Y-71946124D01*
X154302788Y-72016124D01*
X154241788Y-72077124D01*
X154235788Y-72081124D01*
X154232788Y-72082124D01*
X154229788Y-72082124D01*
X154075788Y-71913124D01*
X154077788Y-71820124D01*
X154755788Y-71831124D01*
G36*
X154577788Y-72523124D02*
G01*
X154448788Y-72471124D01*
X154449788Y-72358124D01*
X154581788Y-72311124D01*
X154577788Y-72523124D01*
G37*
X154577788Y-72523124D02*
X154448788Y-72471124D01*
X154449788Y-72358124D01*
X154581788Y-72311124D01*
X154577788Y-72523124D01*
G36*
X154763788Y-72601124D02*
G01*
X154761788Y-72725124D01*
X154116788Y-72475124D01*
X154293788Y-72414124D01*
X154763788Y-72601124D01*
G37*
X154763788Y-72601124D02*
X154761788Y-72725124D01*
X154116788Y-72475124D01*
X154293788Y-72414124D01*
X154763788Y-72601124D01*
D12*
X155598788Y-72462124D02*
G75*
G03*
X155598788Y-72462124I-100000J0D01*
G01*
X155598788Y-64962124D02*
G75*
G03*
X155598788Y-64962124I-100000J0D01*
G01*
%TO.C,P3*%
G36*
X141763788Y-89001124D02*
G01*
X141761788Y-89125124D01*
X141116788Y-88875124D01*
X141293788Y-88814124D01*
X141763788Y-89001124D01*
G37*
D11*
X141763788Y-89001124D02*
X141761788Y-89125124D01*
X141116788Y-88875124D01*
X141293788Y-88814124D01*
X141763788Y-89001124D01*
G36*
X141765788Y-88644124D02*
G01*
X141079788Y-88887124D01*
X141079788Y-88889124D01*
X141078788Y-88781124D01*
X141764788Y-88531124D01*
X141765788Y-88644124D01*
G37*
X141765788Y-88644124D02*
X141079788Y-88887124D01*
X141079788Y-88889124D01*
X141078788Y-88781124D01*
X141764788Y-88531124D01*
X141765788Y-88644124D01*
G36*
X141755788Y-88231124D02*
G01*
X141757788Y-88342124D01*
X141238788Y-88346124D01*
X141302788Y-88416124D01*
X141241788Y-88477124D01*
X141235788Y-88481124D01*
X141232788Y-88482124D01*
X141229788Y-88482124D01*
X141075788Y-88313124D01*
X141077788Y-88220124D01*
X141755788Y-88231124D01*
G37*
X141755788Y-88231124D02*
X141757788Y-88342124D01*
X141238788Y-88346124D01*
X141302788Y-88416124D01*
X141241788Y-88477124D01*
X141235788Y-88481124D01*
X141232788Y-88482124D01*
X141229788Y-88482124D01*
X141075788Y-88313124D01*
X141077788Y-88220124D01*
X141755788Y-88231124D01*
G36*
X141577788Y-88923124D02*
G01*
X141448788Y-88871124D01*
X141449788Y-88758124D01*
X141581788Y-88711124D01*
X141577788Y-88923124D01*
G37*
X141577788Y-88923124D02*
X141448788Y-88871124D01*
X141449788Y-88758124D01*
X141581788Y-88711124D01*
X141577788Y-88923124D01*
D12*
X142598788Y-88862124D02*
G75*
G03*
X142598788Y-88862124I-100000J0D01*
G01*
X142598788Y-81362124D02*
G75*
G03*
X142598788Y-81362124I-100000J0D01*
G01*
%TO.C,P4*%
G36*
X154765788Y-88644124D02*
G01*
X154079788Y-88887124D01*
X154079788Y-88889124D01*
X154078788Y-88781124D01*
X154764788Y-88531124D01*
X154765788Y-88644124D01*
G37*
D11*
X154765788Y-88644124D02*
X154079788Y-88887124D01*
X154079788Y-88889124D01*
X154078788Y-88781124D01*
X154764788Y-88531124D01*
X154765788Y-88644124D01*
G36*
X154755788Y-88231124D02*
G01*
X154757788Y-88342124D01*
X154238788Y-88346124D01*
X154302788Y-88416124D01*
X154241788Y-88477124D01*
X154235788Y-88481124D01*
X154232788Y-88482124D01*
X154229788Y-88482124D01*
X154075788Y-88313124D01*
X154077788Y-88220124D01*
X154755788Y-88231124D01*
G37*
X154755788Y-88231124D02*
X154757788Y-88342124D01*
X154238788Y-88346124D01*
X154302788Y-88416124D01*
X154241788Y-88477124D01*
X154235788Y-88481124D01*
X154232788Y-88482124D01*
X154229788Y-88482124D01*
X154075788Y-88313124D01*
X154077788Y-88220124D01*
X154755788Y-88231124D01*
G36*
X154763788Y-89001124D02*
G01*
X154761788Y-89125124D01*
X154116788Y-88875124D01*
X154293788Y-88814124D01*
X154763788Y-89001124D01*
G37*
X154763788Y-89001124D02*
X154761788Y-89125124D01*
X154116788Y-88875124D01*
X154293788Y-88814124D01*
X154763788Y-89001124D01*
G36*
X154577788Y-88923124D02*
G01*
X154448788Y-88871124D01*
X154449788Y-88758124D01*
X154581788Y-88711124D01*
X154577788Y-88923124D01*
G37*
X154577788Y-88923124D02*
X154448788Y-88871124D01*
X154449788Y-88758124D01*
X154581788Y-88711124D01*
X154577788Y-88923124D01*
D12*
X155598788Y-88862124D02*
G75*
G03*
X155598788Y-88862124I-100000J0D01*
G01*
X155598788Y-81362124D02*
G75*
G03*
X155598788Y-81362124I-100000J0D01*
G01*
%TO.C,Card1*%
G36*
X155998788Y-75246124D02*
G01*
X143998788Y-75246124D01*
X143998788Y-74246124D01*
X155998788Y-74246124D01*
X155998788Y-75246124D01*
G37*
D11*
X155998788Y-75246124D02*
X143998788Y-75246124D01*
X143998788Y-74246124D01*
X155998788Y-74246124D01*
X155998788Y-75246124D01*
G36*
X143998788Y-75246124D02*
G01*
X142998788Y-75246124D01*
X142998788Y-63746124D01*
X143998788Y-63746124D01*
X143998788Y-75246124D01*
G37*
X143998788Y-75246124D02*
X142998788Y-75246124D01*
X142998788Y-63746124D01*
X143998788Y-63746124D01*
X143998788Y-75246124D01*
G36*
X156998788Y-75246124D02*
G01*
X155998788Y-75246124D01*
X155998788Y-63746124D01*
X156998788Y-63746124D01*
X156998788Y-75246124D01*
G37*
X156998788Y-75246124D02*
X155998788Y-75246124D01*
X155998788Y-63746124D01*
X156998788Y-63746124D01*
X156998788Y-75246124D01*
D13*
X145248788Y-67934124D02*
G75*
G03*
X145248788Y-67934124I-200000J0D01*
G01*
X153248788Y-67937124D02*
G75*
G03*
X153248788Y-67937124I-200000J0D01*
G01*
%TO.C,P1*%
G36*
X121755788Y-71831124D02*
G01*
X121757788Y-71942124D01*
X121238788Y-71946124D01*
X121302788Y-72016124D01*
X121241788Y-72077124D01*
X121235788Y-72081124D01*
X121232788Y-72082124D01*
X121229788Y-72082124D01*
X121075788Y-71913124D01*
X121077788Y-71820124D01*
X121755788Y-71831124D01*
G37*
D11*
X121755788Y-71831124D02*
X121757788Y-71942124D01*
X121238788Y-71946124D01*
X121302788Y-72016124D01*
X121241788Y-72077124D01*
X121235788Y-72081124D01*
X121232788Y-72082124D01*
X121229788Y-72082124D01*
X121075788Y-71913124D01*
X121077788Y-71820124D01*
X121755788Y-71831124D01*
G36*
X121765788Y-72244124D02*
G01*
X121079788Y-72487124D01*
X121079788Y-72489124D01*
X121078788Y-72381124D01*
X121764788Y-72131124D01*
X121765788Y-72244124D01*
G37*
X121765788Y-72244124D02*
X121079788Y-72487124D01*
X121079788Y-72489124D01*
X121078788Y-72381124D01*
X121764788Y-72131124D01*
X121765788Y-72244124D01*
G36*
X121577788Y-72523124D02*
G01*
X121448788Y-72471124D01*
X121449788Y-72358124D01*
X121581788Y-72311124D01*
X121577788Y-72523124D01*
G37*
X121577788Y-72523124D02*
X121448788Y-72471124D01*
X121449788Y-72358124D01*
X121581788Y-72311124D01*
X121577788Y-72523124D01*
G36*
X121763788Y-72601124D02*
G01*
X121761788Y-72725124D01*
X121116788Y-72475124D01*
X121293788Y-72414124D01*
X121763788Y-72601124D01*
G37*
X121763788Y-72601124D02*
X121761788Y-72725124D01*
X121116788Y-72475124D01*
X121293788Y-72414124D01*
X121763788Y-72601124D01*
D12*
X122598788Y-72462124D02*
G75*
G03*
X122598788Y-72462124I-100000J0D01*
G01*
X122598788Y-64962124D02*
G75*
G03*
X122598788Y-64962124I-100000J0D01*
G01*
%TO.C,DC1*%
G36*
X131023788Y-106972124D02*
G01*
X128473788Y-106972124D01*
X128483788Y-106302124D01*
X128493788Y-106312124D01*
X131023788Y-106292124D01*
X131023788Y-106972124D01*
G37*
D11*
X131023788Y-106972124D02*
X128473788Y-106972124D01*
X128483788Y-106302124D01*
X128493788Y-106312124D01*
X131023788Y-106292124D01*
X131023788Y-106972124D01*
G36*
X130278788Y-115387124D02*
G01*
X128828788Y-115387124D01*
X128828788Y-113937124D01*
X130278788Y-113937124D01*
X130278788Y-115387124D01*
G37*
X130278788Y-115387124D02*
X128828788Y-115387124D01*
X128828788Y-113937124D01*
X130278788Y-113937124D01*
X130278788Y-115387124D01*
%TO.C,Card1*%
G36*
X135998788Y-75246124D02*
G01*
X123998788Y-75246124D01*
X123998788Y-74246124D01*
X135998788Y-74246124D01*
X135998788Y-75246124D01*
G37*
X135998788Y-75246124D02*
X123998788Y-75246124D01*
X123998788Y-74246124D01*
X135998788Y-74246124D01*
X135998788Y-75246124D01*
G36*
X123998788Y-75246124D02*
G01*
X122998788Y-75246124D01*
X122998788Y-63746124D01*
X123998788Y-63746124D01*
X123998788Y-75246124D01*
G37*
X123998788Y-75246124D02*
X122998788Y-75246124D01*
X122998788Y-63746124D01*
X123998788Y-63746124D01*
X123998788Y-75246124D01*
G36*
X136998788Y-75246124D02*
G01*
X135998788Y-75246124D01*
X135998788Y-63746124D01*
X136998788Y-63746124D01*
X136998788Y-75246124D01*
G37*
X136998788Y-75246124D02*
X135998788Y-75246124D01*
X135998788Y-63746124D01*
X136998788Y-63746124D01*
X136998788Y-75246124D01*
D13*
X125248788Y-67934124D02*
G75*
G03*
X125248788Y-67934124I-200000J0D01*
G01*
X133248788Y-67937124D02*
G75*
G03*
X133248788Y-67937124I-200000J0D01*
G01*
%TO.C,P3*%
G36*
X121763788Y-89001124D02*
G01*
X121761788Y-89125124D01*
X121116788Y-88875124D01*
X121293788Y-88814124D01*
X121763788Y-89001124D01*
G37*
D11*
X121763788Y-89001124D02*
X121761788Y-89125124D01*
X121116788Y-88875124D01*
X121293788Y-88814124D01*
X121763788Y-89001124D01*
G36*
X121765788Y-88644124D02*
G01*
X121079788Y-88887124D01*
X121079788Y-88889124D01*
X121078788Y-88781124D01*
X121764788Y-88531124D01*
X121765788Y-88644124D01*
G37*
X121765788Y-88644124D02*
X121079788Y-88887124D01*
X121079788Y-88889124D01*
X121078788Y-88781124D01*
X121764788Y-88531124D01*
X121765788Y-88644124D01*
G36*
X121755788Y-88231124D02*
G01*
X121757788Y-88342124D01*
X121238788Y-88346124D01*
X121302788Y-88416124D01*
X121241788Y-88477124D01*
X121235788Y-88481124D01*
X121232788Y-88482124D01*
X121229788Y-88482124D01*
X121075788Y-88313124D01*
X121077788Y-88220124D01*
X121755788Y-88231124D01*
G37*
X121755788Y-88231124D02*
X121757788Y-88342124D01*
X121238788Y-88346124D01*
X121302788Y-88416124D01*
X121241788Y-88477124D01*
X121235788Y-88481124D01*
X121232788Y-88482124D01*
X121229788Y-88482124D01*
X121075788Y-88313124D01*
X121077788Y-88220124D01*
X121755788Y-88231124D01*
G36*
X121577788Y-88923124D02*
G01*
X121448788Y-88871124D01*
X121449788Y-88758124D01*
X121581788Y-88711124D01*
X121577788Y-88923124D01*
G37*
X121577788Y-88923124D02*
X121448788Y-88871124D01*
X121449788Y-88758124D01*
X121581788Y-88711124D01*
X121577788Y-88923124D01*
D12*
X122598788Y-88862124D02*
G75*
G03*
X122598788Y-88862124I-100000J0D01*
G01*
X122598788Y-81362124D02*
G75*
G03*
X122598788Y-81362124I-100000J0D01*
G01*
%TO.C,P4*%
G36*
X134765788Y-88644124D02*
G01*
X134079788Y-88887124D01*
X134079788Y-88889124D01*
X134078788Y-88781124D01*
X134764788Y-88531124D01*
X134765788Y-88644124D01*
G37*
D11*
X134765788Y-88644124D02*
X134079788Y-88887124D01*
X134079788Y-88889124D01*
X134078788Y-88781124D01*
X134764788Y-88531124D01*
X134765788Y-88644124D01*
G36*
X134755788Y-88231124D02*
G01*
X134757788Y-88342124D01*
X134238788Y-88346124D01*
X134302788Y-88416124D01*
X134241788Y-88477124D01*
X134235788Y-88481124D01*
X134232788Y-88482124D01*
X134229788Y-88482124D01*
X134075788Y-88313124D01*
X134077788Y-88220124D01*
X134755788Y-88231124D01*
G37*
X134755788Y-88231124D02*
X134757788Y-88342124D01*
X134238788Y-88346124D01*
X134302788Y-88416124D01*
X134241788Y-88477124D01*
X134235788Y-88481124D01*
X134232788Y-88482124D01*
X134229788Y-88482124D01*
X134075788Y-88313124D01*
X134077788Y-88220124D01*
X134755788Y-88231124D01*
G36*
X134763788Y-89001124D02*
G01*
X134761788Y-89125124D01*
X134116788Y-88875124D01*
X134293788Y-88814124D01*
X134763788Y-89001124D01*
G37*
X134763788Y-89001124D02*
X134761788Y-89125124D01*
X134116788Y-88875124D01*
X134293788Y-88814124D01*
X134763788Y-89001124D01*
G36*
X134577788Y-88923124D02*
G01*
X134448788Y-88871124D01*
X134449788Y-88758124D01*
X134581788Y-88711124D01*
X134577788Y-88923124D01*
G37*
X134577788Y-88923124D02*
X134448788Y-88871124D01*
X134449788Y-88758124D01*
X134581788Y-88711124D01*
X134577788Y-88923124D01*
D12*
X135598788Y-88862124D02*
G75*
G03*
X135598788Y-88862124I-100000J0D01*
G01*
X135598788Y-81362124D02*
G75*
G03*
X135598788Y-81362124I-100000J0D01*
G01*
%TO.C,P5*%
G36*
X134765788Y-72244124D02*
G01*
X134079788Y-72487124D01*
X134079788Y-72489124D01*
X134078788Y-72381124D01*
X134764788Y-72131124D01*
X134765788Y-72244124D01*
G37*
D11*
X134765788Y-72244124D02*
X134079788Y-72487124D01*
X134079788Y-72489124D01*
X134078788Y-72381124D01*
X134764788Y-72131124D01*
X134765788Y-72244124D01*
G36*
X134755788Y-71831124D02*
G01*
X134757788Y-71942124D01*
X134238788Y-71946124D01*
X134302788Y-72016124D01*
X134241788Y-72077124D01*
X134235788Y-72081124D01*
X134232788Y-72082124D01*
X134229788Y-72082124D01*
X134075788Y-71913124D01*
X134077788Y-71820124D01*
X134755788Y-71831124D01*
G37*
X134755788Y-71831124D02*
X134757788Y-71942124D01*
X134238788Y-71946124D01*
X134302788Y-72016124D01*
X134241788Y-72077124D01*
X134235788Y-72081124D01*
X134232788Y-72082124D01*
X134229788Y-72082124D01*
X134075788Y-71913124D01*
X134077788Y-71820124D01*
X134755788Y-71831124D01*
G36*
X134577788Y-72523124D02*
G01*
X134448788Y-72471124D01*
X134449788Y-72358124D01*
X134581788Y-72311124D01*
X134577788Y-72523124D01*
G37*
X134577788Y-72523124D02*
X134448788Y-72471124D01*
X134449788Y-72358124D01*
X134581788Y-72311124D01*
X134577788Y-72523124D01*
G36*
X134763788Y-72601124D02*
G01*
X134761788Y-72725124D01*
X134116788Y-72475124D01*
X134293788Y-72414124D01*
X134763788Y-72601124D01*
G37*
X134763788Y-72601124D02*
X134761788Y-72725124D01*
X134116788Y-72475124D01*
X134293788Y-72414124D01*
X134763788Y-72601124D01*
D12*
X135598788Y-72462124D02*
G75*
G03*
X135598788Y-72462124I-100000J0D01*
G01*
X135598788Y-64962124D02*
G75*
G03*
X135598788Y-64962124I-100000J0D01*
G01*
%TO.C,J2*%
G36*
X138410288Y-98212124D02*
G01*
X136886288Y-100752124D01*
X136886288Y-95672124D01*
X138410288Y-98212124D01*
G37*
D11*
X138410288Y-98212124D02*
X136886288Y-100752124D01*
X136886288Y-95672124D01*
X138410288Y-98212124D01*
%TO.C,DC1*%
G36*
X111023788Y-106972124D02*
G01*
X108473788Y-106972124D01*
X108483788Y-106302124D01*
X108493788Y-106312124D01*
X111023788Y-106292124D01*
X111023788Y-106972124D01*
G37*
X111023788Y-106972124D02*
X108473788Y-106972124D01*
X108483788Y-106302124D01*
X108493788Y-106312124D01*
X111023788Y-106292124D01*
X111023788Y-106972124D01*
G36*
X110278788Y-115387124D02*
G01*
X108828788Y-115387124D01*
X108828788Y-113937124D01*
X110278788Y-113937124D01*
X110278788Y-115387124D01*
G37*
X110278788Y-115387124D02*
X108828788Y-115387124D01*
X108828788Y-113937124D01*
X110278788Y-113937124D01*
X110278788Y-115387124D01*
%TO.C,P1*%
G36*
X101755788Y-71831124D02*
G01*
X101757788Y-71942124D01*
X101238788Y-71946124D01*
X101302788Y-72016124D01*
X101241788Y-72077124D01*
X101235788Y-72081124D01*
X101232788Y-72082124D01*
X101229788Y-72082124D01*
X101075788Y-71913124D01*
X101077788Y-71820124D01*
X101755788Y-71831124D01*
G37*
X101755788Y-71831124D02*
X101757788Y-71942124D01*
X101238788Y-71946124D01*
X101302788Y-72016124D01*
X101241788Y-72077124D01*
X101235788Y-72081124D01*
X101232788Y-72082124D01*
X101229788Y-72082124D01*
X101075788Y-71913124D01*
X101077788Y-71820124D01*
X101755788Y-71831124D01*
G36*
X101765788Y-72244124D02*
G01*
X101079788Y-72487124D01*
X101079788Y-72489124D01*
X101078788Y-72381124D01*
X101764788Y-72131124D01*
X101765788Y-72244124D01*
G37*
X101765788Y-72244124D02*
X101079788Y-72487124D01*
X101079788Y-72489124D01*
X101078788Y-72381124D01*
X101764788Y-72131124D01*
X101765788Y-72244124D01*
G36*
X101577788Y-72523124D02*
G01*
X101448788Y-72471124D01*
X101449788Y-72358124D01*
X101581788Y-72311124D01*
X101577788Y-72523124D01*
G37*
X101577788Y-72523124D02*
X101448788Y-72471124D01*
X101449788Y-72358124D01*
X101581788Y-72311124D01*
X101577788Y-72523124D01*
G36*
X101763788Y-72601124D02*
G01*
X101761788Y-72725124D01*
X101116788Y-72475124D01*
X101293788Y-72414124D01*
X101763788Y-72601124D01*
G37*
X101763788Y-72601124D02*
X101761788Y-72725124D01*
X101116788Y-72475124D01*
X101293788Y-72414124D01*
X101763788Y-72601124D01*
D12*
X102598788Y-72462124D02*
G75*
G03*
X102598788Y-72462124I-100000J0D01*
G01*
X102598788Y-64962124D02*
G75*
G03*
X102598788Y-64962124I-100000J0D01*
G01*
%TO.C,J2*%
G36*
X118410288Y-98212124D02*
G01*
X116886288Y-100752124D01*
X116886288Y-95672124D01*
X118410288Y-98212124D01*
G37*
D11*
X118410288Y-98212124D02*
X116886288Y-100752124D01*
X116886288Y-95672124D01*
X118410288Y-98212124D01*
%TO.C,P5*%
G36*
X114765788Y-72244124D02*
G01*
X114079788Y-72487124D01*
X114079788Y-72489124D01*
X114078788Y-72381124D01*
X114764788Y-72131124D01*
X114765788Y-72244124D01*
G37*
X114765788Y-72244124D02*
X114079788Y-72487124D01*
X114079788Y-72489124D01*
X114078788Y-72381124D01*
X114764788Y-72131124D01*
X114765788Y-72244124D01*
G36*
X114755788Y-71831124D02*
G01*
X114757788Y-71942124D01*
X114238788Y-71946124D01*
X114302788Y-72016124D01*
X114241788Y-72077124D01*
X114235788Y-72081124D01*
X114232788Y-72082124D01*
X114229788Y-72082124D01*
X114075788Y-71913124D01*
X114077788Y-71820124D01*
X114755788Y-71831124D01*
G37*
X114755788Y-71831124D02*
X114757788Y-71942124D01*
X114238788Y-71946124D01*
X114302788Y-72016124D01*
X114241788Y-72077124D01*
X114235788Y-72081124D01*
X114232788Y-72082124D01*
X114229788Y-72082124D01*
X114075788Y-71913124D01*
X114077788Y-71820124D01*
X114755788Y-71831124D01*
G36*
X114577788Y-72523124D02*
G01*
X114448788Y-72471124D01*
X114449788Y-72358124D01*
X114581788Y-72311124D01*
X114577788Y-72523124D01*
G37*
X114577788Y-72523124D02*
X114448788Y-72471124D01*
X114449788Y-72358124D01*
X114581788Y-72311124D01*
X114577788Y-72523124D01*
G36*
X114763788Y-72601124D02*
G01*
X114761788Y-72725124D01*
X114116788Y-72475124D01*
X114293788Y-72414124D01*
X114763788Y-72601124D01*
G37*
X114763788Y-72601124D02*
X114761788Y-72725124D01*
X114116788Y-72475124D01*
X114293788Y-72414124D01*
X114763788Y-72601124D01*
D12*
X115598788Y-72462124D02*
G75*
G03*
X115598788Y-72462124I-100000J0D01*
G01*
X115598788Y-64962124D02*
G75*
G03*
X115598788Y-64962124I-100000J0D01*
G01*
%TO.C,Card1*%
G36*
X115998788Y-75246124D02*
G01*
X103998788Y-75246124D01*
X103998788Y-74246124D01*
X115998788Y-74246124D01*
X115998788Y-75246124D01*
G37*
D11*
X115998788Y-75246124D02*
X103998788Y-75246124D01*
X103998788Y-74246124D01*
X115998788Y-74246124D01*
X115998788Y-75246124D01*
G36*
X103998788Y-75246124D02*
G01*
X102998788Y-75246124D01*
X102998788Y-63746124D01*
X103998788Y-63746124D01*
X103998788Y-75246124D01*
G37*
X103998788Y-75246124D02*
X102998788Y-75246124D01*
X102998788Y-63746124D01*
X103998788Y-63746124D01*
X103998788Y-75246124D01*
G36*
X116998788Y-75246124D02*
G01*
X115998788Y-75246124D01*
X115998788Y-63746124D01*
X116998788Y-63746124D01*
X116998788Y-75246124D01*
G37*
X116998788Y-75246124D02*
X115998788Y-75246124D01*
X115998788Y-63746124D01*
X116998788Y-63746124D01*
X116998788Y-75246124D01*
D13*
X105248788Y-67934124D02*
G75*
G03*
X105248788Y-67934124I-200000J0D01*
G01*
X113248788Y-67937124D02*
G75*
G03*
X113248788Y-67937124I-200000J0D01*
G01*
%TO.C,P3*%
G36*
X101763788Y-89001124D02*
G01*
X101761788Y-89125124D01*
X101116788Y-88875124D01*
X101293788Y-88814124D01*
X101763788Y-89001124D01*
G37*
D11*
X101763788Y-89001124D02*
X101761788Y-89125124D01*
X101116788Y-88875124D01*
X101293788Y-88814124D01*
X101763788Y-89001124D01*
G36*
X101765788Y-88644124D02*
G01*
X101079788Y-88887124D01*
X101079788Y-88889124D01*
X101078788Y-88781124D01*
X101764788Y-88531124D01*
X101765788Y-88644124D01*
G37*
X101765788Y-88644124D02*
X101079788Y-88887124D01*
X101079788Y-88889124D01*
X101078788Y-88781124D01*
X101764788Y-88531124D01*
X101765788Y-88644124D01*
G36*
X101755788Y-88231124D02*
G01*
X101757788Y-88342124D01*
X101238788Y-88346124D01*
X101302788Y-88416124D01*
X101241788Y-88477124D01*
X101235788Y-88481124D01*
X101232788Y-88482124D01*
X101229788Y-88482124D01*
X101075788Y-88313124D01*
X101077788Y-88220124D01*
X101755788Y-88231124D01*
G37*
X101755788Y-88231124D02*
X101757788Y-88342124D01*
X101238788Y-88346124D01*
X101302788Y-88416124D01*
X101241788Y-88477124D01*
X101235788Y-88481124D01*
X101232788Y-88482124D01*
X101229788Y-88482124D01*
X101075788Y-88313124D01*
X101077788Y-88220124D01*
X101755788Y-88231124D01*
G36*
X101577788Y-88923124D02*
G01*
X101448788Y-88871124D01*
X101449788Y-88758124D01*
X101581788Y-88711124D01*
X101577788Y-88923124D01*
G37*
X101577788Y-88923124D02*
X101448788Y-88871124D01*
X101449788Y-88758124D01*
X101581788Y-88711124D01*
X101577788Y-88923124D01*
D12*
X102598788Y-88862124D02*
G75*
G03*
X102598788Y-88862124I-100000J0D01*
G01*
X102598788Y-81362124D02*
G75*
G03*
X102598788Y-81362124I-100000J0D01*
G01*
%TO.C,P4*%
G36*
X114765788Y-88644124D02*
G01*
X114079788Y-88887124D01*
X114079788Y-88889124D01*
X114078788Y-88781124D01*
X114764788Y-88531124D01*
X114765788Y-88644124D01*
G37*
D11*
X114765788Y-88644124D02*
X114079788Y-88887124D01*
X114079788Y-88889124D01*
X114078788Y-88781124D01*
X114764788Y-88531124D01*
X114765788Y-88644124D01*
G36*
X114755788Y-88231124D02*
G01*
X114757788Y-88342124D01*
X114238788Y-88346124D01*
X114302788Y-88416124D01*
X114241788Y-88477124D01*
X114235788Y-88481124D01*
X114232788Y-88482124D01*
X114229788Y-88482124D01*
X114075788Y-88313124D01*
X114077788Y-88220124D01*
X114755788Y-88231124D01*
G37*
X114755788Y-88231124D02*
X114757788Y-88342124D01*
X114238788Y-88346124D01*
X114302788Y-88416124D01*
X114241788Y-88477124D01*
X114235788Y-88481124D01*
X114232788Y-88482124D01*
X114229788Y-88482124D01*
X114075788Y-88313124D01*
X114077788Y-88220124D01*
X114755788Y-88231124D01*
G36*
X114763788Y-89001124D02*
G01*
X114761788Y-89125124D01*
X114116788Y-88875124D01*
X114293788Y-88814124D01*
X114763788Y-89001124D01*
G37*
X114763788Y-89001124D02*
X114761788Y-89125124D01*
X114116788Y-88875124D01*
X114293788Y-88814124D01*
X114763788Y-89001124D01*
G36*
X114577788Y-88923124D02*
G01*
X114448788Y-88871124D01*
X114449788Y-88758124D01*
X114581788Y-88711124D01*
X114577788Y-88923124D01*
G37*
X114577788Y-88923124D02*
X114448788Y-88871124D01*
X114449788Y-88758124D01*
X114581788Y-88711124D01*
X114577788Y-88923124D01*
D12*
X115598788Y-88862124D02*
G75*
G03*
X115598788Y-88862124I-100000J0D01*
G01*
X115598788Y-81362124D02*
G75*
G03*
X115598788Y-81362124I-100000J0D01*
G01*
%TO.C,P5*%
G36*
X94765788Y-72244124D02*
G01*
X94079788Y-72487124D01*
X94079788Y-72489124D01*
X94078788Y-72381124D01*
X94764788Y-72131124D01*
X94765788Y-72244124D01*
G37*
D11*
X94765788Y-72244124D02*
X94079788Y-72487124D01*
X94079788Y-72489124D01*
X94078788Y-72381124D01*
X94764788Y-72131124D01*
X94765788Y-72244124D01*
G36*
X94755788Y-71831124D02*
G01*
X94757788Y-71942124D01*
X94238788Y-71946124D01*
X94302788Y-72016124D01*
X94241788Y-72077124D01*
X94235788Y-72081124D01*
X94232788Y-72082124D01*
X94229788Y-72082124D01*
X94075788Y-71913124D01*
X94077788Y-71820124D01*
X94755788Y-71831124D01*
G37*
X94755788Y-71831124D02*
X94757788Y-71942124D01*
X94238788Y-71946124D01*
X94302788Y-72016124D01*
X94241788Y-72077124D01*
X94235788Y-72081124D01*
X94232788Y-72082124D01*
X94229788Y-72082124D01*
X94075788Y-71913124D01*
X94077788Y-71820124D01*
X94755788Y-71831124D01*
G36*
X94577788Y-72523124D02*
G01*
X94448788Y-72471124D01*
X94449788Y-72358124D01*
X94581788Y-72311124D01*
X94577788Y-72523124D01*
G37*
X94577788Y-72523124D02*
X94448788Y-72471124D01*
X94449788Y-72358124D01*
X94581788Y-72311124D01*
X94577788Y-72523124D01*
G36*
X94763788Y-72601124D02*
G01*
X94761788Y-72725124D01*
X94116788Y-72475124D01*
X94293788Y-72414124D01*
X94763788Y-72601124D01*
G37*
X94763788Y-72601124D02*
X94761788Y-72725124D01*
X94116788Y-72475124D01*
X94293788Y-72414124D01*
X94763788Y-72601124D01*
D12*
X95598788Y-72462124D02*
G75*
G03*
X95598788Y-72462124I-100000J0D01*
G01*
X95598788Y-64962124D02*
G75*
G03*
X95598788Y-64962124I-100000J0D01*
G01*
%TO.C,J2*%
G36*
X98410288Y-98212124D02*
G01*
X96886288Y-100752124D01*
X96886288Y-95672124D01*
X98410288Y-98212124D01*
G37*
D11*
X98410288Y-98212124D02*
X96886288Y-100752124D01*
X96886288Y-95672124D01*
X98410288Y-98212124D01*
%TO.C,P4*%
G36*
X94765788Y-88644124D02*
G01*
X94079788Y-88887124D01*
X94079788Y-88889124D01*
X94078788Y-88781124D01*
X94764788Y-88531124D01*
X94765788Y-88644124D01*
G37*
X94765788Y-88644124D02*
X94079788Y-88887124D01*
X94079788Y-88889124D01*
X94078788Y-88781124D01*
X94764788Y-88531124D01*
X94765788Y-88644124D01*
G36*
X94755788Y-88231124D02*
G01*
X94757788Y-88342124D01*
X94238788Y-88346124D01*
X94302788Y-88416124D01*
X94241788Y-88477124D01*
X94235788Y-88481124D01*
X94232788Y-88482124D01*
X94229788Y-88482124D01*
X94075788Y-88313124D01*
X94077788Y-88220124D01*
X94755788Y-88231124D01*
G37*
X94755788Y-88231124D02*
X94757788Y-88342124D01*
X94238788Y-88346124D01*
X94302788Y-88416124D01*
X94241788Y-88477124D01*
X94235788Y-88481124D01*
X94232788Y-88482124D01*
X94229788Y-88482124D01*
X94075788Y-88313124D01*
X94077788Y-88220124D01*
X94755788Y-88231124D01*
G36*
X94763788Y-89001124D02*
G01*
X94761788Y-89125124D01*
X94116788Y-88875124D01*
X94293788Y-88814124D01*
X94763788Y-89001124D01*
G37*
X94763788Y-89001124D02*
X94761788Y-89125124D01*
X94116788Y-88875124D01*
X94293788Y-88814124D01*
X94763788Y-89001124D01*
G36*
X94577788Y-88923124D02*
G01*
X94448788Y-88871124D01*
X94449788Y-88758124D01*
X94581788Y-88711124D01*
X94577788Y-88923124D01*
G37*
X94577788Y-88923124D02*
X94448788Y-88871124D01*
X94449788Y-88758124D01*
X94581788Y-88711124D01*
X94577788Y-88923124D01*
D12*
X95598788Y-88862124D02*
G75*
G03*
X95598788Y-88862124I-100000J0D01*
G01*
X95598788Y-81362124D02*
G75*
G03*
X95598788Y-81362124I-100000J0D01*
G01*
%TO.C,P3*%
G36*
X81763788Y-89001124D02*
G01*
X81761788Y-89125124D01*
X81116788Y-88875124D01*
X81293788Y-88814124D01*
X81763788Y-89001124D01*
G37*
D11*
X81763788Y-89001124D02*
X81761788Y-89125124D01*
X81116788Y-88875124D01*
X81293788Y-88814124D01*
X81763788Y-89001124D01*
G36*
X81765788Y-88644124D02*
G01*
X81079788Y-88887124D01*
X81079788Y-88889124D01*
X81078788Y-88781124D01*
X81764788Y-88531124D01*
X81765788Y-88644124D01*
G37*
X81765788Y-88644124D02*
X81079788Y-88887124D01*
X81079788Y-88889124D01*
X81078788Y-88781124D01*
X81764788Y-88531124D01*
X81765788Y-88644124D01*
G36*
X81755788Y-88231124D02*
G01*
X81757788Y-88342124D01*
X81238788Y-88346124D01*
X81302788Y-88416124D01*
X81241788Y-88477124D01*
X81235788Y-88481124D01*
X81232788Y-88482124D01*
X81229788Y-88482124D01*
X81075788Y-88313124D01*
X81077788Y-88220124D01*
X81755788Y-88231124D01*
G37*
X81755788Y-88231124D02*
X81757788Y-88342124D01*
X81238788Y-88346124D01*
X81302788Y-88416124D01*
X81241788Y-88477124D01*
X81235788Y-88481124D01*
X81232788Y-88482124D01*
X81229788Y-88482124D01*
X81075788Y-88313124D01*
X81077788Y-88220124D01*
X81755788Y-88231124D01*
G36*
X81577788Y-88923124D02*
G01*
X81448788Y-88871124D01*
X81449788Y-88758124D01*
X81581788Y-88711124D01*
X81577788Y-88923124D01*
G37*
X81577788Y-88923124D02*
X81448788Y-88871124D01*
X81449788Y-88758124D01*
X81581788Y-88711124D01*
X81577788Y-88923124D01*
D12*
X82598788Y-88862124D02*
G75*
G03*
X82598788Y-88862124I-100000J0D01*
G01*
X82598788Y-81362124D02*
G75*
G03*
X82598788Y-81362124I-100000J0D01*
G01*
%TO.C,DC1*%
G36*
X91023788Y-106972124D02*
G01*
X88473788Y-106972124D01*
X88483788Y-106302124D01*
X88493788Y-106312124D01*
X91023788Y-106292124D01*
X91023788Y-106972124D01*
G37*
D11*
X91023788Y-106972124D02*
X88473788Y-106972124D01*
X88483788Y-106302124D01*
X88493788Y-106312124D01*
X91023788Y-106292124D01*
X91023788Y-106972124D01*
G36*
X90278788Y-115387124D02*
G01*
X88828788Y-115387124D01*
X88828788Y-113937124D01*
X90278788Y-113937124D01*
X90278788Y-115387124D01*
G37*
X90278788Y-115387124D02*
X88828788Y-115387124D01*
X88828788Y-113937124D01*
X90278788Y-113937124D01*
X90278788Y-115387124D01*
%TO.C,P1*%
G36*
X81755788Y-71831124D02*
G01*
X81757788Y-71942124D01*
X81238788Y-71946124D01*
X81302788Y-72016124D01*
X81241788Y-72077124D01*
X81235788Y-72081124D01*
X81232788Y-72082124D01*
X81229788Y-72082124D01*
X81075788Y-71913124D01*
X81077788Y-71820124D01*
X81755788Y-71831124D01*
G37*
X81755788Y-71831124D02*
X81757788Y-71942124D01*
X81238788Y-71946124D01*
X81302788Y-72016124D01*
X81241788Y-72077124D01*
X81235788Y-72081124D01*
X81232788Y-72082124D01*
X81229788Y-72082124D01*
X81075788Y-71913124D01*
X81077788Y-71820124D01*
X81755788Y-71831124D01*
G36*
X81765788Y-72244124D02*
G01*
X81079788Y-72487124D01*
X81079788Y-72489124D01*
X81078788Y-72381124D01*
X81764788Y-72131124D01*
X81765788Y-72244124D01*
G37*
X81765788Y-72244124D02*
X81079788Y-72487124D01*
X81079788Y-72489124D01*
X81078788Y-72381124D01*
X81764788Y-72131124D01*
X81765788Y-72244124D01*
G36*
X81577788Y-72523124D02*
G01*
X81448788Y-72471124D01*
X81449788Y-72358124D01*
X81581788Y-72311124D01*
X81577788Y-72523124D01*
G37*
X81577788Y-72523124D02*
X81448788Y-72471124D01*
X81449788Y-72358124D01*
X81581788Y-72311124D01*
X81577788Y-72523124D01*
G36*
X81763788Y-72601124D02*
G01*
X81761788Y-72725124D01*
X81116788Y-72475124D01*
X81293788Y-72414124D01*
X81763788Y-72601124D01*
G37*
X81763788Y-72601124D02*
X81761788Y-72725124D01*
X81116788Y-72475124D01*
X81293788Y-72414124D01*
X81763788Y-72601124D01*
D12*
X82598788Y-72462124D02*
G75*
G03*
X82598788Y-72462124I-100000J0D01*
G01*
X82598788Y-64962124D02*
G75*
G03*
X82598788Y-64962124I-100000J0D01*
G01*
%TO.C,Card1*%
G36*
X95998788Y-75246124D02*
G01*
X83998788Y-75246124D01*
X83998788Y-74246124D01*
X95998788Y-74246124D01*
X95998788Y-75246124D01*
G37*
D11*
X95998788Y-75246124D02*
X83998788Y-75246124D01*
X83998788Y-74246124D01*
X95998788Y-74246124D01*
X95998788Y-75246124D01*
G36*
X83998788Y-75246124D02*
G01*
X82998788Y-75246124D01*
X82998788Y-63746124D01*
X83998788Y-63746124D01*
X83998788Y-75246124D01*
G37*
X83998788Y-75246124D02*
X82998788Y-75246124D01*
X82998788Y-63746124D01*
X83998788Y-63746124D01*
X83998788Y-75246124D01*
G36*
X96998788Y-75246124D02*
G01*
X95998788Y-75246124D01*
X95998788Y-63746124D01*
X96998788Y-63746124D01*
X96998788Y-75246124D01*
G37*
X96998788Y-75246124D02*
X95998788Y-75246124D01*
X95998788Y-63746124D01*
X96998788Y-63746124D01*
X96998788Y-75246124D01*
D13*
X85248788Y-67934124D02*
G75*
G03*
X85248788Y-67934124I-200000J0D01*
G01*
X93248788Y-67937124D02*
G75*
G03*
X93248788Y-67937124I-200000J0D01*
G01*
%TD*%
M02*
