M48
; DRILL file {KiCad (6.0.7)} date Mon Aug 28 04:04:48 2023
; FORMAT={-:-/ absolute / inch / decimal}
; #@! TF.CreationDate,2023-08-28T04:04:48+08:00
; #@! TF.GenerationSoftware,Kicad,Pcbnew,(6.0.7)
; #@! TF.FileFunction,MixedPlating,1,4
FMAT,2
INCH
; #@! TA.AperFunction,Plated,PTH,ViaDrill
T1C0.0059
; #@! TA.AperFunction,Plated,PTH,ViaDrill
T2C0.0079
; #@! TA.AperFunction,Plated,PTH,ViaDrill
T3C0.0118
; #@! TA.AperFunction,Plated,PTH,ViaDrill
T4C0.0157
; #@! TA.AperFunction,Plated,PTH,ComponentDrill
T5C0.0236
; #@! TA.AperFunction,Plated,PTH,ComponentDrill
T6C0.0240
; #@! TA.AperFunction,Plated,PTH,ComponentDrill
T7C0.0276
; #@! TA.AperFunction,Plated,PTH,ViaDrill
T8C0.0315
; #@! TA.AperFunction,Plated,PTH,ComponentDrill
T9C0.0394
; #@! TA.AperFunction,NonPlated,NPTH,ComponentDrill
T10C0.0236
; #@! TA.AperFunction,NonPlated,NPTH,ComponentDrill
T11C0.0256
; #@! TA.AperFunction,NonPlated,NPTH,ComponentDrill
T12C0.0394
; #@! TA.AperFunction,NonPlated,NPTH,ComponentDrill
T13C0.0906
%
G90
G05
T1
X3.2106Y-3.3607
X3.2126Y-3.341
X3.3759Y-3.3213
X3.3937Y-3.3312
X3.4448Y-3.3469
X3.4665Y-3.3548
X3.5039Y-3.2879
X3.5216Y-3.2997
X3.5238Y-2.9017
X3.5295Y-2.8843
X3.5393Y-3.8587
X3.559Y-2.9099
X3.559Y-3.782
X3.5728Y-2.9257
X3.5984Y-2.9709
X3.6141Y-2.9808
X3.6496Y-3.2091
X3.6633Y-3.1954
X3.7106Y-3.341
X3.7145Y-2.6954
X3.7145Y-2.715
X3.7165Y-3.1954
X3.7224Y-3.3607
X3.7324Y-3.1875
X3.998Y-3.3607
X4.0Y-3.341
X4.1633Y-3.3213
X4.1811Y-3.3312
X4.2322Y-3.3469
X4.2539Y-3.3548
X4.2913Y-3.2879
X4.309Y-3.2997
X4.3112Y-2.9017
X4.3169Y-2.8843
X4.3267Y-3.8587
X4.3464Y-2.9099
X4.3464Y-3.782
X4.3602Y-2.9257
X4.3858Y-2.9709
X4.4015Y-2.9808
X4.437Y-3.2091
X4.4507Y-3.1954
X4.498Y-3.341
X4.5019Y-2.6954
X4.5019Y-2.715
X4.5039Y-3.1954
X4.5098Y-3.3607
X4.5198Y-3.1875
X4.7854Y-3.3607
X4.7874Y-3.341
X4.9507Y-3.3213
X4.9685Y-3.3312
X5.0196Y-3.3469
X5.0413Y-3.3548
X5.0787Y-3.2879
X5.0964Y-3.2997
X5.0986Y-2.9017
X5.1043Y-2.8843
X5.1141Y-3.8587
X5.1338Y-2.9099
X5.1338Y-3.782
X5.1476Y-2.9257
X5.1732Y-2.9709
X5.1889Y-2.9808
X5.2244Y-3.2091
X5.2381Y-3.1954
X5.2854Y-3.341
X5.2893Y-2.6954
X5.2893Y-2.715
X5.2913Y-3.1954
X5.2972Y-3.3607
X5.3072Y-3.1875
X5.5728Y-3.3607
X5.5748Y-3.341
X5.7381Y-3.3213
X5.7559Y-3.3312
X5.807Y-3.3469
X5.8287Y-3.3548
X5.8661Y-3.2879
X5.8838Y-3.2997
X5.886Y-2.9017
X5.8917Y-2.8843
X5.9015Y-3.8587
X5.9212Y-2.9099
X5.9212Y-3.782
X5.935Y-2.9257
X5.9606Y-2.9709
X5.9763Y-2.9808
X6.0118Y-3.2091
X6.0255Y-3.1954
X6.0728Y-3.341
X6.0767Y-2.6954
X6.0767Y-2.715
X6.0787Y-3.1954
X6.0846Y-3.3607
X6.0946Y-3.1875
T2
X3.1456Y-2.6717
X3.1476Y-3.3174
X3.1535Y-3.1343
X3.1673Y-2.9729
X3.1909Y-2.8568
X3.1968Y-3.9178
X3.2007Y-2.656
X3.2027Y-2.7564
X3.2047Y-3.0517
X3.2126Y-2.5477
X3.2303Y-2.7564
X3.2362Y-3.8942
X3.246Y-3.4375
X3.248Y-3.3509
X3.2539Y-4.5477
X3.2696Y-3.2761
X3.2696Y-3.6835
X3.2795Y-2.908
X3.2814Y-2.6521
X3.2814Y-2.7584
X3.3838Y-3.4276
X3.3937Y-3.0477
X3.4173Y-3.343
X3.4389Y-3.3036
X3.4468Y-2.5517
X3.4468Y-3.5635
X3.4842Y-3.0477
X3.559Y-2.6048
X3.5688Y-3.2958
X3.6082Y-3.2328
X3.6161Y-2.6186
X3.6161Y-3.5595
X3.6413Y-3.0237
X3.6614Y-3.3863
X3.6954Y-2.9035
X3.7086Y-3.0881
X3.7598Y-3.2643
X3.7598Y-3.3509
X3.7598Y-3.4375
X3.807Y-4.5339
X3.8582Y-3.1599
X3.8661Y-3.3253
X3.8799Y-2.6324
X3.933Y-2.6717
X3.935Y-3.3174
X3.9409Y-3.1343
X3.9547Y-2.9729
X3.9783Y-2.8568
X3.9842Y-3.9178
X3.9881Y-2.656
X3.9901Y-2.7564
X3.9921Y-3.0517
X4.0Y-2.5477
X4.0177Y-2.7564
X4.0236Y-3.8942
X4.0334Y-3.4375
X4.0354Y-3.3509
X4.0413Y-4.5477
X4.057Y-3.2761
X4.057Y-3.6835
X4.0669Y-2.908
X4.0688Y-2.6521
X4.0688Y-2.7584
X4.1712Y-3.4276
X4.1811Y-3.0477
X4.2047Y-3.343
X4.2263Y-3.3036
X4.2342Y-2.5517
X4.2342Y-3.5635
X4.2716Y-3.0477
X4.3464Y-2.6048
X4.3563Y-3.2958
X4.3956Y-3.2328
X4.4035Y-2.6186
X4.4035Y-3.5595
X4.4287Y-3.0237
X4.4488Y-3.3863
X4.4828Y-2.9035
X4.496Y-3.0881
X4.5472Y-3.2643
X4.5472Y-3.3509
X4.5472Y-3.4375
X4.5944Y-4.5339
X4.6456Y-3.1599
X4.6535Y-3.3253
X4.6673Y-2.6324
X4.7204Y-2.6717
X4.7224Y-3.3174
X4.7283Y-3.1343
X4.7421Y-2.9729
X4.7657Y-2.8568
X4.7716Y-3.9178
X4.7755Y-2.656
X4.7775Y-2.7564
X4.7795Y-3.0517
X4.7874Y-2.5477
X4.8051Y-2.7564
X4.811Y-3.8942
X4.8208Y-3.4375
X4.8228Y-3.3509
X4.8287Y-4.5477
X4.8444Y-3.2761
X4.8444Y-3.6835
X4.8543Y-2.908
X4.8563Y-2.6521
X4.8563Y-2.7584
X4.9586Y-3.4276
X4.9685Y-3.0477
X4.9921Y-3.343
X5.0137Y-3.3036
X5.0216Y-2.5517
X5.0216Y-3.5635
X5.059Y-3.0477
X5.1338Y-2.6048
X5.1437Y-3.2958
X5.183Y-3.2328
X5.1909Y-2.6186
X5.1909Y-3.5595
X5.2161Y-3.0237
X5.2362Y-3.3863
X5.2702Y-2.9035
X5.2834Y-3.0881
X5.3346Y-3.2643
X5.3346Y-3.3509
X5.3346Y-3.4375
X5.3818Y-4.5339
X5.433Y-3.1599
X5.4409Y-3.3253
X5.4547Y-2.6324
X5.5078Y-2.6717
X5.5098Y-3.3174
X5.5157Y-3.1343
X5.5295Y-2.9729
X5.5531Y-2.8568
X5.559Y-3.9178
X5.5629Y-2.656
X5.5649Y-2.7564
X5.5669Y-3.0517
X5.5748Y-2.5477
X5.5925Y-2.7564
X5.5984Y-3.8942
X5.6082Y-3.4375
X5.6102Y-3.3509
X5.6161Y-4.5477
X5.6318Y-3.2761
X5.6318Y-3.6835
X5.6417Y-2.908
X5.6437Y-2.6521
X5.6437Y-2.7584
X5.746Y-3.4276
X5.7559Y-3.0477
X5.7795Y-3.343
X5.8011Y-3.3036
X5.809Y-2.5517
X5.809Y-3.5635
X5.8464Y-3.0477
X5.9212Y-2.6048
X5.9311Y-3.2958
X5.9704Y-3.2328
X5.9783Y-2.6186
X5.9783Y-3.5595
X6.0035Y-3.0237
X6.0236Y-3.3863
X6.0576Y-2.9035
X6.0708Y-3.0881
X6.122Y-3.2643
X6.122Y-3.3509
X6.122Y-3.4375
X6.1692Y-4.5339
X6.2204Y-3.1599
X6.2283Y-3.3253
X6.2421Y-2.6324
T3
X3.1417Y-2.5458
X3.1673Y-3.8942
X3.1968Y-3.8233
X3.2381Y-2.9513
X3.2539Y-3.1461
X3.3174Y-2.8976
X3.3844Y-3.2232
X3.3996Y-3.0064
X3.5314Y-2.8154
X3.561Y-3.4611
X3.6171Y-2.8243
X3.6614Y-3.6776
X3.6737Y-2.8838
X3.751Y-2.9699
X3.81Y-3.094
X3.865Y-2.9701
X3.8661Y-2.7426
X3.9291Y-2.5458
X3.9547Y-3.8942
X3.9842Y-3.8233
X4.0255Y-2.9513
X4.0413Y-3.1461
X4.1048Y-2.8976
X4.1718Y-3.2232
X4.187Y-3.0064
X4.3188Y-2.8154
X4.3484Y-3.4611
X4.4045Y-2.8243
X4.4488Y-3.6776
X4.4611Y-2.8838
X4.5384Y-2.9699
X4.5974Y-3.094
X4.6524Y-2.9701
X4.6535Y-2.7426
X4.7165Y-2.5458
X4.7421Y-3.8942
X4.7716Y-3.8233
X4.8129Y-2.9513
X4.8287Y-3.1461
X4.8922Y-2.8976
X4.9592Y-3.2232
X4.9744Y-3.0064
X5.1063Y-2.8154
X5.1358Y-3.4611
X5.1919Y-2.8243
X5.2362Y-3.6776
X5.2485Y-2.8838
X5.3258Y-2.9699
X5.3848Y-3.094
X5.4398Y-2.9701
X5.4409Y-2.7426
X5.5039Y-2.5458
X5.5295Y-3.8942
X5.559Y-3.8233
X5.6003Y-2.9513
X5.6161Y-3.1461
X5.6796Y-2.8976
X5.7466Y-3.2232
X5.7618Y-3.0064
X5.8937Y-2.8154
X5.9232Y-3.4611
X5.9793Y-2.8243
X6.0236Y-3.6776
X6.0359Y-2.8838
X6.1132Y-2.9699
X6.1722Y-3.094
X6.2272Y-2.9701
X6.2283Y-2.7426
T4
X3.2145Y-4.3843
X3.2145Y-4.4217
X3.4615Y-3.7288
X3.7269Y-3.0271
X4.0019Y-4.3843
X4.0019Y-4.4217
X4.2489Y-3.7288
X4.5143Y-3.0271
X4.7893Y-4.3843
X4.7893Y-4.4217
X5.0363Y-3.7288
X5.3017Y-3.0271
X5.5767Y-4.3843
X5.5767Y-4.4217
X5.8238Y-3.7288
X6.0891Y-3.0271
T8
X3.7185Y-4.2623
X4.5059Y-4.2623
X5.2933Y-4.2623
X6.0807Y-4.2623
T9
X3.3523Y-3.6127
X3.3523Y-3.7127
X3.3523Y-3.8127
X3.3523Y-3.9127
X3.3523Y-4.0127
X3.3523Y-4.1127
X4.1397Y-3.6127
X4.1397Y-3.7127
X4.1397Y-3.8127
X4.1397Y-3.9127
X4.1397Y-4.0127
X4.1397Y-4.1127
X4.9271Y-3.6127
X4.9271Y-3.7127
X4.9271Y-3.8127
X4.9271Y-3.9127
X4.9271Y-4.0127
X4.9271Y-4.1127
X5.7145Y-3.6127
X5.7145Y-3.7127
X5.7145Y-3.8127
X5.7145Y-3.9127
X5.7145Y-4.0127
X5.7145Y-4.1127
T10
X3.248Y-2.5576
X3.248Y-2.8528
X3.248Y-3.2032
X3.248Y-3.4985
X3.7598Y-2.5576
X3.7598Y-2.8528
X3.7598Y-3.2032
X3.7598Y-3.4985
X4.0354Y-2.5576
X4.0354Y-2.8528
X4.0354Y-3.2032
X4.0354Y-3.4985
X4.5472Y-2.5576
X4.5472Y-2.8528
X4.5472Y-3.2032
X4.5472Y-3.4985
X4.8228Y-2.5576
X4.8228Y-2.8528
X4.8228Y-3.2032
X4.8228Y-3.4985
X5.3346Y-2.5576
X5.3346Y-2.8528
X5.3346Y-3.2032
X5.3346Y-3.4985
X5.6102Y-2.5576
X5.6102Y-2.8528
X5.6102Y-3.2032
X5.6102Y-3.4985
X6.122Y-2.5576
X6.122Y-2.8528
X6.122Y-3.2032
X6.122Y-3.4985
T11
X3.3891Y-4.406
X3.6167Y-4.406
X4.1765Y-4.406
X4.4041Y-4.406
X4.9639Y-4.406
X5.1915Y-4.406
X5.7513Y-4.406
X5.9789Y-4.406
T12
X3.3484Y-2.6746
X3.6633Y-2.6747
X4.1358Y-2.6746
X4.4507Y-2.6747
X4.9232Y-2.6746
X5.2381Y-2.6747
X5.7106Y-2.6746
X6.0255Y-2.6747
T13
X3.5257Y-4.5143
X4.3131Y-4.5143
X5.1005Y-4.5143
X5.8879Y-4.5143
T5
G00X3.3328Y-4.4068
M15
G01X3.3328Y-4.3635
M16
G05
G00X3.3328Y-4.5615
M15
G01X3.3328Y-4.5379
M16
G05
G00X3.673Y-4.4068
M15
G01X3.673Y-4.3635
M16
G05
G00X3.673Y-4.5615
M15
G01X3.673Y-4.5379
M16
G05
G00X4.1202Y-4.4068
M15
G01X4.1202Y-4.3635
M16
G05
G00X4.1202Y-4.5615
M15
G01X4.1202Y-4.5379
M16
G05
G00X4.4604Y-4.4068
M15
G01X4.4604Y-4.3635
M16
G05
G00X4.4604Y-4.5615
M15
G01X4.4604Y-4.5379
M16
G05
G00X4.9076Y-4.4068
M15
G01X4.9076Y-4.3635
M16
G05
G00X4.9076Y-4.5615
M15
G01X4.9076Y-4.5379
M16
G05
G00X5.2478Y-4.4068
M15
G01X5.2478Y-4.3635
M16
G05
G00X5.2478Y-4.5615
M15
G01X5.2478Y-4.5379
M16
G05
G00X5.695Y-4.4068
M15
G01X5.695Y-4.3635
M16
G05
G00X5.695Y-4.5615
M15
G01X5.695Y-4.5379
M16
G05
G00X6.0352Y-4.4068
M15
G01X6.0352Y-4.3635
M16
G05
G00X6.0352Y-4.5615
M15
G01X6.0352Y-4.5379
M16
G05
T6
G00X3.1633Y-2.6184
M15
G01X3.1633Y-2.603
M16
G05
G00X3.1633Y-2.8074
M15
G01X3.1633Y-2.792
M16
G05
G00X3.1633Y-3.2641
M15
G01X3.1633Y-3.2487
M16
G05
G00X3.1633Y-3.453
M15
G01X3.1633Y-3.4377
M16
G05
G00X3.3326Y-2.6184
M15
G01X3.3326Y-2.603
M16
G05
G00X3.3326Y-2.8074
M15
G01X3.3326Y-2.792
M16
G05
G00X3.3326Y-3.2641
M15
G01X3.3326Y-3.2487
M16
G05
G00X3.3326Y-3.453
M15
G01X3.3326Y-3.4377
M16
G05
G00X3.6751Y-2.6184
M15
G01X3.6751Y-2.603
M16
G05
G00X3.6751Y-2.8074
M15
G01X3.6751Y-2.792
M16
G05
G00X3.6751Y-3.2641
M15
G01X3.6751Y-3.2487
M16
G05
G00X3.6751Y-3.453
M15
G01X3.6751Y-3.4377
M16
G05
G00X3.8444Y-2.6184
M15
G01X3.8444Y-2.603
M16
G05
G00X3.8444Y-2.8074
M15
G01X3.8444Y-2.792
M16
G05
G00X3.8444Y-3.2641
M15
G01X3.8444Y-3.2487
M16
G05
G00X3.8444Y-3.453
M15
G01X3.8444Y-3.4377
M16
G05
G00X3.9507Y-2.6184
M15
G01X3.9507Y-2.603
M16
G05
G00X3.9507Y-2.8074
M15
G01X3.9507Y-2.792
M16
G05
G00X3.9507Y-3.2641
M15
G01X3.9507Y-3.2487
M16
G05
G00X3.9507Y-3.453
M15
G01X3.9507Y-3.4377
M16
G05
G00X4.12Y-2.6184
M15
G01X4.12Y-2.603
M16
G05
G00X4.12Y-2.8074
M15
G01X4.12Y-2.792
M16
G05
G00X4.12Y-3.2641
M15
G01X4.12Y-3.2487
M16
G05
G00X4.12Y-3.453
M15
G01X4.12Y-3.4377
M16
G05
G00X4.4626Y-2.6184
M15
G01X4.4626Y-2.603
M16
G05
G00X4.4626Y-2.8074
M15
G01X4.4626Y-2.792
M16
G05
G00X4.4626Y-3.2641
M15
G01X4.4626Y-3.2487
M16
G05
G00X4.4626Y-3.453
M15
G01X4.4626Y-3.4377
M16
G05
G00X4.6318Y-2.6184
M15
G01X4.6318Y-2.603
M16
G05
G00X4.6318Y-2.8074
M15
G01X4.6318Y-2.792
M16
G05
G00X4.6318Y-3.2641
M15
G01X4.6318Y-3.2487
M16
G05
G00X4.6318Y-3.453
M15
G01X4.6318Y-3.4377
M16
G05
G00X4.7381Y-2.6184
M15
G01X4.7381Y-2.603
M16
G05
G00X4.7381Y-2.8074
M15
G01X4.7381Y-2.792
M16
G05
G00X4.7381Y-3.2641
M15
G01X4.7381Y-3.2487
M16
G05
G00X4.7381Y-3.453
M15
G01X4.7381Y-3.4377
M16
G05
G00X4.9074Y-2.6184
M15
G01X4.9074Y-2.603
M16
G05
G00X4.9074Y-2.8074
M15
G01X4.9074Y-2.792
M16
G05
G00X4.9074Y-3.2641
M15
G01X4.9074Y-3.2487
M16
G05
G00X4.9074Y-3.453
M15
G01X4.9074Y-3.4377
M16
G05
G00X5.25Y-2.6184
M15
G01X5.25Y-2.603
M16
G05
G00X5.25Y-2.8074
M15
G01X5.25Y-2.792
M16
G05
G00X5.25Y-3.2641
M15
G01X5.25Y-3.2487
M16
G05
G00X5.25Y-3.453
M15
G01X5.25Y-3.4377
M16
G05
G00X5.4192Y-2.6184
M15
G01X5.4192Y-2.603
M16
G05
G00X5.4192Y-2.8074
M15
G01X5.4192Y-2.792
M16
G05
G00X5.4192Y-3.2641
M15
G01X5.4192Y-3.2487
M16
G05
G00X5.4192Y-3.453
M15
G01X5.4192Y-3.4377
M16
G05
G00X5.5255Y-2.6184
M15
G01X5.5255Y-2.603
M16
G05
G00X5.5255Y-2.8074
M15
G01X5.5255Y-2.792
M16
G05
G00X5.5255Y-3.2641
M15
G01X5.5255Y-3.2487
M16
G05
G00X5.5255Y-3.453
M15
G01X5.5255Y-3.4377
M16
G05
G00X5.6948Y-2.6184
M15
G01X5.6948Y-2.603
M16
G05
G00X5.6948Y-2.8074
M15
G01X5.6948Y-2.792
M16
G05
G00X5.6948Y-3.2641
M15
G01X5.6948Y-3.2487
M16
G05
G00X5.6948Y-3.453
M15
G01X5.6948Y-3.4377
M16
G05
G00X6.0374Y-2.6184
M15
G01X6.0374Y-2.603
M16
G05
G00X6.0374Y-2.8074
M15
G01X6.0374Y-2.792
M16
G05
G00X6.0374Y-3.2641
M15
G01X6.0374Y-3.2487
M16
G05
G00X6.0374Y-3.453
M15
G01X6.0374Y-3.4377
M16
G05
G00X6.2066Y-2.6184
M15
G01X6.2066Y-2.603
M16
G05
G00X6.2066Y-2.8074
M15
G01X6.2066Y-2.792
M16
G05
G00X6.2066Y-3.2641
M15
G01X6.2066Y-3.2487
M16
G05
G00X6.2066Y-3.453
M15
G01X6.2066Y-3.4377
M16
G05
T7
G00X3.7476Y-3.6147
M15
G01X3.787Y-3.6147
M16
G05
G00X3.7476Y-4.1186
M15
G01X3.787Y-4.1186
M16
G05
G00X4.535Y-3.6147
M15
G01X4.5744Y-3.6147
M16
G05
G00X4.535Y-4.1186
M15
G01X4.5744Y-4.1186
M16
G05
G00X5.3224Y-3.6147
M15
G01X5.3618Y-3.6147
M16
G05
G00X5.3224Y-4.1186
M15
G01X5.3618Y-4.1186
M16
G05
G00X6.1098Y-3.6147
M15
G01X6.1492Y-3.6147
M16
G05
G00X6.1098Y-4.1186
M15
G01X6.1492Y-4.1186
M16
G05
T0
M30
