%TF.GenerationSoftware,KiCad,Pcbnew,(6.0.7)*%
%TF.CreationDate,2023-08-28T04:04:33+08:00*%
%TF.ProjectId,USB_Hub_Panelization,5553425f-4875-4625-9f50-616e656c697a,rev?*%
%TF.SameCoordinates,Original*%
%TF.FileFunction,Legend,Bot*%
%TF.FilePolarity,Positive*%
%FSLAX46Y46*%
G04 Gerber Fmt 4.6, Leading zero omitted, Abs format (unit mm)*
G04 Created by KiCad (PCBNEW (6.0.7)) date 2023-08-28 04:04:33*
%MOMM*%
%LPD*%
G01*
G04 APERTURE LIST*
%ADD10C,0.100000*%
%ADD11C,0.080000*%
%ADD12C,0.150000*%
%ADD13C,0.120000*%
%ADD14C,0.254000*%
%ADD15C,0.102000*%
G04 APERTURE END LIST*
D10*
X157746833Y-117568333D02*
X158446833Y-117568333D01*
X157746833Y-117268333D02*
X158113500Y-117268333D01*
X158180166Y-117301666D01*
X158213500Y-117368333D01*
X158213500Y-117468333D01*
X158180166Y-117535000D01*
X158146833Y-117568333D01*
X158213500Y-117035000D02*
X158213500Y-116768333D01*
X158446833Y-116935000D02*
X157846833Y-116935000D01*
X157780166Y-116901666D01*
X157746833Y-116835000D01*
X157746833Y-116768333D01*
X158213500Y-116635000D02*
X158213500Y-116368333D01*
X158446833Y-116535000D02*
X157846833Y-116535000D01*
X157780166Y-116501666D01*
X157746833Y-116435000D01*
X157746833Y-116368333D01*
X158213500Y-116135000D02*
X157513500Y-116135000D01*
X158180166Y-116135000D02*
X158213500Y-116068333D01*
X158213500Y-115935000D01*
X158180166Y-115868333D01*
X158146833Y-115835000D01*
X158080166Y-115801666D01*
X157880166Y-115801666D01*
X157813500Y-115835000D01*
X157780166Y-115868333D01*
X157746833Y-115935000D01*
X157746833Y-116068333D01*
X157780166Y-116135000D01*
X157780166Y-115535000D02*
X157746833Y-115468333D01*
X157746833Y-115335000D01*
X157780166Y-115268333D01*
X157846833Y-115235000D01*
X157880166Y-115235000D01*
X157946833Y-115268333D01*
X157980166Y-115335000D01*
X157980166Y-115435000D01*
X158013500Y-115501666D01*
X158080166Y-115535000D01*
X158113500Y-115535000D01*
X158180166Y-115501666D01*
X158213500Y-115435000D01*
X158213500Y-115335000D01*
X158180166Y-115268333D01*
X157813500Y-114935000D02*
X157780166Y-114901666D01*
X157746833Y-114935000D01*
X157780166Y-114968333D01*
X157813500Y-114935000D01*
X157746833Y-114935000D01*
X158180166Y-114935000D02*
X158146833Y-114901666D01*
X158113500Y-114935000D01*
X158146833Y-114968333D01*
X158180166Y-114935000D01*
X158113500Y-114935000D01*
X158480166Y-114101666D02*
X157580166Y-114701666D01*
X158480166Y-113368333D02*
X157580166Y-113968333D01*
X158213500Y-112835000D02*
X157646833Y-112835000D01*
X157580166Y-112868333D01*
X157546833Y-112901666D01*
X157513500Y-112968333D01*
X157513500Y-113068333D01*
X157546833Y-113135000D01*
X157780166Y-112835000D02*
X157746833Y-112901666D01*
X157746833Y-113035000D01*
X157780166Y-113101666D01*
X157813500Y-113135000D01*
X157880166Y-113168333D01*
X158080166Y-113168333D01*
X158146833Y-113135000D01*
X158180166Y-113101666D01*
X158213500Y-113035000D01*
X158213500Y-112901666D01*
X158180166Y-112835000D01*
X157746833Y-112501666D02*
X158213500Y-112501666D01*
X158446833Y-112501666D02*
X158413500Y-112535000D01*
X158380166Y-112501666D01*
X158413500Y-112468333D01*
X158446833Y-112501666D01*
X158380166Y-112501666D01*
X158213500Y-112268333D02*
X158213500Y-112001666D01*
X158446833Y-112168333D02*
X157846833Y-112168333D01*
X157780166Y-112135000D01*
X157746833Y-112068333D01*
X157746833Y-112001666D01*
X157746833Y-111768333D02*
X158446833Y-111768333D01*
X157746833Y-111468333D02*
X158113500Y-111468333D01*
X158180166Y-111501666D01*
X158213500Y-111568333D01*
X158213500Y-111668333D01*
X158180166Y-111735000D01*
X158146833Y-111768333D01*
X158213500Y-110835000D02*
X157746833Y-110835000D01*
X158213500Y-111135000D02*
X157846833Y-111135000D01*
X157780166Y-111101666D01*
X157746833Y-111035000D01*
X157746833Y-110935000D01*
X157780166Y-110868333D01*
X157813500Y-110835000D01*
X157746833Y-110501666D02*
X158446833Y-110501666D01*
X158180166Y-110501666D02*
X158213500Y-110435000D01*
X158213500Y-110301666D01*
X158180166Y-110235000D01*
X158146833Y-110201666D01*
X158080166Y-110168333D01*
X157880166Y-110168333D01*
X157813500Y-110201666D01*
X157780166Y-110235000D01*
X157746833Y-110301666D01*
X157746833Y-110435000D01*
X157780166Y-110501666D01*
X157813500Y-109868333D02*
X157780166Y-109835000D01*
X157746833Y-109868333D01*
X157780166Y-109901666D01*
X157813500Y-109868333D01*
X157746833Y-109868333D01*
X157780166Y-109235000D02*
X157746833Y-109301666D01*
X157746833Y-109435000D01*
X157780166Y-109501666D01*
X157813500Y-109535000D01*
X157880166Y-109568333D01*
X158080166Y-109568333D01*
X158146833Y-109535000D01*
X158180166Y-109501666D01*
X158213500Y-109435000D01*
X158213500Y-109301666D01*
X158180166Y-109235000D01*
X157746833Y-108835000D02*
X157780166Y-108901666D01*
X157813500Y-108935000D01*
X157880166Y-108968333D01*
X158080166Y-108968333D01*
X158146833Y-108935000D01*
X158180166Y-108901666D01*
X158213500Y-108835000D01*
X158213500Y-108735000D01*
X158180166Y-108668333D01*
X158146833Y-108635000D01*
X158080166Y-108601666D01*
X157880166Y-108601666D01*
X157813500Y-108635000D01*
X157780166Y-108668333D01*
X157746833Y-108735000D01*
X157746833Y-108835000D01*
X157746833Y-108301666D02*
X158213500Y-108301666D01*
X158146833Y-108301666D02*
X158180166Y-108268333D01*
X158213500Y-108201666D01*
X158213500Y-108101666D01*
X158180166Y-108035000D01*
X158113500Y-108001666D01*
X157746833Y-108001666D01*
X158113500Y-108001666D02*
X158180166Y-107968333D01*
X158213500Y-107901666D01*
X158213500Y-107801666D01*
X158180166Y-107735000D01*
X158113500Y-107701666D01*
X157746833Y-107701666D01*
X158480166Y-106868333D02*
X157580166Y-107468333D01*
X157946833Y-106668333D02*
X157946833Y-106335000D01*
X157746833Y-106735000D02*
X158446833Y-106501666D01*
X157746833Y-106268333D01*
X158213500Y-106035000D02*
X157746833Y-106035000D01*
X158146833Y-106035000D02*
X158180166Y-106001666D01*
X158213500Y-105935000D01*
X158213500Y-105835000D01*
X158180166Y-105768333D01*
X158113500Y-105735000D01*
X157746833Y-105735000D01*
X157746833Y-105101666D02*
X158446833Y-105101666D01*
X157780166Y-105101666D02*
X157746833Y-105168333D01*
X157746833Y-105301666D01*
X157780166Y-105368333D01*
X157813500Y-105401666D01*
X157880166Y-105435000D01*
X158080166Y-105435000D01*
X158146833Y-105401666D01*
X158180166Y-105368333D01*
X158213500Y-105301666D01*
X158213500Y-105168333D01*
X158180166Y-105101666D01*
X158213500Y-104835000D02*
X157746833Y-104668333D01*
X158213500Y-104501666D02*
X157746833Y-104668333D01*
X157580166Y-104735000D01*
X157546833Y-104768333D01*
X157513500Y-104835000D01*
X158013500Y-104235000D02*
X158013500Y-103701666D01*
X157813500Y-102968333D02*
X157780166Y-103001666D01*
X157746833Y-103101666D01*
X157746833Y-103168333D01*
X157780166Y-103268333D01*
X157846833Y-103335000D01*
X157913500Y-103368333D01*
X158046833Y-103401666D01*
X158146833Y-103401666D01*
X158280166Y-103368333D01*
X158346833Y-103335000D01*
X158413500Y-103268333D01*
X158446833Y-103168333D01*
X158446833Y-103101666D01*
X158413500Y-103001666D01*
X158380166Y-102968333D01*
X157746833Y-102668333D02*
X158446833Y-102668333D01*
X157746833Y-102368333D02*
X158113500Y-102368333D01*
X158180166Y-102401666D01*
X158213500Y-102468333D01*
X158213500Y-102568333D01*
X158180166Y-102635000D01*
X158146833Y-102668333D01*
X157780166Y-101768333D02*
X157746833Y-101835000D01*
X157746833Y-101968333D01*
X157780166Y-102035000D01*
X157846833Y-102068333D01*
X158113500Y-102068333D01*
X158180166Y-102035000D01*
X158213500Y-101968333D01*
X158213500Y-101835000D01*
X158180166Y-101768333D01*
X158113500Y-101735000D01*
X158046833Y-101735000D01*
X157980166Y-102068333D01*
X158213500Y-101435000D02*
X157746833Y-101435000D01*
X158146833Y-101435000D02*
X158180166Y-101401666D01*
X158213500Y-101335000D01*
X158213500Y-101235000D01*
X158180166Y-101168333D01*
X158113500Y-101135000D01*
X157746833Y-101135000D01*
X158213500Y-100501666D02*
X157646833Y-100501666D01*
X157580166Y-100535000D01*
X157546833Y-100568333D01*
X157513500Y-100635000D01*
X157513500Y-100735000D01*
X157546833Y-100801666D01*
X157780166Y-100501666D02*
X157746833Y-100568333D01*
X157746833Y-100701666D01*
X157780166Y-100768333D01*
X157813500Y-100801666D01*
X157880166Y-100835000D01*
X158080166Y-100835000D01*
X158146833Y-100801666D01*
X158180166Y-100768333D01*
X158213500Y-100701666D01*
X158213500Y-100568333D01*
X158180166Y-100501666D01*
X157746833Y-99801666D02*
X157746833Y-100201666D01*
X157746833Y-100001666D02*
X158446833Y-100001666D01*
X158346833Y-100068333D01*
X158280166Y-100135000D01*
X158246833Y-100201666D01*
X158446833Y-99368333D02*
X158446833Y-99301666D01*
X158413500Y-99235000D01*
X158380166Y-99201666D01*
X158313500Y-99168333D01*
X158180166Y-99135000D01*
X158013500Y-99135000D01*
X157880166Y-99168333D01*
X157813500Y-99201666D01*
X157780166Y-99235000D01*
X157746833Y-99301666D01*
X157746833Y-99368333D01*
X157780166Y-99435000D01*
X157813500Y-99468333D01*
X157880166Y-99501666D01*
X158013500Y-99535000D01*
X158180166Y-99535000D01*
X158313500Y-99501666D01*
X158380166Y-99468333D01*
X158413500Y-99435000D01*
X158446833Y-99368333D01*
X157746833Y-98468333D02*
X157746833Y-98868333D01*
X157746833Y-98668333D02*
X158446833Y-98668333D01*
X158346833Y-98735000D01*
X158280166Y-98801666D01*
X158246833Y-98868333D01*
X158446833Y-98235000D02*
X158446833Y-97768333D01*
X157746833Y-98068333D01*
X158480166Y-97001666D02*
X157580166Y-97601666D01*
X158446833Y-96868333D02*
X158446833Y-96468333D01*
X157746833Y-96668333D02*
X158446833Y-96668333D01*
X158213500Y-96301666D02*
X157746833Y-96135000D01*
X158213500Y-95968333D02*
X157746833Y-96135000D01*
X157580166Y-96201666D01*
X157546833Y-96235000D01*
X157513500Y-96301666D01*
X158213500Y-95701666D02*
X157513500Y-95701666D01*
X158180166Y-95701666D02*
X158213500Y-95635000D01*
X158213500Y-95501666D01*
X158180166Y-95435000D01*
X158146833Y-95401666D01*
X158080166Y-95368333D01*
X157880166Y-95368333D01*
X157813500Y-95401666D01*
X157780166Y-95435000D01*
X157746833Y-95501666D01*
X157746833Y-95635000D01*
X157780166Y-95701666D01*
X157780166Y-94801666D02*
X157746833Y-94868333D01*
X157746833Y-95001666D01*
X157780166Y-95068333D01*
X157846833Y-95101666D01*
X158113500Y-95101666D01*
X158180166Y-95068333D01*
X158213500Y-95001666D01*
X158213500Y-94868333D01*
X158180166Y-94801666D01*
X158113500Y-94768333D01*
X158046833Y-94768333D01*
X157980166Y-95101666D01*
X158013500Y-94468333D02*
X158013500Y-93935000D01*
X157780166Y-93301666D02*
X157746833Y-93368333D01*
X157746833Y-93501666D01*
X157780166Y-93568333D01*
X157813500Y-93601666D01*
X157880166Y-93635000D01*
X158080166Y-93635000D01*
X158146833Y-93601666D01*
X158180166Y-93568333D01*
X158213500Y-93501666D01*
X158213500Y-93368333D01*
X158180166Y-93301666D01*
X157680166Y-93168333D02*
X157680166Y-92635000D01*
X157746833Y-92468333D02*
X158446833Y-92468333D01*
X158113500Y-92468333D02*
X158113500Y-92068333D01*
X157746833Y-92068333D02*
X158446833Y-92068333D01*
X158213500Y-91435000D02*
X157746833Y-91435000D01*
X158213500Y-91735000D02*
X157846833Y-91735000D01*
X157780166Y-91701666D01*
X157746833Y-91635000D01*
X157746833Y-91535000D01*
X157780166Y-91468333D01*
X157813500Y-91435000D01*
X157746833Y-91101666D02*
X158446833Y-91101666D01*
X158180166Y-91101666D02*
X158213500Y-91035000D01*
X158213500Y-90901666D01*
X158180166Y-90835000D01*
X158146833Y-90801666D01*
X158080166Y-90768333D01*
X157880166Y-90768333D01*
X157813500Y-90801666D01*
X157780166Y-90835000D01*
X157746833Y-90901666D01*
X157746833Y-91035000D01*
X157780166Y-91101666D01*
X156986500Y-117335000D02*
X156953166Y-117235000D01*
X156919833Y-117201666D01*
X156853166Y-117168333D01*
X156753166Y-117168333D01*
X156686500Y-117201666D01*
X156653166Y-117235000D01*
X156619833Y-117301666D01*
X156619833Y-117568333D01*
X157319833Y-117568333D01*
X157319833Y-117335000D01*
X157286500Y-117268333D01*
X157253166Y-117235000D01*
X157186500Y-117201666D01*
X157119833Y-117201666D01*
X157053166Y-117235000D01*
X157019833Y-117268333D01*
X156986500Y-117335000D01*
X156986500Y-117568333D01*
X157086500Y-116935000D02*
X156619833Y-116768333D01*
X157086500Y-116601666D02*
X156619833Y-116768333D01*
X156453166Y-116835000D01*
X156419833Y-116868333D01*
X156386500Y-116935000D01*
X156819833Y-115835000D02*
X156819833Y-115501666D01*
X156619833Y-115901666D02*
X157319833Y-115668333D01*
X156619833Y-115435000D01*
X157086500Y-115201666D02*
X156619833Y-115201666D01*
X157019833Y-115201666D02*
X157053166Y-115168333D01*
X157086500Y-115101666D01*
X157086500Y-115001666D01*
X157053166Y-114935000D01*
X156986500Y-114901666D01*
X156619833Y-114901666D01*
X156619833Y-114268333D02*
X157319833Y-114268333D01*
X156653166Y-114268333D02*
X156619833Y-114335000D01*
X156619833Y-114468333D01*
X156653166Y-114535000D01*
X156686500Y-114568333D01*
X156753166Y-114601666D01*
X156953166Y-114601666D01*
X157019833Y-114568333D01*
X157053166Y-114535000D01*
X157086500Y-114468333D01*
X157086500Y-114335000D01*
X157053166Y-114268333D01*
X157086500Y-114001666D02*
X156619833Y-113835000D01*
X157086500Y-113668333D02*
X156619833Y-113835000D01*
X156453166Y-113901666D01*
X156419833Y-113935000D01*
X156386500Y-114001666D01*
X157253166Y-112901666D02*
X157286500Y-112868333D01*
X157319833Y-112801666D01*
X157319833Y-112635000D01*
X157286500Y-112568333D01*
X157253166Y-112535000D01*
X157186500Y-112501666D01*
X157119833Y-112501666D01*
X157019833Y-112535000D01*
X156619833Y-112935000D01*
X156619833Y-112501666D01*
X157319833Y-112068333D02*
X157319833Y-112001666D01*
X157286500Y-111935000D01*
X157253166Y-111901666D01*
X157186500Y-111868333D01*
X157053166Y-111835000D01*
X156886500Y-111835000D01*
X156753166Y-111868333D01*
X156686500Y-111901666D01*
X156653166Y-111935000D01*
X156619833Y-112001666D01*
X156619833Y-112068333D01*
X156653166Y-112135000D01*
X156686500Y-112168333D01*
X156753166Y-112201666D01*
X156886500Y-112235000D01*
X157053166Y-112235000D01*
X157186500Y-112201666D01*
X157253166Y-112168333D01*
X157286500Y-112135000D01*
X157319833Y-112068333D01*
X157253166Y-111568333D02*
X157286500Y-111535000D01*
X157319833Y-111468333D01*
X157319833Y-111301666D01*
X157286500Y-111235000D01*
X157253166Y-111201666D01*
X157186500Y-111168333D01*
X157119833Y-111168333D01*
X157019833Y-111201666D01*
X156619833Y-111601666D01*
X156619833Y-111168333D01*
X157319833Y-110935000D02*
X157319833Y-110501666D01*
X157053166Y-110735000D01*
X157053166Y-110635000D01*
X157019833Y-110568333D01*
X156986500Y-110535000D01*
X156919833Y-110501666D01*
X156753166Y-110501666D01*
X156686500Y-110535000D01*
X156653166Y-110568333D01*
X156619833Y-110635000D01*
X156619833Y-110835000D01*
X156653166Y-110901666D01*
X156686500Y-110935000D01*
X157353166Y-109701666D02*
X156453166Y-110301666D01*
X157319833Y-109335000D02*
X157319833Y-109268333D01*
X157286500Y-109201666D01*
X157253166Y-109168333D01*
X157186500Y-109135000D01*
X157053166Y-109101666D01*
X156886500Y-109101666D01*
X156753166Y-109135000D01*
X156686500Y-109168333D01*
X156653166Y-109201666D01*
X156619833Y-109268333D01*
X156619833Y-109335000D01*
X156653166Y-109401666D01*
X156686500Y-109435000D01*
X156753166Y-109468333D01*
X156886500Y-109501666D01*
X157053166Y-109501666D01*
X157186500Y-109468333D01*
X157253166Y-109435000D01*
X157286500Y-109401666D01*
X157319833Y-109335000D01*
X157019833Y-108701666D02*
X157053166Y-108768333D01*
X157086500Y-108801666D01*
X157153166Y-108835000D01*
X157186500Y-108835000D01*
X157253166Y-108801666D01*
X157286500Y-108768333D01*
X157319833Y-108701666D01*
X157319833Y-108568333D01*
X157286500Y-108501666D01*
X157253166Y-108468333D01*
X157186500Y-108435000D01*
X157153166Y-108435000D01*
X157086500Y-108468333D01*
X157053166Y-108501666D01*
X157019833Y-108568333D01*
X157019833Y-108701666D01*
X156986500Y-108768333D01*
X156953166Y-108801666D01*
X156886500Y-108835000D01*
X156753166Y-108835000D01*
X156686500Y-108801666D01*
X156653166Y-108768333D01*
X156619833Y-108701666D01*
X156619833Y-108568333D01*
X156653166Y-108501666D01*
X156686500Y-108468333D01*
X156753166Y-108435000D01*
X156886500Y-108435000D01*
X156953166Y-108468333D01*
X156986500Y-108501666D01*
X157019833Y-108568333D01*
X157353166Y-107635000D02*
X156453166Y-108235000D01*
X157253166Y-107435000D02*
X157286500Y-107401666D01*
X157319833Y-107335000D01*
X157319833Y-107168333D01*
X157286500Y-107101666D01*
X157253166Y-107068333D01*
X157186500Y-107035000D01*
X157119833Y-107035000D01*
X157019833Y-107068333D01*
X156619833Y-107468333D01*
X156619833Y-107035000D01*
X157019833Y-106635000D02*
X157053166Y-106701666D01*
X157086500Y-106735000D01*
X157153166Y-106768333D01*
X157186500Y-106768333D01*
X157253166Y-106735000D01*
X157286500Y-106701666D01*
X157319833Y-106635000D01*
X157319833Y-106501666D01*
X157286500Y-106435000D01*
X157253166Y-106401666D01*
X157186500Y-106368333D01*
X157153166Y-106368333D01*
X157086500Y-106401666D01*
X157053166Y-106435000D01*
X157019833Y-106501666D01*
X157019833Y-106635000D01*
X156986500Y-106701666D01*
X156953166Y-106735000D01*
X156886500Y-106768333D01*
X156753166Y-106768333D01*
X156686500Y-106735000D01*
X156653166Y-106701666D01*
X156619833Y-106635000D01*
X156619833Y-106501666D01*
X156653166Y-106435000D01*
X156686500Y-106401666D01*
X156753166Y-106368333D01*
X156886500Y-106368333D01*
X156953166Y-106401666D01*
X156986500Y-106435000D01*
X157019833Y-106501666D01*
X137746833Y-117568333D02*
X138446833Y-117568333D01*
X137746833Y-117268333D02*
X138113500Y-117268333D01*
X138180166Y-117301666D01*
X138213500Y-117368333D01*
X138213500Y-117468333D01*
X138180166Y-117535000D01*
X138146833Y-117568333D01*
X138213500Y-117035000D02*
X138213500Y-116768333D01*
X138446833Y-116935000D02*
X137846833Y-116935000D01*
X137780166Y-116901666D01*
X137746833Y-116835000D01*
X137746833Y-116768333D01*
X138213500Y-116635000D02*
X138213500Y-116368333D01*
X138446833Y-116535000D02*
X137846833Y-116535000D01*
X137780166Y-116501666D01*
X137746833Y-116435000D01*
X137746833Y-116368333D01*
X138213500Y-116135000D02*
X137513500Y-116135000D01*
X138180166Y-116135000D02*
X138213500Y-116068333D01*
X138213500Y-115935000D01*
X138180166Y-115868333D01*
X138146833Y-115835000D01*
X138080166Y-115801666D01*
X137880166Y-115801666D01*
X137813500Y-115835000D01*
X137780166Y-115868333D01*
X137746833Y-115935000D01*
X137746833Y-116068333D01*
X137780166Y-116135000D01*
X137780166Y-115535000D02*
X137746833Y-115468333D01*
X137746833Y-115335000D01*
X137780166Y-115268333D01*
X137846833Y-115235000D01*
X137880166Y-115235000D01*
X137946833Y-115268333D01*
X137980166Y-115335000D01*
X137980166Y-115435000D01*
X138013500Y-115501666D01*
X138080166Y-115535000D01*
X138113500Y-115535000D01*
X138180166Y-115501666D01*
X138213500Y-115435000D01*
X138213500Y-115335000D01*
X138180166Y-115268333D01*
X137813500Y-114935000D02*
X137780166Y-114901666D01*
X137746833Y-114935000D01*
X137780166Y-114968333D01*
X137813500Y-114935000D01*
X137746833Y-114935000D01*
X138180166Y-114935000D02*
X138146833Y-114901666D01*
X138113500Y-114935000D01*
X138146833Y-114968333D01*
X138180166Y-114935000D01*
X138113500Y-114935000D01*
X138480166Y-114101666D02*
X137580166Y-114701666D01*
X138480166Y-113368333D02*
X137580166Y-113968333D01*
X138213500Y-112835000D02*
X137646833Y-112835000D01*
X137580166Y-112868333D01*
X137546833Y-112901666D01*
X137513500Y-112968333D01*
X137513500Y-113068333D01*
X137546833Y-113135000D01*
X137780166Y-112835000D02*
X137746833Y-112901666D01*
X137746833Y-113035000D01*
X137780166Y-113101666D01*
X137813500Y-113135000D01*
X137880166Y-113168333D01*
X138080166Y-113168333D01*
X138146833Y-113135000D01*
X138180166Y-113101666D01*
X138213500Y-113035000D01*
X138213500Y-112901666D01*
X138180166Y-112835000D01*
X137746833Y-112501666D02*
X138213500Y-112501666D01*
X138446833Y-112501666D02*
X138413500Y-112535000D01*
X138380166Y-112501666D01*
X138413500Y-112468333D01*
X138446833Y-112501666D01*
X138380166Y-112501666D01*
X138213500Y-112268333D02*
X138213500Y-112001666D01*
X138446833Y-112168333D02*
X137846833Y-112168333D01*
X137780166Y-112135000D01*
X137746833Y-112068333D01*
X137746833Y-112001666D01*
X137746833Y-111768333D02*
X138446833Y-111768333D01*
X137746833Y-111468333D02*
X138113500Y-111468333D01*
X138180166Y-111501666D01*
X138213500Y-111568333D01*
X138213500Y-111668333D01*
X138180166Y-111735000D01*
X138146833Y-111768333D01*
X138213500Y-110835000D02*
X137746833Y-110835000D01*
X138213500Y-111135000D02*
X137846833Y-111135000D01*
X137780166Y-111101666D01*
X137746833Y-111035000D01*
X137746833Y-110935000D01*
X137780166Y-110868333D01*
X137813500Y-110835000D01*
X137746833Y-110501666D02*
X138446833Y-110501666D01*
X138180166Y-110501666D02*
X138213500Y-110435000D01*
X138213500Y-110301666D01*
X138180166Y-110235000D01*
X138146833Y-110201666D01*
X138080166Y-110168333D01*
X137880166Y-110168333D01*
X137813500Y-110201666D01*
X137780166Y-110235000D01*
X137746833Y-110301666D01*
X137746833Y-110435000D01*
X137780166Y-110501666D01*
X137813500Y-109868333D02*
X137780166Y-109835000D01*
X137746833Y-109868333D01*
X137780166Y-109901666D01*
X137813500Y-109868333D01*
X137746833Y-109868333D01*
X137780166Y-109235000D02*
X137746833Y-109301666D01*
X137746833Y-109435000D01*
X137780166Y-109501666D01*
X137813500Y-109535000D01*
X137880166Y-109568333D01*
X138080166Y-109568333D01*
X138146833Y-109535000D01*
X138180166Y-109501666D01*
X138213500Y-109435000D01*
X138213500Y-109301666D01*
X138180166Y-109235000D01*
X137746833Y-108835000D02*
X137780166Y-108901666D01*
X137813500Y-108935000D01*
X137880166Y-108968333D01*
X138080166Y-108968333D01*
X138146833Y-108935000D01*
X138180166Y-108901666D01*
X138213500Y-108835000D01*
X138213500Y-108735000D01*
X138180166Y-108668333D01*
X138146833Y-108635000D01*
X138080166Y-108601666D01*
X137880166Y-108601666D01*
X137813500Y-108635000D01*
X137780166Y-108668333D01*
X137746833Y-108735000D01*
X137746833Y-108835000D01*
X137746833Y-108301666D02*
X138213500Y-108301666D01*
X138146833Y-108301666D02*
X138180166Y-108268333D01*
X138213500Y-108201666D01*
X138213500Y-108101666D01*
X138180166Y-108035000D01*
X138113500Y-108001666D01*
X137746833Y-108001666D01*
X138113500Y-108001666D02*
X138180166Y-107968333D01*
X138213500Y-107901666D01*
X138213500Y-107801666D01*
X138180166Y-107735000D01*
X138113500Y-107701666D01*
X137746833Y-107701666D01*
X138480166Y-106868333D02*
X137580166Y-107468333D01*
X137946833Y-106668333D02*
X137946833Y-106335000D01*
X137746833Y-106735000D02*
X138446833Y-106501666D01*
X137746833Y-106268333D01*
X138213500Y-106035000D02*
X137746833Y-106035000D01*
X138146833Y-106035000D02*
X138180166Y-106001666D01*
X138213500Y-105935000D01*
X138213500Y-105835000D01*
X138180166Y-105768333D01*
X138113500Y-105735000D01*
X137746833Y-105735000D01*
X137746833Y-105101666D02*
X138446833Y-105101666D01*
X137780166Y-105101666D02*
X137746833Y-105168333D01*
X137746833Y-105301666D01*
X137780166Y-105368333D01*
X137813500Y-105401666D01*
X137880166Y-105435000D01*
X138080166Y-105435000D01*
X138146833Y-105401666D01*
X138180166Y-105368333D01*
X138213500Y-105301666D01*
X138213500Y-105168333D01*
X138180166Y-105101666D01*
X138213500Y-104835000D02*
X137746833Y-104668333D01*
X138213500Y-104501666D02*
X137746833Y-104668333D01*
X137580166Y-104735000D01*
X137546833Y-104768333D01*
X137513500Y-104835000D01*
X138013500Y-104235000D02*
X138013500Y-103701666D01*
X137813500Y-102968333D02*
X137780166Y-103001666D01*
X137746833Y-103101666D01*
X137746833Y-103168333D01*
X137780166Y-103268333D01*
X137846833Y-103335000D01*
X137913500Y-103368333D01*
X138046833Y-103401666D01*
X138146833Y-103401666D01*
X138280166Y-103368333D01*
X138346833Y-103335000D01*
X138413500Y-103268333D01*
X138446833Y-103168333D01*
X138446833Y-103101666D01*
X138413500Y-103001666D01*
X138380166Y-102968333D01*
X137746833Y-102668333D02*
X138446833Y-102668333D01*
X137746833Y-102368333D02*
X138113500Y-102368333D01*
X138180166Y-102401666D01*
X138213500Y-102468333D01*
X138213500Y-102568333D01*
X138180166Y-102635000D01*
X138146833Y-102668333D01*
X137780166Y-101768333D02*
X137746833Y-101835000D01*
X137746833Y-101968333D01*
X137780166Y-102035000D01*
X137846833Y-102068333D01*
X138113500Y-102068333D01*
X138180166Y-102035000D01*
X138213500Y-101968333D01*
X138213500Y-101835000D01*
X138180166Y-101768333D01*
X138113500Y-101735000D01*
X138046833Y-101735000D01*
X137980166Y-102068333D01*
X138213500Y-101435000D02*
X137746833Y-101435000D01*
X138146833Y-101435000D02*
X138180166Y-101401666D01*
X138213500Y-101335000D01*
X138213500Y-101235000D01*
X138180166Y-101168333D01*
X138113500Y-101135000D01*
X137746833Y-101135000D01*
X138213500Y-100501666D02*
X137646833Y-100501666D01*
X137580166Y-100535000D01*
X137546833Y-100568333D01*
X137513500Y-100635000D01*
X137513500Y-100735000D01*
X137546833Y-100801666D01*
X137780166Y-100501666D02*
X137746833Y-100568333D01*
X137746833Y-100701666D01*
X137780166Y-100768333D01*
X137813500Y-100801666D01*
X137880166Y-100835000D01*
X138080166Y-100835000D01*
X138146833Y-100801666D01*
X138180166Y-100768333D01*
X138213500Y-100701666D01*
X138213500Y-100568333D01*
X138180166Y-100501666D01*
X137746833Y-99801666D02*
X137746833Y-100201666D01*
X137746833Y-100001666D02*
X138446833Y-100001666D01*
X138346833Y-100068333D01*
X138280166Y-100135000D01*
X138246833Y-100201666D01*
X138446833Y-99368333D02*
X138446833Y-99301666D01*
X138413500Y-99235000D01*
X138380166Y-99201666D01*
X138313500Y-99168333D01*
X138180166Y-99135000D01*
X138013500Y-99135000D01*
X137880166Y-99168333D01*
X137813500Y-99201666D01*
X137780166Y-99235000D01*
X137746833Y-99301666D01*
X137746833Y-99368333D01*
X137780166Y-99435000D01*
X137813500Y-99468333D01*
X137880166Y-99501666D01*
X138013500Y-99535000D01*
X138180166Y-99535000D01*
X138313500Y-99501666D01*
X138380166Y-99468333D01*
X138413500Y-99435000D01*
X138446833Y-99368333D01*
X137746833Y-98468333D02*
X137746833Y-98868333D01*
X137746833Y-98668333D02*
X138446833Y-98668333D01*
X138346833Y-98735000D01*
X138280166Y-98801666D01*
X138246833Y-98868333D01*
X138446833Y-98235000D02*
X138446833Y-97768333D01*
X137746833Y-98068333D01*
X138480166Y-97001666D02*
X137580166Y-97601666D01*
X138446833Y-96868333D02*
X138446833Y-96468333D01*
X137746833Y-96668333D02*
X138446833Y-96668333D01*
X138213500Y-96301666D02*
X137746833Y-96135000D01*
X138213500Y-95968333D02*
X137746833Y-96135000D01*
X137580166Y-96201666D01*
X137546833Y-96235000D01*
X137513500Y-96301666D01*
X138213500Y-95701666D02*
X137513500Y-95701666D01*
X138180166Y-95701666D02*
X138213500Y-95635000D01*
X138213500Y-95501666D01*
X138180166Y-95435000D01*
X138146833Y-95401666D01*
X138080166Y-95368333D01*
X137880166Y-95368333D01*
X137813500Y-95401666D01*
X137780166Y-95435000D01*
X137746833Y-95501666D01*
X137746833Y-95635000D01*
X137780166Y-95701666D01*
X137780166Y-94801666D02*
X137746833Y-94868333D01*
X137746833Y-95001666D01*
X137780166Y-95068333D01*
X137846833Y-95101666D01*
X138113500Y-95101666D01*
X138180166Y-95068333D01*
X138213500Y-95001666D01*
X138213500Y-94868333D01*
X138180166Y-94801666D01*
X138113500Y-94768333D01*
X138046833Y-94768333D01*
X137980166Y-95101666D01*
X138013500Y-94468333D02*
X138013500Y-93935000D01*
X137780166Y-93301666D02*
X137746833Y-93368333D01*
X137746833Y-93501666D01*
X137780166Y-93568333D01*
X137813500Y-93601666D01*
X137880166Y-93635000D01*
X138080166Y-93635000D01*
X138146833Y-93601666D01*
X138180166Y-93568333D01*
X138213500Y-93501666D01*
X138213500Y-93368333D01*
X138180166Y-93301666D01*
X137680166Y-93168333D02*
X137680166Y-92635000D01*
X137746833Y-92468333D02*
X138446833Y-92468333D01*
X138113500Y-92468333D02*
X138113500Y-92068333D01*
X137746833Y-92068333D02*
X138446833Y-92068333D01*
X138213500Y-91435000D02*
X137746833Y-91435000D01*
X138213500Y-91735000D02*
X137846833Y-91735000D01*
X137780166Y-91701666D01*
X137746833Y-91635000D01*
X137746833Y-91535000D01*
X137780166Y-91468333D01*
X137813500Y-91435000D01*
X137746833Y-91101666D02*
X138446833Y-91101666D01*
X138180166Y-91101666D02*
X138213500Y-91035000D01*
X138213500Y-90901666D01*
X138180166Y-90835000D01*
X138146833Y-90801666D01*
X138080166Y-90768333D01*
X137880166Y-90768333D01*
X137813500Y-90801666D01*
X137780166Y-90835000D01*
X137746833Y-90901666D01*
X137746833Y-91035000D01*
X137780166Y-91101666D01*
X136986500Y-117335000D02*
X136953166Y-117235000D01*
X136919833Y-117201666D01*
X136853166Y-117168333D01*
X136753166Y-117168333D01*
X136686500Y-117201666D01*
X136653166Y-117235000D01*
X136619833Y-117301666D01*
X136619833Y-117568333D01*
X137319833Y-117568333D01*
X137319833Y-117335000D01*
X137286500Y-117268333D01*
X137253166Y-117235000D01*
X137186500Y-117201666D01*
X137119833Y-117201666D01*
X137053166Y-117235000D01*
X137019833Y-117268333D01*
X136986500Y-117335000D01*
X136986500Y-117568333D01*
X137086500Y-116935000D02*
X136619833Y-116768333D01*
X137086500Y-116601666D02*
X136619833Y-116768333D01*
X136453166Y-116835000D01*
X136419833Y-116868333D01*
X136386500Y-116935000D01*
X136819833Y-115835000D02*
X136819833Y-115501666D01*
X136619833Y-115901666D02*
X137319833Y-115668333D01*
X136619833Y-115435000D01*
X137086500Y-115201666D02*
X136619833Y-115201666D01*
X137019833Y-115201666D02*
X137053166Y-115168333D01*
X137086500Y-115101666D01*
X137086500Y-115001666D01*
X137053166Y-114935000D01*
X136986500Y-114901666D01*
X136619833Y-114901666D01*
X136619833Y-114268333D02*
X137319833Y-114268333D01*
X136653166Y-114268333D02*
X136619833Y-114335000D01*
X136619833Y-114468333D01*
X136653166Y-114535000D01*
X136686500Y-114568333D01*
X136753166Y-114601666D01*
X136953166Y-114601666D01*
X137019833Y-114568333D01*
X137053166Y-114535000D01*
X137086500Y-114468333D01*
X137086500Y-114335000D01*
X137053166Y-114268333D01*
X137086500Y-114001666D02*
X136619833Y-113835000D01*
X137086500Y-113668333D02*
X136619833Y-113835000D01*
X136453166Y-113901666D01*
X136419833Y-113935000D01*
X136386500Y-114001666D01*
X137253166Y-112901666D02*
X137286500Y-112868333D01*
X137319833Y-112801666D01*
X137319833Y-112635000D01*
X137286500Y-112568333D01*
X137253166Y-112535000D01*
X137186500Y-112501666D01*
X137119833Y-112501666D01*
X137019833Y-112535000D01*
X136619833Y-112935000D01*
X136619833Y-112501666D01*
X137319833Y-112068333D02*
X137319833Y-112001666D01*
X137286500Y-111935000D01*
X137253166Y-111901666D01*
X137186500Y-111868333D01*
X137053166Y-111835000D01*
X136886500Y-111835000D01*
X136753166Y-111868333D01*
X136686500Y-111901666D01*
X136653166Y-111935000D01*
X136619833Y-112001666D01*
X136619833Y-112068333D01*
X136653166Y-112135000D01*
X136686500Y-112168333D01*
X136753166Y-112201666D01*
X136886500Y-112235000D01*
X137053166Y-112235000D01*
X137186500Y-112201666D01*
X137253166Y-112168333D01*
X137286500Y-112135000D01*
X137319833Y-112068333D01*
X137253166Y-111568333D02*
X137286500Y-111535000D01*
X137319833Y-111468333D01*
X137319833Y-111301666D01*
X137286500Y-111235000D01*
X137253166Y-111201666D01*
X137186500Y-111168333D01*
X137119833Y-111168333D01*
X137019833Y-111201666D01*
X136619833Y-111601666D01*
X136619833Y-111168333D01*
X137319833Y-110935000D02*
X137319833Y-110501666D01*
X137053166Y-110735000D01*
X137053166Y-110635000D01*
X137019833Y-110568333D01*
X136986500Y-110535000D01*
X136919833Y-110501666D01*
X136753166Y-110501666D01*
X136686500Y-110535000D01*
X136653166Y-110568333D01*
X136619833Y-110635000D01*
X136619833Y-110835000D01*
X136653166Y-110901666D01*
X136686500Y-110935000D01*
X137353166Y-109701666D02*
X136453166Y-110301666D01*
X137319833Y-109335000D02*
X137319833Y-109268333D01*
X137286500Y-109201666D01*
X137253166Y-109168333D01*
X137186500Y-109135000D01*
X137053166Y-109101666D01*
X136886500Y-109101666D01*
X136753166Y-109135000D01*
X136686500Y-109168333D01*
X136653166Y-109201666D01*
X136619833Y-109268333D01*
X136619833Y-109335000D01*
X136653166Y-109401666D01*
X136686500Y-109435000D01*
X136753166Y-109468333D01*
X136886500Y-109501666D01*
X137053166Y-109501666D01*
X137186500Y-109468333D01*
X137253166Y-109435000D01*
X137286500Y-109401666D01*
X137319833Y-109335000D01*
X137019833Y-108701666D02*
X137053166Y-108768333D01*
X137086500Y-108801666D01*
X137153166Y-108835000D01*
X137186500Y-108835000D01*
X137253166Y-108801666D01*
X137286500Y-108768333D01*
X137319833Y-108701666D01*
X137319833Y-108568333D01*
X137286500Y-108501666D01*
X137253166Y-108468333D01*
X137186500Y-108435000D01*
X137153166Y-108435000D01*
X137086500Y-108468333D01*
X137053166Y-108501666D01*
X137019833Y-108568333D01*
X137019833Y-108701666D01*
X136986500Y-108768333D01*
X136953166Y-108801666D01*
X136886500Y-108835000D01*
X136753166Y-108835000D01*
X136686500Y-108801666D01*
X136653166Y-108768333D01*
X136619833Y-108701666D01*
X136619833Y-108568333D01*
X136653166Y-108501666D01*
X136686500Y-108468333D01*
X136753166Y-108435000D01*
X136886500Y-108435000D01*
X136953166Y-108468333D01*
X136986500Y-108501666D01*
X137019833Y-108568333D01*
X137353166Y-107635000D02*
X136453166Y-108235000D01*
X137253166Y-107435000D02*
X137286500Y-107401666D01*
X137319833Y-107335000D01*
X137319833Y-107168333D01*
X137286500Y-107101666D01*
X137253166Y-107068333D01*
X137186500Y-107035000D01*
X137119833Y-107035000D01*
X137019833Y-107068333D01*
X136619833Y-107468333D01*
X136619833Y-107035000D01*
X137019833Y-106635000D02*
X137053166Y-106701666D01*
X137086500Y-106735000D01*
X137153166Y-106768333D01*
X137186500Y-106768333D01*
X137253166Y-106735000D01*
X137286500Y-106701666D01*
X137319833Y-106635000D01*
X137319833Y-106501666D01*
X137286500Y-106435000D01*
X137253166Y-106401666D01*
X137186500Y-106368333D01*
X137153166Y-106368333D01*
X137086500Y-106401666D01*
X137053166Y-106435000D01*
X137019833Y-106501666D01*
X137019833Y-106635000D01*
X136986500Y-106701666D01*
X136953166Y-106735000D01*
X136886500Y-106768333D01*
X136753166Y-106768333D01*
X136686500Y-106735000D01*
X136653166Y-106701666D01*
X136619833Y-106635000D01*
X136619833Y-106501666D01*
X136653166Y-106435000D01*
X136686500Y-106401666D01*
X136753166Y-106368333D01*
X136886500Y-106368333D01*
X136953166Y-106401666D01*
X136986500Y-106435000D01*
X137019833Y-106501666D01*
X117746833Y-117568333D02*
X118446833Y-117568333D01*
X117746833Y-117268333D02*
X118113500Y-117268333D01*
X118180166Y-117301666D01*
X118213500Y-117368333D01*
X118213500Y-117468333D01*
X118180166Y-117535000D01*
X118146833Y-117568333D01*
X118213500Y-117035000D02*
X118213500Y-116768333D01*
X118446833Y-116935000D02*
X117846833Y-116935000D01*
X117780166Y-116901666D01*
X117746833Y-116835000D01*
X117746833Y-116768333D01*
X118213500Y-116635000D02*
X118213500Y-116368333D01*
X118446833Y-116535000D02*
X117846833Y-116535000D01*
X117780166Y-116501666D01*
X117746833Y-116435000D01*
X117746833Y-116368333D01*
X118213500Y-116135000D02*
X117513500Y-116135000D01*
X118180166Y-116135000D02*
X118213500Y-116068333D01*
X118213500Y-115935000D01*
X118180166Y-115868333D01*
X118146833Y-115835000D01*
X118080166Y-115801666D01*
X117880166Y-115801666D01*
X117813500Y-115835000D01*
X117780166Y-115868333D01*
X117746833Y-115935000D01*
X117746833Y-116068333D01*
X117780166Y-116135000D01*
X117780166Y-115535000D02*
X117746833Y-115468333D01*
X117746833Y-115335000D01*
X117780166Y-115268333D01*
X117846833Y-115235000D01*
X117880166Y-115235000D01*
X117946833Y-115268333D01*
X117980166Y-115335000D01*
X117980166Y-115435000D01*
X118013500Y-115501666D01*
X118080166Y-115535000D01*
X118113500Y-115535000D01*
X118180166Y-115501666D01*
X118213500Y-115435000D01*
X118213500Y-115335000D01*
X118180166Y-115268333D01*
X117813500Y-114935000D02*
X117780166Y-114901666D01*
X117746833Y-114935000D01*
X117780166Y-114968333D01*
X117813500Y-114935000D01*
X117746833Y-114935000D01*
X118180166Y-114935000D02*
X118146833Y-114901666D01*
X118113500Y-114935000D01*
X118146833Y-114968333D01*
X118180166Y-114935000D01*
X118113500Y-114935000D01*
X118480166Y-114101666D02*
X117580166Y-114701666D01*
X118480166Y-113368333D02*
X117580166Y-113968333D01*
X118213500Y-112835000D02*
X117646833Y-112835000D01*
X117580166Y-112868333D01*
X117546833Y-112901666D01*
X117513500Y-112968333D01*
X117513500Y-113068333D01*
X117546833Y-113135000D01*
X117780166Y-112835000D02*
X117746833Y-112901666D01*
X117746833Y-113035000D01*
X117780166Y-113101666D01*
X117813500Y-113135000D01*
X117880166Y-113168333D01*
X118080166Y-113168333D01*
X118146833Y-113135000D01*
X118180166Y-113101666D01*
X118213500Y-113035000D01*
X118213500Y-112901666D01*
X118180166Y-112835000D01*
X117746833Y-112501666D02*
X118213500Y-112501666D01*
X118446833Y-112501666D02*
X118413500Y-112535000D01*
X118380166Y-112501666D01*
X118413500Y-112468333D01*
X118446833Y-112501666D01*
X118380166Y-112501666D01*
X118213500Y-112268333D02*
X118213500Y-112001666D01*
X118446833Y-112168333D02*
X117846833Y-112168333D01*
X117780166Y-112135000D01*
X117746833Y-112068333D01*
X117746833Y-112001666D01*
X117746833Y-111768333D02*
X118446833Y-111768333D01*
X117746833Y-111468333D02*
X118113500Y-111468333D01*
X118180166Y-111501666D01*
X118213500Y-111568333D01*
X118213500Y-111668333D01*
X118180166Y-111735000D01*
X118146833Y-111768333D01*
X118213500Y-110835000D02*
X117746833Y-110835000D01*
X118213500Y-111135000D02*
X117846833Y-111135000D01*
X117780166Y-111101666D01*
X117746833Y-111035000D01*
X117746833Y-110935000D01*
X117780166Y-110868333D01*
X117813500Y-110835000D01*
X117746833Y-110501666D02*
X118446833Y-110501666D01*
X118180166Y-110501666D02*
X118213500Y-110435000D01*
X118213500Y-110301666D01*
X118180166Y-110235000D01*
X118146833Y-110201666D01*
X118080166Y-110168333D01*
X117880166Y-110168333D01*
X117813500Y-110201666D01*
X117780166Y-110235000D01*
X117746833Y-110301666D01*
X117746833Y-110435000D01*
X117780166Y-110501666D01*
X117813500Y-109868333D02*
X117780166Y-109835000D01*
X117746833Y-109868333D01*
X117780166Y-109901666D01*
X117813500Y-109868333D01*
X117746833Y-109868333D01*
X117780166Y-109235000D02*
X117746833Y-109301666D01*
X117746833Y-109435000D01*
X117780166Y-109501666D01*
X117813500Y-109535000D01*
X117880166Y-109568333D01*
X118080166Y-109568333D01*
X118146833Y-109535000D01*
X118180166Y-109501666D01*
X118213500Y-109435000D01*
X118213500Y-109301666D01*
X118180166Y-109235000D01*
X117746833Y-108835000D02*
X117780166Y-108901666D01*
X117813500Y-108935000D01*
X117880166Y-108968333D01*
X118080166Y-108968333D01*
X118146833Y-108935000D01*
X118180166Y-108901666D01*
X118213500Y-108835000D01*
X118213500Y-108735000D01*
X118180166Y-108668333D01*
X118146833Y-108635000D01*
X118080166Y-108601666D01*
X117880166Y-108601666D01*
X117813500Y-108635000D01*
X117780166Y-108668333D01*
X117746833Y-108735000D01*
X117746833Y-108835000D01*
X117746833Y-108301666D02*
X118213500Y-108301666D01*
X118146833Y-108301666D02*
X118180166Y-108268333D01*
X118213500Y-108201666D01*
X118213500Y-108101666D01*
X118180166Y-108035000D01*
X118113500Y-108001666D01*
X117746833Y-108001666D01*
X118113500Y-108001666D02*
X118180166Y-107968333D01*
X118213500Y-107901666D01*
X118213500Y-107801666D01*
X118180166Y-107735000D01*
X118113500Y-107701666D01*
X117746833Y-107701666D01*
X118480166Y-106868333D02*
X117580166Y-107468333D01*
X117946833Y-106668333D02*
X117946833Y-106335000D01*
X117746833Y-106735000D02*
X118446833Y-106501666D01*
X117746833Y-106268333D01*
X118213500Y-106035000D02*
X117746833Y-106035000D01*
X118146833Y-106035000D02*
X118180166Y-106001666D01*
X118213500Y-105935000D01*
X118213500Y-105835000D01*
X118180166Y-105768333D01*
X118113500Y-105735000D01*
X117746833Y-105735000D01*
X117746833Y-105101666D02*
X118446833Y-105101666D01*
X117780166Y-105101666D02*
X117746833Y-105168333D01*
X117746833Y-105301666D01*
X117780166Y-105368333D01*
X117813500Y-105401666D01*
X117880166Y-105435000D01*
X118080166Y-105435000D01*
X118146833Y-105401666D01*
X118180166Y-105368333D01*
X118213500Y-105301666D01*
X118213500Y-105168333D01*
X118180166Y-105101666D01*
X118213500Y-104835000D02*
X117746833Y-104668333D01*
X118213500Y-104501666D02*
X117746833Y-104668333D01*
X117580166Y-104735000D01*
X117546833Y-104768333D01*
X117513500Y-104835000D01*
X118013500Y-104235000D02*
X118013500Y-103701666D01*
X117813500Y-102968333D02*
X117780166Y-103001666D01*
X117746833Y-103101666D01*
X117746833Y-103168333D01*
X117780166Y-103268333D01*
X117846833Y-103335000D01*
X117913500Y-103368333D01*
X118046833Y-103401666D01*
X118146833Y-103401666D01*
X118280166Y-103368333D01*
X118346833Y-103335000D01*
X118413500Y-103268333D01*
X118446833Y-103168333D01*
X118446833Y-103101666D01*
X118413500Y-103001666D01*
X118380166Y-102968333D01*
X117746833Y-102668333D02*
X118446833Y-102668333D01*
X117746833Y-102368333D02*
X118113500Y-102368333D01*
X118180166Y-102401666D01*
X118213500Y-102468333D01*
X118213500Y-102568333D01*
X118180166Y-102635000D01*
X118146833Y-102668333D01*
X117780166Y-101768333D02*
X117746833Y-101835000D01*
X117746833Y-101968333D01*
X117780166Y-102035000D01*
X117846833Y-102068333D01*
X118113500Y-102068333D01*
X118180166Y-102035000D01*
X118213500Y-101968333D01*
X118213500Y-101835000D01*
X118180166Y-101768333D01*
X118113500Y-101735000D01*
X118046833Y-101735000D01*
X117980166Y-102068333D01*
X118213500Y-101435000D02*
X117746833Y-101435000D01*
X118146833Y-101435000D02*
X118180166Y-101401666D01*
X118213500Y-101335000D01*
X118213500Y-101235000D01*
X118180166Y-101168333D01*
X118113500Y-101135000D01*
X117746833Y-101135000D01*
X118213500Y-100501666D02*
X117646833Y-100501666D01*
X117580166Y-100535000D01*
X117546833Y-100568333D01*
X117513500Y-100635000D01*
X117513500Y-100735000D01*
X117546833Y-100801666D01*
X117780166Y-100501666D02*
X117746833Y-100568333D01*
X117746833Y-100701666D01*
X117780166Y-100768333D01*
X117813500Y-100801666D01*
X117880166Y-100835000D01*
X118080166Y-100835000D01*
X118146833Y-100801666D01*
X118180166Y-100768333D01*
X118213500Y-100701666D01*
X118213500Y-100568333D01*
X118180166Y-100501666D01*
X117746833Y-99801666D02*
X117746833Y-100201666D01*
X117746833Y-100001666D02*
X118446833Y-100001666D01*
X118346833Y-100068333D01*
X118280166Y-100135000D01*
X118246833Y-100201666D01*
X118446833Y-99368333D02*
X118446833Y-99301666D01*
X118413500Y-99235000D01*
X118380166Y-99201666D01*
X118313500Y-99168333D01*
X118180166Y-99135000D01*
X118013500Y-99135000D01*
X117880166Y-99168333D01*
X117813500Y-99201666D01*
X117780166Y-99235000D01*
X117746833Y-99301666D01*
X117746833Y-99368333D01*
X117780166Y-99435000D01*
X117813500Y-99468333D01*
X117880166Y-99501666D01*
X118013500Y-99535000D01*
X118180166Y-99535000D01*
X118313500Y-99501666D01*
X118380166Y-99468333D01*
X118413500Y-99435000D01*
X118446833Y-99368333D01*
X117746833Y-98468333D02*
X117746833Y-98868333D01*
X117746833Y-98668333D02*
X118446833Y-98668333D01*
X118346833Y-98735000D01*
X118280166Y-98801666D01*
X118246833Y-98868333D01*
X118446833Y-98235000D02*
X118446833Y-97768333D01*
X117746833Y-98068333D01*
X118480166Y-97001666D02*
X117580166Y-97601666D01*
X118446833Y-96868333D02*
X118446833Y-96468333D01*
X117746833Y-96668333D02*
X118446833Y-96668333D01*
X118213500Y-96301666D02*
X117746833Y-96135000D01*
X118213500Y-95968333D02*
X117746833Y-96135000D01*
X117580166Y-96201666D01*
X117546833Y-96235000D01*
X117513500Y-96301666D01*
X118213500Y-95701666D02*
X117513500Y-95701666D01*
X118180166Y-95701666D02*
X118213500Y-95635000D01*
X118213500Y-95501666D01*
X118180166Y-95435000D01*
X118146833Y-95401666D01*
X118080166Y-95368333D01*
X117880166Y-95368333D01*
X117813500Y-95401666D01*
X117780166Y-95435000D01*
X117746833Y-95501666D01*
X117746833Y-95635000D01*
X117780166Y-95701666D01*
X117780166Y-94801666D02*
X117746833Y-94868333D01*
X117746833Y-95001666D01*
X117780166Y-95068333D01*
X117846833Y-95101666D01*
X118113500Y-95101666D01*
X118180166Y-95068333D01*
X118213500Y-95001666D01*
X118213500Y-94868333D01*
X118180166Y-94801666D01*
X118113500Y-94768333D01*
X118046833Y-94768333D01*
X117980166Y-95101666D01*
X118013500Y-94468333D02*
X118013500Y-93935000D01*
X117780166Y-93301666D02*
X117746833Y-93368333D01*
X117746833Y-93501666D01*
X117780166Y-93568333D01*
X117813500Y-93601666D01*
X117880166Y-93635000D01*
X118080166Y-93635000D01*
X118146833Y-93601666D01*
X118180166Y-93568333D01*
X118213500Y-93501666D01*
X118213500Y-93368333D01*
X118180166Y-93301666D01*
X117680166Y-93168333D02*
X117680166Y-92635000D01*
X117746833Y-92468333D02*
X118446833Y-92468333D01*
X118113500Y-92468333D02*
X118113500Y-92068333D01*
X117746833Y-92068333D02*
X118446833Y-92068333D01*
X118213500Y-91435000D02*
X117746833Y-91435000D01*
X118213500Y-91735000D02*
X117846833Y-91735000D01*
X117780166Y-91701666D01*
X117746833Y-91635000D01*
X117746833Y-91535000D01*
X117780166Y-91468333D01*
X117813500Y-91435000D01*
X117746833Y-91101666D02*
X118446833Y-91101666D01*
X118180166Y-91101666D02*
X118213500Y-91035000D01*
X118213500Y-90901666D01*
X118180166Y-90835000D01*
X118146833Y-90801666D01*
X118080166Y-90768333D01*
X117880166Y-90768333D01*
X117813500Y-90801666D01*
X117780166Y-90835000D01*
X117746833Y-90901666D01*
X117746833Y-91035000D01*
X117780166Y-91101666D01*
X116986500Y-117335000D02*
X116953166Y-117235000D01*
X116919833Y-117201666D01*
X116853166Y-117168333D01*
X116753166Y-117168333D01*
X116686500Y-117201666D01*
X116653166Y-117235000D01*
X116619833Y-117301666D01*
X116619833Y-117568333D01*
X117319833Y-117568333D01*
X117319833Y-117335000D01*
X117286500Y-117268333D01*
X117253166Y-117235000D01*
X117186500Y-117201666D01*
X117119833Y-117201666D01*
X117053166Y-117235000D01*
X117019833Y-117268333D01*
X116986500Y-117335000D01*
X116986500Y-117568333D01*
X117086500Y-116935000D02*
X116619833Y-116768333D01*
X117086500Y-116601666D02*
X116619833Y-116768333D01*
X116453166Y-116835000D01*
X116419833Y-116868333D01*
X116386500Y-116935000D01*
X116819833Y-115835000D02*
X116819833Y-115501666D01*
X116619833Y-115901666D02*
X117319833Y-115668333D01*
X116619833Y-115435000D01*
X117086500Y-115201666D02*
X116619833Y-115201666D01*
X117019833Y-115201666D02*
X117053166Y-115168333D01*
X117086500Y-115101666D01*
X117086500Y-115001666D01*
X117053166Y-114935000D01*
X116986500Y-114901666D01*
X116619833Y-114901666D01*
X116619833Y-114268333D02*
X117319833Y-114268333D01*
X116653166Y-114268333D02*
X116619833Y-114335000D01*
X116619833Y-114468333D01*
X116653166Y-114535000D01*
X116686500Y-114568333D01*
X116753166Y-114601666D01*
X116953166Y-114601666D01*
X117019833Y-114568333D01*
X117053166Y-114535000D01*
X117086500Y-114468333D01*
X117086500Y-114335000D01*
X117053166Y-114268333D01*
X117086500Y-114001666D02*
X116619833Y-113835000D01*
X117086500Y-113668333D02*
X116619833Y-113835000D01*
X116453166Y-113901666D01*
X116419833Y-113935000D01*
X116386500Y-114001666D01*
X117253166Y-112901666D02*
X117286500Y-112868333D01*
X117319833Y-112801666D01*
X117319833Y-112635000D01*
X117286500Y-112568333D01*
X117253166Y-112535000D01*
X117186500Y-112501666D01*
X117119833Y-112501666D01*
X117019833Y-112535000D01*
X116619833Y-112935000D01*
X116619833Y-112501666D01*
X117319833Y-112068333D02*
X117319833Y-112001666D01*
X117286500Y-111935000D01*
X117253166Y-111901666D01*
X117186500Y-111868333D01*
X117053166Y-111835000D01*
X116886500Y-111835000D01*
X116753166Y-111868333D01*
X116686500Y-111901666D01*
X116653166Y-111935000D01*
X116619833Y-112001666D01*
X116619833Y-112068333D01*
X116653166Y-112135000D01*
X116686500Y-112168333D01*
X116753166Y-112201666D01*
X116886500Y-112235000D01*
X117053166Y-112235000D01*
X117186500Y-112201666D01*
X117253166Y-112168333D01*
X117286500Y-112135000D01*
X117319833Y-112068333D01*
X117253166Y-111568333D02*
X117286500Y-111535000D01*
X117319833Y-111468333D01*
X117319833Y-111301666D01*
X117286500Y-111235000D01*
X117253166Y-111201666D01*
X117186500Y-111168333D01*
X117119833Y-111168333D01*
X117019833Y-111201666D01*
X116619833Y-111601666D01*
X116619833Y-111168333D01*
X117319833Y-110935000D02*
X117319833Y-110501666D01*
X117053166Y-110735000D01*
X117053166Y-110635000D01*
X117019833Y-110568333D01*
X116986500Y-110535000D01*
X116919833Y-110501666D01*
X116753166Y-110501666D01*
X116686500Y-110535000D01*
X116653166Y-110568333D01*
X116619833Y-110635000D01*
X116619833Y-110835000D01*
X116653166Y-110901666D01*
X116686500Y-110935000D01*
X117353166Y-109701666D02*
X116453166Y-110301666D01*
X117319833Y-109335000D02*
X117319833Y-109268333D01*
X117286500Y-109201666D01*
X117253166Y-109168333D01*
X117186500Y-109135000D01*
X117053166Y-109101666D01*
X116886500Y-109101666D01*
X116753166Y-109135000D01*
X116686500Y-109168333D01*
X116653166Y-109201666D01*
X116619833Y-109268333D01*
X116619833Y-109335000D01*
X116653166Y-109401666D01*
X116686500Y-109435000D01*
X116753166Y-109468333D01*
X116886500Y-109501666D01*
X117053166Y-109501666D01*
X117186500Y-109468333D01*
X117253166Y-109435000D01*
X117286500Y-109401666D01*
X117319833Y-109335000D01*
X117019833Y-108701666D02*
X117053166Y-108768333D01*
X117086500Y-108801666D01*
X117153166Y-108835000D01*
X117186500Y-108835000D01*
X117253166Y-108801666D01*
X117286500Y-108768333D01*
X117319833Y-108701666D01*
X117319833Y-108568333D01*
X117286500Y-108501666D01*
X117253166Y-108468333D01*
X117186500Y-108435000D01*
X117153166Y-108435000D01*
X117086500Y-108468333D01*
X117053166Y-108501666D01*
X117019833Y-108568333D01*
X117019833Y-108701666D01*
X116986500Y-108768333D01*
X116953166Y-108801666D01*
X116886500Y-108835000D01*
X116753166Y-108835000D01*
X116686500Y-108801666D01*
X116653166Y-108768333D01*
X116619833Y-108701666D01*
X116619833Y-108568333D01*
X116653166Y-108501666D01*
X116686500Y-108468333D01*
X116753166Y-108435000D01*
X116886500Y-108435000D01*
X116953166Y-108468333D01*
X116986500Y-108501666D01*
X117019833Y-108568333D01*
X117353166Y-107635000D02*
X116453166Y-108235000D01*
X117253166Y-107435000D02*
X117286500Y-107401666D01*
X117319833Y-107335000D01*
X117319833Y-107168333D01*
X117286500Y-107101666D01*
X117253166Y-107068333D01*
X117186500Y-107035000D01*
X117119833Y-107035000D01*
X117019833Y-107068333D01*
X116619833Y-107468333D01*
X116619833Y-107035000D01*
X117019833Y-106635000D02*
X117053166Y-106701666D01*
X117086500Y-106735000D01*
X117153166Y-106768333D01*
X117186500Y-106768333D01*
X117253166Y-106735000D01*
X117286500Y-106701666D01*
X117319833Y-106635000D01*
X117319833Y-106501666D01*
X117286500Y-106435000D01*
X117253166Y-106401666D01*
X117186500Y-106368333D01*
X117153166Y-106368333D01*
X117086500Y-106401666D01*
X117053166Y-106435000D01*
X117019833Y-106501666D01*
X117019833Y-106635000D01*
X116986500Y-106701666D01*
X116953166Y-106735000D01*
X116886500Y-106768333D01*
X116753166Y-106768333D01*
X116686500Y-106735000D01*
X116653166Y-106701666D01*
X116619833Y-106635000D01*
X116619833Y-106501666D01*
X116653166Y-106435000D01*
X116686500Y-106401666D01*
X116753166Y-106368333D01*
X116886500Y-106368333D01*
X116953166Y-106401666D01*
X116986500Y-106435000D01*
X117019833Y-106501666D01*
X97746833Y-117568333D02*
X98446833Y-117568333D01*
X97746833Y-117268333D02*
X98113500Y-117268333D01*
X98180166Y-117301666D01*
X98213500Y-117368333D01*
X98213500Y-117468333D01*
X98180166Y-117535000D01*
X98146833Y-117568333D01*
X98213500Y-117035000D02*
X98213500Y-116768333D01*
X98446833Y-116935000D02*
X97846833Y-116935000D01*
X97780166Y-116901666D01*
X97746833Y-116835000D01*
X97746833Y-116768333D01*
X98213500Y-116635000D02*
X98213500Y-116368333D01*
X98446833Y-116535000D02*
X97846833Y-116535000D01*
X97780166Y-116501666D01*
X97746833Y-116435000D01*
X97746833Y-116368333D01*
X98213500Y-116135000D02*
X97513500Y-116135000D01*
X98180166Y-116135000D02*
X98213500Y-116068333D01*
X98213500Y-115935000D01*
X98180166Y-115868333D01*
X98146833Y-115835000D01*
X98080166Y-115801666D01*
X97880166Y-115801666D01*
X97813500Y-115835000D01*
X97780166Y-115868333D01*
X97746833Y-115935000D01*
X97746833Y-116068333D01*
X97780166Y-116135000D01*
X97780166Y-115535000D02*
X97746833Y-115468333D01*
X97746833Y-115335000D01*
X97780166Y-115268333D01*
X97846833Y-115235000D01*
X97880166Y-115235000D01*
X97946833Y-115268333D01*
X97980166Y-115335000D01*
X97980166Y-115435000D01*
X98013500Y-115501666D01*
X98080166Y-115535000D01*
X98113500Y-115535000D01*
X98180166Y-115501666D01*
X98213500Y-115435000D01*
X98213500Y-115335000D01*
X98180166Y-115268333D01*
X97813500Y-114935000D02*
X97780166Y-114901666D01*
X97746833Y-114935000D01*
X97780166Y-114968333D01*
X97813500Y-114935000D01*
X97746833Y-114935000D01*
X98180166Y-114935000D02*
X98146833Y-114901666D01*
X98113500Y-114935000D01*
X98146833Y-114968333D01*
X98180166Y-114935000D01*
X98113500Y-114935000D01*
X98480166Y-114101666D02*
X97580166Y-114701666D01*
X98480166Y-113368333D02*
X97580166Y-113968333D01*
X98213500Y-112835000D02*
X97646833Y-112835000D01*
X97580166Y-112868333D01*
X97546833Y-112901666D01*
X97513500Y-112968333D01*
X97513500Y-113068333D01*
X97546833Y-113135000D01*
X97780166Y-112835000D02*
X97746833Y-112901666D01*
X97746833Y-113035000D01*
X97780166Y-113101666D01*
X97813500Y-113135000D01*
X97880166Y-113168333D01*
X98080166Y-113168333D01*
X98146833Y-113135000D01*
X98180166Y-113101666D01*
X98213500Y-113035000D01*
X98213500Y-112901666D01*
X98180166Y-112835000D01*
X97746833Y-112501666D02*
X98213500Y-112501666D01*
X98446833Y-112501666D02*
X98413500Y-112535000D01*
X98380166Y-112501666D01*
X98413500Y-112468333D01*
X98446833Y-112501666D01*
X98380166Y-112501666D01*
X98213500Y-112268333D02*
X98213500Y-112001666D01*
X98446833Y-112168333D02*
X97846833Y-112168333D01*
X97780166Y-112135000D01*
X97746833Y-112068333D01*
X97746833Y-112001666D01*
X97746833Y-111768333D02*
X98446833Y-111768333D01*
X97746833Y-111468333D02*
X98113500Y-111468333D01*
X98180166Y-111501666D01*
X98213500Y-111568333D01*
X98213500Y-111668333D01*
X98180166Y-111735000D01*
X98146833Y-111768333D01*
X98213500Y-110835000D02*
X97746833Y-110835000D01*
X98213500Y-111135000D02*
X97846833Y-111135000D01*
X97780166Y-111101666D01*
X97746833Y-111035000D01*
X97746833Y-110935000D01*
X97780166Y-110868333D01*
X97813500Y-110835000D01*
X97746833Y-110501666D02*
X98446833Y-110501666D01*
X98180166Y-110501666D02*
X98213500Y-110435000D01*
X98213500Y-110301666D01*
X98180166Y-110235000D01*
X98146833Y-110201666D01*
X98080166Y-110168333D01*
X97880166Y-110168333D01*
X97813500Y-110201666D01*
X97780166Y-110235000D01*
X97746833Y-110301666D01*
X97746833Y-110435000D01*
X97780166Y-110501666D01*
X97813500Y-109868333D02*
X97780166Y-109835000D01*
X97746833Y-109868333D01*
X97780166Y-109901666D01*
X97813500Y-109868333D01*
X97746833Y-109868333D01*
X97780166Y-109235000D02*
X97746833Y-109301666D01*
X97746833Y-109435000D01*
X97780166Y-109501666D01*
X97813500Y-109535000D01*
X97880166Y-109568333D01*
X98080166Y-109568333D01*
X98146833Y-109535000D01*
X98180166Y-109501666D01*
X98213500Y-109435000D01*
X98213500Y-109301666D01*
X98180166Y-109235000D01*
X97746833Y-108835000D02*
X97780166Y-108901666D01*
X97813500Y-108935000D01*
X97880166Y-108968333D01*
X98080166Y-108968333D01*
X98146833Y-108935000D01*
X98180166Y-108901666D01*
X98213500Y-108835000D01*
X98213500Y-108735000D01*
X98180166Y-108668333D01*
X98146833Y-108635000D01*
X98080166Y-108601666D01*
X97880166Y-108601666D01*
X97813500Y-108635000D01*
X97780166Y-108668333D01*
X97746833Y-108735000D01*
X97746833Y-108835000D01*
X97746833Y-108301666D02*
X98213500Y-108301666D01*
X98146833Y-108301666D02*
X98180166Y-108268333D01*
X98213500Y-108201666D01*
X98213500Y-108101666D01*
X98180166Y-108035000D01*
X98113500Y-108001666D01*
X97746833Y-108001666D01*
X98113500Y-108001666D02*
X98180166Y-107968333D01*
X98213500Y-107901666D01*
X98213500Y-107801666D01*
X98180166Y-107735000D01*
X98113500Y-107701666D01*
X97746833Y-107701666D01*
X98480166Y-106868333D02*
X97580166Y-107468333D01*
X97946833Y-106668333D02*
X97946833Y-106335000D01*
X97746833Y-106735000D02*
X98446833Y-106501666D01*
X97746833Y-106268333D01*
X98213500Y-106035000D02*
X97746833Y-106035000D01*
X98146833Y-106035000D02*
X98180166Y-106001666D01*
X98213500Y-105935000D01*
X98213500Y-105835000D01*
X98180166Y-105768333D01*
X98113500Y-105735000D01*
X97746833Y-105735000D01*
X97746833Y-105101666D02*
X98446833Y-105101666D01*
X97780166Y-105101666D02*
X97746833Y-105168333D01*
X97746833Y-105301666D01*
X97780166Y-105368333D01*
X97813500Y-105401666D01*
X97880166Y-105435000D01*
X98080166Y-105435000D01*
X98146833Y-105401666D01*
X98180166Y-105368333D01*
X98213500Y-105301666D01*
X98213500Y-105168333D01*
X98180166Y-105101666D01*
X98213500Y-104835000D02*
X97746833Y-104668333D01*
X98213500Y-104501666D02*
X97746833Y-104668333D01*
X97580166Y-104735000D01*
X97546833Y-104768333D01*
X97513500Y-104835000D01*
X98013500Y-104235000D02*
X98013500Y-103701666D01*
X97813500Y-102968333D02*
X97780166Y-103001666D01*
X97746833Y-103101666D01*
X97746833Y-103168333D01*
X97780166Y-103268333D01*
X97846833Y-103335000D01*
X97913500Y-103368333D01*
X98046833Y-103401666D01*
X98146833Y-103401666D01*
X98280166Y-103368333D01*
X98346833Y-103335000D01*
X98413500Y-103268333D01*
X98446833Y-103168333D01*
X98446833Y-103101666D01*
X98413500Y-103001666D01*
X98380166Y-102968333D01*
X97746833Y-102668333D02*
X98446833Y-102668333D01*
X97746833Y-102368333D02*
X98113500Y-102368333D01*
X98180166Y-102401666D01*
X98213500Y-102468333D01*
X98213500Y-102568333D01*
X98180166Y-102635000D01*
X98146833Y-102668333D01*
X97780166Y-101768333D02*
X97746833Y-101835000D01*
X97746833Y-101968333D01*
X97780166Y-102035000D01*
X97846833Y-102068333D01*
X98113500Y-102068333D01*
X98180166Y-102035000D01*
X98213500Y-101968333D01*
X98213500Y-101835000D01*
X98180166Y-101768333D01*
X98113500Y-101735000D01*
X98046833Y-101735000D01*
X97980166Y-102068333D01*
X98213500Y-101435000D02*
X97746833Y-101435000D01*
X98146833Y-101435000D02*
X98180166Y-101401666D01*
X98213500Y-101335000D01*
X98213500Y-101235000D01*
X98180166Y-101168333D01*
X98113500Y-101135000D01*
X97746833Y-101135000D01*
X98213500Y-100501666D02*
X97646833Y-100501666D01*
X97580166Y-100535000D01*
X97546833Y-100568333D01*
X97513500Y-100635000D01*
X97513500Y-100735000D01*
X97546833Y-100801666D01*
X97780166Y-100501666D02*
X97746833Y-100568333D01*
X97746833Y-100701666D01*
X97780166Y-100768333D01*
X97813500Y-100801666D01*
X97880166Y-100835000D01*
X98080166Y-100835000D01*
X98146833Y-100801666D01*
X98180166Y-100768333D01*
X98213500Y-100701666D01*
X98213500Y-100568333D01*
X98180166Y-100501666D01*
X97746833Y-99801666D02*
X97746833Y-100201666D01*
X97746833Y-100001666D02*
X98446833Y-100001666D01*
X98346833Y-100068333D01*
X98280166Y-100135000D01*
X98246833Y-100201666D01*
X98446833Y-99368333D02*
X98446833Y-99301666D01*
X98413500Y-99235000D01*
X98380166Y-99201666D01*
X98313500Y-99168333D01*
X98180166Y-99135000D01*
X98013500Y-99135000D01*
X97880166Y-99168333D01*
X97813500Y-99201666D01*
X97780166Y-99235000D01*
X97746833Y-99301666D01*
X97746833Y-99368333D01*
X97780166Y-99435000D01*
X97813500Y-99468333D01*
X97880166Y-99501666D01*
X98013500Y-99535000D01*
X98180166Y-99535000D01*
X98313500Y-99501666D01*
X98380166Y-99468333D01*
X98413500Y-99435000D01*
X98446833Y-99368333D01*
X97746833Y-98468333D02*
X97746833Y-98868333D01*
X97746833Y-98668333D02*
X98446833Y-98668333D01*
X98346833Y-98735000D01*
X98280166Y-98801666D01*
X98246833Y-98868333D01*
X98446833Y-98235000D02*
X98446833Y-97768333D01*
X97746833Y-98068333D01*
X98480166Y-97001666D02*
X97580166Y-97601666D01*
X98446833Y-96868333D02*
X98446833Y-96468333D01*
X97746833Y-96668333D02*
X98446833Y-96668333D01*
X98213500Y-96301666D02*
X97746833Y-96135000D01*
X98213500Y-95968333D02*
X97746833Y-96135000D01*
X97580166Y-96201666D01*
X97546833Y-96235000D01*
X97513500Y-96301666D01*
X98213500Y-95701666D02*
X97513500Y-95701666D01*
X98180166Y-95701666D02*
X98213500Y-95635000D01*
X98213500Y-95501666D01*
X98180166Y-95435000D01*
X98146833Y-95401666D01*
X98080166Y-95368333D01*
X97880166Y-95368333D01*
X97813500Y-95401666D01*
X97780166Y-95435000D01*
X97746833Y-95501666D01*
X97746833Y-95635000D01*
X97780166Y-95701666D01*
X97780166Y-94801666D02*
X97746833Y-94868333D01*
X97746833Y-95001666D01*
X97780166Y-95068333D01*
X97846833Y-95101666D01*
X98113500Y-95101666D01*
X98180166Y-95068333D01*
X98213500Y-95001666D01*
X98213500Y-94868333D01*
X98180166Y-94801666D01*
X98113500Y-94768333D01*
X98046833Y-94768333D01*
X97980166Y-95101666D01*
X98013500Y-94468333D02*
X98013500Y-93935000D01*
X97780166Y-93301666D02*
X97746833Y-93368333D01*
X97746833Y-93501666D01*
X97780166Y-93568333D01*
X97813500Y-93601666D01*
X97880166Y-93635000D01*
X98080166Y-93635000D01*
X98146833Y-93601666D01*
X98180166Y-93568333D01*
X98213500Y-93501666D01*
X98213500Y-93368333D01*
X98180166Y-93301666D01*
X97680166Y-93168333D02*
X97680166Y-92635000D01*
X97746833Y-92468333D02*
X98446833Y-92468333D01*
X98113500Y-92468333D02*
X98113500Y-92068333D01*
X97746833Y-92068333D02*
X98446833Y-92068333D01*
X98213500Y-91435000D02*
X97746833Y-91435000D01*
X98213500Y-91735000D02*
X97846833Y-91735000D01*
X97780166Y-91701666D01*
X97746833Y-91635000D01*
X97746833Y-91535000D01*
X97780166Y-91468333D01*
X97813500Y-91435000D01*
X97746833Y-91101666D02*
X98446833Y-91101666D01*
X98180166Y-91101666D02*
X98213500Y-91035000D01*
X98213500Y-90901666D01*
X98180166Y-90835000D01*
X98146833Y-90801666D01*
X98080166Y-90768333D01*
X97880166Y-90768333D01*
X97813500Y-90801666D01*
X97780166Y-90835000D01*
X97746833Y-90901666D01*
X97746833Y-91035000D01*
X97780166Y-91101666D01*
X96986500Y-117335000D02*
X96953166Y-117235000D01*
X96919833Y-117201666D01*
X96853166Y-117168333D01*
X96753166Y-117168333D01*
X96686500Y-117201666D01*
X96653166Y-117235000D01*
X96619833Y-117301666D01*
X96619833Y-117568333D01*
X97319833Y-117568333D01*
X97319833Y-117335000D01*
X97286500Y-117268333D01*
X97253166Y-117235000D01*
X97186500Y-117201666D01*
X97119833Y-117201666D01*
X97053166Y-117235000D01*
X97019833Y-117268333D01*
X96986500Y-117335000D01*
X96986500Y-117568333D01*
X97086500Y-116935000D02*
X96619833Y-116768333D01*
X97086500Y-116601666D02*
X96619833Y-116768333D01*
X96453166Y-116835000D01*
X96419833Y-116868333D01*
X96386500Y-116935000D01*
X96819833Y-115835000D02*
X96819833Y-115501666D01*
X96619833Y-115901666D02*
X97319833Y-115668333D01*
X96619833Y-115435000D01*
X97086500Y-115201666D02*
X96619833Y-115201666D01*
X97019833Y-115201666D02*
X97053166Y-115168333D01*
X97086500Y-115101666D01*
X97086500Y-115001666D01*
X97053166Y-114935000D01*
X96986500Y-114901666D01*
X96619833Y-114901666D01*
X96619833Y-114268333D02*
X97319833Y-114268333D01*
X96653166Y-114268333D02*
X96619833Y-114335000D01*
X96619833Y-114468333D01*
X96653166Y-114535000D01*
X96686500Y-114568333D01*
X96753166Y-114601666D01*
X96953166Y-114601666D01*
X97019833Y-114568333D01*
X97053166Y-114535000D01*
X97086500Y-114468333D01*
X97086500Y-114335000D01*
X97053166Y-114268333D01*
X97086500Y-114001666D02*
X96619833Y-113835000D01*
X97086500Y-113668333D02*
X96619833Y-113835000D01*
X96453166Y-113901666D01*
X96419833Y-113935000D01*
X96386500Y-114001666D01*
X97253166Y-112901666D02*
X97286500Y-112868333D01*
X97319833Y-112801666D01*
X97319833Y-112635000D01*
X97286500Y-112568333D01*
X97253166Y-112535000D01*
X97186500Y-112501666D01*
X97119833Y-112501666D01*
X97019833Y-112535000D01*
X96619833Y-112935000D01*
X96619833Y-112501666D01*
X97319833Y-112068333D02*
X97319833Y-112001666D01*
X97286500Y-111935000D01*
X97253166Y-111901666D01*
X97186500Y-111868333D01*
X97053166Y-111835000D01*
X96886500Y-111835000D01*
X96753166Y-111868333D01*
X96686500Y-111901666D01*
X96653166Y-111935000D01*
X96619833Y-112001666D01*
X96619833Y-112068333D01*
X96653166Y-112135000D01*
X96686500Y-112168333D01*
X96753166Y-112201666D01*
X96886500Y-112235000D01*
X97053166Y-112235000D01*
X97186500Y-112201666D01*
X97253166Y-112168333D01*
X97286500Y-112135000D01*
X97319833Y-112068333D01*
X97253166Y-111568333D02*
X97286500Y-111535000D01*
X97319833Y-111468333D01*
X97319833Y-111301666D01*
X97286500Y-111235000D01*
X97253166Y-111201666D01*
X97186500Y-111168333D01*
X97119833Y-111168333D01*
X97019833Y-111201666D01*
X96619833Y-111601666D01*
X96619833Y-111168333D01*
X97319833Y-110935000D02*
X97319833Y-110501666D01*
X97053166Y-110735000D01*
X97053166Y-110635000D01*
X97019833Y-110568333D01*
X96986500Y-110535000D01*
X96919833Y-110501666D01*
X96753166Y-110501666D01*
X96686500Y-110535000D01*
X96653166Y-110568333D01*
X96619833Y-110635000D01*
X96619833Y-110835000D01*
X96653166Y-110901666D01*
X96686500Y-110935000D01*
X97353166Y-109701666D02*
X96453166Y-110301666D01*
X97319833Y-109335000D02*
X97319833Y-109268333D01*
X97286500Y-109201666D01*
X97253166Y-109168333D01*
X97186500Y-109135000D01*
X97053166Y-109101666D01*
X96886500Y-109101666D01*
X96753166Y-109135000D01*
X96686500Y-109168333D01*
X96653166Y-109201666D01*
X96619833Y-109268333D01*
X96619833Y-109335000D01*
X96653166Y-109401666D01*
X96686500Y-109435000D01*
X96753166Y-109468333D01*
X96886500Y-109501666D01*
X97053166Y-109501666D01*
X97186500Y-109468333D01*
X97253166Y-109435000D01*
X97286500Y-109401666D01*
X97319833Y-109335000D01*
X97019833Y-108701666D02*
X97053166Y-108768333D01*
X97086500Y-108801666D01*
X97153166Y-108835000D01*
X97186500Y-108835000D01*
X97253166Y-108801666D01*
X97286500Y-108768333D01*
X97319833Y-108701666D01*
X97319833Y-108568333D01*
X97286500Y-108501666D01*
X97253166Y-108468333D01*
X97186500Y-108435000D01*
X97153166Y-108435000D01*
X97086500Y-108468333D01*
X97053166Y-108501666D01*
X97019833Y-108568333D01*
X97019833Y-108701666D01*
X96986500Y-108768333D01*
X96953166Y-108801666D01*
X96886500Y-108835000D01*
X96753166Y-108835000D01*
X96686500Y-108801666D01*
X96653166Y-108768333D01*
X96619833Y-108701666D01*
X96619833Y-108568333D01*
X96653166Y-108501666D01*
X96686500Y-108468333D01*
X96753166Y-108435000D01*
X96886500Y-108435000D01*
X96953166Y-108468333D01*
X96986500Y-108501666D01*
X97019833Y-108568333D01*
X97353166Y-107635000D02*
X96453166Y-108235000D01*
X97253166Y-107435000D02*
X97286500Y-107401666D01*
X97319833Y-107335000D01*
X97319833Y-107168333D01*
X97286500Y-107101666D01*
X97253166Y-107068333D01*
X97186500Y-107035000D01*
X97119833Y-107035000D01*
X97019833Y-107068333D01*
X96619833Y-107468333D01*
X96619833Y-107035000D01*
X97019833Y-106635000D02*
X97053166Y-106701666D01*
X97086500Y-106735000D01*
X97153166Y-106768333D01*
X97186500Y-106768333D01*
X97253166Y-106735000D01*
X97286500Y-106701666D01*
X97319833Y-106635000D01*
X97319833Y-106501666D01*
X97286500Y-106435000D01*
X97253166Y-106401666D01*
X97186500Y-106368333D01*
X97153166Y-106368333D01*
X97086500Y-106401666D01*
X97053166Y-106435000D01*
X97019833Y-106501666D01*
X97019833Y-106635000D01*
X96986500Y-106701666D01*
X96953166Y-106735000D01*
X96886500Y-106768333D01*
X96753166Y-106768333D01*
X96686500Y-106735000D01*
X96653166Y-106701666D01*
X96619833Y-106635000D01*
X96619833Y-106501666D01*
X96653166Y-106435000D01*
X96686500Y-106401666D01*
X96753166Y-106368333D01*
X96886500Y-106368333D01*
X96953166Y-106401666D01*
X96986500Y-106435000D01*
X97019833Y-106501666D01*
D11*
%TO.C,C12*%
X140652359Y-99790695D02*
X140676168Y-99766885D01*
X140699978Y-99695457D01*
X140699978Y-99647838D01*
X140676168Y-99576409D01*
X140628549Y-99528790D01*
X140580930Y-99504981D01*
X140485692Y-99481171D01*
X140414264Y-99481171D01*
X140319026Y-99504981D01*
X140271407Y-99528790D01*
X140223788Y-99576409D01*
X140199978Y-99647838D01*
X140199978Y-99695457D01*
X140223788Y-99766885D01*
X140247597Y-99790695D01*
X140699978Y-100266885D02*
X140699978Y-99981171D01*
X140699978Y-100124028D02*
X140199978Y-100124028D01*
X140271407Y-100076409D01*
X140319026Y-100028790D01*
X140342835Y-99981171D01*
X140247597Y-100457362D02*
X140223788Y-100481171D01*
X140199978Y-100528790D01*
X140199978Y-100647838D01*
X140223788Y-100695457D01*
X140247597Y-100719266D01*
X140295216Y-100743076D01*
X140342835Y-100743076D01*
X140414264Y-100719266D01*
X140699978Y-100433552D01*
X140699978Y-100743076D01*
D10*
%TO.C,R10*%
X141474978Y-84840695D02*
X141236883Y-84674028D01*
X141474978Y-84554981D02*
X140974978Y-84554981D01*
X140974978Y-84745457D01*
X140998788Y-84793076D01*
X141022597Y-84816885D01*
X141070216Y-84840695D01*
X141141645Y-84840695D01*
X141189264Y-84816885D01*
X141213073Y-84793076D01*
X141236883Y-84745457D01*
X141236883Y-84554981D01*
X141474978Y-85316885D02*
X141474978Y-85031171D01*
X141474978Y-85174028D02*
X140974978Y-85174028D01*
X141046407Y-85126409D01*
X141094026Y-85078790D01*
X141117835Y-85031171D01*
X140974978Y-85626409D02*
X140974978Y-85674028D01*
X140998788Y-85721647D01*
X141022597Y-85745457D01*
X141070216Y-85769266D01*
X141165454Y-85793076D01*
X141284502Y-85793076D01*
X141379740Y-85769266D01*
X141427359Y-85745457D01*
X141451168Y-85721647D01*
X141474978Y-85674028D01*
X141474978Y-85626409D01*
X141451168Y-85578790D01*
X141427359Y-85554981D01*
X141379740Y-85531171D01*
X141284502Y-85507362D01*
X141165454Y-85507362D01*
X141070216Y-85531171D01*
X141022597Y-85554981D01*
X140998788Y-85578790D01*
X140974978Y-85626409D01*
D12*
%TO.C,J3*%
X156076168Y-102503790D02*
X156790454Y-102503790D01*
X156933311Y-102456171D01*
X157028549Y-102360933D01*
X157076168Y-102218076D01*
X157076168Y-102122838D01*
X156076168Y-102884743D02*
X156076168Y-103503790D01*
X156457121Y-103170457D01*
X156457121Y-103313314D01*
X156504740Y-103408552D01*
X156552359Y-103456171D01*
X156647597Y-103503790D01*
X156885692Y-103503790D01*
X156980930Y-103456171D01*
X157028549Y-103408552D01*
X157076168Y-103313314D01*
X157076168Y-103027600D01*
X157028549Y-102932362D01*
X156980930Y-102884743D01*
D10*
%TO.C,R1*%
X141657121Y-65988314D02*
X141823788Y-65750219D01*
X141942835Y-65988314D02*
X141942835Y-65488314D01*
X141752359Y-65488314D01*
X141704740Y-65512124D01*
X141680930Y-65535933D01*
X141657121Y-65583552D01*
X141657121Y-65654981D01*
X141680930Y-65702600D01*
X141704740Y-65726409D01*
X141752359Y-65750219D01*
X141942835Y-65750219D01*
X141180930Y-65988314D02*
X141466645Y-65988314D01*
X141323788Y-65988314D02*
X141323788Y-65488314D01*
X141371407Y-65559743D01*
X141419026Y-65607362D01*
X141466645Y-65631171D01*
%TO.C,R6*%
X143724978Y-83728790D02*
X143486883Y-83562124D01*
X143724978Y-83443076D02*
X143224978Y-83443076D01*
X143224978Y-83633552D01*
X143248788Y-83681171D01*
X143272597Y-83704981D01*
X143320216Y-83728790D01*
X143391645Y-83728790D01*
X143439264Y-83704981D01*
X143463073Y-83681171D01*
X143486883Y-83633552D01*
X143486883Y-83443076D01*
X143224978Y-84157362D02*
X143224978Y-84062124D01*
X143248788Y-84014504D01*
X143272597Y-83990695D01*
X143344026Y-83943076D01*
X143439264Y-83919266D01*
X143629740Y-83919266D01*
X143677359Y-83943076D01*
X143701168Y-83966885D01*
X143724978Y-84014504D01*
X143724978Y-84109743D01*
X143701168Y-84157362D01*
X143677359Y-84181171D01*
X143629740Y-84204981D01*
X143510692Y-84204981D01*
X143463073Y-84181171D01*
X143439264Y-84157362D01*
X143415454Y-84109743D01*
X143415454Y-84014504D01*
X143439264Y-83966885D01*
X143463073Y-83943076D01*
X143510692Y-83919266D01*
D12*
%TO.C,D1*%
X141776168Y-109274028D02*
X140776168Y-109274028D01*
X140776168Y-109512124D01*
X140823788Y-109654981D01*
X140919026Y-109750219D01*
X141014264Y-109797838D01*
X141204740Y-109845457D01*
X141347597Y-109845457D01*
X141538073Y-109797838D01*
X141633311Y-109750219D01*
X141728549Y-109654981D01*
X141776168Y-109512124D01*
X141776168Y-109274028D01*
X141776168Y-110797838D02*
X141776168Y-110226409D01*
X141776168Y-110512124D02*
X140776168Y-110512124D01*
X140919026Y-110416885D01*
X141014264Y-110321647D01*
X141061883Y-110226409D01*
D11*
%TO.C,C8*%
X142177359Y-99753790D02*
X142201168Y-99729981D01*
X142224978Y-99658552D01*
X142224978Y-99610933D01*
X142201168Y-99539504D01*
X142153549Y-99491885D01*
X142105930Y-99468076D01*
X142010692Y-99444266D01*
X141939264Y-99444266D01*
X141844026Y-99468076D01*
X141796407Y-99491885D01*
X141748788Y-99539504D01*
X141724978Y-99610933D01*
X141724978Y-99658552D01*
X141748788Y-99729981D01*
X141772597Y-99753790D01*
X141939264Y-100039504D02*
X141915454Y-99991885D01*
X141891645Y-99968076D01*
X141844026Y-99944266D01*
X141820216Y-99944266D01*
X141772597Y-99968076D01*
X141748788Y-99991885D01*
X141724978Y-100039504D01*
X141724978Y-100134743D01*
X141748788Y-100182362D01*
X141772597Y-100206171D01*
X141820216Y-100229981D01*
X141844026Y-100229981D01*
X141891645Y-100206171D01*
X141915454Y-100182362D01*
X141939264Y-100134743D01*
X141939264Y-100039504D01*
X141963073Y-99991885D01*
X141986883Y-99968076D01*
X142034502Y-99944266D01*
X142129740Y-99944266D01*
X142177359Y-99968076D01*
X142201168Y-99991885D01*
X142224978Y-100039504D01*
X142224978Y-100134743D01*
X142201168Y-100182362D01*
X142177359Y-100206171D01*
X142129740Y-100229981D01*
X142034502Y-100229981D01*
X141986883Y-100206171D01*
X141963073Y-100182362D01*
X141939264Y-100134743D01*
D10*
%TO.C,R14*%
X154724978Y-86090695D02*
X154486883Y-85924028D01*
X154724978Y-85804981D02*
X154224978Y-85804981D01*
X154224978Y-85995457D01*
X154248788Y-86043076D01*
X154272597Y-86066885D01*
X154320216Y-86090695D01*
X154391645Y-86090695D01*
X154439264Y-86066885D01*
X154463073Y-86043076D01*
X154486883Y-85995457D01*
X154486883Y-85804981D01*
X154724978Y-86566885D02*
X154724978Y-86281171D01*
X154724978Y-86424028D02*
X154224978Y-86424028D01*
X154296407Y-86376409D01*
X154344026Y-86328790D01*
X154367835Y-86281171D01*
X154391645Y-86995457D02*
X154724978Y-86995457D01*
X154201168Y-86876409D02*
X154558311Y-86757362D01*
X154558311Y-87066885D01*
D11*
%TO.C,C16*%
X149920216Y-89190695D02*
X149944026Y-89214504D01*
X150015454Y-89238314D01*
X150063073Y-89238314D01*
X150134502Y-89214504D01*
X150182121Y-89166885D01*
X150205930Y-89119266D01*
X150229740Y-89024028D01*
X150229740Y-88952600D01*
X150205930Y-88857362D01*
X150182121Y-88809743D01*
X150134502Y-88762124D01*
X150063073Y-88738314D01*
X150015454Y-88738314D01*
X149944026Y-88762124D01*
X149920216Y-88785933D01*
X149444026Y-89238314D02*
X149729740Y-89238314D01*
X149586883Y-89238314D02*
X149586883Y-88738314D01*
X149634502Y-88809743D01*
X149682121Y-88857362D01*
X149729740Y-88881171D01*
X149015454Y-88738314D02*
X149110692Y-88738314D01*
X149158311Y-88762124D01*
X149182121Y-88785933D01*
X149229740Y-88857362D01*
X149253549Y-88952600D01*
X149253549Y-89143076D01*
X149229740Y-89190695D01*
X149205930Y-89214504D01*
X149158311Y-89238314D01*
X149063073Y-89238314D01*
X149015454Y-89214504D01*
X148991645Y-89190695D01*
X148967835Y-89143076D01*
X148967835Y-89024028D01*
X148991645Y-88976409D01*
X149015454Y-88952600D01*
X149063073Y-88928790D01*
X149158311Y-88928790D01*
X149205930Y-88952600D01*
X149229740Y-88976409D01*
X149253549Y-89024028D01*
%TO.C,C14*%
X153270216Y-80190695D02*
X153294026Y-80214504D01*
X153365454Y-80238314D01*
X153413073Y-80238314D01*
X153484502Y-80214504D01*
X153532121Y-80166885D01*
X153555930Y-80119266D01*
X153579740Y-80024028D01*
X153579740Y-79952600D01*
X153555930Y-79857362D01*
X153532121Y-79809743D01*
X153484502Y-79762124D01*
X153413073Y-79738314D01*
X153365454Y-79738314D01*
X153294026Y-79762124D01*
X153270216Y-79785933D01*
X152794026Y-80238314D02*
X153079740Y-80238314D01*
X152936883Y-80238314D02*
X152936883Y-79738314D01*
X152984502Y-79809743D01*
X153032121Y-79857362D01*
X153079740Y-79881171D01*
X152365454Y-79904981D02*
X152365454Y-80238314D01*
X152484502Y-79714504D02*
X152603549Y-80071647D01*
X152294026Y-80071647D01*
D10*
%TO.C,R3*%
X145782121Y-107763314D02*
X145948788Y-107525219D01*
X146067835Y-107763314D02*
X146067835Y-107263314D01*
X145877359Y-107263314D01*
X145829740Y-107287124D01*
X145805930Y-107310933D01*
X145782121Y-107358552D01*
X145782121Y-107429981D01*
X145805930Y-107477600D01*
X145829740Y-107501409D01*
X145877359Y-107525219D01*
X146067835Y-107525219D01*
X145615454Y-107263314D02*
X145305930Y-107263314D01*
X145472597Y-107453790D01*
X145401168Y-107453790D01*
X145353549Y-107477600D01*
X145329740Y-107501409D01*
X145305930Y-107549028D01*
X145305930Y-107668076D01*
X145329740Y-107715695D01*
X145353549Y-107739504D01*
X145401168Y-107763314D01*
X145544026Y-107763314D01*
X145591645Y-107739504D01*
X145615454Y-107715695D01*
D12*
%TO.C,P2*%
X149711883Y-108939504D02*
X149711883Y-107939504D01*
X149330930Y-107939504D01*
X149235692Y-107987124D01*
X149188073Y-108034743D01*
X149140454Y-108129981D01*
X149140454Y-108272838D01*
X149188073Y-108368076D01*
X149235692Y-108415695D01*
X149330930Y-108463314D01*
X149711883Y-108463314D01*
X148759502Y-108034743D02*
X148711883Y-107987124D01*
X148616645Y-107939504D01*
X148378549Y-107939504D01*
X148283311Y-107987124D01*
X148235692Y-108034743D01*
X148188073Y-108129981D01*
X148188073Y-108225219D01*
X148235692Y-108368076D01*
X148807121Y-108939504D01*
X148188073Y-108939504D01*
D10*
%TO.C,R4*%
X151882121Y-107763314D02*
X152048788Y-107525219D01*
X152167835Y-107763314D02*
X152167835Y-107263314D01*
X151977359Y-107263314D01*
X151929740Y-107287124D01*
X151905930Y-107310933D01*
X151882121Y-107358552D01*
X151882121Y-107429981D01*
X151905930Y-107477600D01*
X151929740Y-107501409D01*
X151977359Y-107525219D01*
X152167835Y-107525219D01*
X151453549Y-107429981D02*
X151453549Y-107763314D01*
X151572597Y-107239504D02*
X151691645Y-107596647D01*
X151382121Y-107596647D01*
%TO.C,R13*%
X141124978Y-68440695D02*
X140886883Y-68274028D01*
X141124978Y-68154981D02*
X140624978Y-68154981D01*
X140624978Y-68345457D01*
X140648788Y-68393076D01*
X140672597Y-68416885D01*
X140720216Y-68440695D01*
X140791645Y-68440695D01*
X140839264Y-68416885D01*
X140863073Y-68393076D01*
X140886883Y-68345457D01*
X140886883Y-68154981D01*
X141124978Y-68916885D02*
X141124978Y-68631171D01*
X141124978Y-68774028D02*
X140624978Y-68774028D01*
X140696407Y-68726409D01*
X140744026Y-68678790D01*
X140767835Y-68631171D01*
X140624978Y-69083552D02*
X140624978Y-69393076D01*
X140815454Y-69226409D01*
X140815454Y-69297838D01*
X140839264Y-69345457D01*
X140863073Y-69369266D01*
X140910692Y-69393076D01*
X141029740Y-69393076D01*
X141077359Y-69369266D01*
X141101168Y-69345457D01*
X141124978Y-69297838D01*
X141124978Y-69154981D01*
X141101168Y-69107362D01*
X141077359Y-69083552D01*
%TO.C,R5*%
X143724978Y-86353790D02*
X143486883Y-86187124D01*
X143724978Y-86068076D02*
X143224978Y-86068076D01*
X143224978Y-86258552D01*
X143248788Y-86306171D01*
X143272597Y-86329981D01*
X143320216Y-86353790D01*
X143391645Y-86353790D01*
X143439264Y-86329981D01*
X143463073Y-86306171D01*
X143486883Y-86258552D01*
X143486883Y-86068076D01*
X143224978Y-86806171D02*
X143224978Y-86568076D01*
X143463073Y-86544266D01*
X143439264Y-86568076D01*
X143415454Y-86615695D01*
X143415454Y-86734743D01*
X143439264Y-86782362D01*
X143463073Y-86806171D01*
X143510692Y-86829981D01*
X143629740Y-86829981D01*
X143677359Y-86806171D01*
X143701168Y-86782362D01*
X143724978Y-86734743D01*
X143724978Y-86615695D01*
X143701168Y-86568076D01*
X143677359Y-86544266D01*
D11*
%TO.C,C13*%
X145070216Y-80340695D02*
X145094026Y-80364504D01*
X145165454Y-80388314D01*
X145213073Y-80388314D01*
X145284502Y-80364504D01*
X145332121Y-80316885D01*
X145355930Y-80269266D01*
X145379740Y-80174028D01*
X145379740Y-80102600D01*
X145355930Y-80007362D01*
X145332121Y-79959743D01*
X145284502Y-79912124D01*
X145213073Y-79888314D01*
X145165454Y-79888314D01*
X145094026Y-79912124D01*
X145070216Y-79935933D01*
X144594026Y-80388314D02*
X144879740Y-80388314D01*
X144736883Y-80388314D02*
X144736883Y-79888314D01*
X144784502Y-79959743D01*
X144832121Y-80007362D01*
X144879740Y-80031171D01*
X144427359Y-79888314D02*
X144117835Y-79888314D01*
X144284502Y-80078790D01*
X144213073Y-80078790D01*
X144165454Y-80102600D01*
X144141645Y-80126409D01*
X144117835Y-80174028D01*
X144117835Y-80293076D01*
X144141645Y-80340695D01*
X144165454Y-80364504D01*
X144213073Y-80388314D01*
X144355930Y-80388314D01*
X144403549Y-80364504D01*
X144427359Y-80340695D01*
%TO.C,C2*%
X141952359Y-72678790D02*
X141976168Y-72654981D01*
X141999978Y-72583552D01*
X141999978Y-72535933D01*
X141976168Y-72464504D01*
X141928549Y-72416885D01*
X141880930Y-72393076D01*
X141785692Y-72369266D01*
X141714264Y-72369266D01*
X141619026Y-72393076D01*
X141571407Y-72416885D01*
X141523788Y-72464504D01*
X141499978Y-72535933D01*
X141499978Y-72583552D01*
X141523788Y-72654981D01*
X141547597Y-72678790D01*
X141547597Y-72869266D02*
X141523788Y-72893076D01*
X141499978Y-72940695D01*
X141499978Y-73059743D01*
X141523788Y-73107362D01*
X141547597Y-73131171D01*
X141595216Y-73154981D01*
X141642835Y-73154981D01*
X141714264Y-73131171D01*
X141999978Y-72845457D01*
X141999978Y-73154981D01*
%TO.C,C20*%
X141670216Y-76140695D02*
X141694026Y-76164504D01*
X141765454Y-76188314D01*
X141813073Y-76188314D01*
X141884502Y-76164504D01*
X141932121Y-76116885D01*
X141955930Y-76069266D01*
X141979740Y-75974028D01*
X141979740Y-75902600D01*
X141955930Y-75807362D01*
X141932121Y-75759743D01*
X141884502Y-75712124D01*
X141813073Y-75688314D01*
X141765454Y-75688314D01*
X141694026Y-75712124D01*
X141670216Y-75735933D01*
X141479740Y-75735933D02*
X141455930Y-75712124D01*
X141408311Y-75688314D01*
X141289264Y-75688314D01*
X141241645Y-75712124D01*
X141217835Y-75735933D01*
X141194026Y-75783552D01*
X141194026Y-75831171D01*
X141217835Y-75902600D01*
X141503549Y-76188314D01*
X141194026Y-76188314D01*
X140884502Y-75688314D02*
X140836883Y-75688314D01*
X140789264Y-75712124D01*
X140765454Y-75735933D01*
X140741645Y-75783552D01*
X140717835Y-75878790D01*
X140717835Y-75997838D01*
X140741645Y-76093076D01*
X140765454Y-76140695D01*
X140789264Y-76164504D01*
X140836883Y-76188314D01*
X140884502Y-76188314D01*
X140932121Y-76164504D01*
X140955930Y-76140695D01*
X140979740Y-76093076D01*
X141003549Y-75997838D01*
X141003549Y-75878790D01*
X140979740Y-75783552D01*
X140955930Y-75735933D01*
X140932121Y-75712124D01*
X140884502Y-75688314D01*
D12*
%TO.C,U2*%
X152126168Y-83875219D02*
X152935692Y-83875219D01*
X153030930Y-83922838D01*
X153078549Y-83970457D01*
X153126168Y-84065695D01*
X153126168Y-84256171D01*
X153078549Y-84351409D01*
X153030930Y-84399028D01*
X152935692Y-84446647D01*
X152126168Y-84446647D01*
X152221407Y-84875219D02*
X152173788Y-84922838D01*
X152126168Y-85018076D01*
X152126168Y-85256171D01*
X152173788Y-85351409D01*
X152221407Y-85399028D01*
X152316645Y-85446647D01*
X152411883Y-85446647D01*
X152554740Y-85399028D01*
X153126168Y-84827600D01*
X153126168Y-85446647D01*
D11*
%TO.C,C17*%
X156070216Y-80915695D02*
X156094026Y-80939504D01*
X156165454Y-80963314D01*
X156213073Y-80963314D01*
X156284502Y-80939504D01*
X156332121Y-80891885D01*
X156355930Y-80844266D01*
X156379740Y-80749028D01*
X156379740Y-80677600D01*
X156355930Y-80582362D01*
X156332121Y-80534743D01*
X156284502Y-80487124D01*
X156213073Y-80463314D01*
X156165454Y-80463314D01*
X156094026Y-80487124D01*
X156070216Y-80510933D01*
X155594026Y-80963314D02*
X155879740Y-80963314D01*
X155736883Y-80963314D02*
X155736883Y-80463314D01*
X155784502Y-80534743D01*
X155832121Y-80582362D01*
X155879740Y-80606171D01*
X155427359Y-80463314D02*
X155094026Y-80463314D01*
X155308311Y-80963314D01*
%TO.C,C10*%
X141777359Y-80565695D02*
X141801168Y-80541885D01*
X141824978Y-80470457D01*
X141824978Y-80422838D01*
X141801168Y-80351409D01*
X141753549Y-80303790D01*
X141705930Y-80279981D01*
X141610692Y-80256171D01*
X141539264Y-80256171D01*
X141444026Y-80279981D01*
X141396407Y-80303790D01*
X141348788Y-80351409D01*
X141324978Y-80422838D01*
X141324978Y-80470457D01*
X141348788Y-80541885D01*
X141372597Y-80565695D01*
X141824978Y-81041885D02*
X141824978Y-80756171D01*
X141824978Y-80899028D02*
X141324978Y-80899028D01*
X141396407Y-80851409D01*
X141444026Y-80803790D01*
X141467835Y-80756171D01*
X141324978Y-81351409D02*
X141324978Y-81399028D01*
X141348788Y-81446647D01*
X141372597Y-81470457D01*
X141420216Y-81494266D01*
X141515454Y-81518076D01*
X141634502Y-81518076D01*
X141729740Y-81494266D01*
X141777359Y-81470457D01*
X141801168Y-81446647D01*
X141824978Y-81399028D01*
X141824978Y-81351409D01*
X141801168Y-81303790D01*
X141777359Y-81279981D01*
X141729740Y-81256171D01*
X141634502Y-81232362D01*
X141515454Y-81232362D01*
X141420216Y-81256171D01*
X141372597Y-81279981D01*
X141348788Y-81303790D01*
X141324978Y-81351409D01*
D10*
%TO.C,R15*%
X154699978Y-83490695D02*
X154461883Y-83324028D01*
X154699978Y-83204981D02*
X154199978Y-83204981D01*
X154199978Y-83395457D01*
X154223788Y-83443076D01*
X154247597Y-83466885D01*
X154295216Y-83490695D01*
X154366645Y-83490695D01*
X154414264Y-83466885D01*
X154438073Y-83443076D01*
X154461883Y-83395457D01*
X154461883Y-83204981D01*
X154699978Y-83966885D02*
X154699978Y-83681171D01*
X154699978Y-83824028D02*
X154199978Y-83824028D01*
X154271407Y-83776409D01*
X154319026Y-83728790D01*
X154342835Y-83681171D01*
X154199978Y-84419266D02*
X154199978Y-84181171D01*
X154438073Y-84157362D01*
X154414264Y-84181171D01*
X154390454Y-84228790D01*
X154390454Y-84347838D01*
X154414264Y-84395457D01*
X154438073Y-84419266D01*
X154485692Y-84443076D01*
X154604740Y-84443076D01*
X154652359Y-84419266D01*
X154676168Y-84395457D01*
X154699978Y-84347838D01*
X154699978Y-84228790D01*
X154676168Y-84181171D01*
X154652359Y-84157362D01*
%TO.C,R7*%
X157399978Y-85203790D02*
X157161883Y-85037124D01*
X157399978Y-84918076D02*
X156899978Y-84918076D01*
X156899978Y-85108552D01*
X156923788Y-85156171D01*
X156947597Y-85179981D01*
X156995216Y-85203790D01*
X157066645Y-85203790D01*
X157114264Y-85179981D01*
X157138073Y-85156171D01*
X157161883Y-85108552D01*
X157161883Y-84918076D01*
X156899978Y-85370457D02*
X156899978Y-85703790D01*
X157399978Y-85489504D01*
D12*
%TO.C,Card1*%
X152892716Y-75494266D02*
X152940335Y-75541885D01*
X153083192Y-75589504D01*
X153178430Y-75589504D01*
X153321288Y-75541885D01*
X153416526Y-75446647D01*
X153464145Y-75351409D01*
X153511764Y-75160933D01*
X153511764Y-75018076D01*
X153464145Y-74827600D01*
X153416526Y-74732362D01*
X153321288Y-74637124D01*
X153178430Y-74589504D01*
X153083192Y-74589504D01*
X152940335Y-74637124D01*
X152892716Y-74684743D01*
X152035573Y-75589504D02*
X152035573Y-75065695D01*
X152083192Y-74970457D01*
X152178430Y-74922838D01*
X152368907Y-74922838D01*
X152464145Y-74970457D01*
X152035573Y-75541885D02*
X152130811Y-75589504D01*
X152368907Y-75589504D01*
X152464145Y-75541885D01*
X152511764Y-75446647D01*
X152511764Y-75351409D01*
X152464145Y-75256171D01*
X152368907Y-75208552D01*
X152130811Y-75208552D01*
X152035573Y-75160933D01*
X151559383Y-75589504D02*
X151559383Y-74922838D01*
X151559383Y-75113314D02*
X151511764Y-75018076D01*
X151464145Y-74970457D01*
X151368907Y-74922838D01*
X151273668Y-74922838D01*
X150511764Y-75589504D02*
X150511764Y-74589504D01*
X150511764Y-75541885D02*
X150607002Y-75589504D01*
X150797478Y-75589504D01*
X150892716Y-75541885D01*
X150940335Y-75494266D01*
X150987954Y-75399028D01*
X150987954Y-75113314D01*
X150940335Y-75018076D01*
X150892716Y-74970457D01*
X150797478Y-74922838D01*
X150607002Y-74922838D01*
X150511764Y-74970457D01*
X149511764Y-75589504D02*
X150083192Y-75589504D01*
X149797478Y-75589504D02*
X149797478Y-74589504D01*
X149892716Y-74732362D01*
X149987954Y-74827600D01*
X150083192Y-74875219D01*
D11*
%TO.C,C12*%
X120652359Y-99790695D02*
X120676168Y-99766885D01*
X120699978Y-99695457D01*
X120699978Y-99647838D01*
X120676168Y-99576409D01*
X120628549Y-99528790D01*
X120580930Y-99504981D01*
X120485692Y-99481171D01*
X120414264Y-99481171D01*
X120319026Y-99504981D01*
X120271407Y-99528790D01*
X120223788Y-99576409D01*
X120199978Y-99647838D01*
X120199978Y-99695457D01*
X120223788Y-99766885D01*
X120247597Y-99790695D01*
X120699978Y-100266885D02*
X120699978Y-99981171D01*
X120699978Y-100124028D02*
X120199978Y-100124028D01*
X120271407Y-100076409D01*
X120319026Y-100028790D01*
X120342835Y-99981171D01*
X120247597Y-100457362D02*
X120223788Y-100481171D01*
X120199978Y-100528790D01*
X120199978Y-100647838D01*
X120223788Y-100695457D01*
X120247597Y-100719266D01*
X120295216Y-100743076D01*
X120342835Y-100743076D01*
X120414264Y-100719266D01*
X120699978Y-100433552D01*
X120699978Y-100743076D01*
D10*
%TO.C,R5*%
X123724978Y-86353790D02*
X123486883Y-86187124D01*
X123724978Y-86068076D02*
X123224978Y-86068076D01*
X123224978Y-86258552D01*
X123248788Y-86306171D01*
X123272597Y-86329981D01*
X123320216Y-86353790D01*
X123391645Y-86353790D01*
X123439264Y-86329981D01*
X123463073Y-86306171D01*
X123486883Y-86258552D01*
X123486883Y-86068076D01*
X123224978Y-86806171D02*
X123224978Y-86568076D01*
X123463073Y-86544266D01*
X123439264Y-86568076D01*
X123415454Y-86615695D01*
X123415454Y-86734743D01*
X123439264Y-86782362D01*
X123463073Y-86806171D01*
X123510692Y-86829981D01*
X123629740Y-86829981D01*
X123677359Y-86806171D01*
X123701168Y-86782362D01*
X123724978Y-86734743D01*
X123724978Y-86615695D01*
X123701168Y-86568076D01*
X123677359Y-86544266D01*
D11*
%TO.C,C17*%
X136070216Y-80915695D02*
X136094026Y-80939504D01*
X136165454Y-80963314D01*
X136213073Y-80963314D01*
X136284502Y-80939504D01*
X136332121Y-80891885D01*
X136355930Y-80844266D01*
X136379740Y-80749028D01*
X136379740Y-80677600D01*
X136355930Y-80582362D01*
X136332121Y-80534743D01*
X136284502Y-80487124D01*
X136213073Y-80463314D01*
X136165454Y-80463314D01*
X136094026Y-80487124D01*
X136070216Y-80510933D01*
X135594026Y-80963314D02*
X135879740Y-80963314D01*
X135736883Y-80963314D02*
X135736883Y-80463314D01*
X135784502Y-80534743D01*
X135832121Y-80582362D01*
X135879740Y-80606171D01*
X135427359Y-80463314D02*
X135094026Y-80463314D01*
X135308311Y-80963314D01*
D12*
%TO.C,J3*%
X136076168Y-102503790D02*
X136790454Y-102503790D01*
X136933311Y-102456171D01*
X137028549Y-102360933D01*
X137076168Y-102218076D01*
X137076168Y-102122838D01*
X136076168Y-102884743D02*
X136076168Y-103503790D01*
X136457121Y-103170457D01*
X136457121Y-103313314D01*
X136504740Y-103408552D01*
X136552359Y-103456171D01*
X136647597Y-103503790D01*
X136885692Y-103503790D01*
X136980930Y-103456171D01*
X137028549Y-103408552D01*
X137076168Y-103313314D01*
X137076168Y-103027600D01*
X137028549Y-102932362D01*
X136980930Y-102884743D01*
D10*
%TO.C,R1*%
X121657121Y-65988314D02*
X121823788Y-65750219D01*
X121942835Y-65988314D02*
X121942835Y-65488314D01*
X121752359Y-65488314D01*
X121704740Y-65512124D01*
X121680930Y-65535933D01*
X121657121Y-65583552D01*
X121657121Y-65654981D01*
X121680930Y-65702600D01*
X121704740Y-65726409D01*
X121752359Y-65750219D01*
X121942835Y-65750219D01*
X121180930Y-65988314D02*
X121466645Y-65988314D01*
X121323788Y-65988314D02*
X121323788Y-65488314D01*
X121371407Y-65559743D01*
X121419026Y-65607362D01*
X121466645Y-65631171D01*
D11*
%TO.C,C8*%
X122177359Y-99753790D02*
X122201168Y-99729981D01*
X122224978Y-99658552D01*
X122224978Y-99610933D01*
X122201168Y-99539504D01*
X122153549Y-99491885D01*
X122105930Y-99468076D01*
X122010692Y-99444266D01*
X121939264Y-99444266D01*
X121844026Y-99468076D01*
X121796407Y-99491885D01*
X121748788Y-99539504D01*
X121724978Y-99610933D01*
X121724978Y-99658552D01*
X121748788Y-99729981D01*
X121772597Y-99753790D01*
X121939264Y-100039504D02*
X121915454Y-99991885D01*
X121891645Y-99968076D01*
X121844026Y-99944266D01*
X121820216Y-99944266D01*
X121772597Y-99968076D01*
X121748788Y-99991885D01*
X121724978Y-100039504D01*
X121724978Y-100134743D01*
X121748788Y-100182362D01*
X121772597Y-100206171D01*
X121820216Y-100229981D01*
X121844026Y-100229981D01*
X121891645Y-100206171D01*
X121915454Y-100182362D01*
X121939264Y-100134743D01*
X121939264Y-100039504D01*
X121963073Y-99991885D01*
X121986883Y-99968076D01*
X122034502Y-99944266D01*
X122129740Y-99944266D01*
X122177359Y-99968076D01*
X122201168Y-99991885D01*
X122224978Y-100039504D01*
X122224978Y-100134743D01*
X122201168Y-100182362D01*
X122177359Y-100206171D01*
X122129740Y-100229981D01*
X122034502Y-100229981D01*
X121986883Y-100206171D01*
X121963073Y-100182362D01*
X121939264Y-100134743D01*
D10*
%TO.C,R4*%
X131882121Y-107763314D02*
X132048788Y-107525219D01*
X132167835Y-107763314D02*
X132167835Y-107263314D01*
X131977359Y-107263314D01*
X131929740Y-107287124D01*
X131905930Y-107310933D01*
X131882121Y-107358552D01*
X131882121Y-107429981D01*
X131905930Y-107477600D01*
X131929740Y-107501409D01*
X131977359Y-107525219D01*
X132167835Y-107525219D01*
X131453549Y-107429981D02*
X131453549Y-107763314D01*
X131572597Y-107239504D02*
X131691645Y-107596647D01*
X131382121Y-107596647D01*
D11*
%TO.C,C16*%
X129920216Y-89190695D02*
X129944026Y-89214504D01*
X130015454Y-89238314D01*
X130063073Y-89238314D01*
X130134502Y-89214504D01*
X130182121Y-89166885D01*
X130205930Y-89119266D01*
X130229740Y-89024028D01*
X130229740Y-88952600D01*
X130205930Y-88857362D01*
X130182121Y-88809743D01*
X130134502Y-88762124D01*
X130063073Y-88738314D01*
X130015454Y-88738314D01*
X129944026Y-88762124D01*
X129920216Y-88785933D01*
X129444026Y-89238314D02*
X129729740Y-89238314D01*
X129586883Y-89238314D02*
X129586883Y-88738314D01*
X129634502Y-88809743D01*
X129682121Y-88857362D01*
X129729740Y-88881171D01*
X129015454Y-88738314D02*
X129110692Y-88738314D01*
X129158311Y-88762124D01*
X129182121Y-88785933D01*
X129229740Y-88857362D01*
X129253549Y-88952600D01*
X129253549Y-89143076D01*
X129229740Y-89190695D01*
X129205930Y-89214504D01*
X129158311Y-89238314D01*
X129063073Y-89238314D01*
X129015454Y-89214504D01*
X128991645Y-89190695D01*
X128967835Y-89143076D01*
X128967835Y-89024028D01*
X128991645Y-88976409D01*
X129015454Y-88952600D01*
X129063073Y-88928790D01*
X129158311Y-88928790D01*
X129205930Y-88952600D01*
X129229740Y-88976409D01*
X129253549Y-89024028D01*
%TO.C,C14*%
X133270216Y-80190695D02*
X133294026Y-80214504D01*
X133365454Y-80238314D01*
X133413073Y-80238314D01*
X133484502Y-80214504D01*
X133532121Y-80166885D01*
X133555930Y-80119266D01*
X133579740Y-80024028D01*
X133579740Y-79952600D01*
X133555930Y-79857362D01*
X133532121Y-79809743D01*
X133484502Y-79762124D01*
X133413073Y-79738314D01*
X133365454Y-79738314D01*
X133294026Y-79762124D01*
X133270216Y-79785933D01*
X132794026Y-80238314D02*
X133079740Y-80238314D01*
X132936883Y-80238314D02*
X132936883Y-79738314D01*
X132984502Y-79809743D01*
X133032121Y-79857362D01*
X133079740Y-79881171D01*
X132365454Y-79904981D02*
X132365454Y-80238314D01*
X132484502Y-79714504D02*
X132603549Y-80071647D01*
X132294026Y-80071647D01*
D10*
%TO.C,R14*%
X134724978Y-86090695D02*
X134486883Y-85924028D01*
X134724978Y-85804981D02*
X134224978Y-85804981D01*
X134224978Y-85995457D01*
X134248788Y-86043076D01*
X134272597Y-86066885D01*
X134320216Y-86090695D01*
X134391645Y-86090695D01*
X134439264Y-86066885D01*
X134463073Y-86043076D01*
X134486883Y-85995457D01*
X134486883Y-85804981D01*
X134724978Y-86566885D02*
X134724978Y-86281171D01*
X134724978Y-86424028D02*
X134224978Y-86424028D01*
X134296407Y-86376409D01*
X134344026Y-86328790D01*
X134367835Y-86281171D01*
X134391645Y-86995457D02*
X134724978Y-86995457D01*
X134201168Y-86876409D02*
X134558311Y-86757362D01*
X134558311Y-87066885D01*
D12*
%TO.C,U2*%
X132126168Y-83875219D02*
X132935692Y-83875219D01*
X133030930Y-83922838D01*
X133078549Y-83970457D01*
X133126168Y-84065695D01*
X133126168Y-84256171D01*
X133078549Y-84351409D01*
X133030930Y-84399028D01*
X132935692Y-84446647D01*
X132126168Y-84446647D01*
X132221407Y-84875219D02*
X132173788Y-84922838D01*
X132126168Y-85018076D01*
X132126168Y-85256171D01*
X132173788Y-85351409D01*
X132221407Y-85399028D01*
X132316645Y-85446647D01*
X132411883Y-85446647D01*
X132554740Y-85399028D01*
X133126168Y-84827600D01*
X133126168Y-85446647D01*
D10*
%TO.C,R3*%
X125782121Y-107763314D02*
X125948788Y-107525219D01*
X126067835Y-107763314D02*
X126067835Y-107263314D01*
X125877359Y-107263314D01*
X125829740Y-107287124D01*
X125805930Y-107310933D01*
X125782121Y-107358552D01*
X125782121Y-107429981D01*
X125805930Y-107477600D01*
X125829740Y-107501409D01*
X125877359Y-107525219D01*
X126067835Y-107525219D01*
X125615454Y-107263314D02*
X125305930Y-107263314D01*
X125472597Y-107453790D01*
X125401168Y-107453790D01*
X125353549Y-107477600D01*
X125329740Y-107501409D01*
X125305930Y-107549028D01*
X125305930Y-107668076D01*
X125329740Y-107715695D01*
X125353549Y-107739504D01*
X125401168Y-107763314D01*
X125544026Y-107763314D01*
X125591645Y-107739504D01*
X125615454Y-107715695D01*
%TO.C,R13*%
X121124978Y-68440695D02*
X120886883Y-68274028D01*
X121124978Y-68154981D02*
X120624978Y-68154981D01*
X120624978Y-68345457D01*
X120648788Y-68393076D01*
X120672597Y-68416885D01*
X120720216Y-68440695D01*
X120791645Y-68440695D01*
X120839264Y-68416885D01*
X120863073Y-68393076D01*
X120886883Y-68345457D01*
X120886883Y-68154981D01*
X121124978Y-68916885D02*
X121124978Y-68631171D01*
X121124978Y-68774028D02*
X120624978Y-68774028D01*
X120696407Y-68726409D01*
X120744026Y-68678790D01*
X120767835Y-68631171D01*
X120624978Y-69083552D02*
X120624978Y-69393076D01*
X120815454Y-69226409D01*
X120815454Y-69297838D01*
X120839264Y-69345457D01*
X120863073Y-69369266D01*
X120910692Y-69393076D01*
X121029740Y-69393076D01*
X121077359Y-69369266D01*
X121101168Y-69345457D01*
X121124978Y-69297838D01*
X121124978Y-69154981D01*
X121101168Y-69107362D01*
X121077359Y-69083552D01*
D11*
%TO.C,C2*%
X121952359Y-72678790D02*
X121976168Y-72654981D01*
X121999978Y-72583552D01*
X121999978Y-72535933D01*
X121976168Y-72464504D01*
X121928549Y-72416885D01*
X121880930Y-72393076D01*
X121785692Y-72369266D01*
X121714264Y-72369266D01*
X121619026Y-72393076D01*
X121571407Y-72416885D01*
X121523788Y-72464504D01*
X121499978Y-72535933D01*
X121499978Y-72583552D01*
X121523788Y-72654981D01*
X121547597Y-72678790D01*
X121547597Y-72869266D02*
X121523788Y-72893076D01*
X121499978Y-72940695D01*
X121499978Y-73059743D01*
X121523788Y-73107362D01*
X121547597Y-73131171D01*
X121595216Y-73154981D01*
X121642835Y-73154981D01*
X121714264Y-73131171D01*
X121999978Y-72845457D01*
X121999978Y-73154981D01*
%TO.C,C20*%
X121670216Y-76140695D02*
X121694026Y-76164504D01*
X121765454Y-76188314D01*
X121813073Y-76188314D01*
X121884502Y-76164504D01*
X121932121Y-76116885D01*
X121955930Y-76069266D01*
X121979740Y-75974028D01*
X121979740Y-75902600D01*
X121955930Y-75807362D01*
X121932121Y-75759743D01*
X121884502Y-75712124D01*
X121813073Y-75688314D01*
X121765454Y-75688314D01*
X121694026Y-75712124D01*
X121670216Y-75735933D01*
X121479740Y-75735933D02*
X121455930Y-75712124D01*
X121408311Y-75688314D01*
X121289264Y-75688314D01*
X121241645Y-75712124D01*
X121217835Y-75735933D01*
X121194026Y-75783552D01*
X121194026Y-75831171D01*
X121217835Y-75902600D01*
X121503549Y-76188314D01*
X121194026Y-76188314D01*
X120884502Y-75688314D02*
X120836883Y-75688314D01*
X120789264Y-75712124D01*
X120765454Y-75735933D01*
X120741645Y-75783552D01*
X120717835Y-75878790D01*
X120717835Y-75997838D01*
X120741645Y-76093076D01*
X120765454Y-76140695D01*
X120789264Y-76164504D01*
X120836883Y-76188314D01*
X120884502Y-76188314D01*
X120932121Y-76164504D01*
X120955930Y-76140695D01*
X120979740Y-76093076D01*
X121003549Y-75997838D01*
X121003549Y-75878790D01*
X120979740Y-75783552D01*
X120955930Y-75735933D01*
X120932121Y-75712124D01*
X120884502Y-75688314D01*
%TO.C,C13*%
X125070216Y-80340695D02*
X125094026Y-80364504D01*
X125165454Y-80388314D01*
X125213073Y-80388314D01*
X125284502Y-80364504D01*
X125332121Y-80316885D01*
X125355930Y-80269266D01*
X125379740Y-80174028D01*
X125379740Y-80102600D01*
X125355930Y-80007362D01*
X125332121Y-79959743D01*
X125284502Y-79912124D01*
X125213073Y-79888314D01*
X125165454Y-79888314D01*
X125094026Y-79912124D01*
X125070216Y-79935933D01*
X124594026Y-80388314D02*
X124879740Y-80388314D01*
X124736883Y-80388314D02*
X124736883Y-79888314D01*
X124784502Y-79959743D01*
X124832121Y-80007362D01*
X124879740Y-80031171D01*
X124427359Y-79888314D02*
X124117835Y-79888314D01*
X124284502Y-80078790D01*
X124213073Y-80078790D01*
X124165454Y-80102600D01*
X124141645Y-80126409D01*
X124117835Y-80174028D01*
X124117835Y-80293076D01*
X124141645Y-80340695D01*
X124165454Y-80364504D01*
X124213073Y-80388314D01*
X124355930Y-80388314D01*
X124403549Y-80364504D01*
X124427359Y-80340695D01*
D12*
%TO.C,D1*%
X121776168Y-109274028D02*
X120776168Y-109274028D01*
X120776168Y-109512124D01*
X120823788Y-109654981D01*
X120919026Y-109750219D01*
X121014264Y-109797838D01*
X121204740Y-109845457D01*
X121347597Y-109845457D01*
X121538073Y-109797838D01*
X121633311Y-109750219D01*
X121728549Y-109654981D01*
X121776168Y-109512124D01*
X121776168Y-109274028D01*
X121776168Y-110797838D02*
X121776168Y-110226409D01*
X121776168Y-110512124D02*
X120776168Y-110512124D01*
X120919026Y-110416885D01*
X121014264Y-110321647D01*
X121061883Y-110226409D01*
D10*
%TO.C,R6*%
X123724978Y-83728790D02*
X123486883Y-83562124D01*
X123724978Y-83443076D02*
X123224978Y-83443076D01*
X123224978Y-83633552D01*
X123248788Y-83681171D01*
X123272597Y-83704981D01*
X123320216Y-83728790D01*
X123391645Y-83728790D01*
X123439264Y-83704981D01*
X123463073Y-83681171D01*
X123486883Y-83633552D01*
X123486883Y-83443076D01*
X123224978Y-84157362D02*
X123224978Y-84062124D01*
X123248788Y-84014504D01*
X123272597Y-83990695D01*
X123344026Y-83943076D01*
X123439264Y-83919266D01*
X123629740Y-83919266D01*
X123677359Y-83943076D01*
X123701168Y-83966885D01*
X123724978Y-84014504D01*
X123724978Y-84109743D01*
X123701168Y-84157362D01*
X123677359Y-84181171D01*
X123629740Y-84204981D01*
X123510692Y-84204981D01*
X123463073Y-84181171D01*
X123439264Y-84157362D01*
X123415454Y-84109743D01*
X123415454Y-84014504D01*
X123439264Y-83966885D01*
X123463073Y-83943076D01*
X123510692Y-83919266D01*
%TO.C,R15*%
X134699978Y-83490695D02*
X134461883Y-83324028D01*
X134699978Y-83204981D02*
X134199978Y-83204981D01*
X134199978Y-83395457D01*
X134223788Y-83443076D01*
X134247597Y-83466885D01*
X134295216Y-83490695D01*
X134366645Y-83490695D01*
X134414264Y-83466885D01*
X134438073Y-83443076D01*
X134461883Y-83395457D01*
X134461883Y-83204981D01*
X134699978Y-83966885D02*
X134699978Y-83681171D01*
X134699978Y-83824028D02*
X134199978Y-83824028D01*
X134271407Y-83776409D01*
X134319026Y-83728790D01*
X134342835Y-83681171D01*
X134199978Y-84419266D02*
X134199978Y-84181171D01*
X134438073Y-84157362D01*
X134414264Y-84181171D01*
X134390454Y-84228790D01*
X134390454Y-84347838D01*
X134414264Y-84395457D01*
X134438073Y-84419266D01*
X134485692Y-84443076D01*
X134604740Y-84443076D01*
X134652359Y-84419266D01*
X134676168Y-84395457D01*
X134699978Y-84347838D01*
X134699978Y-84228790D01*
X134676168Y-84181171D01*
X134652359Y-84157362D01*
D12*
%TO.C,Card1*%
X132892716Y-75494266D02*
X132940335Y-75541885D01*
X133083192Y-75589504D01*
X133178430Y-75589504D01*
X133321288Y-75541885D01*
X133416526Y-75446647D01*
X133464145Y-75351409D01*
X133511764Y-75160933D01*
X133511764Y-75018076D01*
X133464145Y-74827600D01*
X133416526Y-74732362D01*
X133321288Y-74637124D01*
X133178430Y-74589504D01*
X133083192Y-74589504D01*
X132940335Y-74637124D01*
X132892716Y-74684743D01*
X132035573Y-75589504D02*
X132035573Y-75065695D01*
X132083192Y-74970457D01*
X132178430Y-74922838D01*
X132368907Y-74922838D01*
X132464145Y-74970457D01*
X132035573Y-75541885D02*
X132130811Y-75589504D01*
X132368907Y-75589504D01*
X132464145Y-75541885D01*
X132511764Y-75446647D01*
X132511764Y-75351409D01*
X132464145Y-75256171D01*
X132368907Y-75208552D01*
X132130811Y-75208552D01*
X132035573Y-75160933D01*
X131559383Y-75589504D02*
X131559383Y-74922838D01*
X131559383Y-75113314D02*
X131511764Y-75018076D01*
X131464145Y-74970457D01*
X131368907Y-74922838D01*
X131273668Y-74922838D01*
X130511764Y-75589504D02*
X130511764Y-74589504D01*
X130511764Y-75541885D02*
X130607002Y-75589504D01*
X130797478Y-75589504D01*
X130892716Y-75541885D01*
X130940335Y-75494266D01*
X130987954Y-75399028D01*
X130987954Y-75113314D01*
X130940335Y-75018076D01*
X130892716Y-74970457D01*
X130797478Y-74922838D01*
X130607002Y-74922838D01*
X130511764Y-74970457D01*
X129511764Y-75589504D02*
X130083192Y-75589504D01*
X129797478Y-75589504D02*
X129797478Y-74589504D01*
X129892716Y-74732362D01*
X129987954Y-74827600D01*
X130083192Y-74875219D01*
D10*
%TO.C,R7*%
X137399978Y-85203790D02*
X137161883Y-85037124D01*
X137399978Y-84918076D02*
X136899978Y-84918076D01*
X136899978Y-85108552D01*
X136923788Y-85156171D01*
X136947597Y-85179981D01*
X136995216Y-85203790D01*
X137066645Y-85203790D01*
X137114264Y-85179981D01*
X137138073Y-85156171D01*
X137161883Y-85108552D01*
X137161883Y-84918076D01*
X136899978Y-85370457D02*
X136899978Y-85703790D01*
X137399978Y-85489504D01*
D12*
%TO.C,P2*%
X129711883Y-108939504D02*
X129711883Y-107939504D01*
X129330930Y-107939504D01*
X129235692Y-107987124D01*
X129188073Y-108034743D01*
X129140454Y-108129981D01*
X129140454Y-108272838D01*
X129188073Y-108368076D01*
X129235692Y-108415695D01*
X129330930Y-108463314D01*
X129711883Y-108463314D01*
X128759502Y-108034743D02*
X128711883Y-107987124D01*
X128616645Y-107939504D01*
X128378549Y-107939504D01*
X128283311Y-107987124D01*
X128235692Y-108034743D01*
X128188073Y-108129981D01*
X128188073Y-108225219D01*
X128235692Y-108368076D01*
X128807121Y-108939504D01*
X128188073Y-108939504D01*
D11*
%TO.C,C10*%
X121777359Y-80565695D02*
X121801168Y-80541885D01*
X121824978Y-80470457D01*
X121824978Y-80422838D01*
X121801168Y-80351409D01*
X121753549Y-80303790D01*
X121705930Y-80279981D01*
X121610692Y-80256171D01*
X121539264Y-80256171D01*
X121444026Y-80279981D01*
X121396407Y-80303790D01*
X121348788Y-80351409D01*
X121324978Y-80422838D01*
X121324978Y-80470457D01*
X121348788Y-80541885D01*
X121372597Y-80565695D01*
X121824978Y-81041885D02*
X121824978Y-80756171D01*
X121824978Y-80899028D02*
X121324978Y-80899028D01*
X121396407Y-80851409D01*
X121444026Y-80803790D01*
X121467835Y-80756171D01*
X121324978Y-81351409D02*
X121324978Y-81399028D01*
X121348788Y-81446647D01*
X121372597Y-81470457D01*
X121420216Y-81494266D01*
X121515454Y-81518076D01*
X121634502Y-81518076D01*
X121729740Y-81494266D01*
X121777359Y-81470457D01*
X121801168Y-81446647D01*
X121824978Y-81399028D01*
X121824978Y-81351409D01*
X121801168Y-81303790D01*
X121777359Y-81279981D01*
X121729740Y-81256171D01*
X121634502Y-81232362D01*
X121515454Y-81232362D01*
X121420216Y-81256171D01*
X121372597Y-81279981D01*
X121348788Y-81303790D01*
X121324978Y-81351409D01*
D10*
%TO.C,R10*%
X121474978Y-84840695D02*
X121236883Y-84674028D01*
X121474978Y-84554981D02*
X120974978Y-84554981D01*
X120974978Y-84745457D01*
X120998788Y-84793076D01*
X121022597Y-84816885D01*
X121070216Y-84840695D01*
X121141645Y-84840695D01*
X121189264Y-84816885D01*
X121213073Y-84793076D01*
X121236883Y-84745457D01*
X121236883Y-84554981D01*
X121474978Y-85316885D02*
X121474978Y-85031171D01*
X121474978Y-85174028D02*
X120974978Y-85174028D01*
X121046407Y-85126409D01*
X121094026Y-85078790D01*
X121117835Y-85031171D01*
X120974978Y-85626409D02*
X120974978Y-85674028D01*
X120998788Y-85721647D01*
X121022597Y-85745457D01*
X121070216Y-85769266D01*
X121165454Y-85793076D01*
X121284502Y-85793076D01*
X121379740Y-85769266D01*
X121427359Y-85745457D01*
X121451168Y-85721647D01*
X121474978Y-85674028D01*
X121474978Y-85626409D01*
X121451168Y-85578790D01*
X121427359Y-85554981D01*
X121379740Y-85531171D01*
X121284502Y-85507362D01*
X121165454Y-85507362D01*
X121070216Y-85531171D01*
X121022597Y-85554981D01*
X120998788Y-85578790D01*
X120974978Y-85626409D01*
%TO.C,R1*%
X101657121Y-65988314D02*
X101823788Y-65750219D01*
X101942835Y-65988314D02*
X101942835Y-65488314D01*
X101752359Y-65488314D01*
X101704740Y-65512124D01*
X101680930Y-65535933D01*
X101657121Y-65583552D01*
X101657121Y-65654981D01*
X101680930Y-65702600D01*
X101704740Y-65726409D01*
X101752359Y-65750219D01*
X101942835Y-65750219D01*
X101180930Y-65988314D02*
X101466645Y-65988314D01*
X101323788Y-65988314D02*
X101323788Y-65488314D01*
X101371407Y-65559743D01*
X101419026Y-65607362D01*
X101466645Y-65631171D01*
%TO.C,R6*%
X103724978Y-83728790D02*
X103486883Y-83562124D01*
X103724978Y-83443076D02*
X103224978Y-83443076D01*
X103224978Y-83633552D01*
X103248788Y-83681171D01*
X103272597Y-83704981D01*
X103320216Y-83728790D01*
X103391645Y-83728790D01*
X103439264Y-83704981D01*
X103463073Y-83681171D01*
X103486883Y-83633552D01*
X103486883Y-83443076D01*
X103224978Y-84157362D02*
X103224978Y-84062124D01*
X103248788Y-84014504D01*
X103272597Y-83990695D01*
X103344026Y-83943076D01*
X103439264Y-83919266D01*
X103629740Y-83919266D01*
X103677359Y-83943076D01*
X103701168Y-83966885D01*
X103724978Y-84014504D01*
X103724978Y-84109743D01*
X103701168Y-84157362D01*
X103677359Y-84181171D01*
X103629740Y-84204981D01*
X103510692Y-84204981D01*
X103463073Y-84181171D01*
X103439264Y-84157362D01*
X103415454Y-84109743D01*
X103415454Y-84014504D01*
X103439264Y-83966885D01*
X103463073Y-83943076D01*
X103510692Y-83919266D01*
D11*
%TO.C,C8*%
X102177359Y-99753790D02*
X102201168Y-99729981D01*
X102224978Y-99658552D01*
X102224978Y-99610933D01*
X102201168Y-99539504D01*
X102153549Y-99491885D01*
X102105930Y-99468076D01*
X102010692Y-99444266D01*
X101939264Y-99444266D01*
X101844026Y-99468076D01*
X101796407Y-99491885D01*
X101748788Y-99539504D01*
X101724978Y-99610933D01*
X101724978Y-99658552D01*
X101748788Y-99729981D01*
X101772597Y-99753790D01*
X101939264Y-100039504D02*
X101915454Y-99991885D01*
X101891645Y-99968076D01*
X101844026Y-99944266D01*
X101820216Y-99944266D01*
X101772597Y-99968076D01*
X101748788Y-99991885D01*
X101724978Y-100039504D01*
X101724978Y-100134743D01*
X101748788Y-100182362D01*
X101772597Y-100206171D01*
X101820216Y-100229981D01*
X101844026Y-100229981D01*
X101891645Y-100206171D01*
X101915454Y-100182362D01*
X101939264Y-100134743D01*
X101939264Y-100039504D01*
X101963073Y-99991885D01*
X101986883Y-99968076D01*
X102034502Y-99944266D01*
X102129740Y-99944266D01*
X102177359Y-99968076D01*
X102201168Y-99991885D01*
X102224978Y-100039504D01*
X102224978Y-100134743D01*
X102201168Y-100182362D01*
X102177359Y-100206171D01*
X102129740Y-100229981D01*
X102034502Y-100229981D01*
X101986883Y-100206171D01*
X101963073Y-100182362D01*
X101939264Y-100134743D01*
D12*
%TO.C,P2*%
X109711883Y-108939504D02*
X109711883Y-107939504D01*
X109330930Y-107939504D01*
X109235692Y-107987124D01*
X109188073Y-108034743D01*
X109140454Y-108129981D01*
X109140454Y-108272838D01*
X109188073Y-108368076D01*
X109235692Y-108415695D01*
X109330930Y-108463314D01*
X109711883Y-108463314D01*
X108759502Y-108034743D02*
X108711883Y-107987124D01*
X108616645Y-107939504D01*
X108378549Y-107939504D01*
X108283311Y-107987124D01*
X108235692Y-108034743D01*
X108188073Y-108129981D01*
X108188073Y-108225219D01*
X108235692Y-108368076D01*
X108807121Y-108939504D01*
X108188073Y-108939504D01*
D11*
%TO.C,C10*%
X101777359Y-80565695D02*
X101801168Y-80541885D01*
X101824978Y-80470457D01*
X101824978Y-80422838D01*
X101801168Y-80351409D01*
X101753549Y-80303790D01*
X101705930Y-80279981D01*
X101610692Y-80256171D01*
X101539264Y-80256171D01*
X101444026Y-80279981D01*
X101396407Y-80303790D01*
X101348788Y-80351409D01*
X101324978Y-80422838D01*
X101324978Y-80470457D01*
X101348788Y-80541885D01*
X101372597Y-80565695D01*
X101824978Y-81041885D02*
X101824978Y-80756171D01*
X101824978Y-80899028D02*
X101324978Y-80899028D01*
X101396407Y-80851409D01*
X101444026Y-80803790D01*
X101467835Y-80756171D01*
X101324978Y-81351409D02*
X101324978Y-81399028D01*
X101348788Y-81446647D01*
X101372597Y-81470457D01*
X101420216Y-81494266D01*
X101515454Y-81518076D01*
X101634502Y-81518076D01*
X101729740Y-81494266D01*
X101777359Y-81470457D01*
X101801168Y-81446647D01*
X101824978Y-81399028D01*
X101824978Y-81351409D01*
X101801168Y-81303790D01*
X101777359Y-81279981D01*
X101729740Y-81256171D01*
X101634502Y-81232362D01*
X101515454Y-81232362D01*
X101420216Y-81256171D01*
X101372597Y-81279981D01*
X101348788Y-81303790D01*
X101324978Y-81351409D01*
D10*
%TO.C,R4*%
X111882121Y-107763314D02*
X112048788Y-107525219D01*
X112167835Y-107763314D02*
X112167835Y-107263314D01*
X111977359Y-107263314D01*
X111929740Y-107287124D01*
X111905930Y-107310933D01*
X111882121Y-107358552D01*
X111882121Y-107429981D01*
X111905930Y-107477600D01*
X111929740Y-107501409D01*
X111977359Y-107525219D01*
X112167835Y-107525219D01*
X111453549Y-107429981D02*
X111453549Y-107763314D01*
X111572597Y-107239504D02*
X111691645Y-107596647D01*
X111382121Y-107596647D01*
%TO.C,R14*%
X114724978Y-86090695D02*
X114486883Y-85924028D01*
X114724978Y-85804981D02*
X114224978Y-85804981D01*
X114224978Y-85995457D01*
X114248788Y-86043076D01*
X114272597Y-86066885D01*
X114320216Y-86090695D01*
X114391645Y-86090695D01*
X114439264Y-86066885D01*
X114463073Y-86043076D01*
X114486883Y-85995457D01*
X114486883Y-85804981D01*
X114724978Y-86566885D02*
X114724978Y-86281171D01*
X114724978Y-86424028D02*
X114224978Y-86424028D01*
X114296407Y-86376409D01*
X114344026Y-86328790D01*
X114367835Y-86281171D01*
X114391645Y-86995457D02*
X114724978Y-86995457D01*
X114201168Y-86876409D02*
X114558311Y-86757362D01*
X114558311Y-87066885D01*
%TO.C,R5*%
X103724978Y-86353790D02*
X103486883Y-86187124D01*
X103724978Y-86068076D02*
X103224978Y-86068076D01*
X103224978Y-86258552D01*
X103248788Y-86306171D01*
X103272597Y-86329981D01*
X103320216Y-86353790D01*
X103391645Y-86353790D01*
X103439264Y-86329981D01*
X103463073Y-86306171D01*
X103486883Y-86258552D01*
X103486883Y-86068076D01*
X103224978Y-86806171D02*
X103224978Y-86568076D01*
X103463073Y-86544266D01*
X103439264Y-86568076D01*
X103415454Y-86615695D01*
X103415454Y-86734743D01*
X103439264Y-86782362D01*
X103463073Y-86806171D01*
X103510692Y-86829981D01*
X103629740Y-86829981D01*
X103677359Y-86806171D01*
X103701168Y-86782362D01*
X103724978Y-86734743D01*
X103724978Y-86615695D01*
X103701168Y-86568076D01*
X103677359Y-86544266D01*
D11*
%TO.C,C13*%
X105070216Y-80340695D02*
X105094026Y-80364504D01*
X105165454Y-80388314D01*
X105213073Y-80388314D01*
X105284502Y-80364504D01*
X105332121Y-80316885D01*
X105355930Y-80269266D01*
X105379740Y-80174028D01*
X105379740Y-80102600D01*
X105355930Y-80007362D01*
X105332121Y-79959743D01*
X105284502Y-79912124D01*
X105213073Y-79888314D01*
X105165454Y-79888314D01*
X105094026Y-79912124D01*
X105070216Y-79935933D01*
X104594026Y-80388314D02*
X104879740Y-80388314D01*
X104736883Y-80388314D02*
X104736883Y-79888314D01*
X104784502Y-79959743D01*
X104832121Y-80007362D01*
X104879740Y-80031171D01*
X104427359Y-79888314D02*
X104117835Y-79888314D01*
X104284502Y-80078790D01*
X104213073Y-80078790D01*
X104165454Y-80102600D01*
X104141645Y-80126409D01*
X104117835Y-80174028D01*
X104117835Y-80293076D01*
X104141645Y-80340695D01*
X104165454Y-80364504D01*
X104213073Y-80388314D01*
X104355930Y-80388314D01*
X104403549Y-80364504D01*
X104427359Y-80340695D01*
D12*
%TO.C,U2*%
X112126168Y-83875219D02*
X112935692Y-83875219D01*
X113030930Y-83922838D01*
X113078549Y-83970457D01*
X113126168Y-84065695D01*
X113126168Y-84256171D01*
X113078549Y-84351409D01*
X113030930Y-84399028D01*
X112935692Y-84446647D01*
X112126168Y-84446647D01*
X112221407Y-84875219D02*
X112173788Y-84922838D01*
X112126168Y-85018076D01*
X112126168Y-85256171D01*
X112173788Y-85351409D01*
X112221407Y-85399028D01*
X112316645Y-85446647D01*
X112411883Y-85446647D01*
X112554740Y-85399028D01*
X113126168Y-84827600D01*
X113126168Y-85446647D01*
D11*
%TO.C,C12*%
X100652359Y-99790695D02*
X100676168Y-99766885D01*
X100699978Y-99695457D01*
X100699978Y-99647838D01*
X100676168Y-99576409D01*
X100628549Y-99528790D01*
X100580930Y-99504981D01*
X100485692Y-99481171D01*
X100414264Y-99481171D01*
X100319026Y-99504981D01*
X100271407Y-99528790D01*
X100223788Y-99576409D01*
X100199978Y-99647838D01*
X100199978Y-99695457D01*
X100223788Y-99766885D01*
X100247597Y-99790695D01*
X100699978Y-100266885D02*
X100699978Y-99981171D01*
X100699978Y-100124028D02*
X100199978Y-100124028D01*
X100271407Y-100076409D01*
X100319026Y-100028790D01*
X100342835Y-99981171D01*
X100247597Y-100457362D02*
X100223788Y-100481171D01*
X100199978Y-100528790D01*
X100199978Y-100647838D01*
X100223788Y-100695457D01*
X100247597Y-100719266D01*
X100295216Y-100743076D01*
X100342835Y-100743076D01*
X100414264Y-100719266D01*
X100699978Y-100433552D01*
X100699978Y-100743076D01*
D10*
%TO.C,R3*%
X105782121Y-107763314D02*
X105948788Y-107525219D01*
X106067835Y-107763314D02*
X106067835Y-107263314D01*
X105877359Y-107263314D01*
X105829740Y-107287124D01*
X105805930Y-107310933D01*
X105782121Y-107358552D01*
X105782121Y-107429981D01*
X105805930Y-107477600D01*
X105829740Y-107501409D01*
X105877359Y-107525219D01*
X106067835Y-107525219D01*
X105615454Y-107263314D02*
X105305930Y-107263314D01*
X105472597Y-107453790D01*
X105401168Y-107453790D01*
X105353549Y-107477600D01*
X105329740Y-107501409D01*
X105305930Y-107549028D01*
X105305930Y-107668076D01*
X105329740Y-107715695D01*
X105353549Y-107739504D01*
X105401168Y-107763314D01*
X105544026Y-107763314D01*
X105591645Y-107739504D01*
X105615454Y-107715695D01*
%TO.C,R13*%
X101124978Y-68440695D02*
X100886883Y-68274028D01*
X101124978Y-68154981D02*
X100624978Y-68154981D01*
X100624978Y-68345457D01*
X100648788Y-68393076D01*
X100672597Y-68416885D01*
X100720216Y-68440695D01*
X100791645Y-68440695D01*
X100839264Y-68416885D01*
X100863073Y-68393076D01*
X100886883Y-68345457D01*
X100886883Y-68154981D01*
X101124978Y-68916885D02*
X101124978Y-68631171D01*
X101124978Y-68774028D02*
X100624978Y-68774028D01*
X100696407Y-68726409D01*
X100744026Y-68678790D01*
X100767835Y-68631171D01*
X100624978Y-69083552D02*
X100624978Y-69393076D01*
X100815454Y-69226409D01*
X100815454Y-69297838D01*
X100839264Y-69345457D01*
X100863073Y-69369266D01*
X100910692Y-69393076D01*
X101029740Y-69393076D01*
X101077359Y-69369266D01*
X101101168Y-69345457D01*
X101124978Y-69297838D01*
X101124978Y-69154981D01*
X101101168Y-69107362D01*
X101077359Y-69083552D01*
D11*
%TO.C,C14*%
X113270216Y-80190695D02*
X113294026Y-80214504D01*
X113365454Y-80238314D01*
X113413073Y-80238314D01*
X113484502Y-80214504D01*
X113532121Y-80166885D01*
X113555930Y-80119266D01*
X113579740Y-80024028D01*
X113579740Y-79952600D01*
X113555930Y-79857362D01*
X113532121Y-79809743D01*
X113484502Y-79762124D01*
X113413073Y-79738314D01*
X113365454Y-79738314D01*
X113294026Y-79762124D01*
X113270216Y-79785933D01*
X112794026Y-80238314D02*
X113079740Y-80238314D01*
X112936883Y-80238314D02*
X112936883Y-79738314D01*
X112984502Y-79809743D01*
X113032121Y-79857362D01*
X113079740Y-79881171D01*
X112365454Y-79904981D02*
X112365454Y-80238314D01*
X112484502Y-79714504D02*
X112603549Y-80071647D01*
X112294026Y-80071647D01*
D10*
%TO.C,R10*%
X101474978Y-84840695D02*
X101236883Y-84674028D01*
X101474978Y-84554981D02*
X100974978Y-84554981D01*
X100974978Y-84745457D01*
X100998788Y-84793076D01*
X101022597Y-84816885D01*
X101070216Y-84840695D01*
X101141645Y-84840695D01*
X101189264Y-84816885D01*
X101213073Y-84793076D01*
X101236883Y-84745457D01*
X101236883Y-84554981D01*
X101474978Y-85316885D02*
X101474978Y-85031171D01*
X101474978Y-85174028D02*
X100974978Y-85174028D01*
X101046407Y-85126409D01*
X101094026Y-85078790D01*
X101117835Y-85031171D01*
X100974978Y-85626409D02*
X100974978Y-85674028D01*
X100998788Y-85721647D01*
X101022597Y-85745457D01*
X101070216Y-85769266D01*
X101165454Y-85793076D01*
X101284502Y-85793076D01*
X101379740Y-85769266D01*
X101427359Y-85745457D01*
X101451168Y-85721647D01*
X101474978Y-85674028D01*
X101474978Y-85626409D01*
X101451168Y-85578790D01*
X101427359Y-85554981D01*
X101379740Y-85531171D01*
X101284502Y-85507362D01*
X101165454Y-85507362D01*
X101070216Y-85531171D01*
X101022597Y-85554981D01*
X100998788Y-85578790D01*
X100974978Y-85626409D01*
D11*
%TO.C,C2*%
X101952359Y-72678790D02*
X101976168Y-72654981D01*
X101999978Y-72583552D01*
X101999978Y-72535933D01*
X101976168Y-72464504D01*
X101928549Y-72416885D01*
X101880930Y-72393076D01*
X101785692Y-72369266D01*
X101714264Y-72369266D01*
X101619026Y-72393076D01*
X101571407Y-72416885D01*
X101523788Y-72464504D01*
X101499978Y-72535933D01*
X101499978Y-72583552D01*
X101523788Y-72654981D01*
X101547597Y-72678790D01*
X101547597Y-72869266D02*
X101523788Y-72893076D01*
X101499978Y-72940695D01*
X101499978Y-73059743D01*
X101523788Y-73107362D01*
X101547597Y-73131171D01*
X101595216Y-73154981D01*
X101642835Y-73154981D01*
X101714264Y-73131171D01*
X101999978Y-72845457D01*
X101999978Y-73154981D01*
%TO.C,C20*%
X101670216Y-76140695D02*
X101694026Y-76164504D01*
X101765454Y-76188314D01*
X101813073Y-76188314D01*
X101884502Y-76164504D01*
X101932121Y-76116885D01*
X101955930Y-76069266D01*
X101979740Y-75974028D01*
X101979740Y-75902600D01*
X101955930Y-75807362D01*
X101932121Y-75759743D01*
X101884502Y-75712124D01*
X101813073Y-75688314D01*
X101765454Y-75688314D01*
X101694026Y-75712124D01*
X101670216Y-75735933D01*
X101479740Y-75735933D02*
X101455930Y-75712124D01*
X101408311Y-75688314D01*
X101289264Y-75688314D01*
X101241645Y-75712124D01*
X101217835Y-75735933D01*
X101194026Y-75783552D01*
X101194026Y-75831171D01*
X101217835Y-75902600D01*
X101503549Y-76188314D01*
X101194026Y-76188314D01*
X100884502Y-75688314D02*
X100836883Y-75688314D01*
X100789264Y-75712124D01*
X100765454Y-75735933D01*
X100741645Y-75783552D01*
X100717835Y-75878790D01*
X100717835Y-75997838D01*
X100741645Y-76093076D01*
X100765454Y-76140695D01*
X100789264Y-76164504D01*
X100836883Y-76188314D01*
X100884502Y-76188314D01*
X100932121Y-76164504D01*
X100955930Y-76140695D01*
X100979740Y-76093076D01*
X101003549Y-75997838D01*
X101003549Y-75878790D01*
X100979740Y-75783552D01*
X100955930Y-75735933D01*
X100932121Y-75712124D01*
X100884502Y-75688314D01*
D12*
%TO.C,D1*%
X101776168Y-109274028D02*
X100776168Y-109274028D01*
X100776168Y-109512124D01*
X100823788Y-109654981D01*
X100919026Y-109750219D01*
X101014264Y-109797838D01*
X101204740Y-109845457D01*
X101347597Y-109845457D01*
X101538073Y-109797838D01*
X101633311Y-109750219D01*
X101728549Y-109654981D01*
X101776168Y-109512124D01*
X101776168Y-109274028D01*
X101776168Y-110797838D02*
X101776168Y-110226409D01*
X101776168Y-110512124D02*
X100776168Y-110512124D01*
X100919026Y-110416885D01*
X101014264Y-110321647D01*
X101061883Y-110226409D01*
D10*
%TO.C,R15*%
X114699978Y-83490695D02*
X114461883Y-83324028D01*
X114699978Y-83204981D02*
X114199978Y-83204981D01*
X114199978Y-83395457D01*
X114223788Y-83443076D01*
X114247597Y-83466885D01*
X114295216Y-83490695D01*
X114366645Y-83490695D01*
X114414264Y-83466885D01*
X114438073Y-83443076D01*
X114461883Y-83395457D01*
X114461883Y-83204981D01*
X114699978Y-83966885D02*
X114699978Y-83681171D01*
X114699978Y-83824028D02*
X114199978Y-83824028D01*
X114271407Y-83776409D01*
X114319026Y-83728790D01*
X114342835Y-83681171D01*
X114199978Y-84419266D02*
X114199978Y-84181171D01*
X114438073Y-84157362D01*
X114414264Y-84181171D01*
X114390454Y-84228790D01*
X114390454Y-84347838D01*
X114414264Y-84395457D01*
X114438073Y-84419266D01*
X114485692Y-84443076D01*
X114604740Y-84443076D01*
X114652359Y-84419266D01*
X114676168Y-84395457D01*
X114699978Y-84347838D01*
X114699978Y-84228790D01*
X114676168Y-84181171D01*
X114652359Y-84157362D01*
D12*
%TO.C,Card1*%
X112892716Y-75494266D02*
X112940335Y-75541885D01*
X113083192Y-75589504D01*
X113178430Y-75589504D01*
X113321288Y-75541885D01*
X113416526Y-75446647D01*
X113464145Y-75351409D01*
X113511764Y-75160933D01*
X113511764Y-75018076D01*
X113464145Y-74827600D01*
X113416526Y-74732362D01*
X113321288Y-74637124D01*
X113178430Y-74589504D01*
X113083192Y-74589504D01*
X112940335Y-74637124D01*
X112892716Y-74684743D01*
X112035573Y-75589504D02*
X112035573Y-75065695D01*
X112083192Y-74970457D01*
X112178430Y-74922838D01*
X112368907Y-74922838D01*
X112464145Y-74970457D01*
X112035573Y-75541885D02*
X112130811Y-75589504D01*
X112368907Y-75589504D01*
X112464145Y-75541885D01*
X112511764Y-75446647D01*
X112511764Y-75351409D01*
X112464145Y-75256171D01*
X112368907Y-75208552D01*
X112130811Y-75208552D01*
X112035573Y-75160933D01*
X111559383Y-75589504D02*
X111559383Y-74922838D01*
X111559383Y-75113314D02*
X111511764Y-75018076D01*
X111464145Y-74970457D01*
X111368907Y-74922838D01*
X111273668Y-74922838D01*
X110511764Y-75589504D02*
X110511764Y-74589504D01*
X110511764Y-75541885D02*
X110607002Y-75589504D01*
X110797478Y-75589504D01*
X110892716Y-75541885D01*
X110940335Y-75494266D01*
X110987954Y-75399028D01*
X110987954Y-75113314D01*
X110940335Y-75018076D01*
X110892716Y-74970457D01*
X110797478Y-74922838D01*
X110607002Y-74922838D01*
X110511764Y-74970457D01*
X109511764Y-75589504D02*
X110083192Y-75589504D01*
X109797478Y-75589504D02*
X109797478Y-74589504D01*
X109892716Y-74732362D01*
X109987954Y-74827600D01*
X110083192Y-74875219D01*
D10*
%TO.C,R7*%
X117399978Y-85203790D02*
X117161883Y-85037124D01*
X117399978Y-84918076D02*
X116899978Y-84918076D01*
X116899978Y-85108552D01*
X116923788Y-85156171D01*
X116947597Y-85179981D01*
X116995216Y-85203790D01*
X117066645Y-85203790D01*
X117114264Y-85179981D01*
X117138073Y-85156171D01*
X117161883Y-85108552D01*
X117161883Y-84918076D01*
X116899978Y-85370457D02*
X116899978Y-85703790D01*
X117399978Y-85489504D01*
D12*
%TO.C,J3*%
X116076168Y-102503790D02*
X116790454Y-102503790D01*
X116933311Y-102456171D01*
X117028549Y-102360933D01*
X117076168Y-102218076D01*
X117076168Y-102122838D01*
X116076168Y-102884743D02*
X116076168Y-103503790D01*
X116457121Y-103170457D01*
X116457121Y-103313314D01*
X116504740Y-103408552D01*
X116552359Y-103456171D01*
X116647597Y-103503790D01*
X116885692Y-103503790D01*
X116980930Y-103456171D01*
X117028549Y-103408552D01*
X117076168Y-103313314D01*
X117076168Y-103027600D01*
X117028549Y-102932362D01*
X116980930Y-102884743D01*
D11*
%TO.C,C16*%
X109920216Y-89190695D02*
X109944026Y-89214504D01*
X110015454Y-89238314D01*
X110063073Y-89238314D01*
X110134502Y-89214504D01*
X110182121Y-89166885D01*
X110205930Y-89119266D01*
X110229740Y-89024028D01*
X110229740Y-88952600D01*
X110205930Y-88857362D01*
X110182121Y-88809743D01*
X110134502Y-88762124D01*
X110063073Y-88738314D01*
X110015454Y-88738314D01*
X109944026Y-88762124D01*
X109920216Y-88785933D01*
X109444026Y-89238314D02*
X109729740Y-89238314D01*
X109586883Y-89238314D02*
X109586883Y-88738314D01*
X109634502Y-88809743D01*
X109682121Y-88857362D01*
X109729740Y-88881171D01*
X109015454Y-88738314D02*
X109110692Y-88738314D01*
X109158311Y-88762124D01*
X109182121Y-88785933D01*
X109229740Y-88857362D01*
X109253549Y-88952600D01*
X109253549Y-89143076D01*
X109229740Y-89190695D01*
X109205930Y-89214504D01*
X109158311Y-89238314D01*
X109063073Y-89238314D01*
X109015454Y-89214504D01*
X108991645Y-89190695D01*
X108967835Y-89143076D01*
X108967835Y-89024028D01*
X108991645Y-88976409D01*
X109015454Y-88952600D01*
X109063073Y-88928790D01*
X109158311Y-88928790D01*
X109205930Y-88952600D01*
X109229740Y-88976409D01*
X109253549Y-89024028D01*
%TO.C,C17*%
X116070216Y-80915695D02*
X116094026Y-80939504D01*
X116165454Y-80963314D01*
X116213073Y-80963314D01*
X116284502Y-80939504D01*
X116332121Y-80891885D01*
X116355930Y-80844266D01*
X116379740Y-80749028D01*
X116379740Y-80677600D01*
X116355930Y-80582362D01*
X116332121Y-80534743D01*
X116284502Y-80487124D01*
X116213073Y-80463314D01*
X116165454Y-80463314D01*
X116094026Y-80487124D01*
X116070216Y-80510933D01*
X115594026Y-80963314D02*
X115879740Y-80963314D01*
X115736883Y-80963314D02*
X115736883Y-80463314D01*
X115784502Y-80534743D01*
X115832121Y-80582362D01*
X115879740Y-80606171D01*
X115427359Y-80463314D02*
X115094026Y-80463314D01*
X115308311Y-80963314D01*
D10*
%TO.C,R1*%
X81657121Y-65988314D02*
X81823788Y-65750219D01*
X81942835Y-65988314D02*
X81942835Y-65488314D01*
X81752359Y-65488314D01*
X81704740Y-65512124D01*
X81680930Y-65535933D01*
X81657121Y-65583552D01*
X81657121Y-65654981D01*
X81680930Y-65702600D01*
X81704740Y-65726409D01*
X81752359Y-65750219D01*
X81942835Y-65750219D01*
X81180930Y-65988314D02*
X81466645Y-65988314D01*
X81323788Y-65988314D02*
X81323788Y-65488314D01*
X81371407Y-65559743D01*
X81419026Y-65607362D01*
X81466645Y-65631171D01*
D12*
%TO.C,J3*%
X96076168Y-102503790D02*
X96790454Y-102503790D01*
X96933311Y-102456171D01*
X97028549Y-102360933D01*
X97076168Y-102218076D01*
X97076168Y-102122838D01*
X96076168Y-102884743D02*
X96076168Y-103503790D01*
X96457121Y-103170457D01*
X96457121Y-103313314D01*
X96504740Y-103408552D01*
X96552359Y-103456171D01*
X96647597Y-103503790D01*
X96885692Y-103503790D01*
X96980930Y-103456171D01*
X97028549Y-103408552D01*
X97076168Y-103313314D01*
X97076168Y-103027600D01*
X97028549Y-102932362D01*
X96980930Y-102884743D01*
D10*
%TO.C,R13*%
X81124978Y-68440695D02*
X80886883Y-68274028D01*
X81124978Y-68154981D02*
X80624978Y-68154981D01*
X80624978Y-68345457D01*
X80648788Y-68393076D01*
X80672597Y-68416885D01*
X80720216Y-68440695D01*
X80791645Y-68440695D01*
X80839264Y-68416885D01*
X80863073Y-68393076D01*
X80886883Y-68345457D01*
X80886883Y-68154981D01*
X81124978Y-68916885D02*
X81124978Y-68631171D01*
X81124978Y-68774028D02*
X80624978Y-68774028D01*
X80696407Y-68726409D01*
X80744026Y-68678790D01*
X80767835Y-68631171D01*
X80624978Y-69083552D02*
X80624978Y-69393076D01*
X80815454Y-69226409D01*
X80815454Y-69297838D01*
X80839264Y-69345457D01*
X80863073Y-69369266D01*
X80910692Y-69393076D01*
X81029740Y-69393076D01*
X81077359Y-69369266D01*
X81101168Y-69345457D01*
X81124978Y-69297838D01*
X81124978Y-69154981D01*
X81101168Y-69107362D01*
X81077359Y-69083552D01*
D12*
%TO.C,Card1*%
X92892716Y-75494266D02*
X92940335Y-75541885D01*
X93083192Y-75589504D01*
X93178430Y-75589504D01*
X93321288Y-75541885D01*
X93416526Y-75446647D01*
X93464145Y-75351409D01*
X93511764Y-75160933D01*
X93511764Y-75018076D01*
X93464145Y-74827600D01*
X93416526Y-74732362D01*
X93321288Y-74637124D01*
X93178430Y-74589504D01*
X93083192Y-74589504D01*
X92940335Y-74637124D01*
X92892716Y-74684743D01*
X92035573Y-75589504D02*
X92035573Y-75065695D01*
X92083192Y-74970457D01*
X92178430Y-74922838D01*
X92368907Y-74922838D01*
X92464145Y-74970457D01*
X92035573Y-75541885D02*
X92130811Y-75589504D01*
X92368907Y-75589504D01*
X92464145Y-75541885D01*
X92511764Y-75446647D01*
X92511764Y-75351409D01*
X92464145Y-75256171D01*
X92368907Y-75208552D01*
X92130811Y-75208552D01*
X92035573Y-75160933D01*
X91559383Y-75589504D02*
X91559383Y-74922838D01*
X91559383Y-75113314D02*
X91511764Y-75018076D01*
X91464145Y-74970457D01*
X91368907Y-74922838D01*
X91273668Y-74922838D01*
X90511764Y-75589504D02*
X90511764Y-74589504D01*
X90511764Y-75541885D02*
X90607002Y-75589504D01*
X90797478Y-75589504D01*
X90892716Y-75541885D01*
X90940335Y-75494266D01*
X90987954Y-75399028D01*
X90987954Y-75113314D01*
X90940335Y-75018076D01*
X90892716Y-74970457D01*
X90797478Y-74922838D01*
X90607002Y-74922838D01*
X90511764Y-74970457D01*
X89511764Y-75589504D02*
X90083192Y-75589504D01*
X89797478Y-75589504D02*
X89797478Y-74589504D01*
X89892716Y-74732362D01*
X89987954Y-74827600D01*
X90083192Y-74875219D01*
D11*
%TO.C,C16*%
X89920216Y-89190695D02*
X89944026Y-89214504D01*
X90015454Y-89238314D01*
X90063073Y-89238314D01*
X90134502Y-89214504D01*
X90182121Y-89166885D01*
X90205930Y-89119266D01*
X90229740Y-89024028D01*
X90229740Y-88952600D01*
X90205930Y-88857362D01*
X90182121Y-88809743D01*
X90134502Y-88762124D01*
X90063073Y-88738314D01*
X90015454Y-88738314D01*
X89944026Y-88762124D01*
X89920216Y-88785933D01*
X89444026Y-89238314D02*
X89729740Y-89238314D01*
X89586883Y-89238314D02*
X89586883Y-88738314D01*
X89634502Y-88809743D01*
X89682121Y-88857362D01*
X89729740Y-88881171D01*
X89015454Y-88738314D02*
X89110692Y-88738314D01*
X89158311Y-88762124D01*
X89182121Y-88785933D01*
X89229740Y-88857362D01*
X89253549Y-88952600D01*
X89253549Y-89143076D01*
X89229740Y-89190695D01*
X89205930Y-89214504D01*
X89158311Y-89238314D01*
X89063073Y-89238314D01*
X89015454Y-89214504D01*
X88991645Y-89190695D01*
X88967835Y-89143076D01*
X88967835Y-89024028D01*
X88991645Y-88976409D01*
X89015454Y-88952600D01*
X89063073Y-88928790D01*
X89158311Y-88928790D01*
X89205930Y-88952600D01*
X89229740Y-88976409D01*
X89253549Y-89024028D01*
D12*
%TO.C,P2*%
X89711883Y-108939504D02*
X89711883Y-107939504D01*
X89330930Y-107939504D01*
X89235692Y-107987124D01*
X89188073Y-108034743D01*
X89140454Y-108129981D01*
X89140454Y-108272838D01*
X89188073Y-108368076D01*
X89235692Y-108415695D01*
X89330930Y-108463314D01*
X89711883Y-108463314D01*
X88759502Y-108034743D02*
X88711883Y-107987124D01*
X88616645Y-107939504D01*
X88378549Y-107939504D01*
X88283311Y-107987124D01*
X88235692Y-108034743D01*
X88188073Y-108129981D01*
X88188073Y-108225219D01*
X88235692Y-108368076D01*
X88807121Y-108939504D01*
X88188073Y-108939504D01*
D10*
%TO.C,R5*%
X83724978Y-86353790D02*
X83486883Y-86187124D01*
X83724978Y-86068076D02*
X83224978Y-86068076D01*
X83224978Y-86258552D01*
X83248788Y-86306171D01*
X83272597Y-86329981D01*
X83320216Y-86353790D01*
X83391645Y-86353790D01*
X83439264Y-86329981D01*
X83463073Y-86306171D01*
X83486883Y-86258552D01*
X83486883Y-86068076D01*
X83224978Y-86806171D02*
X83224978Y-86568076D01*
X83463073Y-86544266D01*
X83439264Y-86568076D01*
X83415454Y-86615695D01*
X83415454Y-86734743D01*
X83439264Y-86782362D01*
X83463073Y-86806171D01*
X83510692Y-86829981D01*
X83629740Y-86829981D01*
X83677359Y-86806171D01*
X83701168Y-86782362D01*
X83724978Y-86734743D01*
X83724978Y-86615695D01*
X83701168Y-86568076D01*
X83677359Y-86544266D01*
%TO.C,R7*%
X97399978Y-85203790D02*
X97161883Y-85037124D01*
X97399978Y-84918076D02*
X96899978Y-84918076D01*
X96899978Y-85108552D01*
X96923788Y-85156171D01*
X96947597Y-85179981D01*
X96995216Y-85203790D01*
X97066645Y-85203790D01*
X97114264Y-85179981D01*
X97138073Y-85156171D01*
X97161883Y-85108552D01*
X97161883Y-84918076D01*
X96899978Y-85370457D02*
X96899978Y-85703790D01*
X97399978Y-85489504D01*
%TO.C,R14*%
X94724978Y-86090695D02*
X94486883Y-85924028D01*
X94724978Y-85804981D02*
X94224978Y-85804981D01*
X94224978Y-85995457D01*
X94248788Y-86043076D01*
X94272597Y-86066885D01*
X94320216Y-86090695D01*
X94391645Y-86090695D01*
X94439264Y-86066885D01*
X94463073Y-86043076D01*
X94486883Y-85995457D01*
X94486883Y-85804981D01*
X94724978Y-86566885D02*
X94724978Y-86281171D01*
X94724978Y-86424028D02*
X94224978Y-86424028D01*
X94296407Y-86376409D01*
X94344026Y-86328790D01*
X94367835Y-86281171D01*
X94391645Y-86995457D02*
X94724978Y-86995457D01*
X94201168Y-86876409D02*
X94558311Y-86757362D01*
X94558311Y-87066885D01*
D11*
%TO.C,C12*%
X80652359Y-99790695D02*
X80676168Y-99766885D01*
X80699978Y-99695457D01*
X80699978Y-99647838D01*
X80676168Y-99576409D01*
X80628549Y-99528790D01*
X80580930Y-99504981D01*
X80485692Y-99481171D01*
X80414264Y-99481171D01*
X80319026Y-99504981D01*
X80271407Y-99528790D01*
X80223788Y-99576409D01*
X80199978Y-99647838D01*
X80199978Y-99695457D01*
X80223788Y-99766885D01*
X80247597Y-99790695D01*
X80699978Y-100266885D02*
X80699978Y-99981171D01*
X80699978Y-100124028D02*
X80199978Y-100124028D01*
X80271407Y-100076409D01*
X80319026Y-100028790D01*
X80342835Y-99981171D01*
X80247597Y-100457362D02*
X80223788Y-100481171D01*
X80199978Y-100528790D01*
X80199978Y-100647838D01*
X80223788Y-100695457D01*
X80247597Y-100719266D01*
X80295216Y-100743076D01*
X80342835Y-100743076D01*
X80414264Y-100719266D01*
X80699978Y-100433552D01*
X80699978Y-100743076D01*
D10*
%TO.C,R10*%
X81474978Y-84840695D02*
X81236883Y-84674028D01*
X81474978Y-84554981D02*
X80974978Y-84554981D01*
X80974978Y-84745457D01*
X80998788Y-84793076D01*
X81022597Y-84816885D01*
X81070216Y-84840695D01*
X81141645Y-84840695D01*
X81189264Y-84816885D01*
X81213073Y-84793076D01*
X81236883Y-84745457D01*
X81236883Y-84554981D01*
X81474978Y-85316885D02*
X81474978Y-85031171D01*
X81474978Y-85174028D02*
X80974978Y-85174028D01*
X81046407Y-85126409D01*
X81094026Y-85078790D01*
X81117835Y-85031171D01*
X80974978Y-85626409D02*
X80974978Y-85674028D01*
X80998788Y-85721647D01*
X81022597Y-85745457D01*
X81070216Y-85769266D01*
X81165454Y-85793076D01*
X81284502Y-85793076D01*
X81379740Y-85769266D01*
X81427359Y-85745457D01*
X81451168Y-85721647D01*
X81474978Y-85674028D01*
X81474978Y-85626409D01*
X81451168Y-85578790D01*
X81427359Y-85554981D01*
X81379740Y-85531171D01*
X81284502Y-85507362D01*
X81165454Y-85507362D01*
X81070216Y-85531171D01*
X81022597Y-85554981D01*
X80998788Y-85578790D01*
X80974978Y-85626409D01*
D11*
%TO.C,C14*%
X93270216Y-80190695D02*
X93294026Y-80214504D01*
X93365454Y-80238314D01*
X93413073Y-80238314D01*
X93484502Y-80214504D01*
X93532121Y-80166885D01*
X93555930Y-80119266D01*
X93579740Y-80024028D01*
X93579740Y-79952600D01*
X93555930Y-79857362D01*
X93532121Y-79809743D01*
X93484502Y-79762124D01*
X93413073Y-79738314D01*
X93365454Y-79738314D01*
X93294026Y-79762124D01*
X93270216Y-79785933D01*
X92794026Y-80238314D02*
X93079740Y-80238314D01*
X92936883Y-80238314D02*
X92936883Y-79738314D01*
X92984502Y-79809743D01*
X93032121Y-79857362D01*
X93079740Y-79881171D01*
X92365454Y-79904981D02*
X92365454Y-80238314D01*
X92484502Y-79714504D02*
X92603549Y-80071647D01*
X92294026Y-80071647D01*
%TO.C,C8*%
X82177359Y-99753790D02*
X82201168Y-99729981D01*
X82224978Y-99658552D01*
X82224978Y-99610933D01*
X82201168Y-99539504D01*
X82153549Y-99491885D01*
X82105930Y-99468076D01*
X82010692Y-99444266D01*
X81939264Y-99444266D01*
X81844026Y-99468076D01*
X81796407Y-99491885D01*
X81748788Y-99539504D01*
X81724978Y-99610933D01*
X81724978Y-99658552D01*
X81748788Y-99729981D01*
X81772597Y-99753790D01*
X81939264Y-100039504D02*
X81915454Y-99991885D01*
X81891645Y-99968076D01*
X81844026Y-99944266D01*
X81820216Y-99944266D01*
X81772597Y-99968076D01*
X81748788Y-99991885D01*
X81724978Y-100039504D01*
X81724978Y-100134743D01*
X81748788Y-100182362D01*
X81772597Y-100206171D01*
X81820216Y-100229981D01*
X81844026Y-100229981D01*
X81891645Y-100206171D01*
X81915454Y-100182362D01*
X81939264Y-100134743D01*
X81939264Y-100039504D01*
X81963073Y-99991885D01*
X81986883Y-99968076D01*
X82034502Y-99944266D01*
X82129740Y-99944266D01*
X82177359Y-99968076D01*
X82201168Y-99991885D01*
X82224978Y-100039504D01*
X82224978Y-100134743D01*
X82201168Y-100182362D01*
X82177359Y-100206171D01*
X82129740Y-100229981D01*
X82034502Y-100229981D01*
X81986883Y-100206171D01*
X81963073Y-100182362D01*
X81939264Y-100134743D01*
%TO.C,C2*%
X81952359Y-72678790D02*
X81976168Y-72654981D01*
X81999978Y-72583552D01*
X81999978Y-72535933D01*
X81976168Y-72464504D01*
X81928549Y-72416885D01*
X81880930Y-72393076D01*
X81785692Y-72369266D01*
X81714264Y-72369266D01*
X81619026Y-72393076D01*
X81571407Y-72416885D01*
X81523788Y-72464504D01*
X81499978Y-72535933D01*
X81499978Y-72583552D01*
X81523788Y-72654981D01*
X81547597Y-72678790D01*
X81547597Y-72869266D02*
X81523788Y-72893076D01*
X81499978Y-72940695D01*
X81499978Y-73059743D01*
X81523788Y-73107362D01*
X81547597Y-73131171D01*
X81595216Y-73154981D01*
X81642835Y-73154981D01*
X81714264Y-73131171D01*
X81999978Y-72845457D01*
X81999978Y-73154981D01*
%TO.C,C17*%
X96070216Y-80915695D02*
X96094026Y-80939504D01*
X96165454Y-80963314D01*
X96213073Y-80963314D01*
X96284502Y-80939504D01*
X96332121Y-80891885D01*
X96355930Y-80844266D01*
X96379740Y-80749028D01*
X96379740Y-80677600D01*
X96355930Y-80582362D01*
X96332121Y-80534743D01*
X96284502Y-80487124D01*
X96213073Y-80463314D01*
X96165454Y-80463314D01*
X96094026Y-80487124D01*
X96070216Y-80510933D01*
X95594026Y-80963314D02*
X95879740Y-80963314D01*
X95736883Y-80963314D02*
X95736883Y-80463314D01*
X95784502Y-80534743D01*
X95832121Y-80582362D01*
X95879740Y-80606171D01*
X95427359Y-80463314D02*
X95094026Y-80463314D01*
X95308311Y-80963314D01*
D12*
%TO.C,D1*%
X81776168Y-109274028D02*
X80776168Y-109274028D01*
X80776168Y-109512124D01*
X80823788Y-109654981D01*
X80919026Y-109750219D01*
X81014264Y-109797838D01*
X81204740Y-109845457D01*
X81347597Y-109845457D01*
X81538073Y-109797838D01*
X81633311Y-109750219D01*
X81728549Y-109654981D01*
X81776168Y-109512124D01*
X81776168Y-109274028D01*
X81776168Y-110797838D02*
X81776168Y-110226409D01*
X81776168Y-110512124D02*
X80776168Y-110512124D01*
X80919026Y-110416885D01*
X81014264Y-110321647D01*
X81061883Y-110226409D01*
%TO.C,U2*%
X92126168Y-83875219D02*
X92935692Y-83875219D01*
X93030930Y-83922838D01*
X93078549Y-83970457D01*
X93126168Y-84065695D01*
X93126168Y-84256171D01*
X93078549Y-84351409D01*
X93030930Y-84399028D01*
X92935692Y-84446647D01*
X92126168Y-84446647D01*
X92221407Y-84875219D02*
X92173788Y-84922838D01*
X92126168Y-85018076D01*
X92126168Y-85256171D01*
X92173788Y-85351409D01*
X92221407Y-85399028D01*
X92316645Y-85446647D01*
X92411883Y-85446647D01*
X92554740Y-85399028D01*
X93126168Y-84827600D01*
X93126168Y-85446647D01*
D11*
%TO.C,C20*%
X81670216Y-76140695D02*
X81694026Y-76164504D01*
X81765454Y-76188314D01*
X81813073Y-76188314D01*
X81884502Y-76164504D01*
X81932121Y-76116885D01*
X81955930Y-76069266D01*
X81979740Y-75974028D01*
X81979740Y-75902600D01*
X81955930Y-75807362D01*
X81932121Y-75759743D01*
X81884502Y-75712124D01*
X81813073Y-75688314D01*
X81765454Y-75688314D01*
X81694026Y-75712124D01*
X81670216Y-75735933D01*
X81479740Y-75735933D02*
X81455930Y-75712124D01*
X81408311Y-75688314D01*
X81289264Y-75688314D01*
X81241645Y-75712124D01*
X81217835Y-75735933D01*
X81194026Y-75783552D01*
X81194026Y-75831171D01*
X81217835Y-75902600D01*
X81503549Y-76188314D01*
X81194026Y-76188314D01*
X80884502Y-75688314D02*
X80836883Y-75688314D01*
X80789264Y-75712124D01*
X80765454Y-75735933D01*
X80741645Y-75783552D01*
X80717835Y-75878790D01*
X80717835Y-75997838D01*
X80741645Y-76093076D01*
X80765454Y-76140695D01*
X80789264Y-76164504D01*
X80836883Y-76188314D01*
X80884502Y-76188314D01*
X80932121Y-76164504D01*
X80955930Y-76140695D01*
X80979740Y-76093076D01*
X81003549Y-75997838D01*
X81003549Y-75878790D01*
X80979740Y-75783552D01*
X80955930Y-75735933D01*
X80932121Y-75712124D01*
X80884502Y-75688314D01*
D10*
%TO.C,R3*%
X85782121Y-107763314D02*
X85948788Y-107525219D01*
X86067835Y-107763314D02*
X86067835Y-107263314D01*
X85877359Y-107263314D01*
X85829740Y-107287124D01*
X85805930Y-107310933D01*
X85782121Y-107358552D01*
X85782121Y-107429981D01*
X85805930Y-107477600D01*
X85829740Y-107501409D01*
X85877359Y-107525219D01*
X86067835Y-107525219D01*
X85615454Y-107263314D02*
X85305930Y-107263314D01*
X85472597Y-107453790D01*
X85401168Y-107453790D01*
X85353549Y-107477600D01*
X85329740Y-107501409D01*
X85305930Y-107549028D01*
X85305930Y-107668076D01*
X85329740Y-107715695D01*
X85353549Y-107739504D01*
X85401168Y-107763314D01*
X85544026Y-107763314D01*
X85591645Y-107739504D01*
X85615454Y-107715695D01*
%TO.C,R4*%
X91882121Y-107763314D02*
X92048788Y-107525219D01*
X92167835Y-107763314D02*
X92167835Y-107263314D01*
X91977359Y-107263314D01*
X91929740Y-107287124D01*
X91905930Y-107310933D01*
X91882121Y-107358552D01*
X91882121Y-107429981D01*
X91905930Y-107477600D01*
X91929740Y-107501409D01*
X91977359Y-107525219D01*
X92167835Y-107525219D01*
X91453549Y-107429981D02*
X91453549Y-107763314D01*
X91572597Y-107239504D02*
X91691645Y-107596647D01*
X91382121Y-107596647D01*
%TO.C,R6*%
X83724978Y-83728790D02*
X83486883Y-83562124D01*
X83724978Y-83443076D02*
X83224978Y-83443076D01*
X83224978Y-83633552D01*
X83248788Y-83681171D01*
X83272597Y-83704981D01*
X83320216Y-83728790D01*
X83391645Y-83728790D01*
X83439264Y-83704981D01*
X83463073Y-83681171D01*
X83486883Y-83633552D01*
X83486883Y-83443076D01*
X83224978Y-84157362D02*
X83224978Y-84062124D01*
X83248788Y-84014504D01*
X83272597Y-83990695D01*
X83344026Y-83943076D01*
X83439264Y-83919266D01*
X83629740Y-83919266D01*
X83677359Y-83943076D01*
X83701168Y-83966885D01*
X83724978Y-84014504D01*
X83724978Y-84109743D01*
X83701168Y-84157362D01*
X83677359Y-84181171D01*
X83629740Y-84204981D01*
X83510692Y-84204981D01*
X83463073Y-84181171D01*
X83439264Y-84157362D01*
X83415454Y-84109743D01*
X83415454Y-84014504D01*
X83439264Y-83966885D01*
X83463073Y-83943076D01*
X83510692Y-83919266D01*
%TO.C,R15*%
X94699978Y-83490695D02*
X94461883Y-83324028D01*
X94699978Y-83204981D02*
X94199978Y-83204981D01*
X94199978Y-83395457D01*
X94223788Y-83443076D01*
X94247597Y-83466885D01*
X94295216Y-83490695D01*
X94366645Y-83490695D01*
X94414264Y-83466885D01*
X94438073Y-83443076D01*
X94461883Y-83395457D01*
X94461883Y-83204981D01*
X94699978Y-83966885D02*
X94699978Y-83681171D01*
X94699978Y-83824028D02*
X94199978Y-83824028D01*
X94271407Y-83776409D01*
X94319026Y-83728790D01*
X94342835Y-83681171D01*
X94199978Y-84419266D02*
X94199978Y-84181171D01*
X94438073Y-84157362D01*
X94414264Y-84181171D01*
X94390454Y-84228790D01*
X94390454Y-84347838D01*
X94414264Y-84395457D01*
X94438073Y-84419266D01*
X94485692Y-84443076D01*
X94604740Y-84443076D01*
X94652359Y-84419266D01*
X94676168Y-84395457D01*
X94699978Y-84347838D01*
X94699978Y-84228790D01*
X94676168Y-84181171D01*
X94652359Y-84157362D01*
D11*
%TO.C,C13*%
X85070216Y-80340695D02*
X85094026Y-80364504D01*
X85165454Y-80388314D01*
X85213073Y-80388314D01*
X85284502Y-80364504D01*
X85332121Y-80316885D01*
X85355930Y-80269266D01*
X85379740Y-80174028D01*
X85379740Y-80102600D01*
X85355930Y-80007362D01*
X85332121Y-79959743D01*
X85284502Y-79912124D01*
X85213073Y-79888314D01*
X85165454Y-79888314D01*
X85094026Y-79912124D01*
X85070216Y-79935933D01*
X84594026Y-80388314D02*
X84879740Y-80388314D01*
X84736883Y-80388314D02*
X84736883Y-79888314D01*
X84784502Y-79959743D01*
X84832121Y-80007362D01*
X84879740Y-80031171D01*
X84427359Y-79888314D02*
X84117835Y-79888314D01*
X84284502Y-80078790D01*
X84213073Y-80078790D01*
X84165454Y-80102600D01*
X84141645Y-80126409D01*
X84117835Y-80174028D01*
X84117835Y-80293076D01*
X84141645Y-80340695D01*
X84165454Y-80364504D01*
X84213073Y-80388314D01*
X84355930Y-80388314D01*
X84403549Y-80364504D01*
X84427359Y-80340695D01*
%TO.C,C10*%
X81777359Y-80565695D02*
X81801168Y-80541885D01*
X81824978Y-80470457D01*
X81824978Y-80422838D01*
X81801168Y-80351409D01*
X81753549Y-80303790D01*
X81705930Y-80279981D01*
X81610692Y-80256171D01*
X81539264Y-80256171D01*
X81444026Y-80279981D01*
X81396407Y-80303790D01*
X81348788Y-80351409D01*
X81324978Y-80422838D01*
X81324978Y-80470457D01*
X81348788Y-80541885D01*
X81372597Y-80565695D01*
X81824978Y-81041885D02*
X81824978Y-80756171D01*
X81824978Y-80899028D02*
X81324978Y-80899028D01*
X81396407Y-80851409D01*
X81444026Y-80803790D01*
X81467835Y-80756171D01*
X81324978Y-81351409D02*
X81324978Y-81399028D01*
X81348788Y-81446647D01*
X81372597Y-81470457D01*
X81420216Y-81494266D01*
X81515454Y-81518076D01*
X81634502Y-81518076D01*
X81729740Y-81494266D01*
X81777359Y-81470457D01*
X81801168Y-81446647D01*
X81824978Y-81399028D01*
X81824978Y-81351409D01*
X81801168Y-81303790D01*
X81777359Y-81279981D01*
X81729740Y-81256171D01*
X81634502Y-81232362D01*
X81515454Y-81232362D01*
X81420216Y-81256171D01*
X81372597Y-81279981D01*
X81348788Y-81303790D01*
X81324978Y-81351409D01*
D13*
%TO.C,C12*%
X140948788Y-98273376D02*
X140948788Y-97750872D01*
X139948788Y-98273376D02*
X139948788Y-97750872D01*
%TO.C,R10*%
X139748788Y-85389188D02*
X139748788Y-84935060D01*
X140748788Y-85389188D02*
X140748788Y-84935060D01*
%TO.C,J3*%
X146588788Y-105792124D02*
X146588788Y-90432124D01*
X146588788Y-95572124D02*
X149248788Y-95572124D01*
X149248788Y-94682124D02*
X155248788Y-94682124D01*
X149248788Y-97222124D02*
X155248788Y-97222124D01*
X155248788Y-104082124D02*
X149248788Y-104082124D01*
X146191717Y-93922124D02*
X146588788Y-93922124D01*
X143878788Y-104462124D02*
X143878788Y-105732124D01*
X146588788Y-100652124D02*
X149248788Y-100652124D01*
X146258788Y-104842124D02*
X146588788Y-104842124D01*
X146191717Y-101542124D02*
X146588788Y-101542124D01*
X149248788Y-104422124D02*
X155248788Y-104422124D01*
X146258788Y-104082124D02*
X146588788Y-104082124D01*
X146191717Y-92142124D02*
X146588788Y-92142124D01*
X146191717Y-102302124D02*
X146588788Y-102302124D01*
X149248788Y-104302124D02*
X155248788Y-104302124D01*
X146191717Y-99002124D02*
X146588788Y-99002124D01*
X146191717Y-94682124D02*
X146588788Y-94682124D01*
X146191717Y-97222124D02*
X146588788Y-97222124D01*
X155248788Y-104842124D02*
X155248788Y-104082124D01*
X149248788Y-99762124D02*
X155248788Y-99762124D01*
X149248788Y-92142124D02*
X155248788Y-92142124D01*
X149248788Y-104782124D02*
X155248788Y-104782124D01*
X155248788Y-93922124D02*
X149248788Y-93922124D01*
X155248788Y-94682124D02*
X155248788Y-93922124D01*
X149248788Y-104182124D02*
X155248788Y-104182124D01*
X155248788Y-96462124D02*
X149248788Y-96462124D01*
X149248788Y-102302124D02*
X155248788Y-102302124D01*
X155248788Y-99762124D02*
X155248788Y-99002124D01*
X149248788Y-90432124D02*
X149248788Y-105792124D01*
X146191717Y-96462124D02*
X146588788Y-96462124D01*
X146191717Y-99762124D02*
X146588788Y-99762124D01*
X155248788Y-97222124D02*
X155248788Y-96462124D01*
X146191717Y-91382124D02*
X146588788Y-91382124D01*
X149248788Y-104662124D02*
X155248788Y-104662124D01*
X149248788Y-105792124D02*
X146588788Y-105792124D01*
X149248788Y-104842124D02*
X155248788Y-104842124D01*
X149248788Y-104542124D02*
X155248788Y-104542124D01*
X155248788Y-102302124D02*
X155248788Y-101542124D01*
X146588788Y-103192124D02*
X149248788Y-103192124D01*
X155248788Y-92142124D02*
X155248788Y-91382124D01*
X155248788Y-99002124D02*
X149248788Y-99002124D01*
X155248788Y-101542124D02*
X149248788Y-101542124D01*
X146588788Y-93032124D02*
X149248788Y-93032124D01*
X155248788Y-91382124D02*
X149248788Y-91382124D01*
X143878788Y-105732124D02*
X145148788Y-105732124D01*
X146588788Y-98112124D02*
X149248788Y-98112124D01*
X146588788Y-90432124D02*
X149248788Y-90432124D01*
%TO.C,R1*%
X140471724Y-65162124D02*
X140925852Y-65162124D01*
X140471724Y-64162124D02*
X140925852Y-64162124D01*
%TO.C,R6*%
X142998788Y-84039188D02*
X142998788Y-83585060D01*
X141998788Y-84039188D02*
X141998788Y-83585060D01*
%TO.C,D1*%
X139723788Y-111012124D02*
X139723788Y-116412124D01*
X139723788Y-111012124D02*
X143023788Y-111012124D01*
X143023788Y-111012124D02*
X143023788Y-116412124D01*
%TO.C,C8*%
X142448788Y-98273376D02*
X142448788Y-97750872D01*
X141448788Y-98273376D02*
X141448788Y-97750872D01*
%TO.C,R14*%
X155998788Y-86185060D02*
X155998788Y-86639188D01*
X154998788Y-86185060D02*
X154998788Y-86639188D01*
%TO.C,C16*%
X149860040Y-87412124D02*
X149337536Y-87412124D01*
X149860040Y-88412124D02*
X149337536Y-88412124D01*
%TO.C,C14*%
X152687536Y-81562124D02*
X153210040Y-81562124D01*
X152687536Y-80562124D02*
X153210040Y-80562124D01*
%TO.C,R3*%
X145925852Y-109037124D02*
X145471724Y-109037124D01*
X145925852Y-108037124D02*
X145471724Y-108037124D01*
%TO.C,P2*%
X153673788Y-112612124D02*
X153673788Y-114612124D01*
X144273788Y-116512124D02*
X144273788Y-118412124D01*
X153673788Y-118412124D02*
X144273788Y-118412124D01*
X144273788Y-112612124D02*
X144273788Y-114612124D01*
X153673788Y-116512124D02*
X153673788Y-118412124D01*
%TO.C,R4*%
X151596724Y-108062124D02*
X152050852Y-108062124D01*
X151596724Y-109062124D02*
X152050852Y-109062124D01*
%TO.C,R13*%
X139398788Y-68989188D02*
X139398788Y-68535060D01*
X140398788Y-68989188D02*
X140398788Y-68535060D01*
%TO.C,R5*%
X141948788Y-86185060D02*
X141948788Y-86639188D01*
X142948788Y-86185060D02*
X142948788Y-86639188D01*
%TO.C,C13*%
X145010040Y-81662124D02*
X144487536Y-81662124D01*
X145010040Y-80662124D02*
X144487536Y-80662124D01*
%TO.C,C2*%
X141198788Y-70625872D02*
X141198788Y-71148376D01*
X142198788Y-70625872D02*
X142198788Y-71148376D01*
%TO.C,C20*%
X141087536Y-75462124D02*
X141610040Y-75462124D01*
X141087536Y-74462124D02*
X141610040Y-74462124D01*
D12*
%TO.C,U2*%
X146173788Y-80487124D02*
X146173788Y-85762124D01*
X151573788Y-81762124D02*
X151573788Y-85762124D01*
D13*
%TO.C,C17*%
X155337536Y-79212124D02*
X155860040Y-79212124D01*
X155337536Y-80212124D02*
X155860040Y-80212124D01*
%TO.C,C10*%
X142148788Y-81073376D02*
X142148788Y-80550872D01*
X143148788Y-81073376D02*
X143148788Y-80550872D01*
%TO.C,R15*%
X154998788Y-84039188D02*
X154998788Y-83585060D01*
X155998788Y-84039188D02*
X155998788Y-83585060D01*
%TO.C,R7*%
X157698788Y-85589188D02*
X157698788Y-85135060D01*
X158698788Y-85589188D02*
X158698788Y-85135060D01*
D14*
%TO.C,Card1*%
X150998788Y-64746124D02*
X153935788Y-63849124D01*
D15*
X152784788Y-78384124D02*
X155883788Y-78385124D01*
D14*
X142632788Y-76818124D02*
X142632788Y-69309124D01*
X142632788Y-63848124D02*
X157364788Y-63848124D01*
X142632788Y-66896124D02*
X142632788Y-63848124D01*
X157364788Y-63848124D02*
X157364788Y-66746124D01*
X142632788Y-64321124D02*
X142632788Y-64745124D01*
X157364788Y-69412124D02*
X157364788Y-76905124D01*
X142632788Y-64745124D02*
X150998788Y-64746124D01*
D13*
%TO.C,C12*%
X120948788Y-98273376D02*
X120948788Y-97750872D01*
X119948788Y-98273376D02*
X119948788Y-97750872D01*
%TO.C,R5*%
X121948788Y-86185060D02*
X121948788Y-86639188D01*
X122948788Y-86185060D02*
X122948788Y-86639188D01*
%TO.C,C17*%
X135337536Y-79212124D02*
X135860040Y-79212124D01*
X135337536Y-80212124D02*
X135860040Y-80212124D01*
%TO.C,J3*%
X126588788Y-105792124D02*
X126588788Y-90432124D01*
X126588788Y-95572124D02*
X129248788Y-95572124D01*
X129248788Y-94682124D02*
X135248788Y-94682124D01*
X129248788Y-97222124D02*
X135248788Y-97222124D01*
X135248788Y-104082124D02*
X129248788Y-104082124D01*
X126191717Y-93922124D02*
X126588788Y-93922124D01*
X123878788Y-104462124D02*
X123878788Y-105732124D01*
X126588788Y-100652124D02*
X129248788Y-100652124D01*
X126258788Y-104842124D02*
X126588788Y-104842124D01*
X126191717Y-101542124D02*
X126588788Y-101542124D01*
X129248788Y-104422124D02*
X135248788Y-104422124D01*
X126258788Y-104082124D02*
X126588788Y-104082124D01*
X126191717Y-92142124D02*
X126588788Y-92142124D01*
X126191717Y-102302124D02*
X126588788Y-102302124D01*
X129248788Y-104302124D02*
X135248788Y-104302124D01*
X126191717Y-99002124D02*
X126588788Y-99002124D01*
X126191717Y-94682124D02*
X126588788Y-94682124D01*
X126191717Y-97222124D02*
X126588788Y-97222124D01*
X135248788Y-104842124D02*
X135248788Y-104082124D01*
X129248788Y-99762124D02*
X135248788Y-99762124D01*
X129248788Y-92142124D02*
X135248788Y-92142124D01*
X129248788Y-104782124D02*
X135248788Y-104782124D01*
X135248788Y-93922124D02*
X129248788Y-93922124D01*
X135248788Y-94682124D02*
X135248788Y-93922124D01*
X129248788Y-104182124D02*
X135248788Y-104182124D01*
X135248788Y-96462124D02*
X129248788Y-96462124D01*
X129248788Y-102302124D02*
X135248788Y-102302124D01*
X135248788Y-99762124D02*
X135248788Y-99002124D01*
X129248788Y-90432124D02*
X129248788Y-105792124D01*
X126191717Y-96462124D02*
X126588788Y-96462124D01*
X126191717Y-99762124D02*
X126588788Y-99762124D01*
X135248788Y-97222124D02*
X135248788Y-96462124D01*
X126191717Y-91382124D02*
X126588788Y-91382124D01*
X129248788Y-104662124D02*
X135248788Y-104662124D01*
X129248788Y-105792124D02*
X126588788Y-105792124D01*
X129248788Y-104842124D02*
X135248788Y-104842124D01*
X129248788Y-104542124D02*
X135248788Y-104542124D01*
X135248788Y-102302124D02*
X135248788Y-101542124D01*
X126588788Y-103192124D02*
X129248788Y-103192124D01*
X135248788Y-92142124D02*
X135248788Y-91382124D01*
X135248788Y-99002124D02*
X129248788Y-99002124D01*
X135248788Y-101542124D02*
X129248788Y-101542124D01*
X126588788Y-93032124D02*
X129248788Y-93032124D01*
X135248788Y-91382124D02*
X129248788Y-91382124D01*
X123878788Y-105732124D02*
X125148788Y-105732124D01*
X126588788Y-98112124D02*
X129248788Y-98112124D01*
X126588788Y-90432124D02*
X129248788Y-90432124D01*
%TO.C,R1*%
X120471724Y-65162124D02*
X120925852Y-65162124D01*
X120471724Y-64162124D02*
X120925852Y-64162124D01*
%TO.C,C8*%
X122448788Y-98273376D02*
X122448788Y-97750872D01*
X121448788Y-98273376D02*
X121448788Y-97750872D01*
%TO.C,R4*%
X131596724Y-108062124D02*
X132050852Y-108062124D01*
X131596724Y-109062124D02*
X132050852Y-109062124D01*
%TO.C,C16*%
X129860040Y-87412124D02*
X129337536Y-87412124D01*
X129860040Y-88412124D02*
X129337536Y-88412124D01*
%TO.C,C14*%
X132687536Y-81562124D02*
X133210040Y-81562124D01*
X132687536Y-80562124D02*
X133210040Y-80562124D01*
%TO.C,R14*%
X135998788Y-86185060D02*
X135998788Y-86639188D01*
X134998788Y-86185060D02*
X134998788Y-86639188D01*
D12*
%TO.C,U2*%
X126173788Y-80487124D02*
X126173788Y-85762124D01*
X131573788Y-81762124D02*
X131573788Y-85762124D01*
D13*
%TO.C,R3*%
X125925852Y-109037124D02*
X125471724Y-109037124D01*
X125925852Y-108037124D02*
X125471724Y-108037124D01*
%TO.C,R13*%
X119398788Y-68989188D02*
X119398788Y-68535060D01*
X120398788Y-68989188D02*
X120398788Y-68535060D01*
%TO.C,C2*%
X121198788Y-70625872D02*
X121198788Y-71148376D01*
X122198788Y-70625872D02*
X122198788Y-71148376D01*
%TO.C,C20*%
X121087536Y-75462124D02*
X121610040Y-75462124D01*
X121087536Y-74462124D02*
X121610040Y-74462124D01*
%TO.C,C13*%
X125010040Y-81662124D02*
X124487536Y-81662124D01*
X125010040Y-80662124D02*
X124487536Y-80662124D01*
%TO.C,D1*%
X119723788Y-111012124D02*
X119723788Y-116412124D01*
X119723788Y-111012124D02*
X123023788Y-111012124D01*
X123023788Y-111012124D02*
X123023788Y-116412124D01*
%TO.C,R6*%
X122998788Y-84039188D02*
X122998788Y-83585060D01*
X121998788Y-84039188D02*
X121998788Y-83585060D01*
%TO.C,R15*%
X134998788Y-84039188D02*
X134998788Y-83585060D01*
X135998788Y-84039188D02*
X135998788Y-83585060D01*
D14*
%TO.C,Card1*%
X130998788Y-64746124D02*
X133935788Y-63849124D01*
D15*
X132784788Y-78384124D02*
X135883788Y-78385124D01*
D14*
X122632788Y-76818124D02*
X122632788Y-69309124D01*
X122632788Y-63848124D02*
X137364788Y-63848124D01*
X122632788Y-66896124D02*
X122632788Y-63848124D01*
X137364788Y-63848124D02*
X137364788Y-66746124D01*
X122632788Y-64321124D02*
X122632788Y-64745124D01*
X137364788Y-69412124D02*
X137364788Y-76905124D01*
X122632788Y-64745124D02*
X130998788Y-64746124D01*
D13*
%TO.C,R7*%
X137698788Y-85589188D02*
X137698788Y-85135060D01*
X138698788Y-85589188D02*
X138698788Y-85135060D01*
%TO.C,P2*%
X133673788Y-112612124D02*
X133673788Y-114612124D01*
X124273788Y-116512124D02*
X124273788Y-118412124D01*
X133673788Y-118412124D02*
X124273788Y-118412124D01*
X124273788Y-112612124D02*
X124273788Y-114612124D01*
X133673788Y-116512124D02*
X133673788Y-118412124D01*
%TO.C,C10*%
X122148788Y-81073376D02*
X122148788Y-80550872D01*
X123148788Y-81073376D02*
X123148788Y-80550872D01*
%TO.C,R10*%
X119748788Y-85389188D02*
X119748788Y-84935060D01*
X120748788Y-85389188D02*
X120748788Y-84935060D01*
%TO.C,R1*%
X100471724Y-65162124D02*
X100925852Y-65162124D01*
X100471724Y-64162124D02*
X100925852Y-64162124D01*
%TO.C,R6*%
X102998788Y-84039188D02*
X102998788Y-83585060D01*
X101998788Y-84039188D02*
X101998788Y-83585060D01*
%TO.C,C8*%
X102448788Y-98273376D02*
X102448788Y-97750872D01*
X101448788Y-98273376D02*
X101448788Y-97750872D01*
%TO.C,P2*%
X113673788Y-112612124D02*
X113673788Y-114612124D01*
X104273788Y-116512124D02*
X104273788Y-118412124D01*
X113673788Y-118412124D02*
X104273788Y-118412124D01*
X104273788Y-112612124D02*
X104273788Y-114612124D01*
X113673788Y-116512124D02*
X113673788Y-118412124D01*
%TO.C,C10*%
X102148788Y-81073376D02*
X102148788Y-80550872D01*
X103148788Y-81073376D02*
X103148788Y-80550872D01*
%TO.C,R4*%
X111596724Y-108062124D02*
X112050852Y-108062124D01*
X111596724Y-109062124D02*
X112050852Y-109062124D01*
%TO.C,R14*%
X115998788Y-86185060D02*
X115998788Y-86639188D01*
X114998788Y-86185060D02*
X114998788Y-86639188D01*
%TO.C,R5*%
X101948788Y-86185060D02*
X101948788Y-86639188D01*
X102948788Y-86185060D02*
X102948788Y-86639188D01*
%TO.C,C13*%
X105010040Y-81662124D02*
X104487536Y-81662124D01*
X105010040Y-80662124D02*
X104487536Y-80662124D01*
D12*
%TO.C,U2*%
X106173788Y-80487124D02*
X106173788Y-85762124D01*
X111573788Y-81762124D02*
X111573788Y-85762124D01*
D13*
%TO.C,C12*%
X100948788Y-98273376D02*
X100948788Y-97750872D01*
X99948788Y-98273376D02*
X99948788Y-97750872D01*
%TO.C,R3*%
X105925852Y-109037124D02*
X105471724Y-109037124D01*
X105925852Y-108037124D02*
X105471724Y-108037124D01*
%TO.C,R13*%
X99398788Y-68989188D02*
X99398788Y-68535060D01*
X100398788Y-68989188D02*
X100398788Y-68535060D01*
%TO.C,C14*%
X112687536Y-81562124D02*
X113210040Y-81562124D01*
X112687536Y-80562124D02*
X113210040Y-80562124D01*
%TO.C,R10*%
X99748788Y-85389188D02*
X99748788Y-84935060D01*
X100748788Y-85389188D02*
X100748788Y-84935060D01*
%TO.C,C2*%
X101198788Y-70625872D02*
X101198788Y-71148376D01*
X102198788Y-70625872D02*
X102198788Y-71148376D01*
%TO.C,C20*%
X101087536Y-75462124D02*
X101610040Y-75462124D01*
X101087536Y-74462124D02*
X101610040Y-74462124D01*
%TO.C,D1*%
X99723788Y-111012124D02*
X99723788Y-116412124D01*
X99723788Y-111012124D02*
X103023788Y-111012124D01*
X103023788Y-111012124D02*
X103023788Y-116412124D01*
%TO.C,R15*%
X114998788Y-84039188D02*
X114998788Y-83585060D01*
X115998788Y-84039188D02*
X115998788Y-83585060D01*
D14*
%TO.C,Card1*%
X110998788Y-64746124D02*
X113935788Y-63849124D01*
D15*
X112784788Y-78384124D02*
X115883788Y-78385124D01*
D14*
X102632788Y-76818124D02*
X102632788Y-69309124D01*
X102632788Y-63848124D02*
X117364788Y-63848124D01*
X102632788Y-66896124D02*
X102632788Y-63848124D01*
X117364788Y-63848124D02*
X117364788Y-66746124D01*
X102632788Y-64321124D02*
X102632788Y-64745124D01*
X117364788Y-69412124D02*
X117364788Y-76905124D01*
X102632788Y-64745124D02*
X110998788Y-64746124D01*
D13*
%TO.C,R7*%
X117698788Y-85589188D02*
X117698788Y-85135060D01*
X118698788Y-85589188D02*
X118698788Y-85135060D01*
%TO.C,J3*%
X106588788Y-105792124D02*
X106588788Y-90432124D01*
X106588788Y-95572124D02*
X109248788Y-95572124D01*
X109248788Y-94682124D02*
X115248788Y-94682124D01*
X109248788Y-97222124D02*
X115248788Y-97222124D01*
X115248788Y-104082124D02*
X109248788Y-104082124D01*
X106191717Y-93922124D02*
X106588788Y-93922124D01*
X103878788Y-104462124D02*
X103878788Y-105732124D01*
X106588788Y-100652124D02*
X109248788Y-100652124D01*
X106258788Y-104842124D02*
X106588788Y-104842124D01*
X106191717Y-101542124D02*
X106588788Y-101542124D01*
X109248788Y-104422124D02*
X115248788Y-104422124D01*
X106258788Y-104082124D02*
X106588788Y-104082124D01*
X106191717Y-92142124D02*
X106588788Y-92142124D01*
X106191717Y-102302124D02*
X106588788Y-102302124D01*
X109248788Y-104302124D02*
X115248788Y-104302124D01*
X106191717Y-99002124D02*
X106588788Y-99002124D01*
X106191717Y-94682124D02*
X106588788Y-94682124D01*
X106191717Y-97222124D02*
X106588788Y-97222124D01*
X115248788Y-104842124D02*
X115248788Y-104082124D01*
X109248788Y-99762124D02*
X115248788Y-99762124D01*
X109248788Y-92142124D02*
X115248788Y-92142124D01*
X109248788Y-104782124D02*
X115248788Y-104782124D01*
X115248788Y-93922124D02*
X109248788Y-93922124D01*
X115248788Y-94682124D02*
X115248788Y-93922124D01*
X109248788Y-104182124D02*
X115248788Y-104182124D01*
X115248788Y-96462124D02*
X109248788Y-96462124D01*
X109248788Y-102302124D02*
X115248788Y-102302124D01*
X115248788Y-99762124D02*
X115248788Y-99002124D01*
X109248788Y-90432124D02*
X109248788Y-105792124D01*
X106191717Y-96462124D02*
X106588788Y-96462124D01*
X106191717Y-99762124D02*
X106588788Y-99762124D01*
X115248788Y-97222124D02*
X115248788Y-96462124D01*
X106191717Y-91382124D02*
X106588788Y-91382124D01*
X109248788Y-104662124D02*
X115248788Y-104662124D01*
X109248788Y-105792124D02*
X106588788Y-105792124D01*
X109248788Y-104842124D02*
X115248788Y-104842124D01*
X109248788Y-104542124D02*
X115248788Y-104542124D01*
X115248788Y-102302124D02*
X115248788Y-101542124D01*
X106588788Y-103192124D02*
X109248788Y-103192124D01*
X115248788Y-92142124D02*
X115248788Y-91382124D01*
X115248788Y-99002124D02*
X109248788Y-99002124D01*
X115248788Y-101542124D02*
X109248788Y-101542124D01*
X106588788Y-93032124D02*
X109248788Y-93032124D01*
X115248788Y-91382124D02*
X109248788Y-91382124D01*
X103878788Y-105732124D02*
X105148788Y-105732124D01*
X106588788Y-98112124D02*
X109248788Y-98112124D01*
X106588788Y-90432124D02*
X109248788Y-90432124D01*
%TO.C,C16*%
X109860040Y-87412124D02*
X109337536Y-87412124D01*
X109860040Y-88412124D02*
X109337536Y-88412124D01*
%TO.C,C17*%
X115337536Y-79212124D02*
X115860040Y-79212124D01*
X115337536Y-80212124D02*
X115860040Y-80212124D01*
%TO.C,R1*%
X80471724Y-65162124D02*
X80925852Y-65162124D01*
X80471724Y-64162124D02*
X80925852Y-64162124D01*
%TO.C,J3*%
X86588788Y-105792124D02*
X86588788Y-90432124D01*
X86588788Y-95572124D02*
X89248788Y-95572124D01*
X89248788Y-94682124D02*
X95248788Y-94682124D01*
X89248788Y-97222124D02*
X95248788Y-97222124D01*
X95248788Y-104082124D02*
X89248788Y-104082124D01*
X86191717Y-93922124D02*
X86588788Y-93922124D01*
X83878788Y-104462124D02*
X83878788Y-105732124D01*
X86588788Y-100652124D02*
X89248788Y-100652124D01*
X86258788Y-104842124D02*
X86588788Y-104842124D01*
X86191717Y-101542124D02*
X86588788Y-101542124D01*
X89248788Y-104422124D02*
X95248788Y-104422124D01*
X86258788Y-104082124D02*
X86588788Y-104082124D01*
X86191717Y-92142124D02*
X86588788Y-92142124D01*
X86191717Y-102302124D02*
X86588788Y-102302124D01*
X89248788Y-104302124D02*
X95248788Y-104302124D01*
X86191717Y-99002124D02*
X86588788Y-99002124D01*
X86191717Y-94682124D02*
X86588788Y-94682124D01*
X86191717Y-97222124D02*
X86588788Y-97222124D01*
X95248788Y-104842124D02*
X95248788Y-104082124D01*
X89248788Y-99762124D02*
X95248788Y-99762124D01*
X89248788Y-92142124D02*
X95248788Y-92142124D01*
X89248788Y-104782124D02*
X95248788Y-104782124D01*
X95248788Y-93922124D02*
X89248788Y-93922124D01*
X95248788Y-94682124D02*
X95248788Y-93922124D01*
X89248788Y-104182124D02*
X95248788Y-104182124D01*
X95248788Y-96462124D02*
X89248788Y-96462124D01*
X89248788Y-102302124D02*
X95248788Y-102302124D01*
X95248788Y-99762124D02*
X95248788Y-99002124D01*
X89248788Y-90432124D02*
X89248788Y-105792124D01*
X86191717Y-96462124D02*
X86588788Y-96462124D01*
X86191717Y-99762124D02*
X86588788Y-99762124D01*
X95248788Y-97222124D02*
X95248788Y-96462124D01*
X86191717Y-91382124D02*
X86588788Y-91382124D01*
X89248788Y-104662124D02*
X95248788Y-104662124D01*
X89248788Y-105792124D02*
X86588788Y-105792124D01*
X89248788Y-104842124D02*
X95248788Y-104842124D01*
X89248788Y-104542124D02*
X95248788Y-104542124D01*
X95248788Y-102302124D02*
X95248788Y-101542124D01*
X86588788Y-103192124D02*
X89248788Y-103192124D01*
X95248788Y-92142124D02*
X95248788Y-91382124D01*
X95248788Y-99002124D02*
X89248788Y-99002124D01*
X95248788Y-101542124D02*
X89248788Y-101542124D01*
X86588788Y-93032124D02*
X89248788Y-93032124D01*
X95248788Y-91382124D02*
X89248788Y-91382124D01*
X83878788Y-105732124D02*
X85148788Y-105732124D01*
X86588788Y-98112124D02*
X89248788Y-98112124D01*
X86588788Y-90432124D02*
X89248788Y-90432124D01*
%TO.C,R13*%
X79398788Y-68989188D02*
X79398788Y-68535060D01*
X80398788Y-68989188D02*
X80398788Y-68535060D01*
D14*
%TO.C,Card1*%
X90998788Y-64746124D02*
X93935788Y-63849124D01*
D15*
X92784788Y-78384124D02*
X95883788Y-78385124D01*
D14*
X82632788Y-76818124D02*
X82632788Y-69309124D01*
X82632788Y-63848124D02*
X97364788Y-63848124D01*
X82632788Y-66896124D02*
X82632788Y-63848124D01*
X97364788Y-63848124D02*
X97364788Y-66746124D01*
X82632788Y-64321124D02*
X82632788Y-64745124D01*
X97364788Y-69412124D02*
X97364788Y-76905124D01*
X82632788Y-64745124D02*
X90998788Y-64746124D01*
D13*
%TO.C,C16*%
X89860040Y-87412124D02*
X89337536Y-87412124D01*
X89860040Y-88412124D02*
X89337536Y-88412124D01*
%TO.C,P2*%
X93673788Y-112612124D02*
X93673788Y-114612124D01*
X84273788Y-116512124D02*
X84273788Y-118412124D01*
X93673788Y-118412124D02*
X84273788Y-118412124D01*
X84273788Y-112612124D02*
X84273788Y-114612124D01*
X93673788Y-116512124D02*
X93673788Y-118412124D01*
%TO.C,R5*%
X81948788Y-86185060D02*
X81948788Y-86639188D01*
X82948788Y-86185060D02*
X82948788Y-86639188D01*
%TO.C,R7*%
X97698788Y-85589188D02*
X97698788Y-85135060D01*
X98698788Y-85589188D02*
X98698788Y-85135060D01*
%TO.C,R14*%
X95998788Y-86185060D02*
X95998788Y-86639188D01*
X94998788Y-86185060D02*
X94998788Y-86639188D01*
%TO.C,C12*%
X80948788Y-98273376D02*
X80948788Y-97750872D01*
X79948788Y-98273376D02*
X79948788Y-97750872D01*
%TO.C,R10*%
X79748788Y-85389188D02*
X79748788Y-84935060D01*
X80748788Y-85389188D02*
X80748788Y-84935060D01*
%TO.C,C14*%
X92687536Y-81562124D02*
X93210040Y-81562124D01*
X92687536Y-80562124D02*
X93210040Y-80562124D01*
%TO.C,C8*%
X82448788Y-98273376D02*
X82448788Y-97750872D01*
X81448788Y-98273376D02*
X81448788Y-97750872D01*
%TO.C,C2*%
X81198788Y-70625872D02*
X81198788Y-71148376D01*
X82198788Y-70625872D02*
X82198788Y-71148376D01*
%TO.C,C17*%
X95337536Y-79212124D02*
X95860040Y-79212124D01*
X95337536Y-80212124D02*
X95860040Y-80212124D01*
%TO.C,D1*%
X79723788Y-111012124D02*
X79723788Y-116412124D01*
X79723788Y-111012124D02*
X83023788Y-111012124D01*
X83023788Y-111012124D02*
X83023788Y-116412124D01*
D12*
%TO.C,U2*%
X86173788Y-80487124D02*
X86173788Y-85762124D01*
X91573788Y-81762124D02*
X91573788Y-85762124D01*
D13*
%TO.C,C20*%
X81087536Y-75462124D02*
X81610040Y-75462124D01*
X81087536Y-74462124D02*
X81610040Y-74462124D01*
%TO.C,R3*%
X85925852Y-109037124D02*
X85471724Y-109037124D01*
X85925852Y-108037124D02*
X85471724Y-108037124D01*
%TO.C,R4*%
X91596724Y-108062124D02*
X92050852Y-108062124D01*
X91596724Y-109062124D02*
X92050852Y-109062124D01*
%TO.C,R6*%
X82998788Y-84039188D02*
X82998788Y-83585060D01*
X81998788Y-84039188D02*
X81998788Y-83585060D01*
%TO.C,R15*%
X94998788Y-84039188D02*
X94998788Y-83585060D01*
X95998788Y-84039188D02*
X95998788Y-83585060D01*
%TO.C,C13*%
X85010040Y-81662124D02*
X84487536Y-81662124D01*
X85010040Y-80662124D02*
X84487536Y-80662124D01*
%TO.C,C10*%
X82148788Y-81073376D02*
X82148788Y-80550872D01*
X83148788Y-81073376D02*
X83148788Y-80550872D01*
%TD*%
M02*
