%TF.GenerationSoftware,KiCad,Pcbnew,(6.0.7)*%
%TF.CreationDate,2023-08-28T04:04:33+08:00*%
%TF.ProjectId,USB_Hub_Panelization,5553425f-4875-4625-9f50-616e656c697a,rev?*%
%TF.SameCoordinates,Original*%
%TF.FileFunction,Legend,Top*%
%TF.FilePolarity,Positive*%
%FSLAX46Y46*%
G04 Gerber Fmt 4.6, Leading zero omitted, Abs format (unit mm)*
G04 Created by KiCad (PCBNEW (6.0.7)) date 2023-08-28 04:04:33*
%MOMM*%
%LPD*%
G01*
G04 APERTURE LIST*
%ADD10C,0.080000*%
%ADD11C,0.100000*%
%ADD12C,0.150000*%
%ADD13C,0.120000*%
%ADD14C,0.254000*%
G04 APERTURE END LIST*
D10*
%TO.C,C22*%
X154827341Y-74463139D02*
X154861013Y-74463139D01*
X154928356Y-74496811D01*
X154962028Y-74530482D01*
X154995700Y-74597826D01*
X154995700Y-74665169D01*
X154978864Y-74715677D01*
X154928356Y-74799856D01*
X154877849Y-74850364D01*
X154793669Y-74900872D01*
X154743162Y-74917707D01*
X154675818Y-74917707D01*
X154608475Y-74884036D01*
X154574803Y-74850364D01*
X154541131Y-74783020D01*
X154541131Y-74749349D01*
X154406444Y-74614662D02*
X154372772Y-74614662D01*
X154322265Y-74597826D01*
X154238085Y-74513646D01*
X154221249Y-74463139D01*
X154221249Y-74429467D01*
X154238085Y-74378959D01*
X154271757Y-74345288D01*
X154339100Y-74311616D01*
X154743162Y-74311616D01*
X154524295Y-74092749D01*
X154069726Y-74277944D02*
X154036055Y-74277944D01*
X153985547Y-74261108D01*
X153901368Y-74176929D01*
X153884532Y-74126421D01*
X153884532Y-74092749D01*
X153901368Y-74042242D01*
X153935039Y-74008570D01*
X154002383Y-73974898D01*
X154406444Y-73974898D01*
X154187578Y-73756032D01*
D11*
%TO.C,R9*%
X139815454Y-93863314D02*
X139648788Y-93625219D01*
X139529740Y-93863314D02*
X139529740Y-93363314D01*
X139720216Y-93363314D01*
X139767835Y-93387124D01*
X139791645Y-93410933D01*
X139815454Y-93458552D01*
X139815454Y-93529981D01*
X139791645Y-93577600D01*
X139767835Y-93601409D01*
X139720216Y-93625219D01*
X139529740Y-93625219D01*
X140053549Y-93863314D02*
X140148788Y-93863314D01*
X140196407Y-93839504D01*
X140220216Y-93815695D01*
X140267835Y-93744266D01*
X140291645Y-93649028D01*
X140291645Y-93458552D01*
X140267835Y-93410933D01*
X140244026Y-93387124D01*
X140196407Y-93363314D01*
X140101168Y-93363314D01*
X140053549Y-93387124D01*
X140029740Y-93410933D01*
X140005930Y-93458552D01*
X140005930Y-93577600D01*
X140029740Y-93625219D01*
X140053549Y-93649028D01*
X140101168Y-93672838D01*
X140196407Y-93672838D01*
X140244026Y-93649028D01*
X140267835Y-93625219D01*
X140291645Y-93577600D01*
D12*
%TO.C,DC1*%
X144837002Y-112739504D02*
X144837002Y-111739504D01*
X145075097Y-111739504D01*
X145217954Y-111787124D01*
X145313192Y-111882362D01*
X145360811Y-111977600D01*
X145408430Y-112168076D01*
X145408430Y-112310933D01*
X145360811Y-112501409D01*
X145313192Y-112596647D01*
X145217954Y-112691885D01*
X145075097Y-112739504D01*
X144837002Y-112739504D01*
X146408430Y-112644266D02*
X146360811Y-112691885D01*
X146217954Y-112739504D01*
X146122716Y-112739504D01*
X145979859Y-112691885D01*
X145884621Y-112596647D01*
X145837002Y-112501409D01*
X145789383Y-112310933D01*
X145789383Y-112168076D01*
X145837002Y-111977600D01*
X145884621Y-111882362D01*
X145979859Y-111787124D01*
X146122716Y-111739504D01*
X146217954Y-111739504D01*
X146360811Y-111787124D01*
X146408430Y-111834743D01*
X147360811Y-112739504D02*
X146789383Y-112739504D01*
X147075097Y-112739504D02*
X147075097Y-111739504D01*
X146979859Y-111882362D01*
X146884621Y-111977600D01*
X146789383Y-112025219D01*
D10*
%TO.C,C19*%
X145790665Y-70758570D02*
X145790665Y-70792242D01*
X145756993Y-70859585D01*
X145723322Y-70893257D01*
X145655978Y-70926929D01*
X145588635Y-70926929D01*
X145538127Y-70910093D01*
X145453948Y-70859585D01*
X145403440Y-70809078D01*
X145352932Y-70724898D01*
X145336097Y-70674391D01*
X145336097Y-70607047D01*
X145369768Y-70539704D01*
X145403440Y-70506032D01*
X145470784Y-70472360D01*
X145504455Y-70472360D01*
X146161055Y-70455524D02*
X145959024Y-70657555D01*
X146060039Y-70556539D02*
X145706486Y-70202986D01*
X145723322Y-70287165D01*
X145723322Y-70354509D01*
X145706486Y-70405017D01*
X146329413Y-70287165D02*
X146396757Y-70219822D01*
X146413593Y-70169314D01*
X146413593Y-70135642D01*
X146396757Y-70051463D01*
X146346249Y-69967284D01*
X146211562Y-69832597D01*
X146161055Y-69815761D01*
X146127383Y-69815761D01*
X146076875Y-69832597D01*
X146009532Y-69899940D01*
X145992696Y-69950448D01*
X145992696Y-69984120D01*
X146009532Y-70034627D01*
X146093711Y-70118807D01*
X146144219Y-70135642D01*
X146177890Y-70135642D01*
X146228398Y-70118807D01*
X146295742Y-70051463D01*
X146312577Y-70000955D01*
X146312577Y-69967284D01*
X146295742Y-69916776D01*
%TO.C,D7*%
X158799978Y-69031171D02*
X158299978Y-69031171D01*
X158299978Y-68912124D01*
X158323788Y-68840695D01*
X158371407Y-68793076D01*
X158419026Y-68769266D01*
X158514264Y-68745457D01*
X158585692Y-68745457D01*
X158680930Y-68769266D01*
X158728549Y-68793076D01*
X158776168Y-68840695D01*
X158799978Y-68912124D01*
X158799978Y-69031171D01*
X158299978Y-68578790D02*
X158299978Y-68245457D01*
X158799978Y-68459743D01*
D11*
%TO.C,R12*%
X149127359Y-67388314D02*
X148960692Y-67150219D01*
X148841645Y-67388314D02*
X148841645Y-66888314D01*
X149032121Y-66888314D01*
X149079740Y-66912124D01*
X149103549Y-66935933D01*
X149127359Y-66983552D01*
X149127359Y-67054981D01*
X149103549Y-67102600D01*
X149079740Y-67126409D01*
X149032121Y-67150219D01*
X148841645Y-67150219D01*
X149603549Y-67388314D02*
X149317835Y-67388314D01*
X149460692Y-67388314D02*
X149460692Y-66888314D01*
X149413073Y-66959743D01*
X149365454Y-67007362D01*
X149317835Y-67031171D01*
X149794026Y-66935933D02*
X149817835Y-66912124D01*
X149865454Y-66888314D01*
X149984502Y-66888314D01*
X150032121Y-66912124D01*
X150055930Y-66935933D01*
X150079740Y-66983552D01*
X150079740Y-67031171D01*
X150055930Y-67102600D01*
X149770216Y-67388314D01*
X150079740Y-67388314D01*
D10*
%TO.C,C3*%
X146302359Y-93095457D02*
X146326168Y-93119266D01*
X146349978Y-93190695D01*
X146349978Y-93238314D01*
X146326168Y-93309743D01*
X146278549Y-93357362D01*
X146230930Y-93381171D01*
X146135692Y-93404981D01*
X146064264Y-93404981D01*
X145969026Y-93381171D01*
X145921407Y-93357362D01*
X145873788Y-93309743D01*
X145849978Y-93238314D01*
X145849978Y-93190695D01*
X145873788Y-93119266D01*
X145897597Y-93095457D01*
X145849978Y-92928790D02*
X145849978Y-92619266D01*
X146040454Y-92785933D01*
X146040454Y-92714504D01*
X146064264Y-92666885D01*
X146088073Y-92643076D01*
X146135692Y-92619266D01*
X146254740Y-92619266D01*
X146302359Y-92643076D01*
X146326168Y-92666885D01*
X146349978Y-92714504D01*
X146349978Y-92857362D01*
X146326168Y-92904981D01*
X146302359Y-92928790D01*
D12*
%TO.C,U1*%
X143251168Y-98674028D02*
X144060692Y-98674028D01*
X144155930Y-98626409D01*
X144203549Y-98578790D01*
X144251168Y-98483552D01*
X144251168Y-98293076D01*
X144203549Y-98197838D01*
X144155930Y-98150219D01*
X144060692Y-98102600D01*
X143251168Y-98102600D01*
X144251168Y-97102600D02*
X144251168Y-97674028D01*
X144251168Y-97388314D02*
X143251168Y-97388314D01*
X143394026Y-97483552D01*
X143489264Y-97578790D01*
X143536883Y-97674028D01*
%TO.C,P1*%
X145401168Y-65051528D02*
X144401168Y-65051528D01*
X144401168Y-64670576D01*
X144448788Y-64575338D01*
X144496407Y-64527719D01*
X144591645Y-64480100D01*
X144734502Y-64480100D01*
X144829740Y-64527719D01*
X144877359Y-64575338D01*
X144924978Y-64670576D01*
X144924978Y-65051528D01*
X145401168Y-63527719D02*
X145401168Y-64099147D01*
X145401168Y-63813433D02*
X144401168Y-63813433D01*
X144544026Y-63908671D01*
X144639264Y-64003909D01*
X144686883Y-64099147D01*
D11*
%TO.C,R16*%
X139899978Y-75908552D02*
X139661883Y-76075219D01*
X139899978Y-76194266D02*
X139399978Y-76194266D01*
X139399978Y-76003790D01*
X139423788Y-75956171D01*
X139447597Y-75932362D01*
X139495216Y-75908552D01*
X139566645Y-75908552D01*
X139614264Y-75932362D01*
X139638073Y-75956171D01*
X139661883Y-76003790D01*
X139661883Y-76194266D01*
X139899978Y-75432362D02*
X139899978Y-75718076D01*
X139899978Y-75575219D02*
X139399978Y-75575219D01*
X139471407Y-75622838D01*
X139519026Y-75670457D01*
X139542835Y-75718076D01*
X139399978Y-75003790D02*
X139399978Y-75099028D01*
X139423788Y-75146647D01*
X139447597Y-75170457D01*
X139519026Y-75218076D01*
X139614264Y-75241885D01*
X139804740Y-75241885D01*
X139852359Y-75218076D01*
X139876168Y-75194266D01*
X139899978Y-75146647D01*
X139899978Y-75051409D01*
X139876168Y-75003790D01*
X139852359Y-74979981D01*
X139804740Y-74956171D01*
X139685692Y-74956171D01*
X139638073Y-74979981D01*
X139614264Y-75003790D01*
X139590454Y-75051409D01*
X139590454Y-75146647D01*
X139614264Y-75194266D01*
X139638073Y-75218076D01*
X139685692Y-75241885D01*
D10*
%TO.C,C24*%
X151352341Y-70963139D02*
X151386013Y-70963139D01*
X151453356Y-70996811D01*
X151487028Y-71030482D01*
X151520700Y-71097826D01*
X151520700Y-71165169D01*
X151503864Y-71215677D01*
X151453356Y-71299856D01*
X151402849Y-71350364D01*
X151318669Y-71400872D01*
X151268162Y-71417707D01*
X151200818Y-71417707D01*
X151133475Y-71384036D01*
X151099803Y-71350364D01*
X151066131Y-71283020D01*
X151066131Y-71249349D01*
X150931444Y-71114662D02*
X150897772Y-71114662D01*
X150847265Y-71097826D01*
X150763085Y-71013646D01*
X150746249Y-70963139D01*
X150746249Y-70929467D01*
X150763085Y-70878959D01*
X150796757Y-70845288D01*
X150864100Y-70811616D01*
X151268162Y-70811616D01*
X151049295Y-70592749D01*
X150510547Y-70525406D02*
X150746249Y-70289704D01*
X150460039Y-70744272D02*
X150796757Y-70575914D01*
X150577891Y-70357047D01*
D12*
%TO.C,J2*%
X156951168Y-98090814D02*
X157665454Y-98090814D01*
X157808311Y-98138433D01*
X157903549Y-98233671D01*
X157951168Y-98376528D01*
X157951168Y-98471766D01*
X157046407Y-97662243D02*
X156998788Y-97614624D01*
X156951168Y-97519385D01*
X156951168Y-97281290D01*
X156998788Y-97186052D01*
X157046407Y-97138433D01*
X157141645Y-97090814D01*
X157236883Y-97090814D01*
X157379740Y-97138433D01*
X157951168Y-97709862D01*
X157951168Y-97090814D01*
D10*
%TO.C,C6*%
X141240454Y-103340695D02*
X141216645Y-103364504D01*
X141145216Y-103388314D01*
X141097597Y-103388314D01*
X141026168Y-103364504D01*
X140978549Y-103316885D01*
X140954740Y-103269266D01*
X140930930Y-103174028D01*
X140930930Y-103102600D01*
X140954740Y-103007362D01*
X140978549Y-102959743D01*
X141026168Y-102912124D01*
X141097597Y-102888314D01*
X141145216Y-102888314D01*
X141216645Y-102912124D01*
X141240454Y-102935933D01*
X141669026Y-102888314D02*
X141573788Y-102888314D01*
X141526168Y-102912124D01*
X141502359Y-102935933D01*
X141454740Y-103007362D01*
X141430930Y-103102600D01*
X141430930Y-103293076D01*
X141454740Y-103340695D01*
X141478549Y-103364504D01*
X141526168Y-103388314D01*
X141621407Y-103388314D01*
X141669026Y-103364504D01*
X141692835Y-103340695D01*
X141716645Y-103293076D01*
X141716645Y-103174028D01*
X141692835Y-103126409D01*
X141669026Y-103102600D01*
X141621407Y-103078790D01*
X141526168Y-103078790D01*
X141478549Y-103102600D01*
X141454740Y-103126409D01*
X141430930Y-103174028D01*
D12*
%TO.C,P5*%
X158526168Y-65201528D02*
X157526168Y-65201528D01*
X157526168Y-64820576D01*
X157573788Y-64725338D01*
X157621407Y-64677719D01*
X157716645Y-64630100D01*
X157859502Y-64630100D01*
X157954740Y-64677719D01*
X158002359Y-64725338D01*
X158049978Y-64820576D01*
X158049978Y-65201528D01*
X157526168Y-63725338D02*
X157526168Y-64201528D01*
X158002359Y-64249147D01*
X157954740Y-64201528D01*
X157907121Y-64106290D01*
X157907121Y-63868195D01*
X157954740Y-63772957D01*
X158002359Y-63725338D01*
X158097597Y-63677719D01*
X158335692Y-63677719D01*
X158430930Y-63725338D01*
X158478549Y-63772957D01*
X158526168Y-63868195D01*
X158526168Y-64106290D01*
X158478549Y-64201528D01*
X158430930Y-64249147D01*
D10*
%TO.C,D9*%
X157924978Y-114531171D02*
X157424978Y-114531171D01*
X157424978Y-114412124D01*
X157448788Y-114340695D01*
X157496407Y-114293076D01*
X157544026Y-114269266D01*
X157639264Y-114245457D01*
X157710692Y-114245457D01*
X157805930Y-114269266D01*
X157853549Y-114293076D01*
X157901168Y-114340695D01*
X157924978Y-114412124D01*
X157924978Y-114531171D01*
X157924978Y-114007362D02*
X157924978Y-113912124D01*
X157901168Y-113864504D01*
X157877359Y-113840695D01*
X157805930Y-113793076D01*
X157710692Y-113769266D01*
X157520216Y-113769266D01*
X157472597Y-113793076D01*
X157448788Y-113816885D01*
X157424978Y-113864504D01*
X157424978Y-113959743D01*
X157448788Y-114007362D01*
X157472597Y-114031171D01*
X157520216Y-114054981D01*
X157639264Y-114054981D01*
X157686883Y-114031171D01*
X157710692Y-114007362D01*
X157734502Y-113959743D01*
X157734502Y-113864504D01*
X157710692Y-113816885D01*
X157686883Y-113793076D01*
X157639264Y-113769266D01*
%TO.C,C1*%
X150927359Y-67495457D02*
X150951168Y-67519266D01*
X150974978Y-67590695D01*
X150974978Y-67638314D01*
X150951168Y-67709743D01*
X150903549Y-67757362D01*
X150855930Y-67781171D01*
X150760692Y-67804981D01*
X150689264Y-67804981D01*
X150594026Y-67781171D01*
X150546407Y-67757362D01*
X150498788Y-67709743D01*
X150474978Y-67638314D01*
X150474978Y-67590695D01*
X150498788Y-67519266D01*
X150522597Y-67495457D01*
X150974978Y-67019266D02*
X150974978Y-67304981D01*
X150974978Y-67162124D02*
X150474978Y-67162124D01*
X150546407Y-67209743D01*
X150594026Y-67257362D01*
X150617835Y-67304981D01*
%TO.C,C21*%
X157477341Y-75288139D02*
X157511013Y-75288139D01*
X157578356Y-75321811D01*
X157612028Y-75355482D01*
X157645700Y-75422826D01*
X157645700Y-75490169D01*
X157628864Y-75540677D01*
X157578356Y-75624856D01*
X157527849Y-75675364D01*
X157443669Y-75725872D01*
X157393162Y-75742707D01*
X157325818Y-75742707D01*
X157258475Y-75709036D01*
X157224803Y-75675364D01*
X157191131Y-75608020D01*
X157191131Y-75574349D01*
X157056444Y-75439662D02*
X157022772Y-75439662D01*
X156972265Y-75422826D01*
X156888085Y-75338646D01*
X156871249Y-75288139D01*
X156871249Y-75254467D01*
X156888085Y-75203959D01*
X156921757Y-75170288D01*
X156989100Y-75136616D01*
X157393162Y-75136616D01*
X157174295Y-74917749D01*
X156837578Y-74581032D02*
X157039608Y-74783062D01*
X156938593Y-74682047D02*
X156585039Y-75035601D01*
X156669219Y-75018765D01*
X156736562Y-75018765D01*
X156787070Y-75035601D01*
%TO.C,C7*%
X152152359Y-85795457D02*
X152176168Y-85819266D01*
X152199978Y-85890695D01*
X152199978Y-85938314D01*
X152176168Y-86009743D01*
X152128549Y-86057362D01*
X152080930Y-86081171D01*
X151985692Y-86104981D01*
X151914264Y-86104981D01*
X151819026Y-86081171D01*
X151771407Y-86057362D01*
X151723788Y-86009743D01*
X151699978Y-85938314D01*
X151699978Y-85890695D01*
X151723788Y-85819266D01*
X151747597Y-85795457D01*
X151699978Y-85628790D02*
X151699978Y-85295457D01*
X152199978Y-85509743D01*
D11*
%TO.C,R17*%
X148728906Y-71586574D02*
X148678398Y-71872784D01*
X148930936Y-71788605D02*
X148577383Y-72142158D01*
X148442696Y-72007471D01*
X148425860Y-71956963D01*
X148425860Y-71923292D01*
X148442696Y-71872784D01*
X148493203Y-71822276D01*
X148543711Y-71805440D01*
X148577383Y-71805440D01*
X148627890Y-71822276D01*
X148762577Y-71956963D01*
X148392188Y-71249856D02*
X148594219Y-71451887D01*
X148493203Y-71350872D02*
X148139650Y-71704425D01*
X148223829Y-71687589D01*
X148291173Y-71687589D01*
X148341681Y-71704425D01*
X147920784Y-71485559D02*
X147685081Y-71249856D01*
X148190158Y-71047826D01*
%TO.C,R20*%
X152152359Y-69688314D02*
X151985692Y-69450219D01*
X151866645Y-69688314D02*
X151866645Y-69188314D01*
X152057121Y-69188314D01*
X152104740Y-69212124D01*
X152128549Y-69235933D01*
X152152359Y-69283552D01*
X152152359Y-69354981D01*
X152128549Y-69402600D01*
X152104740Y-69426409D01*
X152057121Y-69450219D01*
X151866645Y-69450219D01*
X152342835Y-69235933D02*
X152366645Y-69212124D01*
X152414264Y-69188314D01*
X152533311Y-69188314D01*
X152580930Y-69212124D01*
X152604740Y-69235933D01*
X152628549Y-69283552D01*
X152628549Y-69331171D01*
X152604740Y-69402600D01*
X152319026Y-69688314D01*
X152628549Y-69688314D01*
X152938073Y-69188314D02*
X152985692Y-69188314D01*
X153033311Y-69212124D01*
X153057121Y-69235933D01*
X153080930Y-69283552D01*
X153104740Y-69378790D01*
X153104740Y-69497838D01*
X153080930Y-69593076D01*
X153057121Y-69640695D01*
X153033311Y-69664504D01*
X152985692Y-69688314D01*
X152938073Y-69688314D01*
X152890454Y-69664504D01*
X152866645Y-69640695D01*
X152842835Y-69593076D01*
X152819026Y-69497838D01*
X152819026Y-69378790D01*
X152842835Y-69283552D01*
X152866645Y-69235933D01*
X152890454Y-69212124D01*
X152938073Y-69188314D01*
D12*
%TO.C,U3*%
X141947814Y-77088646D02*
X142520234Y-77661066D01*
X142621249Y-77694738D01*
X142688593Y-77694738D01*
X142789608Y-77661066D01*
X142924295Y-77526379D01*
X142957967Y-77425364D01*
X142957967Y-77358020D01*
X142924295Y-77257005D01*
X142351875Y-76684585D01*
X142621249Y-76415211D02*
X143058982Y-75977479D01*
X143092654Y-76482555D01*
X143193669Y-76381540D01*
X143294684Y-76347868D01*
X143362028Y-76347868D01*
X143463043Y-76381540D01*
X143631402Y-76549898D01*
X143665074Y-76650914D01*
X143665074Y-76718257D01*
X143631402Y-76819272D01*
X143429371Y-77021303D01*
X143328356Y-77054975D01*
X143261013Y-77054975D01*
D10*
%TO.C,D5*%
X139674978Y-87306171D02*
X139174978Y-87306171D01*
X139174978Y-87187124D01*
X139198788Y-87115695D01*
X139246407Y-87068076D01*
X139294026Y-87044266D01*
X139389264Y-87020457D01*
X139460692Y-87020457D01*
X139555930Y-87044266D01*
X139603549Y-87068076D01*
X139651168Y-87115695D01*
X139674978Y-87187124D01*
X139674978Y-87306171D01*
X139174978Y-86568076D02*
X139174978Y-86806171D01*
X139413073Y-86829981D01*
X139389264Y-86806171D01*
X139365454Y-86758552D01*
X139365454Y-86639504D01*
X139389264Y-86591885D01*
X139413073Y-86568076D01*
X139460692Y-86544266D01*
X139579740Y-86544266D01*
X139627359Y-86568076D01*
X139651168Y-86591885D01*
X139674978Y-86639504D01*
X139674978Y-86758552D01*
X139651168Y-86806171D01*
X139627359Y-86829981D01*
D11*
%TO.C,R2*%
X147165454Y-69438314D02*
X146998788Y-69200219D01*
X146879740Y-69438314D02*
X146879740Y-68938314D01*
X147070216Y-68938314D01*
X147117835Y-68962124D01*
X147141645Y-68985933D01*
X147165454Y-69033552D01*
X147165454Y-69104981D01*
X147141645Y-69152600D01*
X147117835Y-69176409D01*
X147070216Y-69200219D01*
X146879740Y-69200219D01*
X147355930Y-68985933D02*
X147379740Y-68962124D01*
X147427359Y-68938314D01*
X147546407Y-68938314D01*
X147594026Y-68962124D01*
X147617835Y-68985933D01*
X147641645Y-69033552D01*
X147641645Y-69081171D01*
X147617835Y-69152600D01*
X147332121Y-69438314D01*
X147641645Y-69438314D01*
D12*
%TO.C,Y1*%
X157545234Y-80332005D02*
X157881952Y-80668723D01*
X156939143Y-80197318D02*
X157545234Y-80332005D01*
X157410547Y-79725914D01*
X158723745Y-79826929D02*
X158319684Y-80230990D01*
X158521715Y-80028959D02*
X157814608Y-79321853D01*
X157848280Y-79490211D01*
X157848280Y-79624898D01*
X157814608Y-79725914D01*
D10*
%TO.C,C5*%
X147058982Y-87294780D02*
X147092654Y-87294780D01*
X147159997Y-87328452D01*
X147193669Y-87362123D01*
X147227341Y-87429467D01*
X147227341Y-87496811D01*
X147210505Y-87547318D01*
X147159997Y-87631498D01*
X147109490Y-87682005D01*
X147025310Y-87732513D01*
X146974803Y-87749349D01*
X146907459Y-87749349D01*
X146840116Y-87715677D01*
X146806444Y-87682005D01*
X146772772Y-87614662D01*
X146772772Y-87580990D01*
X146419219Y-87294780D02*
X146587578Y-87463139D01*
X146772772Y-87311616D01*
X146739100Y-87311616D01*
X146688593Y-87294780D01*
X146604413Y-87210601D01*
X146587578Y-87160093D01*
X146587578Y-87126421D01*
X146604413Y-87075914D01*
X146688593Y-86991734D01*
X146739100Y-86974898D01*
X146772772Y-86974898D01*
X146823280Y-86991734D01*
X146907459Y-87075914D01*
X146924295Y-87126421D01*
X146924295Y-87160093D01*
%TO.C,D6*%
X150404740Y-89588314D02*
X150404740Y-89088314D01*
X150523788Y-89088314D01*
X150595216Y-89112124D01*
X150642835Y-89159743D01*
X150666645Y-89207362D01*
X150690454Y-89302600D01*
X150690454Y-89374028D01*
X150666645Y-89469266D01*
X150642835Y-89516885D01*
X150595216Y-89564504D01*
X150523788Y-89588314D01*
X150404740Y-89588314D01*
X151119026Y-89088314D02*
X151023788Y-89088314D01*
X150976168Y-89112124D01*
X150952359Y-89135933D01*
X150904740Y-89207362D01*
X150880930Y-89302600D01*
X150880930Y-89493076D01*
X150904740Y-89540695D01*
X150928549Y-89564504D01*
X150976168Y-89588314D01*
X151071407Y-89588314D01*
X151119026Y-89564504D01*
X151142835Y-89540695D01*
X151166645Y-89493076D01*
X151166645Y-89374028D01*
X151142835Y-89326409D01*
X151119026Y-89302600D01*
X151071407Y-89278790D01*
X150976168Y-89278790D01*
X150928549Y-89302600D01*
X150904740Y-89326409D01*
X150880930Y-89374028D01*
D11*
%TO.C,R8*%
X146565454Y-65988314D02*
X146398788Y-65750219D01*
X146279740Y-65988314D02*
X146279740Y-65488314D01*
X146470216Y-65488314D01*
X146517835Y-65512124D01*
X146541645Y-65535933D01*
X146565454Y-65583552D01*
X146565454Y-65654981D01*
X146541645Y-65702600D01*
X146517835Y-65726409D01*
X146470216Y-65750219D01*
X146279740Y-65750219D01*
X146851168Y-65702600D02*
X146803549Y-65678790D01*
X146779740Y-65654981D01*
X146755930Y-65607362D01*
X146755930Y-65583552D01*
X146779740Y-65535933D01*
X146803549Y-65512124D01*
X146851168Y-65488314D01*
X146946407Y-65488314D01*
X146994026Y-65512124D01*
X147017835Y-65535933D01*
X147041645Y-65583552D01*
X147041645Y-65607362D01*
X147017835Y-65654981D01*
X146994026Y-65678790D01*
X146946407Y-65702600D01*
X146851168Y-65702600D01*
X146803549Y-65726409D01*
X146779740Y-65750219D01*
X146755930Y-65797838D01*
X146755930Y-65893076D01*
X146779740Y-65940695D01*
X146803549Y-65964504D01*
X146851168Y-65988314D01*
X146946407Y-65988314D01*
X146994026Y-65964504D01*
X147017835Y-65940695D01*
X147041645Y-65893076D01*
X147041645Y-65797838D01*
X147017835Y-65750219D01*
X146994026Y-65726409D01*
X146946407Y-65702600D01*
D10*
%TO.C,C11*%
X148627341Y-83463139D02*
X148661013Y-83463139D01*
X148728356Y-83496811D01*
X148762028Y-83530482D01*
X148795700Y-83597826D01*
X148795700Y-83665169D01*
X148778864Y-83715677D01*
X148728356Y-83799856D01*
X148677849Y-83850364D01*
X148593669Y-83900872D01*
X148543162Y-83917707D01*
X148475818Y-83917707D01*
X148408475Y-83884036D01*
X148374803Y-83850364D01*
X148341131Y-83783020D01*
X148341131Y-83749349D01*
X148324295Y-83092749D02*
X148526326Y-83294780D01*
X148425310Y-83193765D02*
X148071757Y-83547318D01*
X148155936Y-83530482D01*
X148223280Y-83530482D01*
X148273788Y-83547318D01*
X147987578Y-82756032D02*
X148189608Y-82958062D01*
X148088593Y-82857047D02*
X147735039Y-83210601D01*
X147819219Y-83193765D01*
X147886562Y-83193765D01*
X147937070Y-83210601D01*
%TO.C,D3*%
X149099740Y-64018314D02*
X149099740Y-63518314D01*
X149218788Y-63518314D01*
X149290216Y-63542124D01*
X149337835Y-63589743D01*
X149361645Y-63637362D01*
X149385454Y-63732600D01*
X149385454Y-63804028D01*
X149361645Y-63899266D01*
X149337835Y-63946885D01*
X149290216Y-63994504D01*
X149218788Y-64018314D01*
X149099740Y-64018314D01*
X149552121Y-63518314D02*
X149861645Y-63518314D01*
X149694978Y-63708790D01*
X149766407Y-63708790D01*
X149814026Y-63732600D01*
X149837835Y-63756409D01*
X149861645Y-63804028D01*
X149861645Y-63923076D01*
X149837835Y-63970695D01*
X149814026Y-63994504D01*
X149766407Y-64018314D01*
X149623549Y-64018314D01*
X149575930Y-63994504D01*
X149552121Y-63970695D01*
D11*
%TO.C,R22*%
X157924978Y-112033552D02*
X157686883Y-112200219D01*
X157924978Y-112319266D02*
X157424978Y-112319266D01*
X157424978Y-112128790D01*
X157448788Y-112081171D01*
X157472597Y-112057362D01*
X157520216Y-112033552D01*
X157591645Y-112033552D01*
X157639264Y-112057362D01*
X157663073Y-112081171D01*
X157686883Y-112128790D01*
X157686883Y-112319266D01*
X157472597Y-111843076D02*
X157448788Y-111819266D01*
X157424978Y-111771647D01*
X157424978Y-111652600D01*
X157448788Y-111604981D01*
X157472597Y-111581171D01*
X157520216Y-111557362D01*
X157567835Y-111557362D01*
X157639264Y-111581171D01*
X157924978Y-111866885D01*
X157924978Y-111557362D01*
X157472597Y-111366885D02*
X157448788Y-111343076D01*
X157424978Y-111295457D01*
X157424978Y-111176409D01*
X157448788Y-111128790D01*
X157472597Y-111104981D01*
X157520216Y-111081171D01*
X157567835Y-111081171D01*
X157639264Y-111104981D01*
X157924978Y-111390695D01*
X157924978Y-111081171D01*
D10*
%TO.C,C15*%
X151904879Y-84122784D02*
X151904879Y-84156456D01*
X151871207Y-84223799D01*
X151837536Y-84257471D01*
X151770192Y-84291143D01*
X151702849Y-84291143D01*
X151652341Y-84274307D01*
X151568162Y-84223799D01*
X151517654Y-84173292D01*
X151467146Y-84089112D01*
X151450311Y-84038605D01*
X151450311Y-83971261D01*
X151483982Y-83903918D01*
X151517654Y-83870246D01*
X151584998Y-83836574D01*
X151618669Y-83836574D01*
X152275269Y-83819738D02*
X152073238Y-84021769D01*
X152174253Y-83920753D02*
X151820700Y-83567200D01*
X151837536Y-83651379D01*
X151837536Y-83718723D01*
X151820700Y-83769231D01*
X152241597Y-83146303D02*
X152073238Y-83314662D01*
X152224761Y-83499856D01*
X152224761Y-83466185D01*
X152241597Y-83415677D01*
X152325776Y-83331498D01*
X152376284Y-83314662D01*
X152409956Y-83314662D01*
X152460463Y-83331498D01*
X152544643Y-83415677D01*
X152561478Y-83466185D01*
X152561478Y-83499856D01*
X152544643Y-83550364D01*
X152460463Y-83634543D01*
X152409956Y-83651379D01*
X152376284Y-83651379D01*
%TO.C,D2*%
X158799978Y-84006171D02*
X158299978Y-84006171D01*
X158299978Y-83887124D01*
X158323788Y-83815695D01*
X158371407Y-83768076D01*
X158419026Y-83744266D01*
X158514264Y-83720457D01*
X158585692Y-83720457D01*
X158680930Y-83744266D01*
X158728549Y-83768076D01*
X158776168Y-83815695D01*
X158799978Y-83887124D01*
X158799978Y-84006171D01*
X158347597Y-83529981D02*
X158323788Y-83506171D01*
X158299978Y-83458552D01*
X158299978Y-83339504D01*
X158323788Y-83291885D01*
X158347597Y-83268076D01*
X158395216Y-83244266D01*
X158442835Y-83244266D01*
X158514264Y-83268076D01*
X158799978Y-83553790D01*
X158799978Y-83244266D01*
%TO.C,C23*%
X155197772Y-76690677D02*
X155197772Y-76724349D01*
X155164100Y-76791692D01*
X155130429Y-76825364D01*
X155063085Y-76859036D01*
X154995742Y-76859036D01*
X154945234Y-76842200D01*
X154861055Y-76791692D01*
X154810547Y-76741185D01*
X154760039Y-76657005D01*
X154743204Y-76606498D01*
X154743204Y-76539154D01*
X154776875Y-76471811D01*
X154810547Y-76438139D01*
X154877891Y-76404467D01*
X154911562Y-76404467D01*
X155046249Y-76269780D02*
X155046249Y-76236108D01*
X155063085Y-76185601D01*
X155147265Y-76101421D01*
X155197772Y-76084585D01*
X155231444Y-76084585D01*
X155281952Y-76101421D01*
X155315623Y-76135093D01*
X155349295Y-76202436D01*
X155349295Y-76606498D01*
X155568162Y-76387631D01*
X155332459Y-75916227D02*
X155551326Y-75697360D01*
X155568162Y-75949898D01*
X155618669Y-75899391D01*
X155669177Y-75882555D01*
X155702849Y-75882555D01*
X155753356Y-75899391D01*
X155837536Y-75983570D01*
X155854371Y-76034078D01*
X155854371Y-76067749D01*
X155837536Y-76118257D01*
X155736520Y-76219272D01*
X155686013Y-76236108D01*
X155652341Y-76236108D01*
D12*
%TO.C,P3*%
X145726168Y-90051528D02*
X144726168Y-90051528D01*
X144726168Y-89670576D01*
X144773788Y-89575338D01*
X144821407Y-89527719D01*
X144916645Y-89480100D01*
X145059502Y-89480100D01*
X145154740Y-89527719D01*
X145202359Y-89575338D01*
X145249978Y-89670576D01*
X145249978Y-90051528D01*
X144726168Y-89146766D02*
X144726168Y-88527719D01*
X145107121Y-88861052D01*
X145107121Y-88718195D01*
X145154740Y-88622957D01*
X145202359Y-88575338D01*
X145297597Y-88527719D01*
X145535692Y-88527719D01*
X145630930Y-88575338D01*
X145678549Y-88622957D01*
X145726168Y-88718195D01*
X145726168Y-89003909D01*
X145678549Y-89099147D01*
X145630930Y-89146766D01*
D11*
%TO.C,R11*%
X148127359Y-89663314D02*
X147960692Y-89425219D01*
X147841645Y-89663314D02*
X147841645Y-89163314D01*
X148032121Y-89163314D01*
X148079740Y-89187124D01*
X148103549Y-89210933D01*
X148127359Y-89258552D01*
X148127359Y-89329981D01*
X148103549Y-89377600D01*
X148079740Y-89401409D01*
X148032121Y-89425219D01*
X147841645Y-89425219D01*
X148603549Y-89663314D02*
X148317835Y-89663314D01*
X148460692Y-89663314D02*
X148460692Y-89163314D01*
X148413073Y-89234743D01*
X148365454Y-89282362D01*
X148317835Y-89306171D01*
X149079740Y-89663314D02*
X148794026Y-89663314D01*
X148936883Y-89663314D02*
X148936883Y-89163314D01*
X148889264Y-89234743D01*
X148841645Y-89282362D01*
X148794026Y-89306171D01*
%TO.C,R19*%
X158874978Y-71558552D02*
X158636883Y-71725219D01*
X158874978Y-71844266D02*
X158374978Y-71844266D01*
X158374978Y-71653790D01*
X158398788Y-71606171D01*
X158422597Y-71582362D01*
X158470216Y-71558552D01*
X158541645Y-71558552D01*
X158589264Y-71582362D01*
X158613073Y-71606171D01*
X158636883Y-71653790D01*
X158636883Y-71844266D01*
X158874978Y-71082362D02*
X158874978Y-71368076D01*
X158874978Y-71225219D02*
X158374978Y-71225219D01*
X158446407Y-71272838D01*
X158494026Y-71320457D01*
X158517835Y-71368076D01*
X158874978Y-70844266D02*
X158874978Y-70749028D01*
X158851168Y-70701409D01*
X158827359Y-70677600D01*
X158755930Y-70629981D01*
X158660692Y-70606171D01*
X158470216Y-70606171D01*
X158422597Y-70629981D01*
X158398788Y-70653790D01*
X158374978Y-70701409D01*
X158374978Y-70796647D01*
X158398788Y-70844266D01*
X158422597Y-70868076D01*
X158470216Y-70891885D01*
X158589264Y-70891885D01*
X158636883Y-70868076D01*
X158660692Y-70844266D01*
X158684502Y-70796647D01*
X158684502Y-70701409D01*
X158660692Y-70653790D01*
X158636883Y-70629981D01*
X158589264Y-70606171D01*
D12*
%TO.C,P4*%
X158501168Y-90226528D02*
X157501168Y-90226528D01*
X157501168Y-89845576D01*
X157548788Y-89750338D01*
X157596407Y-89702719D01*
X157691645Y-89655100D01*
X157834502Y-89655100D01*
X157929740Y-89702719D01*
X157977359Y-89750338D01*
X158024978Y-89845576D01*
X158024978Y-90226528D01*
X157834502Y-88797957D02*
X158501168Y-88797957D01*
X157453549Y-89036052D02*
X158167835Y-89274147D01*
X158167835Y-88655100D01*
D11*
%TO.C,R18*%
X139924978Y-74358552D02*
X139686883Y-74525219D01*
X139924978Y-74644266D02*
X139424978Y-74644266D01*
X139424978Y-74453790D01*
X139448788Y-74406171D01*
X139472597Y-74382362D01*
X139520216Y-74358552D01*
X139591645Y-74358552D01*
X139639264Y-74382362D01*
X139663073Y-74406171D01*
X139686883Y-74453790D01*
X139686883Y-74644266D01*
X139924978Y-73882362D02*
X139924978Y-74168076D01*
X139924978Y-74025219D02*
X139424978Y-74025219D01*
X139496407Y-74072838D01*
X139544026Y-74120457D01*
X139567835Y-74168076D01*
X139639264Y-73596647D02*
X139615454Y-73644266D01*
X139591645Y-73668076D01*
X139544026Y-73691885D01*
X139520216Y-73691885D01*
X139472597Y-73668076D01*
X139448788Y-73644266D01*
X139424978Y-73596647D01*
X139424978Y-73501409D01*
X139448788Y-73453790D01*
X139472597Y-73429981D01*
X139520216Y-73406171D01*
X139544026Y-73406171D01*
X139591645Y-73429981D01*
X139615454Y-73453790D01*
X139639264Y-73501409D01*
X139639264Y-73596647D01*
X139663073Y-73644266D01*
X139686883Y-73668076D01*
X139734502Y-73691885D01*
X139829740Y-73691885D01*
X139877359Y-73668076D01*
X139901168Y-73644266D01*
X139924978Y-73596647D01*
X139924978Y-73501409D01*
X139901168Y-73453790D01*
X139877359Y-73429981D01*
X139829740Y-73406171D01*
X139734502Y-73406171D01*
X139686883Y-73429981D01*
X139663073Y-73453790D01*
X139639264Y-73501409D01*
D10*
%TO.C,D8*%
X140574978Y-69081171D02*
X140074978Y-69081171D01*
X140074978Y-68962124D01*
X140098788Y-68890695D01*
X140146407Y-68843076D01*
X140194026Y-68819266D01*
X140289264Y-68795457D01*
X140360692Y-68795457D01*
X140455930Y-68819266D01*
X140503549Y-68843076D01*
X140551168Y-68890695D01*
X140574978Y-68962124D01*
X140574978Y-69081171D01*
X140289264Y-68509743D02*
X140265454Y-68557362D01*
X140241645Y-68581171D01*
X140194026Y-68604981D01*
X140170216Y-68604981D01*
X140122597Y-68581171D01*
X140098788Y-68557362D01*
X140074978Y-68509743D01*
X140074978Y-68414504D01*
X140098788Y-68366885D01*
X140122597Y-68343076D01*
X140170216Y-68319266D01*
X140194026Y-68319266D01*
X140241645Y-68343076D01*
X140265454Y-68366885D01*
X140289264Y-68414504D01*
X140289264Y-68509743D01*
X140313073Y-68557362D01*
X140336883Y-68581171D01*
X140384502Y-68604981D01*
X140479740Y-68604981D01*
X140527359Y-68581171D01*
X140551168Y-68557362D01*
X140574978Y-68509743D01*
X140574978Y-68414504D01*
X140551168Y-68366885D01*
X140527359Y-68343076D01*
X140479740Y-68319266D01*
X140384502Y-68319266D01*
X140336883Y-68343076D01*
X140313073Y-68366885D01*
X140289264Y-68414504D01*
%TO.C,D4*%
X139529740Y-92663314D02*
X139529740Y-92163314D01*
X139648788Y-92163314D01*
X139720216Y-92187124D01*
X139767835Y-92234743D01*
X139791645Y-92282362D01*
X139815454Y-92377600D01*
X139815454Y-92449028D01*
X139791645Y-92544266D01*
X139767835Y-92591885D01*
X139720216Y-92639504D01*
X139648788Y-92663314D01*
X139529740Y-92663314D01*
X140244026Y-92329981D02*
X140244026Y-92663314D01*
X140124978Y-92139504D02*
X140005930Y-92496647D01*
X140315454Y-92496647D01*
%TO.C,C25*%
X153127341Y-72713139D02*
X153161013Y-72713139D01*
X153228356Y-72746811D01*
X153262028Y-72780482D01*
X153295700Y-72847826D01*
X153295700Y-72915169D01*
X153278864Y-72965677D01*
X153228356Y-73049856D01*
X153177849Y-73100364D01*
X153093669Y-73150872D01*
X153043162Y-73167707D01*
X152975818Y-73167707D01*
X152908475Y-73134036D01*
X152874803Y-73100364D01*
X152841131Y-73033020D01*
X152841131Y-72999349D01*
X152706444Y-72864662D02*
X152672772Y-72864662D01*
X152622265Y-72847826D01*
X152538085Y-72763646D01*
X152521249Y-72713139D01*
X152521249Y-72679467D01*
X152538085Y-72628959D01*
X152571757Y-72595288D01*
X152639100Y-72561616D01*
X153043162Y-72561616D01*
X152824295Y-72342749D01*
X152150860Y-72376421D02*
X152319219Y-72544780D01*
X152504413Y-72393257D01*
X152470742Y-72393257D01*
X152420234Y-72376421D01*
X152336055Y-72292242D01*
X152319219Y-72241734D01*
X152319219Y-72208062D01*
X152336055Y-72157555D01*
X152420234Y-72073375D01*
X152470742Y-72056540D01*
X152504413Y-72056540D01*
X152554921Y-72073375D01*
X152639100Y-72157555D01*
X152655936Y-72208062D01*
X152655936Y-72241734D01*
D11*
%TO.C,R21*%
X151877359Y-64088314D02*
X151710692Y-63850219D01*
X151591645Y-64088314D02*
X151591645Y-63588314D01*
X151782121Y-63588314D01*
X151829740Y-63612124D01*
X151853549Y-63635933D01*
X151877359Y-63683552D01*
X151877359Y-63754981D01*
X151853549Y-63802600D01*
X151829740Y-63826409D01*
X151782121Y-63850219D01*
X151591645Y-63850219D01*
X152067835Y-63635933D02*
X152091645Y-63612124D01*
X152139264Y-63588314D01*
X152258311Y-63588314D01*
X152305930Y-63612124D01*
X152329740Y-63635933D01*
X152353549Y-63683552D01*
X152353549Y-63731171D01*
X152329740Y-63802600D01*
X152044026Y-64088314D01*
X152353549Y-64088314D01*
X152829740Y-64088314D02*
X152544026Y-64088314D01*
X152686883Y-64088314D02*
X152686883Y-63588314D01*
X152639264Y-63659743D01*
X152591645Y-63707362D01*
X152544026Y-63731171D01*
D10*
%TO.C,C18*%
X143472772Y-74840677D02*
X143472772Y-74874349D01*
X143439100Y-74941692D01*
X143405429Y-74975364D01*
X143338085Y-75009036D01*
X143270742Y-75009036D01*
X143220234Y-74992200D01*
X143136055Y-74941692D01*
X143085547Y-74891185D01*
X143035039Y-74807005D01*
X143018204Y-74756498D01*
X143018204Y-74689154D01*
X143051875Y-74621811D01*
X143085547Y-74588139D01*
X143152891Y-74554467D01*
X143186562Y-74554467D01*
X143843162Y-74537631D02*
X143641131Y-74739662D01*
X143742146Y-74638646D02*
X143388593Y-74285093D01*
X143405429Y-74369272D01*
X143405429Y-74436616D01*
X143388593Y-74487124D01*
X143843162Y-74133570D02*
X143792654Y-74150406D01*
X143758982Y-74150406D01*
X143708475Y-74133570D01*
X143691639Y-74116734D01*
X143674803Y-74066227D01*
X143674803Y-74032555D01*
X143691639Y-73982047D01*
X143758982Y-73914704D01*
X143809490Y-73897868D01*
X143843162Y-73897868D01*
X143893669Y-73914704D01*
X143910505Y-73931540D01*
X143927341Y-73982047D01*
X143927341Y-74015719D01*
X143910505Y-74066227D01*
X143843162Y-74133570D01*
X143826326Y-74184078D01*
X143826326Y-74217749D01*
X143843162Y-74268257D01*
X143910505Y-74335601D01*
X143961013Y-74352436D01*
X143994684Y-74352436D01*
X144045192Y-74335601D01*
X144112536Y-74268257D01*
X144129371Y-74217749D01*
X144129371Y-74184078D01*
X144112536Y-74133570D01*
X144045192Y-74066227D01*
X143994684Y-74049391D01*
X143961013Y-74049391D01*
X143910505Y-74066227D01*
%TO.C,C4*%
X141477359Y-114670457D02*
X141501168Y-114694266D01*
X141524978Y-114765695D01*
X141524978Y-114813314D01*
X141501168Y-114884743D01*
X141453549Y-114932362D01*
X141405930Y-114956171D01*
X141310692Y-114979981D01*
X141239264Y-114979981D01*
X141144026Y-114956171D01*
X141096407Y-114932362D01*
X141048788Y-114884743D01*
X141024978Y-114813314D01*
X141024978Y-114765695D01*
X141048788Y-114694266D01*
X141072597Y-114670457D01*
X141191645Y-114241885D02*
X141524978Y-114241885D01*
X141001168Y-114360933D02*
X141358311Y-114479981D01*
X141358311Y-114170457D01*
%TO.C,C9*%
X147508982Y-85594780D02*
X147542654Y-85594780D01*
X147609997Y-85628452D01*
X147643669Y-85662123D01*
X147677341Y-85729467D01*
X147677341Y-85796811D01*
X147660505Y-85847318D01*
X147609997Y-85931498D01*
X147559490Y-85982005D01*
X147475310Y-86032513D01*
X147424803Y-86049349D01*
X147357459Y-86049349D01*
X147290116Y-86015677D01*
X147256444Y-85982005D01*
X147222772Y-85914662D01*
X147222772Y-85880990D01*
X147374295Y-85392749D02*
X147306952Y-85325406D01*
X147256444Y-85308570D01*
X147222772Y-85308570D01*
X147138593Y-85325406D01*
X147054413Y-85375914D01*
X146919726Y-85510601D01*
X146902891Y-85561108D01*
X146902891Y-85594780D01*
X146919726Y-85645288D01*
X146987070Y-85712631D01*
X147037578Y-85729467D01*
X147071249Y-85729467D01*
X147121757Y-85712631D01*
X147205936Y-85628452D01*
X147222772Y-85577944D01*
X147222772Y-85544272D01*
X147205936Y-85493765D01*
X147138593Y-85426421D01*
X147088085Y-85409585D01*
X147054413Y-85409585D01*
X147003906Y-85426421D01*
%TO.C,D9*%
X137924978Y-114531171D02*
X137424978Y-114531171D01*
X137424978Y-114412124D01*
X137448788Y-114340695D01*
X137496407Y-114293076D01*
X137544026Y-114269266D01*
X137639264Y-114245457D01*
X137710692Y-114245457D01*
X137805930Y-114269266D01*
X137853549Y-114293076D01*
X137901168Y-114340695D01*
X137924978Y-114412124D01*
X137924978Y-114531171D01*
X137924978Y-114007362D02*
X137924978Y-113912124D01*
X137901168Y-113864504D01*
X137877359Y-113840695D01*
X137805930Y-113793076D01*
X137710692Y-113769266D01*
X137520216Y-113769266D01*
X137472597Y-113793076D01*
X137448788Y-113816885D01*
X137424978Y-113864504D01*
X137424978Y-113959743D01*
X137448788Y-114007362D01*
X137472597Y-114031171D01*
X137520216Y-114054981D01*
X137639264Y-114054981D01*
X137686883Y-114031171D01*
X137710692Y-114007362D01*
X137734502Y-113959743D01*
X137734502Y-113864504D01*
X137710692Y-113816885D01*
X137686883Y-113793076D01*
X137639264Y-113769266D01*
%TO.C,C1*%
X130927359Y-67495457D02*
X130951168Y-67519266D01*
X130974978Y-67590695D01*
X130974978Y-67638314D01*
X130951168Y-67709743D01*
X130903549Y-67757362D01*
X130855930Y-67781171D01*
X130760692Y-67804981D01*
X130689264Y-67804981D01*
X130594026Y-67781171D01*
X130546407Y-67757362D01*
X130498788Y-67709743D01*
X130474978Y-67638314D01*
X130474978Y-67590695D01*
X130498788Y-67519266D01*
X130522597Y-67495457D01*
X130974978Y-67019266D02*
X130974978Y-67304981D01*
X130974978Y-67162124D02*
X130474978Y-67162124D01*
X130546407Y-67209743D01*
X130594026Y-67257362D01*
X130617835Y-67304981D01*
%TO.C,C22*%
X134827341Y-74463139D02*
X134861013Y-74463139D01*
X134928356Y-74496811D01*
X134962028Y-74530482D01*
X134995700Y-74597826D01*
X134995700Y-74665169D01*
X134978864Y-74715677D01*
X134928356Y-74799856D01*
X134877849Y-74850364D01*
X134793669Y-74900872D01*
X134743162Y-74917707D01*
X134675818Y-74917707D01*
X134608475Y-74884036D01*
X134574803Y-74850364D01*
X134541131Y-74783020D01*
X134541131Y-74749349D01*
X134406444Y-74614662D02*
X134372772Y-74614662D01*
X134322265Y-74597826D01*
X134238085Y-74513646D01*
X134221249Y-74463139D01*
X134221249Y-74429467D01*
X134238085Y-74378959D01*
X134271757Y-74345288D01*
X134339100Y-74311616D01*
X134743162Y-74311616D01*
X134524295Y-74092749D01*
X134069726Y-74277944D02*
X134036055Y-74277944D01*
X133985547Y-74261108D01*
X133901368Y-74176929D01*
X133884532Y-74126421D01*
X133884532Y-74092749D01*
X133901368Y-74042242D01*
X133935039Y-74008570D01*
X134002383Y-73974898D01*
X134406444Y-73974898D01*
X134187578Y-73756032D01*
%TO.C,C19*%
X125790665Y-70758570D02*
X125790665Y-70792242D01*
X125756993Y-70859585D01*
X125723322Y-70893257D01*
X125655978Y-70926929D01*
X125588635Y-70926929D01*
X125538127Y-70910093D01*
X125453948Y-70859585D01*
X125403440Y-70809078D01*
X125352932Y-70724898D01*
X125336097Y-70674391D01*
X125336097Y-70607047D01*
X125369768Y-70539704D01*
X125403440Y-70506032D01*
X125470784Y-70472360D01*
X125504455Y-70472360D01*
X126161055Y-70455524D02*
X125959024Y-70657555D01*
X126060039Y-70556539D02*
X125706486Y-70202986D01*
X125723322Y-70287165D01*
X125723322Y-70354509D01*
X125706486Y-70405017D01*
X126329413Y-70287165D02*
X126396757Y-70219822D01*
X126413593Y-70169314D01*
X126413593Y-70135642D01*
X126396757Y-70051463D01*
X126346249Y-69967284D01*
X126211562Y-69832597D01*
X126161055Y-69815761D01*
X126127383Y-69815761D01*
X126076875Y-69832597D01*
X126009532Y-69899940D01*
X125992696Y-69950448D01*
X125992696Y-69984120D01*
X126009532Y-70034627D01*
X126093711Y-70118807D01*
X126144219Y-70135642D01*
X126177890Y-70135642D01*
X126228398Y-70118807D01*
X126295742Y-70051463D01*
X126312577Y-70000955D01*
X126312577Y-69967284D01*
X126295742Y-69916776D01*
%TO.C,C5*%
X127058982Y-87294780D02*
X127092654Y-87294780D01*
X127159997Y-87328452D01*
X127193669Y-87362124D01*
X127227341Y-87429467D01*
X127227341Y-87496811D01*
X127210505Y-87547318D01*
X127159997Y-87631498D01*
X127109490Y-87682005D01*
X127025310Y-87732513D01*
X126974803Y-87749349D01*
X126907459Y-87749349D01*
X126840116Y-87715677D01*
X126806444Y-87682005D01*
X126772772Y-87614662D01*
X126772772Y-87580990D01*
X126419219Y-87294780D02*
X126587578Y-87463139D01*
X126772772Y-87311616D01*
X126739100Y-87311616D01*
X126688593Y-87294780D01*
X126604413Y-87210601D01*
X126587578Y-87160093D01*
X126587578Y-87126421D01*
X126604413Y-87075914D01*
X126688593Y-86991734D01*
X126739100Y-86974898D01*
X126772772Y-86974898D01*
X126823280Y-86991734D01*
X126907459Y-87075914D01*
X126924295Y-87126421D01*
X126924295Y-87160093D01*
%TO.C,D7*%
X138799978Y-69031171D02*
X138299978Y-69031171D01*
X138299978Y-68912124D01*
X138323788Y-68840695D01*
X138371407Y-68793076D01*
X138419026Y-68769266D01*
X138514264Y-68745457D01*
X138585692Y-68745457D01*
X138680930Y-68769266D01*
X138728549Y-68793076D01*
X138776168Y-68840695D01*
X138799978Y-68912124D01*
X138799978Y-69031171D01*
X138299978Y-68578790D02*
X138299978Y-68245457D01*
X138799978Y-68459743D01*
D11*
%TO.C,R12*%
X129127359Y-67388314D02*
X128960692Y-67150219D01*
X128841645Y-67388314D02*
X128841645Y-66888314D01*
X129032121Y-66888314D01*
X129079740Y-66912124D01*
X129103549Y-66935933D01*
X129127359Y-66983552D01*
X129127359Y-67054981D01*
X129103549Y-67102600D01*
X129079740Y-67126409D01*
X129032121Y-67150219D01*
X128841645Y-67150219D01*
X129603549Y-67388314D02*
X129317835Y-67388314D01*
X129460692Y-67388314D02*
X129460692Y-66888314D01*
X129413073Y-66959743D01*
X129365454Y-67007362D01*
X129317835Y-67031171D01*
X129794026Y-66935933D02*
X129817835Y-66912124D01*
X129865454Y-66888314D01*
X129984502Y-66888314D01*
X130032121Y-66912124D01*
X130055930Y-66935933D01*
X130079740Y-66983552D01*
X130079740Y-67031171D01*
X130055930Y-67102600D01*
X129770216Y-67388314D01*
X130079740Y-67388314D01*
D10*
%TO.C,C3*%
X126302359Y-93095457D02*
X126326168Y-93119266D01*
X126349978Y-93190695D01*
X126349978Y-93238314D01*
X126326168Y-93309743D01*
X126278549Y-93357362D01*
X126230930Y-93381171D01*
X126135692Y-93404981D01*
X126064264Y-93404981D01*
X125969026Y-93381171D01*
X125921407Y-93357362D01*
X125873788Y-93309743D01*
X125849978Y-93238314D01*
X125849978Y-93190695D01*
X125873788Y-93119266D01*
X125897597Y-93095457D01*
X125849978Y-92928790D02*
X125849978Y-92619266D01*
X126040454Y-92785933D01*
X126040454Y-92714504D01*
X126064264Y-92666885D01*
X126088073Y-92643076D01*
X126135692Y-92619266D01*
X126254740Y-92619266D01*
X126302359Y-92643076D01*
X126326168Y-92666885D01*
X126349978Y-92714504D01*
X126349978Y-92857362D01*
X126326168Y-92904981D01*
X126302359Y-92928790D01*
D12*
%TO.C,U1*%
X123251168Y-98674028D02*
X124060692Y-98674028D01*
X124155930Y-98626409D01*
X124203549Y-98578790D01*
X124251168Y-98483552D01*
X124251168Y-98293076D01*
X124203549Y-98197838D01*
X124155930Y-98150219D01*
X124060692Y-98102600D01*
X123251168Y-98102600D01*
X124251168Y-97102600D02*
X124251168Y-97674028D01*
X124251168Y-97388314D02*
X123251168Y-97388314D01*
X123394026Y-97483552D01*
X123489264Y-97578790D01*
X123536883Y-97674028D01*
D10*
%TO.C,C9*%
X127508982Y-85594780D02*
X127542654Y-85594780D01*
X127609997Y-85628452D01*
X127643669Y-85662124D01*
X127677341Y-85729467D01*
X127677341Y-85796811D01*
X127660505Y-85847318D01*
X127609997Y-85931498D01*
X127559490Y-85982005D01*
X127475310Y-86032513D01*
X127424803Y-86049349D01*
X127357459Y-86049349D01*
X127290116Y-86015677D01*
X127256444Y-85982005D01*
X127222772Y-85914662D01*
X127222772Y-85880990D01*
X127374295Y-85392749D02*
X127306952Y-85325406D01*
X127256444Y-85308570D01*
X127222772Y-85308570D01*
X127138593Y-85325406D01*
X127054413Y-85375914D01*
X126919726Y-85510601D01*
X126902891Y-85561108D01*
X126902891Y-85594780D01*
X126919726Y-85645288D01*
X126987070Y-85712631D01*
X127037578Y-85729467D01*
X127071249Y-85729467D01*
X127121757Y-85712631D01*
X127205936Y-85628452D01*
X127222772Y-85577944D01*
X127222772Y-85544272D01*
X127205936Y-85493765D01*
X127138593Y-85426421D01*
X127088085Y-85409585D01*
X127054413Y-85409585D01*
X127003906Y-85426421D01*
D11*
%TO.C,R16*%
X119899978Y-75908552D02*
X119661883Y-76075219D01*
X119899978Y-76194266D02*
X119399978Y-76194266D01*
X119399978Y-76003790D01*
X119423788Y-75956171D01*
X119447597Y-75932362D01*
X119495216Y-75908552D01*
X119566645Y-75908552D01*
X119614264Y-75932362D01*
X119638073Y-75956171D01*
X119661883Y-76003790D01*
X119661883Y-76194266D01*
X119899978Y-75432362D02*
X119899978Y-75718076D01*
X119899978Y-75575219D02*
X119399978Y-75575219D01*
X119471407Y-75622838D01*
X119519026Y-75670457D01*
X119542835Y-75718076D01*
X119399978Y-75003790D02*
X119399978Y-75099028D01*
X119423788Y-75146647D01*
X119447597Y-75170457D01*
X119519026Y-75218076D01*
X119614264Y-75241885D01*
X119804740Y-75241885D01*
X119852359Y-75218076D01*
X119876168Y-75194266D01*
X119899978Y-75146647D01*
X119899978Y-75051409D01*
X119876168Y-75003790D01*
X119852359Y-74979981D01*
X119804740Y-74956171D01*
X119685692Y-74956171D01*
X119638073Y-74979981D01*
X119614264Y-75003790D01*
X119590454Y-75051409D01*
X119590454Y-75146647D01*
X119614264Y-75194266D01*
X119638073Y-75218076D01*
X119685692Y-75241885D01*
D10*
%TO.C,C24*%
X131352341Y-70963139D02*
X131386013Y-70963139D01*
X131453356Y-70996811D01*
X131487028Y-71030482D01*
X131520700Y-71097826D01*
X131520700Y-71165169D01*
X131503864Y-71215677D01*
X131453356Y-71299856D01*
X131402849Y-71350364D01*
X131318669Y-71400872D01*
X131268162Y-71417707D01*
X131200818Y-71417707D01*
X131133475Y-71384036D01*
X131099803Y-71350364D01*
X131066131Y-71283020D01*
X131066131Y-71249349D01*
X130931444Y-71114662D02*
X130897772Y-71114662D01*
X130847265Y-71097826D01*
X130763085Y-71013646D01*
X130746249Y-70963139D01*
X130746249Y-70929467D01*
X130763085Y-70878959D01*
X130796757Y-70845288D01*
X130864100Y-70811616D01*
X131268162Y-70811616D01*
X131049295Y-70592749D01*
X130510547Y-70525406D02*
X130746249Y-70289704D01*
X130460039Y-70744272D02*
X130796757Y-70575914D01*
X130577891Y-70357047D01*
%TO.C,C25*%
X133127341Y-72713139D02*
X133161013Y-72713139D01*
X133228356Y-72746811D01*
X133262028Y-72780482D01*
X133295700Y-72847826D01*
X133295700Y-72915169D01*
X133278864Y-72965677D01*
X133228356Y-73049856D01*
X133177849Y-73100364D01*
X133093669Y-73150872D01*
X133043162Y-73167707D01*
X132975818Y-73167707D01*
X132908475Y-73134036D01*
X132874803Y-73100364D01*
X132841131Y-73033020D01*
X132841131Y-72999349D01*
X132706444Y-72864662D02*
X132672772Y-72864662D01*
X132622265Y-72847826D01*
X132538085Y-72763646D01*
X132521249Y-72713139D01*
X132521249Y-72679467D01*
X132538085Y-72628959D01*
X132571757Y-72595288D01*
X132639100Y-72561616D01*
X133043162Y-72561616D01*
X132824295Y-72342749D01*
X132150860Y-72376421D02*
X132319219Y-72544780D01*
X132504413Y-72393257D01*
X132470742Y-72393257D01*
X132420234Y-72376421D01*
X132336055Y-72292242D01*
X132319219Y-72241734D01*
X132319219Y-72208062D01*
X132336055Y-72157555D01*
X132420234Y-72073375D01*
X132470742Y-72056540D01*
X132504413Y-72056540D01*
X132554921Y-72073375D01*
X132639100Y-72157555D01*
X132655936Y-72208062D01*
X132655936Y-72241734D01*
%TO.C,C6*%
X121240454Y-103340695D02*
X121216645Y-103364504D01*
X121145216Y-103388314D01*
X121097597Y-103388314D01*
X121026168Y-103364504D01*
X120978549Y-103316885D01*
X120954740Y-103269266D01*
X120930930Y-103174028D01*
X120930930Y-103102600D01*
X120954740Y-103007362D01*
X120978549Y-102959743D01*
X121026168Y-102912124D01*
X121097597Y-102888314D01*
X121145216Y-102888314D01*
X121216645Y-102912124D01*
X121240454Y-102935933D01*
X121669026Y-102888314D02*
X121573788Y-102888314D01*
X121526168Y-102912124D01*
X121502359Y-102935933D01*
X121454740Y-103007362D01*
X121430930Y-103102600D01*
X121430930Y-103293076D01*
X121454740Y-103340695D01*
X121478549Y-103364504D01*
X121526168Y-103388314D01*
X121621407Y-103388314D01*
X121669026Y-103364504D01*
X121692835Y-103340695D01*
X121716645Y-103293076D01*
X121716645Y-103174028D01*
X121692835Y-103126409D01*
X121669026Y-103102600D01*
X121621407Y-103078790D01*
X121526168Y-103078790D01*
X121478549Y-103102600D01*
X121454740Y-103126409D01*
X121430930Y-103174028D01*
%TO.C,C21*%
X137477341Y-75288139D02*
X137511013Y-75288139D01*
X137578356Y-75321811D01*
X137612028Y-75355482D01*
X137645700Y-75422826D01*
X137645700Y-75490169D01*
X137628864Y-75540677D01*
X137578356Y-75624856D01*
X137527849Y-75675364D01*
X137443669Y-75725872D01*
X137393162Y-75742707D01*
X137325818Y-75742707D01*
X137258475Y-75709036D01*
X137224803Y-75675364D01*
X137191131Y-75608020D01*
X137191131Y-75574349D01*
X137056444Y-75439662D02*
X137022772Y-75439662D01*
X136972265Y-75422826D01*
X136888085Y-75338646D01*
X136871249Y-75288139D01*
X136871249Y-75254467D01*
X136888085Y-75203959D01*
X136921757Y-75170288D01*
X136989100Y-75136616D01*
X137393162Y-75136616D01*
X137174295Y-74917749D01*
X136837578Y-74581032D02*
X137039608Y-74783062D01*
X136938593Y-74682047D02*
X136585039Y-75035601D01*
X136669219Y-75018765D01*
X136736562Y-75018765D01*
X136787070Y-75035601D01*
D12*
%TO.C,P1*%
X125401168Y-65051528D02*
X124401168Y-65051528D01*
X124401168Y-64670576D01*
X124448788Y-64575338D01*
X124496407Y-64527719D01*
X124591645Y-64480100D01*
X124734502Y-64480100D01*
X124829740Y-64527719D01*
X124877359Y-64575338D01*
X124924978Y-64670576D01*
X124924978Y-65051528D01*
X125401168Y-63527719D02*
X125401168Y-64099147D01*
X125401168Y-63813433D02*
X124401168Y-63813433D01*
X124544026Y-63908671D01*
X124639264Y-64003909D01*
X124686883Y-64099147D01*
D10*
%TO.C,D5*%
X119674978Y-87306171D02*
X119174978Y-87306171D01*
X119174978Y-87187124D01*
X119198788Y-87115695D01*
X119246407Y-87068076D01*
X119294026Y-87044266D01*
X119389264Y-87020457D01*
X119460692Y-87020457D01*
X119555930Y-87044266D01*
X119603549Y-87068076D01*
X119651168Y-87115695D01*
X119674978Y-87187124D01*
X119674978Y-87306171D01*
X119174978Y-86568076D02*
X119174978Y-86806171D01*
X119413073Y-86829981D01*
X119389264Y-86806171D01*
X119365454Y-86758552D01*
X119365454Y-86639504D01*
X119389264Y-86591885D01*
X119413073Y-86568076D01*
X119460692Y-86544266D01*
X119579740Y-86544266D01*
X119627359Y-86568076D01*
X119651168Y-86591885D01*
X119674978Y-86639504D01*
X119674978Y-86758552D01*
X119651168Y-86806171D01*
X119627359Y-86829981D01*
D12*
%TO.C,DC1*%
X124837002Y-112739504D02*
X124837002Y-111739504D01*
X125075097Y-111739504D01*
X125217954Y-111787124D01*
X125313192Y-111882362D01*
X125360811Y-111977600D01*
X125408430Y-112168076D01*
X125408430Y-112310933D01*
X125360811Y-112501409D01*
X125313192Y-112596647D01*
X125217954Y-112691885D01*
X125075097Y-112739504D01*
X124837002Y-112739504D01*
X126408430Y-112644266D02*
X126360811Y-112691885D01*
X126217954Y-112739504D01*
X126122716Y-112739504D01*
X125979859Y-112691885D01*
X125884621Y-112596647D01*
X125837002Y-112501409D01*
X125789383Y-112310933D01*
X125789383Y-112168076D01*
X125837002Y-111977600D01*
X125884621Y-111882362D01*
X125979859Y-111787124D01*
X126122716Y-111739504D01*
X126217954Y-111739504D01*
X126360811Y-111787124D01*
X126408430Y-111834743D01*
X127360811Y-112739504D02*
X126789383Y-112739504D01*
X127075097Y-112739504D02*
X127075097Y-111739504D01*
X126979859Y-111882362D01*
X126884621Y-111977600D01*
X126789383Y-112025219D01*
D11*
%TO.C,R20*%
X132152359Y-69688314D02*
X131985692Y-69450219D01*
X131866645Y-69688314D02*
X131866645Y-69188314D01*
X132057121Y-69188314D01*
X132104740Y-69212124D01*
X132128549Y-69235933D01*
X132152359Y-69283552D01*
X132152359Y-69354981D01*
X132128549Y-69402600D01*
X132104740Y-69426409D01*
X132057121Y-69450219D01*
X131866645Y-69450219D01*
X132342835Y-69235933D02*
X132366645Y-69212124D01*
X132414264Y-69188314D01*
X132533311Y-69188314D01*
X132580930Y-69212124D01*
X132604740Y-69235933D01*
X132628549Y-69283552D01*
X132628549Y-69331171D01*
X132604740Y-69402600D01*
X132319026Y-69688314D01*
X132628549Y-69688314D01*
X132938073Y-69188314D02*
X132985692Y-69188314D01*
X133033311Y-69212124D01*
X133057121Y-69235933D01*
X133080930Y-69283552D01*
X133104740Y-69378790D01*
X133104740Y-69497838D01*
X133080930Y-69593076D01*
X133057121Y-69640695D01*
X133033311Y-69664504D01*
X132985692Y-69688314D01*
X132938073Y-69688314D01*
X132890454Y-69664504D01*
X132866645Y-69640695D01*
X132842835Y-69593076D01*
X132819026Y-69497838D01*
X132819026Y-69378790D01*
X132842835Y-69283552D01*
X132866645Y-69235933D01*
X132890454Y-69212124D01*
X132938073Y-69188314D01*
D12*
%TO.C,U3*%
X121947814Y-77088646D02*
X122520234Y-77661066D01*
X122621249Y-77694738D01*
X122688593Y-77694738D01*
X122789608Y-77661066D01*
X122924295Y-77526379D01*
X122957967Y-77425364D01*
X122957967Y-77358020D01*
X122924295Y-77257005D01*
X122351875Y-76684585D01*
X122621249Y-76415211D02*
X123058982Y-75977479D01*
X123092654Y-76482555D01*
X123193669Y-76381540D01*
X123294684Y-76347868D01*
X123362028Y-76347868D01*
X123463043Y-76381540D01*
X123631402Y-76549898D01*
X123665074Y-76650914D01*
X123665074Y-76718257D01*
X123631402Y-76819272D01*
X123429371Y-77021303D01*
X123328356Y-77054975D01*
X123261013Y-77054975D01*
D10*
%TO.C,C4*%
X121477359Y-114670457D02*
X121501168Y-114694266D01*
X121524978Y-114765695D01*
X121524978Y-114813314D01*
X121501168Y-114884743D01*
X121453549Y-114932362D01*
X121405930Y-114956171D01*
X121310692Y-114979981D01*
X121239264Y-114979981D01*
X121144026Y-114956171D01*
X121096407Y-114932362D01*
X121048788Y-114884743D01*
X121024978Y-114813314D01*
X121024978Y-114765695D01*
X121048788Y-114694266D01*
X121072597Y-114670457D01*
X121191645Y-114241885D02*
X121524978Y-114241885D01*
X121001168Y-114360933D02*
X121358311Y-114479981D01*
X121358311Y-114170457D01*
D11*
%TO.C,R9*%
X119815454Y-93863314D02*
X119648788Y-93625219D01*
X119529740Y-93863314D02*
X119529740Y-93363314D01*
X119720216Y-93363314D01*
X119767835Y-93387124D01*
X119791645Y-93410933D01*
X119815454Y-93458552D01*
X119815454Y-93529981D01*
X119791645Y-93577600D01*
X119767835Y-93601409D01*
X119720216Y-93625219D01*
X119529740Y-93625219D01*
X120053549Y-93863314D02*
X120148788Y-93863314D01*
X120196407Y-93839504D01*
X120220216Y-93815695D01*
X120267835Y-93744266D01*
X120291645Y-93649028D01*
X120291645Y-93458552D01*
X120267835Y-93410933D01*
X120244026Y-93387124D01*
X120196407Y-93363314D01*
X120101168Y-93363314D01*
X120053549Y-93387124D01*
X120029740Y-93410933D01*
X120005930Y-93458552D01*
X120005930Y-93577600D01*
X120029740Y-93625219D01*
X120053549Y-93649028D01*
X120101168Y-93672838D01*
X120196407Y-93672838D01*
X120244026Y-93649028D01*
X120267835Y-93625219D01*
X120291645Y-93577600D01*
D10*
%TO.C,D6*%
X130404740Y-89588314D02*
X130404740Y-89088314D01*
X130523788Y-89088314D01*
X130595216Y-89112124D01*
X130642835Y-89159743D01*
X130666645Y-89207362D01*
X130690454Y-89302600D01*
X130690454Y-89374028D01*
X130666645Y-89469266D01*
X130642835Y-89516885D01*
X130595216Y-89564504D01*
X130523788Y-89588314D01*
X130404740Y-89588314D01*
X131119026Y-89088314D02*
X131023788Y-89088314D01*
X130976168Y-89112124D01*
X130952359Y-89135933D01*
X130904740Y-89207362D01*
X130880930Y-89302600D01*
X130880930Y-89493076D01*
X130904740Y-89540695D01*
X130928549Y-89564504D01*
X130976168Y-89588314D01*
X131071407Y-89588314D01*
X131119026Y-89564504D01*
X131142835Y-89540695D01*
X131166645Y-89493076D01*
X131166645Y-89374028D01*
X131142835Y-89326409D01*
X131119026Y-89302600D01*
X131071407Y-89278790D01*
X130976168Y-89278790D01*
X130928549Y-89302600D01*
X130904740Y-89326409D01*
X130880930Y-89374028D01*
D11*
%TO.C,R2*%
X127165454Y-69438314D02*
X126998788Y-69200219D01*
X126879740Y-69438314D02*
X126879740Y-68938314D01*
X127070216Y-68938314D01*
X127117835Y-68962124D01*
X127141645Y-68985933D01*
X127165454Y-69033552D01*
X127165454Y-69104981D01*
X127141645Y-69152600D01*
X127117835Y-69176409D01*
X127070216Y-69200219D01*
X126879740Y-69200219D01*
X127355930Y-68985933D02*
X127379740Y-68962124D01*
X127427359Y-68938314D01*
X127546407Y-68938314D01*
X127594026Y-68962124D01*
X127617835Y-68985933D01*
X127641645Y-69033552D01*
X127641645Y-69081171D01*
X127617835Y-69152600D01*
X127332121Y-69438314D01*
X127641645Y-69438314D01*
D12*
%TO.C,Y1*%
X137545234Y-80332005D02*
X137881952Y-80668723D01*
X136939143Y-80197318D02*
X137545234Y-80332005D01*
X137410547Y-79725914D01*
X138723745Y-79826929D02*
X138319684Y-80230990D01*
X138521715Y-80028959D02*
X137814608Y-79321853D01*
X137848280Y-79490211D01*
X137848280Y-79624898D01*
X137814608Y-79725914D01*
D10*
%TO.C,C15*%
X131904879Y-84122784D02*
X131904879Y-84156456D01*
X131871207Y-84223799D01*
X131837536Y-84257471D01*
X131770192Y-84291143D01*
X131702849Y-84291143D01*
X131652341Y-84274307D01*
X131568162Y-84223799D01*
X131517654Y-84173292D01*
X131467146Y-84089112D01*
X131450311Y-84038605D01*
X131450311Y-83971261D01*
X131483982Y-83903918D01*
X131517654Y-83870246D01*
X131584998Y-83836574D01*
X131618669Y-83836574D01*
X132275269Y-83819738D02*
X132073238Y-84021769D01*
X132174253Y-83920753D02*
X131820700Y-83567200D01*
X131837536Y-83651379D01*
X131837536Y-83718723D01*
X131820700Y-83769231D01*
X132241597Y-83146303D02*
X132073238Y-83314662D01*
X132224761Y-83499856D01*
X132224761Y-83466185D01*
X132241597Y-83415677D01*
X132325776Y-83331498D01*
X132376284Y-83314662D01*
X132409956Y-83314662D01*
X132460463Y-83331498D01*
X132544643Y-83415677D01*
X132561478Y-83466185D01*
X132561478Y-83499856D01*
X132544643Y-83550364D01*
X132460463Y-83634543D01*
X132409956Y-83651379D01*
X132376284Y-83651379D01*
%TO.C,D4*%
X119529740Y-92663314D02*
X119529740Y-92163314D01*
X119648788Y-92163314D01*
X119720216Y-92187124D01*
X119767835Y-92234743D01*
X119791645Y-92282362D01*
X119815454Y-92377600D01*
X119815454Y-92449028D01*
X119791645Y-92544266D01*
X119767835Y-92591885D01*
X119720216Y-92639504D01*
X119648788Y-92663314D01*
X119529740Y-92663314D01*
X120244026Y-92329981D02*
X120244026Y-92663314D01*
X120124978Y-92139504D02*
X120005930Y-92496647D01*
X120315454Y-92496647D01*
%TO.C,D3*%
X129099740Y-64018314D02*
X129099740Y-63518314D01*
X129218788Y-63518314D01*
X129290216Y-63542124D01*
X129337835Y-63589743D01*
X129361645Y-63637362D01*
X129385454Y-63732600D01*
X129385454Y-63804028D01*
X129361645Y-63899266D01*
X129337835Y-63946885D01*
X129290216Y-63994504D01*
X129218788Y-64018314D01*
X129099740Y-64018314D01*
X129552121Y-63518314D02*
X129861645Y-63518314D01*
X129694978Y-63708790D01*
X129766407Y-63708790D01*
X129814026Y-63732600D01*
X129837835Y-63756409D01*
X129861645Y-63804028D01*
X129861645Y-63923076D01*
X129837835Y-63970695D01*
X129814026Y-63994504D01*
X129766407Y-64018314D01*
X129623549Y-64018314D01*
X129575930Y-63994504D01*
X129552121Y-63970695D01*
D11*
%TO.C,R22*%
X137924978Y-112033552D02*
X137686883Y-112200219D01*
X137924978Y-112319266D02*
X137424978Y-112319266D01*
X137424978Y-112128790D01*
X137448788Y-112081171D01*
X137472597Y-112057362D01*
X137520216Y-112033552D01*
X137591645Y-112033552D01*
X137639264Y-112057362D01*
X137663073Y-112081171D01*
X137686883Y-112128790D01*
X137686883Y-112319266D01*
X137472597Y-111843076D02*
X137448788Y-111819266D01*
X137424978Y-111771647D01*
X137424978Y-111652600D01*
X137448788Y-111604981D01*
X137472597Y-111581171D01*
X137520216Y-111557362D01*
X137567835Y-111557362D01*
X137639264Y-111581171D01*
X137924978Y-111866885D01*
X137924978Y-111557362D01*
X137472597Y-111366885D02*
X137448788Y-111343076D01*
X137424978Y-111295457D01*
X137424978Y-111176409D01*
X137448788Y-111128790D01*
X137472597Y-111104981D01*
X137520216Y-111081171D01*
X137567835Y-111081171D01*
X137639264Y-111104981D01*
X137924978Y-111390695D01*
X137924978Y-111081171D01*
D12*
%TO.C,P3*%
X125726168Y-90051528D02*
X124726168Y-90051528D01*
X124726168Y-89670576D01*
X124773788Y-89575338D01*
X124821407Y-89527719D01*
X124916645Y-89480100D01*
X125059502Y-89480100D01*
X125154740Y-89527719D01*
X125202359Y-89575338D01*
X125249978Y-89670576D01*
X125249978Y-90051528D01*
X124726168Y-89146766D02*
X124726168Y-88527719D01*
X125107121Y-88861052D01*
X125107121Y-88718195D01*
X125154740Y-88622957D01*
X125202359Y-88575338D01*
X125297597Y-88527719D01*
X125535692Y-88527719D01*
X125630930Y-88575338D01*
X125678549Y-88622957D01*
X125726168Y-88718195D01*
X125726168Y-89003909D01*
X125678549Y-89099147D01*
X125630930Y-89146766D01*
D11*
%TO.C,R19*%
X138874978Y-71558552D02*
X138636883Y-71725219D01*
X138874978Y-71844266D02*
X138374978Y-71844266D01*
X138374978Y-71653790D01*
X138398788Y-71606171D01*
X138422597Y-71582362D01*
X138470216Y-71558552D01*
X138541645Y-71558552D01*
X138589264Y-71582362D01*
X138613073Y-71606171D01*
X138636883Y-71653790D01*
X138636883Y-71844266D01*
X138874978Y-71082362D02*
X138874978Y-71368076D01*
X138874978Y-71225219D02*
X138374978Y-71225219D01*
X138446407Y-71272838D01*
X138494026Y-71320457D01*
X138517835Y-71368076D01*
X138874978Y-70844266D02*
X138874978Y-70749028D01*
X138851168Y-70701409D01*
X138827359Y-70677600D01*
X138755930Y-70629981D01*
X138660692Y-70606171D01*
X138470216Y-70606171D01*
X138422597Y-70629981D01*
X138398788Y-70653790D01*
X138374978Y-70701409D01*
X138374978Y-70796647D01*
X138398788Y-70844266D01*
X138422597Y-70868076D01*
X138470216Y-70891885D01*
X138589264Y-70891885D01*
X138636883Y-70868076D01*
X138660692Y-70844266D01*
X138684502Y-70796647D01*
X138684502Y-70701409D01*
X138660692Y-70653790D01*
X138636883Y-70629981D01*
X138589264Y-70606171D01*
D12*
%TO.C,P4*%
X138501168Y-90226528D02*
X137501168Y-90226528D01*
X137501168Y-89845576D01*
X137548788Y-89750338D01*
X137596407Y-89702719D01*
X137691645Y-89655100D01*
X137834502Y-89655100D01*
X137929740Y-89702719D01*
X137977359Y-89750338D01*
X138024978Y-89845576D01*
X138024978Y-90226528D01*
X137834502Y-88797957D02*
X138501168Y-88797957D01*
X137453549Y-89036052D02*
X138167835Y-89274147D01*
X138167835Y-88655100D01*
%TO.C,P5*%
X138526168Y-65201528D02*
X137526168Y-65201528D01*
X137526168Y-64820576D01*
X137573788Y-64725338D01*
X137621407Y-64677719D01*
X137716645Y-64630100D01*
X137859502Y-64630100D01*
X137954740Y-64677719D01*
X138002359Y-64725338D01*
X138049978Y-64820576D01*
X138049978Y-65201528D01*
X137526168Y-63725338D02*
X137526168Y-64201528D01*
X138002359Y-64249147D01*
X137954740Y-64201528D01*
X137907121Y-64106290D01*
X137907121Y-63868195D01*
X137954740Y-63772957D01*
X138002359Y-63725338D01*
X138097597Y-63677719D01*
X138335692Y-63677719D01*
X138430930Y-63725338D01*
X138478549Y-63772957D01*
X138526168Y-63868195D01*
X138526168Y-64106290D01*
X138478549Y-64201528D01*
X138430930Y-64249147D01*
D11*
%TO.C,R17*%
X128728906Y-71586574D02*
X128678398Y-71872784D01*
X128930936Y-71788605D02*
X128577383Y-72142158D01*
X128442696Y-72007471D01*
X128425860Y-71956963D01*
X128425860Y-71923292D01*
X128442696Y-71872784D01*
X128493203Y-71822276D01*
X128543711Y-71805440D01*
X128577383Y-71805440D01*
X128627890Y-71822276D01*
X128762577Y-71956963D01*
X128392188Y-71249856D02*
X128594219Y-71451887D01*
X128493203Y-71350872D02*
X128139650Y-71704425D01*
X128223829Y-71687589D01*
X128291173Y-71687589D01*
X128341681Y-71704425D01*
X127920784Y-71485559D02*
X127685081Y-71249856D01*
X128190158Y-71047826D01*
%TO.C,R18*%
X119924978Y-74358552D02*
X119686883Y-74525219D01*
X119924978Y-74644266D02*
X119424978Y-74644266D01*
X119424978Y-74453790D01*
X119448788Y-74406171D01*
X119472597Y-74382362D01*
X119520216Y-74358552D01*
X119591645Y-74358552D01*
X119639264Y-74382362D01*
X119663073Y-74406171D01*
X119686883Y-74453790D01*
X119686883Y-74644266D01*
X119924978Y-73882362D02*
X119924978Y-74168076D01*
X119924978Y-74025219D02*
X119424978Y-74025219D01*
X119496407Y-74072838D01*
X119544026Y-74120457D01*
X119567835Y-74168076D01*
X119639264Y-73596647D02*
X119615454Y-73644266D01*
X119591645Y-73668076D01*
X119544026Y-73691885D01*
X119520216Y-73691885D01*
X119472597Y-73668076D01*
X119448788Y-73644266D01*
X119424978Y-73596647D01*
X119424978Y-73501409D01*
X119448788Y-73453790D01*
X119472597Y-73429981D01*
X119520216Y-73406171D01*
X119544026Y-73406171D01*
X119591645Y-73429981D01*
X119615454Y-73453790D01*
X119639264Y-73501409D01*
X119639264Y-73596647D01*
X119663073Y-73644266D01*
X119686883Y-73668076D01*
X119734502Y-73691885D01*
X119829740Y-73691885D01*
X119877359Y-73668076D01*
X119901168Y-73644266D01*
X119924978Y-73596647D01*
X119924978Y-73501409D01*
X119901168Y-73453790D01*
X119877359Y-73429981D01*
X119829740Y-73406171D01*
X119734502Y-73406171D01*
X119686883Y-73429981D01*
X119663073Y-73453790D01*
X119639264Y-73501409D01*
D10*
%TO.C,C23*%
X135197772Y-76690677D02*
X135197772Y-76724349D01*
X135164100Y-76791692D01*
X135130429Y-76825364D01*
X135063085Y-76859036D01*
X134995742Y-76859036D01*
X134945234Y-76842200D01*
X134861055Y-76791692D01*
X134810547Y-76741185D01*
X134760039Y-76657005D01*
X134743204Y-76606498D01*
X134743204Y-76539154D01*
X134776875Y-76471811D01*
X134810547Y-76438139D01*
X134877891Y-76404467D01*
X134911562Y-76404467D01*
X135046249Y-76269780D02*
X135046249Y-76236108D01*
X135063085Y-76185601D01*
X135147265Y-76101421D01*
X135197772Y-76084585D01*
X135231444Y-76084585D01*
X135281952Y-76101421D01*
X135315623Y-76135093D01*
X135349295Y-76202436D01*
X135349295Y-76606498D01*
X135568162Y-76387631D01*
X135332459Y-75916227D02*
X135551326Y-75697360D01*
X135568162Y-75949898D01*
X135618669Y-75899391D01*
X135669177Y-75882555D01*
X135702849Y-75882555D01*
X135753356Y-75899391D01*
X135837536Y-75983570D01*
X135854371Y-76034078D01*
X135854371Y-76067749D01*
X135837536Y-76118257D01*
X135736520Y-76219272D01*
X135686013Y-76236108D01*
X135652341Y-76236108D01*
%TO.C,D8*%
X120574978Y-69081171D02*
X120074978Y-69081171D01*
X120074978Y-68962124D01*
X120098788Y-68890695D01*
X120146407Y-68843076D01*
X120194026Y-68819266D01*
X120289264Y-68795457D01*
X120360692Y-68795457D01*
X120455930Y-68819266D01*
X120503549Y-68843076D01*
X120551168Y-68890695D01*
X120574978Y-68962124D01*
X120574978Y-69081171D01*
X120289264Y-68509743D02*
X120265454Y-68557362D01*
X120241645Y-68581171D01*
X120194026Y-68604981D01*
X120170216Y-68604981D01*
X120122597Y-68581171D01*
X120098788Y-68557362D01*
X120074978Y-68509743D01*
X120074978Y-68414504D01*
X120098788Y-68366885D01*
X120122597Y-68343076D01*
X120170216Y-68319266D01*
X120194026Y-68319266D01*
X120241645Y-68343076D01*
X120265454Y-68366885D01*
X120289264Y-68414504D01*
X120289264Y-68509743D01*
X120313073Y-68557362D01*
X120336883Y-68581171D01*
X120384502Y-68604981D01*
X120479740Y-68604981D01*
X120527359Y-68581171D01*
X120551168Y-68557362D01*
X120574978Y-68509743D01*
X120574978Y-68414504D01*
X120551168Y-68366885D01*
X120527359Y-68343076D01*
X120479740Y-68319266D01*
X120384502Y-68319266D01*
X120336883Y-68343076D01*
X120313073Y-68366885D01*
X120289264Y-68414504D01*
D11*
%TO.C,R11*%
X128127359Y-89663314D02*
X127960692Y-89425219D01*
X127841645Y-89663314D02*
X127841645Y-89163314D01*
X128032121Y-89163314D01*
X128079740Y-89187124D01*
X128103549Y-89210933D01*
X128127359Y-89258552D01*
X128127359Y-89329981D01*
X128103549Y-89377600D01*
X128079740Y-89401409D01*
X128032121Y-89425219D01*
X127841645Y-89425219D01*
X128603549Y-89663314D02*
X128317835Y-89663314D01*
X128460692Y-89663314D02*
X128460692Y-89163314D01*
X128413073Y-89234743D01*
X128365454Y-89282362D01*
X128317835Y-89306171D01*
X129079740Y-89663314D02*
X128794026Y-89663314D01*
X128936883Y-89663314D02*
X128936883Y-89163314D01*
X128889264Y-89234743D01*
X128841645Y-89282362D01*
X128794026Y-89306171D01*
%TO.C,R21*%
X131877359Y-64088314D02*
X131710692Y-63850219D01*
X131591645Y-64088314D02*
X131591645Y-63588314D01*
X131782121Y-63588314D01*
X131829740Y-63612124D01*
X131853549Y-63635933D01*
X131877359Y-63683552D01*
X131877359Y-63754981D01*
X131853549Y-63802600D01*
X131829740Y-63826409D01*
X131782121Y-63850219D01*
X131591645Y-63850219D01*
X132067835Y-63635933D02*
X132091645Y-63612124D01*
X132139264Y-63588314D01*
X132258311Y-63588314D01*
X132305930Y-63612124D01*
X132329740Y-63635933D01*
X132353549Y-63683552D01*
X132353549Y-63731171D01*
X132329740Y-63802600D01*
X132044026Y-64088314D01*
X132353549Y-64088314D01*
X132829740Y-64088314D02*
X132544026Y-64088314D01*
X132686883Y-64088314D02*
X132686883Y-63588314D01*
X132639264Y-63659743D01*
X132591645Y-63707362D01*
X132544026Y-63731171D01*
D10*
%TO.C,C18*%
X123472772Y-74840677D02*
X123472772Y-74874349D01*
X123439100Y-74941692D01*
X123405429Y-74975364D01*
X123338085Y-75009036D01*
X123270742Y-75009036D01*
X123220234Y-74992200D01*
X123136055Y-74941692D01*
X123085547Y-74891185D01*
X123035039Y-74807005D01*
X123018204Y-74756498D01*
X123018204Y-74689154D01*
X123051875Y-74621811D01*
X123085547Y-74588139D01*
X123152891Y-74554467D01*
X123186562Y-74554467D01*
X123843162Y-74537631D02*
X123641131Y-74739662D01*
X123742146Y-74638646D02*
X123388593Y-74285093D01*
X123405429Y-74369272D01*
X123405429Y-74436616D01*
X123388593Y-74487124D01*
X123843162Y-74133570D02*
X123792654Y-74150406D01*
X123758982Y-74150406D01*
X123708475Y-74133570D01*
X123691639Y-74116734D01*
X123674803Y-74066227D01*
X123674803Y-74032555D01*
X123691639Y-73982047D01*
X123758982Y-73914704D01*
X123809490Y-73897868D01*
X123843162Y-73897868D01*
X123893669Y-73914704D01*
X123910505Y-73931540D01*
X123927341Y-73982047D01*
X123927341Y-74015719D01*
X123910505Y-74066227D01*
X123843162Y-74133570D01*
X123826326Y-74184078D01*
X123826326Y-74217749D01*
X123843162Y-74268257D01*
X123910505Y-74335601D01*
X123961013Y-74352436D01*
X123994684Y-74352436D01*
X124045192Y-74335601D01*
X124112536Y-74268257D01*
X124129371Y-74217749D01*
X124129371Y-74184078D01*
X124112536Y-74133570D01*
X124045192Y-74066227D01*
X123994684Y-74049391D01*
X123961013Y-74049391D01*
X123910505Y-74066227D01*
D12*
%TO.C,J2*%
X136951168Y-98090814D02*
X137665454Y-98090814D01*
X137808311Y-98138433D01*
X137903549Y-98233671D01*
X137951168Y-98376528D01*
X137951168Y-98471766D01*
X137046407Y-97662243D02*
X136998788Y-97614624D01*
X136951168Y-97519385D01*
X136951168Y-97281290D01*
X136998788Y-97186052D01*
X137046407Y-97138433D01*
X137141645Y-97090814D01*
X137236883Y-97090814D01*
X137379740Y-97138433D01*
X137951168Y-97709862D01*
X137951168Y-97090814D01*
D11*
%TO.C,R8*%
X126565454Y-65988314D02*
X126398788Y-65750219D01*
X126279740Y-65988314D02*
X126279740Y-65488314D01*
X126470216Y-65488314D01*
X126517835Y-65512124D01*
X126541645Y-65535933D01*
X126565454Y-65583552D01*
X126565454Y-65654981D01*
X126541645Y-65702600D01*
X126517835Y-65726409D01*
X126470216Y-65750219D01*
X126279740Y-65750219D01*
X126851168Y-65702600D02*
X126803549Y-65678790D01*
X126779740Y-65654981D01*
X126755930Y-65607362D01*
X126755930Y-65583552D01*
X126779740Y-65535933D01*
X126803549Y-65512124D01*
X126851168Y-65488314D01*
X126946407Y-65488314D01*
X126994026Y-65512124D01*
X127017835Y-65535933D01*
X127041645Y-65583552D01*
X127041645Y-65607362D01*
X127017835Y-65654981D01*
X126994026Y-65678790D01*
X126946407Y-65702600D01*
X126851168Y-65702600D01*
X126803549Y-65726409D01*
X126779740Y-65750219D01*
X126755930Y-65797838D01*
X126755930Y-65893076D01*
X126779740Y-65940695D01*
X126803549Y-65964504D01*
X126851168Y-65988314D01*
X126946407Y-65988314D01*
X126994026Y-65964504D01*
X127017835Y-65940695D01*
X127041645Y-65893076D01*
X127041645Y-65797838D01*
X127017835Y-65750219D01*
X126994026Y-65726409D01*
X126946407Y-65702600D01*
D10*
%TO.C,D2*%
X138799978Y-84006171D02*
X138299978Y-84006171D01*
X138299978Y-83887124D01*
X138323788Y-83815695D01*
X138371407Y-83768076D01*
X138419026Y-83744266D01*
X138514264Y-83720457D01*
X138585692Y-83720457D01*
X138680930Y-83744266D01*
X138728549Y-83768076D01*
X138776168Y-83815695D01*
X138799978Y-83887124D01*
X138799978Y-84006171D01*
X138347597Y-83529981D02*
X138323788Y-83506171D01*
X138299978Y-83458552D01*
X138299978Y-83339504D01*
X138323788Y-83291885D01*
X138347597Y-83268076D01*
X138395216Y-83244266D01*
X138442835Y-83244266D01*
X138514264Y-83268076D01*
X138799978Y-83553790D01*
X138799978Y-83244266D01*
%TO.C,C11*%
X128627341Y-83463139D02*
X128661013Y-83463139D01*
X128728356Y-83496811D01*
X128762028Y-83530482D01*
X128795700Y-83597826D01*
X128795700Y-83665169D01*
X128778864Y-83715677D01*
X128728356Y-83799856D01*
X128677849Y-83850364D01*
X128593669Y-83900872D01*
X128543162Y-83917707D01*
X128475818Y-83917707D01*
X128408475Y-83884036D01*
X128374803Y-83850364D01*
X128341131Y-83783020D01*
X128341131Y-83749349D01*
X128324295Y-83092749D02*
X128526326Y-83294780D01*
X128425310Y-83193765D02*
X128071757Y-83547318D01*
X128155936Y-83530482D01*
X128223280Y-83530482D01*
X128273788Y-83547318D01*
X127987578Y-82756032D02*
X128189608Y-82958062D01*
X128088593Y-82857047D02*
X127735039Y-83210601D01*
X127819219Y-83193765D01*
X127886562Y-83193765D01*
X127937070Y-83210601D01*
%TO.C,C7*%
X132152359Y-85795457D02*
X132176168Y-85819266D01*
X132199978Y-85890695D01*
X132199978Y-85938314D01*
X132176168Y-86009743D01*
X132128549Y-86057362D01*
X132080930Y-86081171D01*
X131985692Y-86104981D01*
X131914264Y-86104981D01*
X131819026Y-86081171D01*
X131771407Y-86057362D01*
X131723788Y-86009743D01*
X131699978Y-85938314D01*
X131699978Y-85890695D01*
X131723788Y-85819266D01*
X131747597Y-85795457D01*
X131699978Y-85628790D02*
X131699978Y-85295457D01*
X132199978Y-85509743D01*
%TO.C,D9*%
X117924978Y-114531171D02*
X117424978Y-114531171D01*
X117424978Y-114412124D01*
X117448788Y-114340695D01*
X117496407Y-114293076D01*
X117544026Y-114269266D01*
X117639264Y-114245457D01*
X117710692Y-114245457D01*
X117805930Y-114269266D01*
X117853549Y-114293076D01*
X117901168Y-114340695D01*
X117924978Y-114412124D01*
X117924978Y-114531171D01*
X117924978Y-114007362D02*
X117924978Y-113912124D01*
X117901168Y-113864504D01*
X117877359Y-113840695D01*
X117805930Y-113793076D01*
X117710692Y-113769266D01*
X117520216Y-113769266D01*
X117472597Y-113793076D01*
X117448788Y-113816885D01*
X117424978Y-113864504D01*
X117424978Y-113959743D01*
X117448788Y-114007362D01*
X117472597Y-114031171D01*
X117520216Y-114054981D01*
X117639264Y-114054981D01*
X117686883Y-114031171D01*
X117710692Y-114007362D01*
X117734502Y-113959743D01*
X117734502Y-113864504D01*
X117710692Y-113816885D01*
X117686883Y-113793076D01*
X117639264Y-113769266D01*
%TO.C,C1*%
X110927359Y-67495457D02*
X110951168Y-67519266D01*
X110974978Y-67590695D01*
X110974978Y-67638314D01*
X110951168Y-67709743D01*
X110903549Y-67757362D01*
X110855930Y-67781171D01*
X110760692Y-67804981D01*
X110689264Y-67804981D01*
X110594026Y-67781171D01*
X110546407Y-67757362D01*
X110498788Y-67709743D01*
X110474978Y-67638314D01*
X110474978Y-67590695D01*
X110498788Y-67519266D01*
X110522597Y-67495457D01*
X110974978Y-67019266D02*
X110974978Y-67304981D01*
X110974978Y-67162124D02*
X110474978Y-67162124D01*
X110546407Y-67209743D01*
X110594026Y-67257362D01*
X110617835Y-67304981D01*
%TO.C,C22*%
X114827341Y-74463139D02*
X114861013Y-74463139D01*
X114928356Y-74496811D01*
X114962028Y-74530482D01*
X114995700Y-74597826D01*
X114995700Y-74665169D01*
X114978864Y-74715677D01*
X114928356Y-74799856D01*
X114877849Y-74850364D01*
X114793669Y-74900872D01*
X114743162Y-74917707D01*
X114675818Y-74917707D01*
X114608475Y-74884036D01*
X114574803Y-74850364D01*
X114541131Y-74783020D01*
X114541131Y-74749349D01*
X114406444Y-74614662D02*
X114372772Y-74614662D01*
X114322265Y-74597826D01*
X114238085Y-74513646D01*
X114221249Y-74463139D01*
X114221249Y-74429467D01*
X114238085Y-74378959D01*
X114271757Y-74345288D01*
X114339100Y-74311616D01*
X114743162Y-74311616D01*
X114524295Y-74092749D01*
X114069726Y-74277944D02*
X114036055Y-74277944D01*
X113985547Y-74261108D01*
X113901368Y-74176929D01*
X113884532Y-74126421D01*
X113884532Y-74092749D01*
X113901368Y-74042242D01*
X113935039Y-74008570D01*
X114002383Y-73974898D01*
X114406444Y-73974898D01*
X114187578Y-73756032D01*
D11*
%TO.C,R9*%
X99815454Y-93863314D02*
X99648788Y-93625219D01*
X99529740Y-93863314D02*
X99529740Y-93363314D01*
X99720216Y-93363314D01*
X99767835Y-93387124D01*
X99791645Y-93410933D01*
X99815454Y-93458552D01*
X99815454Y-93529981D01*
X99791645Y-93577600D01*
X99767835Y-93601409D01*
X99720216Y-93625219D01*
X99529740Y-93625219D01*
X100053549Y-93863314D02*
X100148788Y-93863314D01*
X100196407Y-93839504D01*
X100220216Y-93815695D01*
X100267835Y-93744266D01*
X100291645Y-93649028D01*
X100291645Y-93458552D01*
X100267835Y-93410933D01*
X100244026Y-93387124D01*
X100196407Y-93363314D01*
X100101168Y-93363314D01*
X100053549Y-93387124D01*
X100029740Y-93410933D01*
X100005930Y-93458552D01*
X100005930Y-93577600D01*
X100029740Y-93625219D01*
X100053549Y-93649028D01*
X100101168Y-93672838D01*
X100196407Y-93672838D01*
X100244026Y-93649028D01*
X100267835Y-93625219D01*
X100291645Y-93577600D01*
D12*
%TO.C,DC1*%
X104837002Y-112739504D02*
X104837002Y-111739504D01*
X105075097Y-111739504D01*
X105217954Y-111787124D01*
X105313192Y-111882362D01*
X105360811Y-111977600D01*
X105408430Y-112168076D01*
X105408430Y-112310933D01*
X105360811Y-112501409D01*
X105313192Y-112596647D01*
X105217954Y-112691885D01*
X105075097Y-112739504D01*
X104837002Y-112739504D01*
X106408430Y-112644266D02*
X106360811Y-112691885D01*
X106217954Y-112739504D01*
X106122716Y-112739504D01*
X105979859Y-112691885D01*
X105884621Y-112596647D01*
X105837002Y-112501409D01*
X105789383Y-112310933D01*
X105789383Y-112168076D01*
X105837002Y-111977600D01*
X105884621Y-111882362D01*
X105979859Y-111787124D01*
X106122716Y-111739504D01*
X106217954Y-111739504D01*
X106360811Y-111787124D01*
X106408430Y-111834743D01*
X107360811Y-112739504D02*
X106789383Y-112739504D01*
X107075097Y-112739504D02*
X107075097Y-111739504D01*
X106979859Y-111882362D01*
X106884621Y-111977600D01*
X106789383Y-112025219D01*
D10*
%TO.C,C19*%
X105790665Y-70758570D02*
X105790665Y-70792242D01*
X105756993Y-70859585D01*
X105723322Y-70893257D01*
X105655978Y-70926929D01*
X105588635Y-70926929D01*
X105538127Y-70910093D01*
X105453948Y-70859585D01*
X105403440Y-70809078D01*
X105352932Y-70724898D01*
X105336097Y-70674391D01*
X105336097Y-70607047D01*
X105369768Y-70539704D01*
X105403440Y-70506032D01*
X105470784Y-70472360D01*
X105504455Y-70472360D01*
X106161055Y-70455524D02*
X105959024Y-70657555D01*
X106060039Y-70556539D02*
X105706486Y-70202986D01*
X105723322Y-70287165D01*
X105723322Y-70354509D01*
X105706486Y-70405017D01*
X106329413Y-70287165D02*
X106396757Y-70219822D01*
X106413593Y-70169314D01*
X106413593Y-70135642D01*
X106396757Y-70051463D01*
X106346249Y-69967284D01*
X106211562Y-69832597D01*
X106161055Y-69815761D01*
X106127383Y-69815761D01*
X106076875Y-69832597D01*
X106009532Y-69899940D01*
X105992696Y-69950448D01*
X105992696Y-69984120D01*
X106009532Y-70034627D01*
X106093711Y-70118807D01*
X106144219Y-70135642D01*
X106177890Y-70135642D01*
X106228398Y-70118807D01*
X106295742Y-70051463D01*
X106312577Y-70000955D01*
X106312577Y-69967284D01*
X106295742Y-69916776D01*
D11*
%TO.C,R12*%
X109127359Y-67388314D02*
X108960692Y-67150219D01*
X108841645Y-67388314D02*
X108841645Y-66888314D01*
X109032121Y-66888314D01*
X109079740Y-66912124D01*
X109103549Y-66935933D01*
X109127359Y-66983552D01*
X109127359Y-67054981D01*
X109103549Y-67102600D01*
X109079740Y-67126409D01*
X109032121Y-67150219D01*
X108841645Y-67150219D01*
X109603549Y-67388314D02*
X109317835Y-67388314D01*
X109460692Y-67388314D02*
X109460692Y-66888314D01*
X109413073Y-66959743D01*
X109365454Y-67007362D01*
X109317835Y-67031171D01*
X109794026Y-66935933D02*
X109817835Y-66912124D01*
X109865454Y-66888314D01*
X109984502Y-66888314D01*
X110032121Y-66912124D01*
X110055930Y-66935933D01*
X110079740Y-66983552D01*
X110079740Y-67031171D01*
X110055930Y-67102600D01*
X109770216Y-67388314D01*
X110079740Y-67388314D01*
D10*
%TO.C,C3*%
X106302359Y-93095457D02*
X106326168Y-93119266D01*
X106349978Y-93190695D01*
X106349978Y-93238314D01*
X106326168Y-93309743D01*
X106278549Y-93357362D01*
X106230930Y-93381171D01*
X106135692Y-93404981D01*
X106064264Y-93404981D01*
X105969026Y-93381171D01*
X105921407Y-93357362D01*
X105873788Y-93309743D01*
X105849978Y-93238314D01*
X105849978Y-93190695D01*
X105873788Y-93119266D01*
X105897597Y-93095457D01*
X105849978Y-92928790D02*
X105849978Y-92619266D01*
X106040454Y-92785933D01*
X106040454Y-92714504D01*
X106064264Y-92666885D01*
X106088073Y-92643076D01*
X106135692Y-92619266D01*
X106254740Y-92619266D01*
X106302359Y-92643076D01*
X106326168Y-92666885D01*
X106349978Y-92714504D01*
X106349978Y-92857362D01*
X106326168Y-92904981D01*
X106302359Y-92928790D01*
%TO.C,D5*%
X99674978Y-87306171D02*
X99174978Y-87306171D01*
X99174978Y-87187124D01*
X99198788Y-87115695D01*
X99246407Y-87068076D01*
X99294026Y-87044266D01*
X99389264Y-87020457D01*
X99460692Y-87020457D01*
X99555930Y-87044266D01*
X99603549Y-87068076D01*
X99651168Y-87115695D01*
X99674978Y-87187124D01*
X99674978Y-87306171D01*
X99174978Y-86568076D02*
X99174978Y-86806171D01*
X99413073Y-86829981D01*
X99389264Y-86806171D01*
X99365454Y-86758552D01*
X99365454Y-86639504D01*
X99389264Y-86591885D01*
X99413073Y-86568076D01*
X99460692Y-86544266D01*
X99579740Y-86544266D01*
X99627359Y-86568076D01*
X99651168Y-86591885D01*
X99674978Y-86639504D01*
X99674978Y-86758552D01*
X99651168Y-86806171D01*
X99627359Y-86829981D01*
D11*
%TO.C,R8*%
X106565454Y-65988314D02*
X106398788Y-65750219D01*
X106279740Y-65988314D02*
X106279740Y-65488314D01*
X106470216Y-65488314D01*
X106517835Y-65512124D01*
X106541645Y-65535933D01*
X106565454Y-65583552D01*
X106565454Y-65654981D01*
X106541645Y-65702600D01*
X106517835Y-65726409D01*
X106470216Y-65750219D01*
X106279740Y-65750219D01*
X106851168Y-65702600D02*
X106803549Y-65678790D01*
X106779740Y-65654981D01*
X106755930Y-65607362D01*
X106755930Y-65583552D01*
X106779740Y-65535933D01*
X106803549Y-65512124D01*
X106851168Y-65488314D01*
X106946407Y-65488314D01*
X106994026Y-65512124D01*
X107017835Y-65535933D01*
X107041645Y-65583552D01*
X107041645Y-65607362D01*
X107017835Y-65654981D01*
X106994026Y-65678790D01*
X106946407Y-65702600D01*
X106851168Y-65702600D01*
X106803549Y-65726409D01*
X106779740Y-65750219D01*
X106755930Y-65797838D01*
X106755930Y-65893076D01*
X106779740Y-65940695D01*
X106803549Y-65964504D01*
X106851168Y-65988314D01*
X106946407Y-65988314D01*
X106994026Y-65964504D01*
X107017835Y-65940695D01*
X107041645Y-65893076D01*
X107041645Y-65797838D01*
X107017835Y-65750219D01*
X106994026Y-65726409D01*
X106946407Y-65702600D01*
D10*
%TO.C,C9*%
X107508982Y-85594780D02*
X107542654Y-85594780D01*
X107609997Y-85628452D01*
X107643669Y-85662124D01*
X107677341Y-85729467D01*
X107677341Y-85796811D01*
X107660505Y-85847318D01*
X107609997Y-85931498D01*
X107559490Y-85982005D01*
X107475310Y-86032513D01*
X107424803Y-86049349D01*
X107357459Y-86049349D01*
X107290116Y-86015677D01*
X107256444Y-85982005D01*
X107222772Y-85914662D01*
X107222772Y-85880990D01*
X107374295Y-85392749D02*
X107306952Y-85325406D01*
X107256444Y-85308570D01*
X107222772Y-85308570D01*
X107138593Y-85325406D01*
X107054413Y-85375914D01*
X106919726Y-85510601D01*
X106902891Y-85561108D01*
X106902891Y-85594780D01*
X106919726Y-85645288D01*
X106987070Y-85712631D01*
X107037578Y-85729467D01*
X107071249Y-85729467D01*
X107121757Y-85712631D01*
X107205936Y-85628452D01*
X107222772Y-85577944D01*
X107222772Y-85544272D01*
X107205936Y-85493765D01*
X107138593Y-85426421D01*
X107088085Y-85409585D01*
X107054413Y-85409585D01*
X107003906Y-85426421D01*
D12*
%TO.C,P1*%
X105401168Y-65051528D02*
X104401168Y-65051528D01*
X104401168Y-64670576D01*
X104448788Y-64575338D01*
X104496407Y-64527719D01*
X104591645Y-64480100D01*
X104734502Y-64480100D01*
X104829740Y-64527719D01*
X104877359Y-64575338D01*
X104924978Y-64670576D01*
X104924978Y-65051528D01*
X105401168Y-63527719D02*
X105401168Y-64099147D01*
X105401168Y-63813433D02*
X104401168Y-63813433D01*
X104544026Y-63908671D01*
X104639264Y-64003909D01*
X104686883Y-64099147D01*
D11*
%TO.C,R17*%
X108728906Y-71586574D02*
X108678398Y-71872784D01*
X108930936Y-71788605D02*
X108577383Y-72142158D01*
X108442696Y-72007471D01*
X108425860Y-71956963D01*
X108425860Y-71923292D01*
X108442696Y-71872784D01*
X108493203Y-71822276D01*
X108543711Y-71805440D01*
X108577383Y-71805440D01*
X108627890Y-71822276D01*
X108762577Y-71956963D01*
X108392188Y-71249856D02*
X108594219Y-71451887D01*
X108493203Y-71350872D02*
X108139650Y-71704425D01*
X108223829Y-71687589D01*
X108291173Y-71687589D01*
X108341681Y-71704425D01*
X107920784Y-71485559D02*
X107685081Y-71249856D01*
X108190158Y-71047826D01*
D10*
%TO.C,C25*%
X113127341Y-72713139D02*
X113161013Y-72713139D01*
X113228356Y-72746811D01*
X113262028Y-72780482D01*
X113295700Y-72847826D01*
X113295700Y-72915169D01*
X113278864Y-72965677D01*
X113228356Y-73049856D01*
X113177849Y-73100364D01*
X113093669Y-73150872D01*
X113043162Y-73167707D01*
X112975818Y-73167707D01*
X112908475Y-73134036D01*
X112874803Y-73100364D01*
X112841131Y-73033020D01*
X112841131Y-72999349D01*
X112706444Y-72864662D02*
X112672772Y-72864662D01*
X112622265Y-72847826D01*
X112538085Y-72763646D01*
X112521249Y-72713139D01*
X112521249Y-72679467D01*
X112538085Y-72628959D01*
X112571757Y-72595288D01*
X112639100Y-72561616D01*
X113043162Y-72561616D01*
X112824295Y-72342749D01*
X112150860Y-72376421D02*
X112319219Y-72544780D01*
X112504413Y-72393257D01*
X112470742Y-72393257D01*
X112420234Y-72376421D01*
X112336055Y-72292242D01*
X112319219Y-72241734D01*
X112319219Y-72208062D01*
X112336055Y-72157555D01*
X112420234Y-72073375D01*
X112470742Y-72056540D01*
X112504413Y-72056540D01*
X112554921Y-72073375D01*
X112639100Y-72157555D01*
X112655936Y-72208062D01*
X112655936Y-72241734D01*
D12*
%TO.C,J2*%
X116951168Y-98090814D02*
X117665454Y-98090814D01*
X117808311Y-98138433D01*
X117903549Y-98233671D01*
X117951168Y-98376528D01*
X117951168Y-98471766D01*
X117046407Y-97662243D02*
X116998788Y-97614624D01*
X116951168Y-97519385D01*
X116951168Y-97281290D01*
X116998788Y-97186052D01*
X117046407Y-97138433D01*
X117141645Y-97090814D01*
X117236883Y-97090814D01*
X117379740Y-97138433D01*
X117951168Y-97709862D01*
X117951168Y-97090814D01*
D10*
%TO.C,C6*%
X101240454Y-103340695D02*
X101216645Y-103364504D01*
X101145216Y-103388314D01*
X101097597Y-103388314D01*
X101026168Y-103364504D01*
X100978549Y-103316885D01*
X100954740Y-103269266D01*
X100930930Y-103174028D01*
X100930930Y-103102600D01*
X100954740Y-103007362D01*
X100978549Y-102959743D01*
X101026168Y-102912124D01*
X101097597Y-102888314D01*
X101145216Y-102888314D01*
X101216645Y-102912124D01*
X101240454Y-102935933D01*
X101669026Y-102888314D02*
X101573788Y-102888314D01*
X101526168Y-102912124D01*
X101502359Y-102935933D01*
X101454740Y-103007362D01*
X101430930Y-103102600D01*
X101430930Y-103293076D01*
X101454740Y-103340695D01*
X101478549Y-103364504D01*
X101526168Y-103388314D01*
X101621407Y-103388314D01*
X101669026Y-103364504D01*
X101692835Y-103340695D01*
X101716645Y-103293076D01*
X101716645Y-103174028D01*
X101692835Y-103126409D01*
X101669026Y-103102600D01*
X101621407Y-103078790D01*
X101526168Y-103078790D01*
X101478549Y-103102600D01*
X101454740Y-103126409D01*
X101430930Y-103174028D01*
%TO.C,D4*%
X99529740Y-92663314D02*
X99529740Y-92163314D01*
X99648788Y-92163314D01*
X99720216Y-92187124D01*
X99767835Y-92234743D01*
X99791645Y-92282362D01*
X99815454Y-92377600D01*
X99815454Y-92449028D01*
X99791645Y-92544266D01*
X99767835Y-92591885D01*
X99720216Y-92639504D01*
X99648788Y-92663314D01*
X99529740Y-92663314D01*
X100244026Y-92329981D02*
X100244026Y-92663314D01*
X100124978Y-92139504D02*
X100005930Y-92496647D01*
X100315454Y-92496647D01*
%TO.C,C7*%
X112152359Y-85795457D02*
X112176168Y-85819266D01*
X112199978Y-85890695D01*
X112199978Y-85938314D01*
X112176168Y-86009743D01*
X112128549Y-86057362D01*
X112080930Y-86081171D01*
X111985692Y-86104981D01*
X111914264Y-86104981D01*
X111819026Y-86081171D01*
X111771407Y-86057362D01*
X111723788Y-86009743D01*
X111699978Y-85938314D01*
X111699978Y-85890695D01*
X111723788Y-85819266D01*
X111747597Y-85795457D01*
X111699978Y-85628790D02*
X111699978Y-85295457D01*
X112199978Y-85509743D01*
%TO.C,C15*%
X111904879Y-84122784D02*
X111904879Y-84156456D01*
X111871207Y-84223799D01*
X111837536Y-84257471D01*
X111770192Y-84291143D01*
X111702849Y-84291143D01*
X111652341Y-84274307D01*
X111568162Y-84223799D01*
X111517654Y-84173292D01*
X111467146Y-84089112D01*
X111450311Y-84038605D01*
X111450311Y-83971261D01*
X111483982Y-83903918D01*
X111517654Y-83870246D01*
X111584998Y-83836574D01*
X111618669Y-83836574D01*
X112275269Y-83819738D02*
X112073238Y-84021769D01*
X112174253Y-83920753D02*
X111820700Y-83567200D01*
X111837536Y-83651379D01*
X111837536Y-83718723D01*
X111820700Y-83769231D01*
X112241597Y-83146303D02*
X112073238Y-83314662D01*
X112224761Y-83499856D01*
X112224761Y-83466185D01*
X112241597Y-83415677D01*
X112325776Y-83331498D01*
X112376284Y-83314662D01*
X112409956Y-83314662D01*
X112460463Y-83331498D01*
X112544643Y-83415677D01*
X112561478Y-83466185D01*
X112561478Y-83499856D01*
X112544643Y-83550364D01*
X112460463Y-83634543D01*
X112409956Y-83651379D01*
X112376284Y-83651379D01*
D11*
%TO.C,R20*%
X112152359Y-69688314D02*
X111985692Y-69450219D01*
X111866645Y-69688314D02*
X111866645Y-69188314D01*
X112057121Y-69188314D01*
X112104740Y-69212124D01*
X112128549Y-69235933D01*
X112152359Y-69283552D01*
X112152359Y-69354981D01*
X112128549Y-69402600D01*
X112104740Y-69426409D01*
X112057121Y-69450219D01*
X111866645Y-69450219D01*
X112342835Y-69235933D02*
X112366645Y-69212124D01*
X112414264Y-69188314D01*
X112533311Y-69188314D01*
X112580930Y-69212124D01*
X112604740Y-69235933D01*
X112628549Y-69283552D01*
X112628549Y-69331171D01*
X112604740Y-69402600D01*
X112319026Y-69688314D01*
X112628549Y-69688314D01*
X112938073Y-69188314D02*
X112985692Y-69188314D01*
X113033311Y-69212124D01*
X113057121Y-69235933D01*
X113080930Y-69283552D01*
X113104740Y-69378790D01*
X113104740Y-69497838D01*
X113080930Y-69593076D01*
X113057121Y-69640695D01*
X113033311Y-69664504D01*
X112985692Y-69688314D01*
X112938073Y-69688314D01*
X112890454Y-69664504D01*
X112866645Y-69640695D01*
X112842835Y-69593076D01*
X112819026Y-69497838D01*
X112819026Y-69378790D01*
X112842835Y-69283552D01*
X112866645Y-69235933D01*
X112890454Y-69212124D01*
X112938073Y-69188314D01*
D10*
%TO.C,C24*%
X111352341Y-70963139D02*
X111386013Y-70963139D01*
X111453356Y-70996811D01*
X111487028Y-71030482D01*
X111520700Y-71097826D01*
X111520700Y-71165169D01*
X111503864Y-71215677D01*
X111453356Y-71299856D01*
X111402849Y-71350364D01*
X111318669Y-71400872D01*
X111268162Y-71417707D01*
X111200818Y-71417707D01*
X111133475Y-71384036D01*
X111099803Y-71350364D01*
X111066131Y-71283020D01*
X111066131Y-71249349D01*
X110931444Y-71114662D02*
X110897772Y-71114662D01*
X110847265Y-71097826D01*
X110763085Y-71013646D01*
X110746249Y-70963139D01*
X110746249Y-70929467D01*
X110763085Y-70878959D01*
X110796757Y-70845288D01*
X110864100Y-70811616D01*
X111268162Y-70811616D01*
X111049295Y-70592749D01*
X110510547Y-70525406D02*
X110746249Y-70289704D01*
X110460039Y-70744272D02*
X110796757Y-70575914D01*
X110577891Y-70357047D01*
%TO.C,C4*%
X101477359Y-114670457D02*
X101501168Y-114694266D01*
X101524978Y-114765695D01*
X101524978Y-114813314D01*
X101501168Y-114884743D01*
X101453549Y-114932362D01*
X101405930Y-114956171D01*
X101310692Y-114979981D01*
X101239264Y-114979981D01*
X101144026Y-114956171D01*
X101096407Y-114932362D01*
X101048788Y-114884743D01*
X101024978Y-114813314D01*
X101024978Y-114765695D01*
X101048788Y-114694266D01*
X101072597Y-114670457D01*
X101191645Y-114241885D02*
X101524978Y-114241885D01*
X101001168Y-114360933D02*
X101358311Y-114479981D01*
X101358311Y-114170457D01*
%TO.C,C5*%
X107058982Y-87294780D02*
X107092654Y-87294780D01*
X107159997Y-87328452D01*
X107193669Y-87362124D01*
X107227341Y-87429467D01*
X107227341Y-87496811D01*
X107210505Y-87547318D01*
X107159997Y-87631498D01*
X107109490Y-87682005D01*
X107025310Y-87732513D01*
X106974803Y-87749349D01*
X106907459Y-87749349D01*
X106840116Y-87715677D01*
X106806444Y-87682005D01*
X106772772Y-87614662D01*
X106772772Y-87580990D01*
X106419219Y-87294780D02*
X106587578Y-87463139D01*
X106772772Y-87311616D01*
X106739100Y-87311616D01*
X106688593Y-87294780D01*
X106604413Y-87210601D01*
X106587578Y-87160093D01*
X106587578Y-87126421D01*
X106604413Y-87075914D01*
X106688593Y-86991734D01*
X106739100Y-86974898D01*
X106772772Y-86974898D01*
X106823280Y-86991734D01*
X106907459Y-87075914D01*
X106924295Y-87126421D01*
X106924295Y-87160093D01*
D12*
%TO.C,Y1*%
X117545234Y-80332005D02*
X117881952Y-80668723D01*
X116939143Y-80197318D02*
X117545234Y-80332005D01*
X117410547Y-79725914D01*
X118723745Y-79826929D02*
X118319684Y-80230990D01*
X118521715Y-80028959D02*
X117814608Y-79321853D01*
X117848280Y-79490211D01*
X117848280Y-79624898D01*
X117814608Y-79725914D01*
%TO.C,U3*%
X101947814Y-77088646D02*
X102520234Y-77661066D01*
X102621249Y-77694738D01*
X102688593Y-77694738D01*
X102789608Y-77661066D01*
X102924295Y-77526379D01*
X102957967Y-77425364D01*
X102957967Y-77358020D01*
X102924295Y-77257005D01*
X102351875Y-76684585D01*
X102621249Y-76415211D02*
X103058982Y-75977479D01*
X103092654Y-76482555D01*
X103193669Y-76381540D01*
X103294684Y-76347868D01*
X103362028Y-76347868D01*
X103463043Y-76381540D01*
X103631402Y-76549898D01*
X103665074Y-76650914D01*
X103665074Y-76718257D01*
X103631402Y-76819272D01*
X103429371Y-77021303D01*
X103328356Y-77054975D01*
X103261013Y-77054975D01*
%TO.C,P5*%
X118526168Y-65201528D02*
X117526168Y-65201528D01*
X117526168Y-64820576D01*
X117573788Y-64725338D01*
X117621407Y-64677719D01*
X117716645Y-64630100D01*
X117859502Y-64630100D01*
X117954740Y-64677719D01*
X118002359Y-64725338D01*
X118049978Y-64820576D01*
X118049978Y-65201528D01*
X117526168Y-63725338D02*
X117526168Y-64201528D01*
X118002359Y-64249147D01*
X117954740Y-64201528D01*
X117907121Y-64106290D01*
X117907121Y-63868195D01*
X117954740Y-63772957D01*
X118002359Y-63725338D01*
X118097597Y-63677719D01*
X118335692Y-63677719D01*
X118430930Y-63725338D01*
X118478549Y-63772957D01*
X118526168Y-63868195D01*
X118526168Y-64106290D01*
X118478549Y-64201528D01*
X118430930Y-64249147D01*
D10*
%TO.C,C21*%
X117477341Y-75288139D02*
X117511013Y-75288139D01*
X117578356Y-75321811D01*
X117612028Y-75355482D01*
X117645700Y-75422826D01*
X117645700Y-75490169D01*
X117628864Y-75540677D01*
X117578356Y-75624856D01*
X117527849Y-75675364D01*
X117443669Y-75725872D01*
X117393162Y-75742707D01*
X117325818Y-75742707D01*
X117258475Y-75709036D01*
X117224803Y-75675364D01*
X117191131Y-75608020D01*
X117191131Y-75574349D01*
X117056444Y-75439662D02*
X117022772Y-75439662D01*
X116972265Y-75422826D01*
X116888085Y-75338646D01*
X116871249Y-75288139D01*
X116871249Y-75254467D01*
X116888085Y-75203959D01*
X116921757Y-75170288D01*
X116989100Y-75136616D01*
X117393162Y-75136616D01*
X117174295Y-74917749D01*
X116837578Y-74581032D02*
X117039608Y-74783062D01*
X116938593Y-74682047D02*
X116585039Y-75035601D01*
X116669219Y-75018765D01*
X116736562Y-75018765D01*
X116787070Y-75035601D01*
%TO.C,D6*%
X110404740Y-89588314D02*
X110404740Y-89088314D01*
X110523788Y-89088314D01*
X110595216Y-89112124D01*
X110642835Y-89159743D01*
X110666645Y-89207362D01*
X110690454Y-89302600D01*
X110690454Y-89374028D01*
X110666645Y-89469266D01*
X110642835Y-89516885D01*
X110595216Y-89564504D01*
X110523788Y-89588314D01*
X110404740Y-89588314D01*
X111119026Y-89088314D02*
X111023788Y-89088314D01*
X110976168Y-89112124D01*
X110952359Y-89135933D01*
X110904740Y-89207362D01*
X110880930Y-89302600D01*
X110880930Y-89493076D01*
X110904740Y-89540695D01*
X110928549Y-89564504D01*
X110976168Y-89588314D01*
X111071407Y-89588314D01*
X111119026Y-89564504D01*
X111142835Y-89540695D01*
X111166645Y-89493076D01*
X111166645Y-89374028D01*
X111142835Y-89326409D01*
X111119026Y-89302600D01*
X111071407Y-89278790D01*
X110976168Y-89278790D01*
X110928549Y-89302600D01*
X110904740Y-89326409D01*
X110880930Y-89374028D01*
D11*
%TO.C,R2*%
X107165454Y-69438314D02*
X106998788Y-69200219D01*
X106879740Y-69438314D02*
X106879740Y-68938314D01*
X107070216Y-68938314D01*
X107117835Y-68962124D01*
X107141645Y-68985933D01*
X107165454Y-69033552D01*
X107165454Y-69104981D01*
X107141645Y-69152600D01*
X107117835Y-69176409D01*
X107070216Y-69200219D01*
X106879740Y-69200219D01*
X107355930Y-68985933D02*
X107379740Y-68962124D01*
X107427359Y-68938314D01*
X107546407Y-68938314D01*
X107594026Y-68962124D01*
X107617835Y-68985933D01*
X107641645Y-69033552D01*
X107641645Y-69081171D01*
X107617835Y-69152600D01*
X107332121Y-69438314D01*
X107641645Y-69438314D01*
D10*
%TO.C,C11*%
X108627341Y-83463139D02*
X108661013Y-83463139D01*
X108728356Y-83496811D01*
X108762028Y-83530482D01*
X108795700Y-83597826D01*
X108795700Y-83665169D01*
X108778864Y-83715677D01*
X108728356Y-83799856D01*
X108677849Y-83850364D01*
X108593669Y-83900872D01*
X108543162Y-83917707D01*
X108475818Y-83917707D01*
X108408475Y-83884036D01*
X108374803Y-83850364D01*
X108341131Y-83783020D01*
X108341131Y-83749349D01*
X108324295Y-83092749D02*
X108526326Y-83294780D01*
X108425310Y-83193765D02*
X108071757Y-83547318D01*
X108155936Y-83530482D01*
X108223280Y-83530482D01*
X108273788Y-83547318D01*
X107987578Y-82756032D02*
X108189608Y-82958062D01*
X108088593Y-82857047D02*
X107735039Y-83210601D01*
X107819219Y-83193765D01*
X107886562Y-83193765D01*
X107937070Y-83210601D01*
%TO.C,D3*%
X109099740Y-64018314D02*
X109099740Y-63518314D01*
X109218788Y-63518314D01*
X109290216Y-63542124D01*
X109337835Y-63589743D01*
X109361645Y-63637362D01*
X109385454Y-63732600D01*
X109385454Y-63804028D01*
X109361645Y-63899266D01*
X109337835Y-63946885D01*
X109290216Y-63994504D01*
X109218788Y-64018314D01*
X109099740Y-64018314D01*
X109552121Y-63518314D02*
X109861645Y-63518314D01*
X109694978Y-63708790D01*
X109766407Y-63708790D01*
X109814026Y-63732600D01*
X109837835Y-63756409D01*
X109861645Y-63804028D01*
X109861645Y-63923076D01*
X109837835Y-63970695D01*
X109814026Y-63994504D01*
X109766407Y-64018314D01*
X109623549Y-64018314D01*
X109575930Y-63994504D01*
X109552121Y-63970695D01*
D11*
%TO.C,R22*%
X117924978Y-112033552D02*
X117686883Y-112200219D01*
X117924978Y-112319266D02*
X117424978Y-112319266D01*
X117424978Y-112128790D01*
X117448788Y-112081171D01*
X117472597Y-112057362D01*
X117520216Y-112033552D01*
X117591645Y-112033552D01*
X117639264Y-112057362D01*
X117663073Y-112081171D01*
X117686883Y-112128790D01*
X117686883Y-112319266D01*
X117472597Y-111843076D02*
X117448788Y-111819266D01*
X117424978Y-111771647D01*
X117424978Y-111652600D01*
X117448788Y-111604981D01*
X117472597Y-111581171D01*
X117520216Y-111557362D01*
X117567835Y-111557362D01*
X117639264Y-111581171D01*
X117924978Y-111866885D01*
X117924978Y-111557362D01*
X117472597Y-111366885D02*
X117448788Y-111343076D01*
X117424978Y-111295457D01*
X117424978Y-111176409D01*
X117448788Y-111128790D01*
X117472597Y-111104981D01*
X117520216Y-111081171D01*
X117567835Y-111081171D01*
X117639264Y-111104981D01*
X117924978Y-111390695D01*
X117924978Y-111081171D01*
D10*
%TO.C,D2*%
X118799978Y-84006171D02*
X118299978Y-84006171D01*
X118299978Y-83887124D01*
X118323788Y-83815695D01*
X118371407Y-83768076D01*
X118419026Y-83744266D01*
X118514264Y-83720457D01*
X118585692Y-83720457D01*
X118680930Y-83744266D01*
X118728549Y-83768076D01*
X118776168Y-83815695D01*
X118799978Y-83887124D01*
X118799978Y-84006171D01*
X118347597Y-83529981D02*
X118323788Y-83506171D01*
X118299978Y-83458552D01*
X118299978Y-83339504D01*
X118323788Y-83291885D01*
X118347597Y-83268076D01*
X118395216Y-83244266D01*
X118442835Y-83244266D01*
X118514264Y-83268076D01*
X118799978Y-83553790D01*
X118799978Y-83244266D01*
D12*
%TO.C,P3*%
X105726168Y-90051528D02*
X104726168Y-90051528D01*
X104726168Y-89670576D01*
X104773788Y-89575338D01*
X104821407Y-89527719D01*
X104916645Y-89480100D01*
X105059502Y-89480100D01*
X105154740Y-89527719D01*
X105202359Y-89575338D01*
X105249978Y-89670576D01*
X105249978Y-90051528D01*
X104726168Y-89146766D02*
X104726168Y-88527719D01*
X105107121Y-88861052D01*
X105107121Y-88718195D01*
X105154740Y-88622957D01*
X105202359Y-88575338D01*
X105297597Y-88527719D01*
X105535692Y-88527719D01*
X105630930Y-88575338D01*
X105678549Y-88622957D01*
X105726168Y-88718195D01*
X105726168Y-89003909D01*
X105678549Y-89099147D01*
X105630930Y-89146766D01*
D11*
%TO.C,R11*%
X108127359Y-89663314D02*
X107960692Y-89425219D01*
X107841645Y-89663314D02*
X107841645Y-89163314D01*
X108032121Y-89163314D01*
X108079740Y-89187124D01*
X108103549Y-89210933D01*
X108127359Y-89258552D01*
X108127359Y-89329981D01*
X108103549Y-89377600D01*
X108079740Y-89401409D01*
X108032121Y-89425219D01*
X107841645Y-89425219D01*
X108603549Y-89663314D02*
X108317835Y-89663314D01*
X108460692Y-89663314D02*
X108460692Y-89163314D01*
X108413073Y-89234743D01*
X108365454Y-89282362D01*
X108317835Y-89306171D01*
X109079740Y-89663314D02*
X108794026Y-89663314D01*
X108936883Y-89663314D02*
X108936883Y-89163314D01*
X108889264Y-89234743D01*
X108841645Y-89282362D01*
X108794026Y-89306171D01*
%TO.C,R19*%
X118874978Y-71558552D02*
X118636883Y-71725219D01*
X118874978Y-71844266D02*
X118374978Y-71844266D01*
X118374978Y-71653790D01*
X118398788Y-71606171D01*
X118422597Y-71582362D01*
X118470216Y-71558552D01*
X118541645Y-71558552D01*
X118589264Y-71582362D01*
X118613073Y-71606171D01*
X118636883Y-71653790D01*
X118636883Y-71844266D01*
X118874978Y-71082362D02*
X118874978Y-71368076D01*
X118874978Y-71225219D02*
X118374978Y-71225219D01*
X118446407Y-71272838D01*
X118494026Y-71320457D01*
X118517835Y-71368076D01*
X118874978Y-70844266D02*
X118874978Y-70749028D01*
X118851168Y-70701409D01*
X118827359Y-70677600D01*
X118755930Y-70629981D01*
X118660692Y-70606171D01*
X118470216Y-70606171D01*
X118422597Y-70629981D01*
X118398788Y-70653790D01*
X118374978Y-70701409D01*
X118374978Y-70796647D01*
X118398788Y-70844266D01*
X118422597Y-70868076D01*
X118470216Y-70891885D01*
X118589264Y-70891885D01*
X118636883Y-70868076D01*
X118660692Y-70844266D01*
X118684502Y-70796647D01*
X118684502Y-70701409D01*
X118660692Y-70653790D01*
X118636883Y-70629981D01*
X118589264Y-70606171D01*
%TO.C,R18*%
X99924978Y-74358552D02*
X99686883Y-74525219D01*
X99924978Y-74644266D02*
X99424978Y-74644266D01*
X99424978Y-74453790D01*
X99448788Y-74406171D01*
X99472597Y-74382362D01*
X99520216Y-74358552D01*
X99591645Y-74358552D01*
X99639264Y-74382362D01*
X99663073Y-74406171D01*
X99686883Y-74453790D01*
X99686883Y-74644266D01*
X99924978Y-73882362D02*
X99924978Y-74168076D01*
X99924978Y-74025219D02*
X99424978Y-74025219D01*
X99496407Y-74072838D01*
X99544026Y-74120457D01*
X99567835Y-74168076D01*
X99639264Y-73596647D02*
X99615454Y-73644266D01*
X99591645Y-73668076D01*
X99544026Y-73691885D01*
X99520216Y-73691885D01*
X99472597Y-73668076D01*
X99448788Y-73644266D01*
X99424978Y-73596647D01*
X99424978Y-73501409D01*
X99448788Y-73453790D01*
X99472597Y-73429981D01*
X99520216Y-73406171D01*
X99544026Y-73406171D01*
X99591645Y-73429981D01*
X99615454Y-73453790D01*
X99639264Y-73501409D01*
X99639264Y-73596647D01*
X99663073Y-73644266D01*
X99686883Y-73668076D01*
X99734502Y-73691885D01*
X99829740Y-73691885D01*
X99877359Y-73668076D01*
X99901168Y-73644266D01*
X99924978Y-73596647D01*
X99924978Y-73501409D01*
X99901168Y-73453790D01*
X99877359Y-73429981D01*
X99829740Y-73406171D01*
X99734502Y-73406171D01*
X99686883Y-73429981D01*
X99663073Y-73453790D01*
X99639264Y-73501409D01*
D10*
%TO.C,D8*%
X100574978Y-69081171D02*
X100074978Y-69081171D01*
X100074978Y-68962124D01*
X100098788Y-68890695D01*
X100146407Y-68843076D01*
X100194026Y-68819266D01*
X100289264Y-68795457D01*
X100360692Y-68795457D01*
X100455930Y-68819266D01*
X100503549Y-68843076D01*
X100551168Y-68890695D01*
X100574978Y-68962124D01*
X100574978Y-69081171D01*
X100289264Y-68509743D02*
X100265454Y-68557362D01*
X100241645Y-68581171D01*
X100194026Y-68604981D01*
X100170216Y-68604981D01*
X100122597Y-68581171D01*
X100098788Y-68557362D01*
X100074978Y-68509743D01*
X100074978Y-68414504D01*
X100098788Y-68366885D01*
X100122597Y-68343076D01*
X100170216Y-68319266D01*
X100194026Y-68319266D01*
X100241645Y-68343076D01*
X100265454Y-68366885D01*
X100289264Y-68414504D01*
X100289264Y-68509743D01*
X100313073Y-68557362D01*
X100336883Y-68581171D01*
X100384502Y-68604981D01*
X100479740Y-68604981D01*
X100527359Y-68581171D01*
X100551168Y-68557362D01*
X100574978Y-68509743D01*
X100574978Y-68414504D01*
X100551168Y-68366885D01*
X100527359Y-68343076D01*
X100479740Y-68319266D01*
X100384502Y-68319266D01*
X100336883Y-68343076D01*
X100313073Y-68366885D01*
X100289264Y-68414504D01*
D12*
%TO.C,U1*%
X103251168Y-98674028D02*
X104060692Y-98674028D01*
X104155930Y-98626409D01*
X104203549Y-98578790D01*
X104251168Y-98483552D01*
X104251168Y-98293076D01*
X104203549Y-98197838D01*
X104155930Y-98150219D01*
X104060692Y-98102600D01*
X103251168Y-98102600D01*
X104251168Y-97102600D02*
X104251168Y-97674028D01*
X104251168Y-97388314D02*
X103251168Y-97388314D01*
X103394026Y-97483552D01*
X103489264Y-97578790D01*
X103536883Y-97674028D01*
D11*
%TO.C,R16*%
X99899978Y-75908552D02*
X99661883Y-76075219D01*
X99899978Y-76194266D02*
X99399978Y-76194266D01*
X99399978Y-76003790D01*
X99423788Y-75956171D01*
X99447597Y-75932362D01*
X99495216Y-75908552D01*
X99566645Y-75908552D01*
X99614264Y-75932362D01*
X99638073Y-75956171D01*
X99661883Y-76003790D01*
X99661883Y-76194266D01*
X99899978Y-75432362D02*
X99899978Y-75718076D01*
X99899978Y-75575219D02*
X99399978Y-75575219D01*
X99471407Y-75622838D01*
X99519026Y-75670457D01*
X99542835Y-75718076D01*
X99399978Y-75003790D02*
X99399978Y-75099028D01*
X99423788Y-75146647D01*
X99447597Y-75170457D01*
X99519026Y-75218076D01*
X99614264Y-75241885D01*
X99804740Y-75241885D01*
X99852359Y-75218076D01*
X99876168Y-75194266D01*
X99899978Y-75146647D01*
X99899978Y-75051409D01*
X99876168Y-75003790D01*
X99852359Y-74979981D01*
X99804740Y-74956171D01*
X99685692Y-74956171D01*
X99638073Y-74979981D01*
X99614264Y-75003790D01*
X99590454Y-75051409D01*
X99590454Y-75146647D01*
X99614264Y-75194266D01*
X99638073Y-75218076D01*
X99685692Y-75241885D01*
D10*
%TO.C,D7*%
X118799978Y-69031171D02*
X118299978Y-69031171D01*
X118299978Y-68912124D01*
X118323788Y-68840695D01*
X118371407Y-68793076D01*
X118419026Y-68769266D01*
X118514264Y-68745457D01*
X118585692Y-68745457D01*
X118680930Y-68769266D01*
X118728549Y-68793076D01*
X118776168Y-68840695D01*
X118799978Y-68912124D01*
X118799978Y-69031171D01*
X118299978Y-68578790D02*
X118299978Y-68245457D01*
X118799978Y-68459743D01*
D11*
%TO.C,R21*%
X111877359Y-64088314D02*
X111710692Y-63850219D01*
X111591645Y-64088314D02*
X111591645Y-63588314D01*
X111782121Y-63588314D01*
X111829740Y-63612124D01*
X111853549Y-63635933D01*
X111877359Y-63683552D01*
X111877359Y-63754981D01*
X111853549Y-63802600D01*
X111829740Y-63826409D01*
X111782121Y-63850219D01*
X111591645Y-63850219D01*
X112067835Y-63635933D02*
X112091645Y-63612124D01*
X112139264Y-63588314D01*
X112258311Y-63588314D01*
X112305930Y-63612124D01*
X112329740Y-63635933D01*
X112353549Y-63683552D01*
X112353549Y-63731171D01*
X112329740Y-63802600D01*
X112044026Y-64088314D01*
X112353549Y-64088314D01*
X112829740Y-64088314D02*
X112544026Y-64088314D01*
X112686883Y-64088314D02*
X112686883Y-63588314D01*
X112639264Y-63659743D01*
X112591645Y-63707362D01*
X112544026Y-63731171D01*
D10*
%TO.C,C18*%
X103472772Y-74840677D02*
X103472772Y-74874349D01*
X103439100Y-74941692D01*
X103405429Y-74975364D01*
X103338085Y-75009036D01*
X103270742Y-75009036D01*
X103220234Y-74992200D01*
X103136055Y-74941692D01*
X103085547Y-74891185D01*
X103035039Y-74807005D01*
X103018204Y-74756498D01*
X103018204Y-74689154D01*
X103051875Y-74621811D01*
X103085547Y-74588139D01*
X103152891Y-74554467D01*
X103186562Y-74554467D01*
X103843162Y-74537631D02*
X103641131Y-74739662D01*
X103742146Y-74638646D02*
X103388593Y-74285093D01*
X103405429Y-74369272D01*
X103405429Y-74436616D01*
X103388593Y-74487124D01*
X103843162Y-74133570D02*
X103792654Y-74150406D01*
X103758982Y-74150406D01*
X103708475Y-74133570D01*
X103691639Y-74116734D01*
X103674803Y-74066227D01*
X103674803Y-74032555D01*
X103691639Y-73982047D01*
X103758982Y-73914704D01*
X103809490Y-73897868D01*
X103843162Y-73897868D01*
X103893669Y-73914704D01*
X103910505Y-73931540D01*
X103927341Y-73982047D01*
X103927341Y-74015719D01*
X103910505Y-74066227D01*
X103843162Y-74133570D01*
X103826326Y-74184078D01*
X103826326Y-74217749D01*
X103843162Y-74268257D01*
X103910505Y-74335601D01*
X103961013Y-74352436D01*
X103994684Y-74352436D01*
X104045192Y-74335601D01*
X104112536Y-74268257D01*
X104129371Y-74217749D01*
X104129371Y-74184078D01*
X104112536Y-74133570D01*
X104045192Y-74066227D01*
X103994684Y-74049391D01*
X103961013Y-74049391D01*
X103910505Y-74066227D01*
D12*
%TO.C,P4*%
X118501168Y-90226528D02*
X117501168Y-90226528D01*
X117501168Y-89845576D01*
X117548788Y-89750338D01*
X117596407Y-89702719D01*
X117691645Y-89655100D01*
X117834502Y-89655100D01*
X117929740Y-89702719D01*
X117977359Y-89750338D01*
X118024978Y-89845576D01*
X118024978Y-90226528D01*
X117834502Y-88797957D02*
X118501168Y-88797957D01*
X117453549Y-89036052D02*
X118167835Y-89274147D01*
X118167835Y-88655100D01*
D10*
%TO.C,C23*%
X115197772Y-76690677D02*
X115197772Y-76724349D01*
X115164100Y-76791692D01*
X115130429Y-76825364D01*
X115063085Y-76859036D01*
X114995742Y-76859036D01*
X114945234Y-76842200D01*
X114861055Y-76791692D01*
X114810547Y-76741185D01*
X114760039Y-76657005D01*
X114743204Y-76606498D01*
X114743204Y-76539154D01*
X114776875Y-76471811D01*
X114810547Y-76438139D01*
X114877891Y-76404467D01*
X114911562Y-76404467D01*
X115046249Y-76269780D02*
X115046249Y-76236108D01*
X115063085Y-76185601D01*
X115147265Y-76101421D01*
X115197772Y-76084585D01*
X115231444Y-76084585D01*
X115281952Y-76101421D01*
X115315623Y-76135093D01*
X115349295Y-76202436D01*
X115349295Y-76606498D01*
X115568162Y-76387631D01*
X115332459Y-75916227D02*
X115551326Y-75697360D01*
X115568162Y-75949898D01*
X115618669Y-75899391D01*
X115669177Y-75882555D01*
X115702849Y-75882555D01*
X115753356Y-75899391D01*
X115837536Y-75983570D01*
X115854371Y-76034078D01*
X115854371Y-76067749D01*
X115837536Y-76118257D01*
X115736520Y-76219272D01*
X115686013Y-76236108D01*
X115652341Y-76236108D01*
%TO.C,C1*%
X90927359Y-67495457D02*
X90951168Y-67519266D01*
X90974978Y-67590695D01*
X90974978Y-67638314D01*
X90951168Y-67709743D01*
X90903549Y-67757362D01*
X90855930Y-67781171D01*
X90760692Y-67804981D01*
X90689264Y-67804981D01*
X90594026Y-67781171D01*
X90546407Y-67757362D01*
X90498788Y-67709743D01*
X90474978Y-67638314D01*
X90474978Y-67590695D01*
X90498788Y-67519266D01*
X90522597Y-67495457D01*
X90974978Y-67019266D02*
X90974978Y-67304981D01*
X90974978Y-67162124D02*
X90474978Y-67162124D01*
X90546407Y-67209743D01*
X90594026Y-67257362D01*
X90617835Y-67304981D01*
%TO.C,C24*%
X91352341Y-70963139D02*
X91386013Y-70963139D01*
X91453356Y-70996811D01*
X91487028Y-71030482D01*
X91520700Y-71097826D01*
X91520700Y-71165169D01*
X91503864Y-71215677D01*
X91453356Y-71299856D01*
X91402849Y-71350364D01*
X91318669Y-71400872D01*
X91268162Y-71417707D01*
X91200818Y-71417707D01*
X91133475Y-71384036D01*
X91099803Y-71350364D01*
X91066131Y-71283020D01*
X91066131Y-71249349D01*
X90931444Y-71114662D02*
X90897772Y-71114662D01*
X90847265Y-71097826D01*
X90763085Y-71013646D01*
X90746249Y-70963139D01*
X90746249Y-70929467D01*
X90763085Y-70878959D01*
X90796757Y-70845288D01*
X90864100Y-70811616D01*
X91268162Y-70811616D01*
X91049295Y-70592749D01*
X90510547Y-70525406D02*
X90746249Y-70289704D01*
X90460039Y-70744272D02*
X90796757Y-70575914D01*
X90577891Y-70357047D01*
%TO.C,D9*%
X97924978Y-114531171D02*
X97424978Y-114531171D01*
X97424978Y-114412124D01*
X97448788Y-114340695D01*
X97496407Y-114293076D01*
X97544026Y-114269266D01*
X97639264Y-114245457D01*
X97710692Y-114245457D01*
X97805930Y-114269266D01*
X97853549Y-114293076D01*
X97901168Y-114340695D01*
X97924978Y-114412124D01*
X97924978Y-114531171D01*
X97924978Y-114007362D02*
X97924978Y-113912124D01*
X97901168Y-113864504D01*
X97877359Y-113840695D01*
X97805930Y-113793076D01*
X97710692Y-113769266D01*
X97520216Y-113769266D01*
X97472597Y-113793076D01*
X97448788Y-113816885D01*
X97424978Y-113864504D01*
X97424978Y-113959743D01*
X97448788Y-114007362D01*
X97472597Y-114031171D01*
X97520216Y-114054981D01*
X97639264Y-114054981D01*
X97686883Y-114031171D01*
X97710692Y-114007362D01*
X97734502Y-113959743D01*
X97734502Y-113864504D01*
X97710692Y-113816885D01*
X97686883Y-113793076D01*
X97639264Y-113769266D01*
%TO.C,C15*%
X91904879Y-84122784D02*
X91904879Y-84156456D01*
X91871207Y-84223799D01*
X91837536Y-84257471D01*
X91770192Y-84291143D01*
X91702849Y-84291143D01*
X91652341Y-84274307D01*
X91568162Y-84223799D01*
X91517654Y-84173292D01*
X91467146Y-84089112D01*
X91450311Y-84038605D01*
X91450311Y-83971261D01*
X91483982Y-83903918D01*
X91517654Y-83870246D01*
X91584998Y-83836574D01*
X91618669Y-83836574D01*
X92275269Y-83819738D02*
X92073238Y-84021769D01*
X92174253Y-83920753D02*
X91820700Y-83567200D01*
X91837536Y-83651379D01*
X91837536Y-83718723D01*
X91820700Y-83769231D01*
X92241597Y-83146303D02*
X92073238Y-83314662D01*
X92224761Y-83499856D01*
X92224761Y-83466185D01*
X92241597Y-83415677D01*
X92325776Y-83331498D01*
X92376284Y-83314662D01*
X92409956Y-83314662D01*
X92460463Y-83331498D01*
X92544643Y-83415677D01*
X92561478Y-83466185D01*
X92561478Y-83499856D01*
X92544643Y-83550364D01*
X92460463Y-83634543D01*
X92409956Y-83651379D01*
X92376284Y-83651379D01*
%TO.C,C6*%
X81240454Y-103340695D02*
X81216645Y-103364504D01*
X81145216Y-103388314D01*
X81097597Y-103388314D01*
X81026168Y-103364504D01*
X80978549Y-103316885D01*
X80954740Y-103269266D01*
X80930930Y-103174028D01*
X80930930Y-103102600D01*
X80954740Y-103007362D01*
X80978549Y-102959743D01*
X81026168Y-102912124D01*
X81097597Y-102888314D01*
X81145216Y-102888314D01*
X81216645Y-102912124D01*
X81240454Y-102935933D01*
X81669026Y-102888314D02*
X81573788Y-102888314D01*
X81526168Y-102912124D01*
X81502359Y-102935933D01*
X81454740Y-103007362D01*
X81430930Y-103102600D01*
X81430930Y-103293076D01*
X81454740Y-103340695D01*
X81478549Y-103364504D01*
X81526168Y-103388314D01*
X81621407Y-103388314D01*
X81669026Y-103364504D01*
X81692835Y-103340695D01*
X81716645Y-103293076D01*
X81716645Y-103174028D01*
X81692835Y-103126409D01*
X81669026Y-103102600D01*
X81621407Y-103078790D01*
X81526168Y-103078790D01*
X81478549Y-103102600D01*
X81454740Y-103126409D01*
X81430930Y-103174028D01*
%TO.C,C7*%
X92152359Y-85795457D02*
X92176168Y-85819266D01*
X92199978Y-85890695D01*
X92199978Y-85938314D01*
X92176168Y-86009743D01*
X92128549Y-86057362D01*
X92080930Y-86081171D01*
X91985692Y-86104981D01*
X91914264Y-86104981D01*
X91819026Y-86081171D01*
X91771407Y-86057362D01*
X91723788Y-86009743D01*
X91699978Y-85938314D01*
X91699978Y-85890695D01*
X91723788Y-85819266D01*
X91747597Y-85795457D01*
X91699978Y-85628790D02*
X91699978Y-85295457D01*
X92199978Y-85509743D01*
%TO.C,C25*%
X93127341Y-72713139D02*
X93161013Y-72713139D01*
X93228356Y-72746811D01*
X93262028Y-72780482D01*
X93295700Y-72847826D01*
X93295700Y-72915169D01*
X93278864Y-72965677D01*
X93228356Y-73049856D01*
X93177849Y-73100364D01*
X93093669Y-73150872D01*
X93043162Y-73167707D01*
X92975818Y-73167707D01*
X92908475Y-73134036D01*
X92874803Y-73100364D01*
X92841131Y-73033020D01*
X92841131Y-72999349D01*
X92706444Y-72864662D02*
X92672772Y-72864662D01*
X92622265Y-72847826D01*
X92538085Y-72763646D01*
X92521249Y-72713139D01*
X92521249Y-72679467D01*
X92538085Y-72628959D01*
X92571757Y-72595288D01*
X92639100Y-72561616D01*
X93043162Y-72561616D01*
X92824295Y-72342749D01*
X92150860Y-72376421D02*
X92319219Y-72544780D01*
X92504413Y-72393257D01*
X92470742Y-72393257D01*
X92420234Y-72376421D01*
X92336055Y-72292242D01*
X92319219Y-72241734D01*
X92319219Y-72208062D01*
X92336055Y-72157555D01*
X92420234Y-72073375D01*
X92470742Y-72056540D01*
X92504413Y-72056540D01*
X92554921Y-72073375D01*
X92639100Y-72157555D01*
X92655936Y-72208062D01*
X92655936Y-72241734D01*
D11*
%TO.C,R20*%
X92152359Y-69688314D02*
X91985692Y-69450219D01*
X91866645Y-69688314D02*
X91866645Y-69188314D01*
X92057121Y-69188314D01*
X92104740Y-69212124D01*
X92128549Y-69235933D01*
X92152359Y-69283552D01*
X92152359Y-69354981D01*
X92128549Y-69402600D01*
X92104740Y-69426409D01*
X92057121Y-69450219D01*
X91866645Y-69450219D01*
X92342835Y-69235933D02*
X92366645Y-69212124D01*
X92414264Y-69188314D01*
X92533311Y-69188314D01*
X92580930Y-69212124D01*
X92604740Y-69235933D01*
X92628549Y-69283552D01*
X92628549Y-69331171D01*
X92604740Y-69402600D01*
X92319026Y-69688314D01*
X92628549Y-69688314D01*
X92938073Y-69188314D02*
X92985692Y-69188314D01*
X93033311Y-69212124D01*
X93057121Y-69235933D01*
X93080930Y-69283552D01*
X93104740Y-69378790D01*
X93104740Y-69497838D01*
X93080930Y-69593076D01*
X93057121Y-69640695D01*
X93033311Y-69664504D01*
X92985692Y-69688314D01*
X92938073Y-69688314D01*
X92890454Y-69664504D01*
X92866645Y-69640695D01*
X92842835Y-69593076D01*
X92819026Y-69497838D01*
X92819026Y-69378790D01*
X92842835Y-69283552D01*
X92866645Y-69235933D01*
X92890454Y-69212124D01*
X92938073Y-69188314D01*
D10*
%TO.C,C22*%
X94827341Y-74463139D02*
X94861013Y-74463139D01*
X94928356Y-74496811D01*
X94962028Y-74530482D01*
X94995700Y-74597826D01*
X94995700Y-74665169D01*
X94978864Y-74715677D01*
X94928356Y-74799856D01*
X94877849Y-74850364D01*
X94793669Y-74900872D01*
X94743162Y-74917707D01*
X94675818Y-74917707D01*
X94608475Y-74884036D01*
X94574803Y-74850364D01*
X94541131Y-74783020D01*
X94541131Y-74749349D01*
X94406444Y-74614662D02*
X94372772Y-74614662D01*
X94322265Y-74597826D01*
X94238085Y-74513646D01*
X94221249Y-74463139D01*
X94221249Y-74429467D01*
X94238085Y-74378959D01*
X94271757Y-74345288D01*
X94339100Y-74311616D01*
X94743162Y-74311616D01*
X94524295Y-74092749D01*
X94069726Y-74277944D02*
X94036055Y-74277944D01*
X93985547Y-74261108D01*
X93901368Y-74176929D01*
X93884532Y-74126421D01*
X93884532Y-74092749D01*
X93901368Y-74042242D01*
X93935039Y-74008570D01*
X94002383Y-73974898D01*
X94406444Y-73974898D01*
X94187578Y-73756032D01*
%TO.C,D3*%
X89099740Y-64018314D02*
X89099740Y-63518314D01*
X89218788Y-63518314D01*
X89290216Y-63542124D01*
X89337835Y-63589743D01*
X89361645Y-63637362D01*
X89385454Y-63732600D01*
X89385454Y-63804028D01*
X89361645Y-63899266D01*
X89337835Y-63946885D01*
X89290216Y-63994504D01*
X89218788Y-64018314D01*
X89099740Y-64018314D01*
X89552121Y-63518314D02*
X89861645Y-63518314D01*
X89694978Y-63708790D01*
X89766407Y-63708790D01*
X89814026Y-63732600D01*
X89837835Y-63756409D01*
X89861645Y-63804028D01*
X89861645Y-63923076D01*
X89837835Y-63970695D01*
X89814026Y-63994504D01*
X89766407Y-64018314D01*
X89623549Y-64018314D01*
X89575930Y-63994504D01*
X89552121Y-63970695D01*
D12*
%TO.C,P5*%
X98526168Y-65201528D02*
X97526168Y-65201528D01*
X97526168Y-64820576D01*
X97573788Y-64725338D01*
X97621407Y-64677719D01*
X97716645Y-64630100D01*
X97859502Y-64630100D01*
X97954740Y-64677719D01*
X98002359Y-64725338D01*
X98049978Y-64820576D01*
X98049978Y-65201528D01*
X97526168Y-63725338D02*
X97526168Y-64201528D01*
X98002359Y-64249147D01*
X97954740Y-64201528D01*
X97907121Y-64106290D01*
X97907121Y-63868195D01*
X97954740Y-63772957D01*
X98002359Y-63725338D01*
X98097597Y-63677719D01*
X98335692Y-63677719D01*
X98430930Y-63725338D01*
X98478549Y-63772957D01*
X98526168Y-63868195D01*
X98526168Y-64106290D01*
X98478549Y-64201528D01*
X98430930Y-64249147D01*
D10*
%TO.C,C4*%
X81477359Y-114670457D02*
X81501168Y-114694266D01*
X81524978Y-114765695D01*
X81524978Y-114813314D01*
X81501168Y-114884743D01*
X81453549Y-114932362D01*
X81405930Y-114956171D01*
X81310692Y-114979981D01*
X81239264Y-114979981D01*
X81144026Y-114956171D01*
X81096407Y-114932362D01*
X81048788Y-114884743D01*
X81024978Y-114813314D01*
X81024978Y-114765695D01*
X81048788Y-114694266D01*
X81072597Y-114670457D01*
X81191645Y-114241885D02*
X81524978Y-114241885D01*
X81001168Y-114360933D02*
X81358311Y-114479981D01*
X81358311Y-114170457D01*
D12*
%TO.C,J2*%
X96951168Y-98090814D02*
X97665454Y-98090814D01*
X97808311Y-98138433D01*
X97903549Y-98233671D01*
X97951168Y-98376528D01*
X97951168Y-98471766D01*
X97046407Y-97662243D02*
X96998788Y-97614624D01*
X96951168Y-97519385D01*
X96951168Y-97281290D01*
X96998788Y-97186052D01*
X97046407Y-97138433D01*
X97141645Y-97090814D01*
X97236883Y-97090814D01*
X97379740Y-97138433D01*
X97951168Y-97709862D01*
X97951168Y-97090814D01*
%TO.C,P4*%
X98501168Y-90226528D02*
X97501168Y-90226528D01*
X97501168Y-89845576D01*
X97548788Y-89750338D01*
X97596407Y-89702719D01*
X97691645Y-89655100D01*
X97834502Y-89655100D01*
X97929740Y-89702719D01*
X97977359Y-89750338D01*
X98024978Y-89845576D01*
X98024978Y-90226528D01*
X97834502Y-88797957D02*
X98501168Y-88797957D01*
X97453549Y-89036052D02*
X98167835Y-89274147D01*
X98167835Y-88655100D01*
D11*
%TO.C,R11*%
X88127359Y-89663314D02*
X87960692Y-89425219D01*
X87841645Y-89663314D02*
X87841645Y-89163314D01*
X88032121Y-89163314D01*
X88079740Y-89187124D01*
X88103549Y-89210933D01*
X88127359Y-89258552D01*
X88127359Y-89329981D01*
X88103549Y-89377600D01*
X88079740Y-89401409D01*
X88032121Y-89425219D01*
X87841645Y-89425219D01*
X88603549Y-89663314D02*
X88317835Y-89663314D01*
X88460692Y-89663314D02*
X88460692Y-89163314D01*
X88413073Y-89234743D01*
X88365454Y-89282362D01*
X88317835Y-89306171D01*
X89079740Y-89663314D02*
X88794026Y-89663314D01*
X88936883Y-89663314D02*
X88936883Y-89163314D01*
X88889264Y-89234743D01*
X88841645Y-89282362D01*
X88794026Y-89306171D01*
D10*
%TO.C,C23*%
X95197772Y-76690677D02*
X95197772Y-76724349D01*
X95164100Y-76791692D01*
X95130429Y-76825364D01*
X95063085Y-76859036D01*
X94995742Y-76859036D01*
X94945234Y-76842200D01*
X94861055Y-76791692D01*
X94810547Y-76741185D01*
X94760039Y-76657005D01*
X94743204Y-76606498D01*
X94743204Y-76539154D01*
X94776875Y-76471811D01*
X94810547Y-76438139D01*
X94877891Y-76404467D01*
X94911562Y-76404467D01*
X95046249Y-76269780D02*
X95046249Y-76236108D01*
X95063085Y-76185601D01*
X95147265Y-76101421D01*
X95197772Y-76084585D01*
X95231444Y-76084585D01*
X95281952Y-76101421D01*
X95315623Y-76135093D01*
X95349295Y-76202436D01*
X95349295Y-76606498D01*
X95568162Y-76387631D01*
X95332459Y-75916227D02*
X95551326Y-75697360D01*
X95568162Y-75949898D01*
X95618669Y-75899391D01*
X95669177Y-75882555D01*
X95702849Y-75882555D01*
X95753356Y-75899391D01*
X95837536Y-75983570D01*
X95854371Y-76034078D01*
X95854371Y-76067749D01*
X95837536Y-76118257D01*
X95736520Y-76219272D01*
X95686013Y-76236108D01*
X95652341Y-76236108D01*
D11*
%TO.C,R22*%
X97924978Y-112033552D02*
X97686883Y-112200219D01*
X97924978Y-112319266D02*
X97424978Y-112319266D01*
X97424978Y-112128790D01*
X97448788Y-112081171D01*
X97472597Y-112057362D01*
X97520216Y-112033552D01*
X97591645Y-112033552D01*
X97639264Y-112057362D01*
X97663073Y-112081171D01*
X97686883Y-112128790D01*
X97686883Y-112319266D01*
X97472597Y-111843076D02*
X97448788Y-111819266D01*
X97424978Y-111771647D01*
X97424978Y-111652600D01*
X97448788Y-111604981D01*
X97472597Y-111581171D01*
X97520216Y-111557362D01*
X97567835Y-111557362D01*
X97639264Y-111581171D01*
X97924978Y-111866885D01*
X97924978Y-111557362D01*
X97472597Y-111366885D02*
X97448788Y-111343076D01*
X97424978Y-111295457D01*
X97424978Y-111176409D01*
X97448788Y-111128790D01*
X97472597Y-111104981D01*
X97520216Y-111081171D01*
X97567835Y-111081171D01*
X97639264Y-111104981D01*
X97924978Y-111390695D01*
X97924978Y-111081171D01*
%TO.C,R19*%
X98874978Y-71558552D02*
X98636883Y-71725219D01*
X98874978Y-71844266D02*
X98374978Y-71844266D01*
X98374978Y-71653790D01*
X98398788Y-71606171D01*
X98422597Y-71582362D01*
X98470216Y-71558552D01*
X98541645Y-71558552D01*
X98589264Y-71582362D01*
X98613073Y-71606171D01*
X98636883Y-71653790D01*
X98636883Y-71844266D01*
X98874978Y-71082362D02*
X98874978Y-71368076D01*
X98874978Y-71225219D02*
X98374978Y-71225219D01*
X98446407Y-71272838D01*
X98494026Y-71320457D01*
X98517835Y-71368076D01*
X98874978Y-70844266D02*
X98874978Y-70749028D01*
X98851168Y-70701409D01*
X98827359Y-70677600D01*
X98755930Y-70629981D01*
X98660692Y-70606171D01*
X98470216Y-70606171D01*
X98422597Y-70629981D01*
X98398788Y-70653790D01*
X98374978Y-70701409D01*
X98374978Y-70796647D01*
X98398788Y-70844266D01*
X98422597Y-70868076D01*
X98470216Y-70891885D01*
X98589264Y-70891885D01*
X98636883Y-70868076D01*
X98660692Y-70844266D01*
X98684502Y-70796647D01*
X98684502Y-70701409D01*
X98660692Y-70653790D01*
X98636883Y-70629981D01*
X98589264Y-70606171D01*
D12*
%TO.C,P3*%
X85726168Y-90051528D02*
X84726168Y-90051528D01*
X84726168Y-89670576D01*
X84773788Y-89575338D01*
X84821407Y-89527719D01*
X84916645Y-89480100D01*
X85059502Y-89480100D01*
X85154740Y-89527719D01*
X85202359Y-89575338D01*
X85249978Y-89670576D01*
X85249978Y-90051528D01*
X84726168Y-89146766D02*
X84726168Y-88527719D01*
X85107121Y-88861052D01*
X85107121Y-88718195D01*
X85154740Y-88622957D01*
X85202359Y-88575338D01*
X85297597Y-88527719D01*
X85535692Y-88527719D01*
X85630930Y-88575338D01*
X85678549Y-88622957D01*
X85726168Y-88718195D01*
X85726168Y-89003909D01*
X85678549Y-89099147D01*
X85630930Y-89146766D01*
D10*
%TO.C,C18*%
X83472772Y-74840677D02*
X83472772Y-74874349D01*
X83439100Y-74941692D01*
X83405429Y-74975364D01*
X83338085Y-75009036D01*
X83270742Y-75009036D01*
X83220234Y-74992200D01*
X83136055Y-74941692D01*
X83085547Y-74891185D01*
X83035039Y-74807005D01*
X83018204Y-74756498D01*
X83018204Y-74689154D01*
X83051875Y-74621811D01*
X83085547Y-74588139D01*
X83152891Y-74554467D01*
X83186562Y-74554467D01*
X83843162Y-74537631D02*
X83641131Y-74739662D01*
X83742146Y-74638646D02*
X83388593Y-74285093D01*
X83405429Y-74369272D01*
X83405429Y-74436616D01*
X83388593Y-74487124D01*
X83843162Y-74133570D02*
X83792654Y-74150406D01*
X83758982Y-74150406D01*
X83708475Y-74133570D01*
X83691639Y-74116734D01*
X83674803Y-74066227D01*
X83674803Y-74032555D01*
X83691639Y-73982047D01*
X83758982Y-73914704D01*
X83809490Y-73897868D01*
X83843162Y-73897868D01*
X83893669Y-73914704D01*
X83910505Y-73931540D01*
X83927341Y-73982047D01*
X83927341Y-74015719D01*
X83910505Y-74066227D01*
X83843162Y-74133570D01*
X83826326Y-74184078D01*
X83826326Y-74217749D01*
X83843162Y-74268257D01*
X83910505Y-74335601D01*
X83961013Y-74352436D01*
X83994684Y-74352436D01*
X84045192Y-74335601D01*
X84112536Y-74268257D01*
X84129371Y-74217749D01*
X84129371Y-74184078D01*
X84112536Y-74133570D01*
X84045192Y-74066227D01*
X83994684Y-74049391D01*
X83961013Y-74049391D01*
X83910505Y-74066227D01*
D11*
%TO.C,R21*%
X91877359Y-64088314D02*
X91710692Y-63850219D01*
X91591645Y-64088314D02*
X91591645Y-63588314D01*
X91782121Y-63588314D01*
X91829740Y-63612124D01*
X91853549Y-63635933D01*
X91877359Y-63683552D01*
X91877359Y-63754981D01*
X91853549Y-63802600D01*
X91829740Y-63826409D01*
X91782121Y-63850219D01*
X91591645Y-63850219D01*
X92067835Y-63635933D02*
X92091645Y-63612124D01*
X92139264Y-63588314D01*
X92258311Y-63588314D01*
X92305930Y-63612124D01*
X92329740Y-63635933D01*
X92353549Y-63683552D01*
X92353549Y-63731171D01*
X92329740Y-63802600D01*
X92044026Y-64088314D01*
X92353549Y-64088314D01*
X92829740Y-64088314D02*
X92544026Y-64088314D01*
X92686883Y-64088314D02*
X92686883Y-63588314D01*
X92639264Y-63659743D01*
X92591645Y-63707362D01*
X92544026Y-63731171D01*
D10*
%TO.C,D2*%
X98799978Y-84006171D02*
X98299978Y-84006171D01*
X98299978Y-83887124D01*
X98323788Y-83815695D01*
X98371407Y-83768076D01*
X98419026Y-83744266D01*
X98514264Y-83720457D01*
X98585692Y-83720457D01*
X98680930Y-83744266D01*
X98728549Y-83768076D01*
X98776168Y-83815695D01*
X98799978Y-83887124D01*
X98799978Y-84006171D01*
X98347597Y-83529981D02*
X98323788Y-83506171D01*
X98299978Y-83458552D01*
X98299978Y-83339504D01*
X98323788Y-83291885D01*
X98347597Y-83268076D01*
X98395216Y-83244266D01*
X98442835Y-83244266D01*
X98514264Y-83268076D01*
X98799978Y-83553790D01*
X98799978Y-83244266D01*
D11*
%TO.C,R8*%
X86565454Y-65988314D02*
X86398788Y-65750219D01*
X86279740Y-65988314D02*
X86279740Y-65488314D01*
X86470216Y-65488314D01*
X86517835Y-65512124D01*
X86541645Y-65535933D01*
X86565454Y-65583552D01*
X86565454Y-65654981D01*
X86541645Y-65702600D01*
X86517835Y-65726409D01*
X86470216Y-65750219D01*
X86279740Y-65750219D01*
X86851168Y-65702600D02*
X86803549Y-65678790D01*
X86779740Y-65654981D01*
X86755930Y-65607362D01*
X86755930Y-65583552D01*
X86779740Y-65535933D01*
X86803549Y-65512124D01*
X86851168Y-65488314D01*
X86946407Y-65488314D01*
X86994026Y-65512124D01*
X87017835Y-65535933D01*
X87041645Y-65583552D01*
X87041645Y-65607362D01*
X87017835Y-65654981D01*
X86994026Y-65678790D01*
X86946407Y-65702600D01*
X86851168Y-65702600D01*
X86803549Y-65726409D01*
X86779740Y-65750219D01*
X86755930Y-65797838D01*
X86755930Y-65893076D01*
X86779740Y-65940695D01*
X86803549Y-65964504D01*
X86851168Y-65988314D01*
X86946407Y-65988314D01*
X86994026Y-65964504D01*
X87017835Y-65940695D01*
X87041645Y-65893076D01*
X87041645Y-65797838D01*
X87017835Y-65750219D01*
X86994026Y-65726409D01*
X86946407Y-65702600D01*
D10*
%TO.C,C3*%
X86302359Y-93095457D02*
X86326168Y-93119266D01*
X86349978Y-93190695D01*
X86349978Y-93238314D01*
X86326168Y-93309743D01*
X86278549Y-93357362D01*
X86230930Y-93381171D01*
X86135692Y-93404981D01*
X86064264Y-93404981D01*
X85969026Y-93381171D01*
X85921407Y-93357362D01*
X85873788Y-93309743D01*
X85849978Y-93238314D01*
X85849978Y-93190695D01*
X85873788Y-93119266D01*
X85897597Y-93095457D01*
X85849978Y-92928790D02*
X85849978Y-92619266D01*
X86040454Y-92785933D01*
X86040454Y-92714504D01*
X86064264Y-92666885D01*
X86088073Y-92643076D01*
X86135692Y-92619266D01*
X86254740Y-92619266D01*
X86302359Y-92643076D01*
X86326168Y-92666885D01*
X86349978Y-92714504D01*
X86349978Y-92857362D01*
X86326168Y-92904981D01*
X86302359Y-92928790D01*
%TO.C,C21*%
X97477341Y-75288139D02*
X97511013Y-75288139D01*
X97578356Y-75321811D01*
X97612028Y-75355482D01*
X97645700Y-75422826D01*
X97645700Y-75490169D01*
X97628864Y-75540677D01*
X97578356Y-75624856D01*
X97527849Y-75675364D01*
X97443669Y-75725872D01*
X97393162Y-75742707D01*
X97325818Y-75742707D01*
X97258475Y-75709036D01*
X97224803Y-75675364D01*
X97191131Y-75608020D01*
X97191131Y-75574349D01*
X97056444Y-75439662D02*
X97022772Y-75439662D01*
X96972265Y-75422826D01*
X96888085Y-75338646D01*
X96871249Y-75288139D01*
X96871249Y-75254467D01*
X96888085Y-75203959D01*
X96921757Y-75170288D01*
X96989100Y-75136616D01*
X97393162Y-75136616D01*
X97174295Y-74917749D01*
X96837578Y-74581032D02*
X97039608Y-74783062D01*
X96938593Y-74682047D02*
X96585039Y-75035601D01*
X96669219Y-75018765D01*
X96736562Y-75018765D01*
X96787070Y-75035601D01*
D11*
%TO.C,R12*%
X89127359Y-67388314D02*
X88960692Y-67150219D01*
X88841645Y-67388314D02*
X88841645Y-66888314D01*
X89032121Y-66888314D01*
X89079740Y-66912124D01*
X89103549Y-66935933D01*
X89127359Y-66983552D01*
X89127359Y-67054981D01*
X89103549Y-67102600D01*
X89079740Y-67126409D01*
X89032121Y-67150219D01*
X88841645Y-67150219D01*
X89603549Y-67388314D02*
X89317835Y-67388314D01*
X89460692Y-67388314D02*
X89460692Y-66888314D01*
X89413073Y-66959743D01*
X89365454Y-67007362D01*
X89317835Y-67031171D01*
X89794026Y-66935933D02*
X89817835Y-66912124D01*
X89865454Y-66888314D01*
X89984502Y-66888314D01*
X90032121Y-66912124D01*
X90055930Y-66935933D01*
X90079740Y-66983552D01*
X90079740Y-67031171D01*
X90055930Y-67102600D01*
X89770216Y-67388314D01*
X90079740Y-67388314D01*
D10*
%TO.C,D4*%
X79529740Y-92663314D02*
X79529740Y-92163314D01*
X79648788Y-92163314D01*
X79720216Y-92187124D01*
X79767835Y-92234743D01*
X79791645Y-92282362D01*
X79815454Y-92377600D01*
X79815454Y-92449028D01*
X79791645Y-92544266D01*
X79767835Y-92591885D01*
X79720216Y-92639504D01*
X79648788Y-92663314D01*
X79529740Y-92663314D01*
X80244026Y-92329981D02*
X80244026Y-92663314D01*
X80124978Y-92139504D02*
X80005930Y-92496647D01*
X80315454Y-92496647D01*
D11*
%TO.C,R2*%
X87165454Y-69438314D02*
X86998788Y-69200219D01*
X86879740Y-69438314D02*
X86879740Y-68938314D01*
X87070216Y-68938314D01*
X87117835Y-68962124D01*
X87141645Y-68985933D01*
X87165454Y-69033552D01*
X87165454Y-69104981D01*
X87141645Y-69152600D01*
X87117835Y-69176409D01*
X87070216Y-69200219D01*
X86879740Y-69200219D01*
X87355930Y-68985933D02*
X87379740Y-68962124D01*
X87427359Y-68938314D01*
X87546407Y-68938314D01*
X87594026Y-68962124D01*
X87617835Y-68985933D01*
X87641645Y-69033552D01*
X87641645Y-69081171D01*
X87617835Y-69152600D01*
X87332121Y-69438314D01*
X87641645Y-69438314D01*
D10*
%TO.C,C9*%
X87508982Y-85594780D02*
X87542654Y-85594780D01*
X87609997Y-85628452D01*
X87643669Y-85662124D01*
X87677341Y-85729467D01*
X87677341Y-85796811D01*
X87660505Y-85847318D01*
X87609997Y-85931498D01*
X87559490Y-85982005D01*
X87475310Y-86032513D01*
X87424803Y-86049349D01*
X87357459Y-86049349D01*
X87290116Y-86015677D01*
X87256444Y-85982005D01*
X87222772Y-85914662D01*
X87222772Y-85880990D01*
X87374295Y-85392749D02*
X87306952Y-85325406D01*
X87256444Y-85308570D01*
X87222772Y-85308570D01*
X87138593Y-85325406D01*
X87054413Y-85375914D01*
X86919726Y-85510601D01*
X86902891Y-85561108D01*
X86902891Y-85594780D01*
X86919726Y-85645288D01*
X86987070Y-85712631D01*
X87037578Y-85729467D01*
X87071249Y-85729467D01*
X87121757Y-85712631D01*
X87205936Y-85628452D01*
X87222772Y-85577944D01*
X87222772Y-85544272D01*
X87205936Y-85493765D01*
X87138593Y-85426421D01*
X87088085Y-85409585D01*
X87054413Y-85409585D01*
X87003906Y-85426421D01*
%TO.C,D5*%
X79674978Y-87306171D02*
X79174978Y-87306171D01*
X79174978Y-87187124D01*
X79198788Y-87115695D01*
X79246407Y-87068076D01*
X79294026Y-87044266D01*
X79389264Y-87020457D01*
X79460692Y-87020457D01*
X79555930Y-87044266D01*
X79603549Y-87068076D01*
X79651168Y-87115695D01*
X79674978Y-87187124D01*
X79674978Y-87306171D01*
X79174978Y-86568076D02*
X79174978Y-86806171D01*
X79413073Y-86829981D01*
X79389264Y-86806171D01*
X79365454Y-86758552D01*
X79365454Y-86639504D01*
X79389264Y-86591885D01*
X79413073Y-86568076D01*
X79460692Y-86544266D01*
X79579740Y-86544266D01*
X79627359Y-86568076D01*
X79651168Y-86591885D01*
X79674978Y-86639504D01*
X79674978Y-86758552D01*
X79651168Y-86806171D01*
X79627359Y-86829981D01*
%TO.C,C11*%
X88627341Y-83463139D02*
X88661013Y-83463139D01*
X88728356Y-83496811D01*
X88762028Y-83530482D01*
X88795700Y-83597826D01*
X88795700Y-83665169D01*
X88778864Y-83715677D01*
X88728356Y-83799856D01*
X88677849Y-83850364D01*
X88593669Y-83900872D01*
X88543162Y-83917707D01*
X88475818Y-83917707D01*
X88408475Y-83884036D01*
X88374803Y-83850364D01*
X88341131Y-83783020D01*
X88341131Y-83749349D01*
X88324295Y-83092749D02*
X88526326Y-83294780D01*
X88425310Y-83193765D02*
X88071757Y-83547318D01*
X88155936Y-83530482D01*
X88223280Y-83530482D01*
X88273788Y-83547318D01*
X87987578Y-82756032D02*
X88189608Y-82958062D01*
X88088593Y-82857047D02*
X87735039Y-83210601D01*
X87819219Y-83193765D01*
X87886562Y-83193765D01*
X87937070Y-83210601D01*
%TO.C,D8*%
X80574978Y-69081171D02*
X80074978Y-69081171D01*
X80074978Y-68962124D01*
X80098788Y-68890695D01*
X80146407Y-68843076D01*
X80194026Y-68819266D01*
X80289264Y-68795457D01*
X80360692Y-68795457D01*
X80455930Y-68819266D01*
X80503549Y-68843076D01*
X80551168Y-68890695D01*
X80574978Y-68962124D01*
X80574978Y-69081171D01*
X80289264Y-68509743D02*
X80265454Y-68557362D01*
X80241645Y-68581171D01*
X80194026Y-68604981D01*
X80170216Y-68604981D01*
X80122597Y-68581171D01*
X80098788Y-68557362D01*
X80074978Y-68509743D01*
X80074978Y-68414504D01*
X80098788Y-68366885D01*
X80122597Y-68343076D01*
X80170216Y-68319266D01*
X80194026Y-68319266D01*
X80241645Y-68343076D01*
X80265454Y-68366885D01*
X80289264Y-68414504D01*
X80289264Y-68509743D01*
X80313073Y-68557362D01*
X80336883Y-68581171D01*
X80384502Y-68604981D01*
X80479740Y-68604981D01*
X80527359Y-68581171D01*
X80551168Y-68557362D01*
X80574978Y-68509743D01*
X80574978Y-68414504D01*
X80551168Y-68366885D01*
X80527359Y-68343076D01*
X80479740Y-68319266D01*
X80384502Y-68319266D01*
X80336883Y-68343076D01*
X80313073Y-68366885D01*
X80289264Y-68414504D01*
%TO.C,D7*%
X98799978Y-69031171D02*
X98299978Y-69031171D01*
X98299978Y-68912124D01*
X98323788Y-68840695D01*
X98371407Y-68793076D01*
X98419026Y-68769266D01*
X98514264Y-68745457D01*
X98585692Y-68745457D01*
X98680930Y-68769266D01*
X98728549Y-68793076D01*
X98776168Y-68840695D01*
X98799978Y-68912124D01*
X98799978Y-69031171D01*
X98299978Y-68578790D02*
X98299978Y-68245457D01*
X98799978Y-68459743D01*
D11*
%TO.C,R17*%
X88728906Y-71586574D02*
X88678398Y-71872784D01*
X88930936Y-71788605D02*
X88577383Y-72142158D01*
X88442696Y-72007471D01*
X88425860Y-71956963D01*
X88425860Y-71923292D01*
X88442696Y-71872784D01*
X88493203Y-71822276D01*
X88543711Y-71805440D01*
X88577383Y-71805440D01*
X88627890Y-71822276D01*
X88762577Y-71956963D01*
X88392188Y-71249856D02*
X88594219Y-71451887D01*
X88493203Y-71350872D02*
X88139650Y-71704425D01*
X88223829Y-71687589D01*
X88291173Y-71687589D01*
X88341681Y-71704425D01*
X87920784Y-71485559D02*
X87685081Y-71249856D01*
X88190158Y-71047826D01*
D12*
%TO.C,Y1*%
X97545234Y-80332005D02*
X97881952Y-80668723D01*
X96939143Y-80197318D02*
X97545234Y-80332005D01*
X97410547Y-79725914D01*
X98723745Y-79826929D02*
X98319684Y-80230990D01*
X98521715Y-80028959D02*
X97814608Y-79321853D01*
X97848280Y-79490211D01*
X97848280Y-79624898D01*
X97814608Y-79725914D01*
%TO.C,U1*%
X83251168Y-98674028D02*
X84060692Y-98674028D01*
X84155930Y-98626409D01*
X84203549Y-98578790D01*
X84251168Y-98483552D01*
X84251168Y-98293076D01*
X84203549Y-98197838D01*
X84155930Y-98150219D01*
X84060692Y-98102600D01*
X83251168Y-98102600D01*
X84251168Y-97102600D02*
X84251168Y-97674028D01*
X84251168Y-97388314D02*
X83251168Y-97388314D01*
X83394026Y-97483552D01*
X83489264Y-97578790D01*
X83536883Y-97674028D01*
D10*
%TO.C,C5*%
X87058982Y-87294780D02*
X87092654Y-87294780D01*
X87159997Y-87328452D01*
X87193669Y-87362124D01*
X87227341Y-87429467D01*
X87227341Y-87496811D01*
X87210505Y-87547318D01*
X87159997Y-87631498D01*
X87109490Y-87682005D01*
X87025310Y-87732513D01*
X86974803Y-87749349D01*
X86907459Y-87749349D01*
X86840116Y-87715677D01*
X86806444Y-87682005D01*
X86772772Y-87614662D01*
X86772772Y-87580990D01*
X86419219Y-87294780D02*
X86587578Y-87463139D01*
X86772772Y-87311616D01*
X86739100Y-87311616D01*
X86688593Y-87294780D01*
X86604413Y-87210601D01*
X86587578Y-87160093D01*
X86587578Y-87126421D01*
X86604413Y-87075914D01*
X86688593Y-86991734D01*
X86739100Y-86974898D01*
X86772772Y-86974898D01*
X86823280Y-86991734D01*
X86907459Y-87075914D01*
X86924295Y-87126421D01*
X86924295Y-87160093D01*
%TO.C,C19*%
X85790665Y-70758570D02*
X85790665Y-70792242D01*
X85756993Y-70859585D01*
X85723322Y-70893257D01*
X85655978Y-70926929D01*
X85588635Y-70926929D01*
X85538127Y-70910093D01*
X85453948Y-70859585D01*
X85403440Y-70809078D01*
X85352932Y-70724898D01*
X85336097Y-70674391D01*
X85336097Y-70607047D01*
X85369768Y-70539704D01*
X85403440Y-70506032D01*
X85470784Y-70472360D01*
X85504455Y-70472360D01*
X86161055Y-70455524D02*
X85959024Y-70657555D01*
X86060039Y-70556539D02*
X85706486Y-70202986D01*
X85723322Y-70287165D01*
X85723322Y-70354509D01*
X85706486Y-70405017D01*
X86329413Y-70287165D02*
X86396757Y-70219822D01*
X86413593Y-70169314D01*
X86413593Y-70135642D01*
X86396757Y-70051463D01*
X86346249Y-69967284D01*
X86211562Y-69832597D01*
X86161055Y-69815761D01*
X86127383Y-69815761D01*
X86076875Y-69832597D01*
X86009532Y-69899940D01*
X85992696Y-69950448D01*
X85992696Y-69984120D01*
X86009532Y-70034627D01*
X86093711Y-70118807D01*
X86144219Y-70135642D01*
X86177890Y-70135642D01*
X86228398Y-70118807D01*
X86295742Y-70051463D01*
X86312577Y-70000955D01*
X86312577Y-69967284D01*
X86295742Y-69916776D01*
D12*
%TO.C,DC1*%
X84837002Y-112739504D02*
X84837002Y-111739504D01*
X85075097Y-111739504D01*
X85217954Y-111787124D01*
X85313192Y-111882362D01*
X85360811Y-111977600D01*
X85408430Y-112168076D01*
X85408430Y-112310933D01*
X85360811Y-112501409D01*
X85313192Y-112596647D01*
X85217954Y-112691885D01*
X85075097Y-112739504D01*
X84837002Y-112739504D01*
X86408430Y-112644266D02*
X86360811Y-112691885D01*
X86217954Y-112739504D01*
X86122716Y-112739504D01*
X85979859Y-112691885D01*
X85884621Y-112596647D01*
X85837002Y-112501409D01*
X85789383Y-112310933D01*
X85789383Y-112168076D01*
X85837002Y-111977600D01*
X85884621Y-111882362D01*
X85979859Y-111787124D01*
X86122716Y-111739504D01*
X86217954Y-111739504D01*
X86360811Y-111787124D01*
X86408430Y-111834743D01*
X87360811Y-112739504D02*
X86789383Y-112739504D01*
X87075097Y-112739504D02*
X87075097Y-111739504D01*
X86979859Y-111882362D01*
X86884621Y-111977600D01*
X86789383Y-112025219D01*
D11*
%TO.C,R16*%
X79899978Y-75908552D02*
X79661883Y-76075219D01*
X79899978Y-76194266D02*
X79399978Y-76194266D01*
X79399978Y-76003790D01*
X79423788Y-75956171D01*
X79447597Y-75932362D01*
X79495216Y-75908552D01*
X79566645Y-75908552D01*
X79614264Y-75932362D01*
X79638073Y-75956171D01*
X79661883Y-76003790D01*
X79661883Y-76194266D01*
X79899978Y-75432362D02*
X79899978Y-75718076D01*
X79899978Y-75575219D02*
X79399978Y-75575219D01*
X79471407Y-75622838D01*
X79519026Y-75670457D01*
X79542835Y-75718076D01*
X79399978Y-75003790D02*
X79399978Y-75099028D01*
X79423788Y-75146647D01*
X79447597Y-75170457D01*
X79519026Y-75218076D01*
X79614264Y-75241885D01*
X79804740Y-75241885D01*
X79852359Y-75218076D01*
X79876168Y-75194266D01*
X79899978Y-75146647D01*
X79899978Y-75051409D01*
X79876168Y-75003790D01*
X79852359Y-74979981D01*
X79804740Y-74956171D01*
X79685692Y-74956171D01*
X79638073Y-74979981D01*
X79614264Y-75003790D01*
X79590454Y-75051409D01*
X79590454Y-75146647D01*
X79614264Y-75194266D01*
X79638073Y-75218076D01*
X79685692Y-75241885D01*
D12*
%TO.C,U3*%
X81947814Y-77088646D02*
X82520234Y-77661066D01*
X82621249Y-77694738D01*
X82688593Y-77694738D01*
X82789608Y-77661066D01*
X82924295Y-77526379D01*
X82957967Y-77425364D01*
X82957967Y-77358020D01*
X82924295Y-77257005D01*
X82351875Y-76684585D01*
X82621249Y-76415211D02*
X83058982Y-75977479D01*
X83092654Y-76482555D01*
X83193669Y-76381540D01*
X83294684Y-76347868D01*
X83362028Y-76347868D01*
X83463043Y-76381540D01*
X83631402Y-76549898D01*
X83665074Y-76650914D01*
X83665074Y-76718257D01*
X83631402Y-76819272D01*
X83429371Y-77021303D01*
X83328356Y-77054975D01*
X83261013Y-77054975D01*
D11*
%TO.C,R18*%
X79924978Y-74358552D02*
X79686883Y-74525219D01*
X79924978Y-74644266D02*
X79424978Y-74644266D01*
X79424978Y-74453790D01*
X79448788Y-74406171D01*
X79472597Y-74382362D01*
X79520216Y-74358552D01*
X79591645Y-74358552D01*
X79639264Y-74382362D01*
X79663073Y-74406171D01*
X79686883Y-74453790D01*
X79686883Y-74644266D01*
X79924978Y-73882362D02*
X79924978Y-74168076D01*
X79924978Y-74025219D02*
X79424978Y-74025219D01*
X79496407Y-74072838D01*
X79544026Y-74120457D01*
X79567835Y-74168076D01*
X79639264Y-73596647D02*
X79615454Y-73644266D01*
X79591645Y-73668076D01*
X79544026Y-73691885D01*
X79520216Y-73691885D01*
X79472597Y-73668076D01*
X79448788Y-73644266D01*
X79424978Y-73596647D01*
X79424978Y-73501409D01*
X79448788Y-73453790D01*
X79472597Y-73429981D01*
X79520216Y-73406171D01*
X79544026Y-73406171D01*
X79591645Y-73429981D01*
X79615454Y-73453790D01*
X79639264Y-73501409D01*
X79639264Y-73596647D01*
X79663073Y-73644266D01*
X79686883Y-73668076D01*
X79734502Y-73691885D01*
X79829740Y-73691885D01*
X79877359Y-73668076D01*
X79901168Y-73644266D01*
X79924978Y-73596647D01*
X79924978Y-73501409D01*
X79901168Y-73453790D01*
X79877359Y-73429981D01*
X79829740Y-73406171D01*
X79734502Y-73406171D01*
X79686883Y-73429981D01*
X79663073Y-73453790D01*
X79639264Y-73501409D01*
D10*
%TO.C,D6*%
X90404740Y-89588314D02*
X90404740Y-89088314D01*
X90523788Y-89088314D01*
X90595216Y-89112124D01*
X90642835Y-89159743D01*
X90666645Y-89207362D01*
X90690454Y-89302600D01*
X90690454Y-89374028D01*
X90666645Y-89469266D01*
X90642835Y-89516885D01*
X90595216Y-89564504D01*
X90523788Y-89588314D01*
X90404740Y-89588314D01*
X91119026Y-89088314D02*
X91023788Y-89088314D01*
X90976168Y-89112124D01*
X90952359Y-89135933D01*
X90904740Y-89207362D01*
X90880930Y-89302600D01*
X90880930Y-89493076D01*
X90904740Y-89540695D01*
X90928549Y-89564504D01*
X90976168Y-89588314D01*
X91071407Y-89588314D01*
X91119026Y-89564504D01*
X91142835Y-89540695D01*
X91166645Y-89493076D01*
X91166645Y-89374028D01*
X91142835Y-89326409D01*
X91119026Y-89302600D01*
X91071407Y-89278790D01*
X90976168Y-89278790D01*
X90928549Y-89302600D01*
X90904740Y-89326409D01*
X90880930Y-89374028D01*
D12*
%TO.C,P1*%
X85401168Y-65051528D02*
X84401168Y-65051528D01*
X84401168Y-64670576D01*
X84448788Y-64575338D01*
X84496407Y-64527719D01*
X84591645Y-64480100D01*
X84734502Y-64480100D01*
X84829740Y-64527719D01*
X84877359Y-64575338D01*
X84924978Y-64670576D01*
X84924978Y-65051528D01*
X85401168Y-63527719D02*
X85401168Y-64099147D01*
X85401168Y-63813433D02*
X84401168Y-63813433D01*
X84544026Y-63908671D01*
X84639264Y-64003909D01*
X84686883Y-64099147D01*
D11*
%TO.C,R9*%
X79815454Y-93863314D02*
X79648788Y-93625219D01*
X79529740Y-93863314D02*
X79529740Y-93363314D01*
X79720216Y-93363314D01*
X79767835Y-93387124D01*
X79791645Y-93410933D01*
X79815454Y-93458552D01*
X79815454Y-93529981D01*
X79791645Y-93577600D01*
X79767835Y-93601409D01*
X79720216Y-93625219D01*
X79529740Y-93625219D01*
X80053549Y-93863314D02*
X80148788Y-93863314D01*
X80196407Y-93839504D01*
X80220216Y-93815695D01*
X80267835Y-93744266D01*
X80291645Y-93649028D01*
X80291645Y-93458552D01*
X80267835Y-93410933D01*
X80244026Y-93387124D01*
X80196407Y-93363314D01*
X80101168Y-93363314D01*
X80053549Y-93387124D01*
X80029740Y-93410933D01*
X80005930Y-93458552D01*
X80005930Y-93577600D01*
X80029740Y-93625219D01*
X80053549Y-93649028D01*
X80101168Y-93672838D01*
X80196407Y-93672838D01*
X80244026Y-93649028D01*
X80267835Y-93625219D01*
X80291645Y-93577600D01*
D13*
%TO.C,C22*%
X154667608Y-73823838D02*
X155037074Y-74193304D01*
X153960502Y-74530944D02*
X154329968Y-74900410D01*
%TO.C,R9*%
X142025852Y-93062124D02*
X141571724Y-93062124D01*
X142025852Y-94062124D02*
X141571724Y-94062124D01*
D14*
%TO.C,DC1*%
X143353788Y-107030124D02*
X143353788Y-106703124D01*
X143353788Y-106703124D02*
X153462788Y-106703124D01*
X153463788Y-117112124D02*
X153463788Y-115802124D01*
X143483788Y-113062124D02*
X143483788Y-117112124D01*
X148451788Y-106282124D02*
X151043788Y-106282124D01*
X153463788Y-117112124D02*
X143483788Y-117112124D01*
X151043788Y-106282124D02*
X151043788Y-106703124D01*
X148451788Y-106703124D02*
X148451788Y-106282124D01*
X153462788Y-106703124D02*
X153462788Y-107030124D01*
X143513788Y-110532124D02*
X143513788Y-109494124D01*
X153463788Y-115722124D02*
X153463788Y-109493124D01*
D13*
%TO.C,C19*%
X146767608Y-71650410D02*
X147137074Y-71280944D01*
X146060502Y-70943304D02*
X146429968Y-70573838D01*
%TO.C,D7*%
X157598788Y-69237124D02*
X158598788Y-69237124D01*
X158098788Y-69237124D02*
X158098788Y-68237124D01*
%TO.C,R12*%
X149221724Y-66612124D02*
X149675852Y-66612124D01*
X149221724Y-65612124D02*
X149675852Y-65612124D01*
%TO.C,C3*%
X146723788Y-92600872D02*
X146723788Y-93123376D01*
X147723788Y-92600872D02*
X147723788Y-93123376D01*
D12*
%TO.C,U1*%
X139523788Y-96237124D02*
X139823788Y-96237124D01*
X142873788Y-96237124D02*
X142648788Y-96237124D01*
X139523788Y-96237124D02*
X139523788Y-99587124D01*
X142873788Y-96237124D02*
X142873788Y-99587124D01*
X142648788Y-96237124D02*
X142648788Y-95012124D01*
X139523788Y-99587124D02*
X139823788Y-99587124D01*
X142873788Y-99587124D02*
X142573788Y-99587124D01*
D14*
%TO.C,P1*%
X144149788Y-64140124D02*
X140974788Y-64140124D01*
X140847788Y-73284124D02*
X141101788Y-73284124D01*
X140847788Y-64140124D02*
X140847788Y-64140124D01*
X144149788Y-73284124D02*
X144149788Y-71926124D01*
X140847788Y-67126124D02*
X140847788Y-70298124D01*
X144149788Y-70298124D02*
X144149788Y-67126124D01*
X144149788Y-65498124D02*
X144149788Y-64140124D01*
X140974788Y-64140124D02*
X140847788Y-64140124D01*
X140847788Y-71926124D02*
X140847788Y-73284124D01*
X140847788Y-64140124D02*
X140847788Y-65498124D01*
X140974788Y-73284124D02*
X144149788Y-73284124D01*
D13*
%TO.C,R16*%
X141575852Y-75062124D02*
X141121724Y-75062124D01*
X141575852Y-76062124D02*
X141121724Y-76062124D01*
%TO.C,C24*%
X150460502Y-71030944D02*
X150829968Y-71400410D01*
X151167608Y-70323838D02*
X151537074Y-70693304D01*
D14*
%TO.C,J2*%
X148173288Y-104762124D02*
X148173288Y-104762124D01*
X151664288Y-94504124D02*
X156718288Y-95088124D01*
X156261288Y-100066124D02*
X156261288Y-101006124D01*
X148158288Y-95418124D02*
X148158288Y-96434124D01*
X148158288Y-101006124D02*
X148158288Y-99990124D01*
X156210288Y-96536124D02*
X156210288Y-95596124D01*
X148157288Y-102529124D02*
X148157288Y-104561124D01*
X156718288Y-95088124D02*
X156718288Y-96942124D01*
X154331288Y-96764124D02*
X154331288Y-95316124D01*
X156769288Y-99558124D02*
X151714288Y-98974124D01*
X151697288Y-101661124D02*
X151722288Y-101994124D01*
X151664288Y-99279124D02*
X156261288Y-100066124D01*
X158806288Y-91662124D02*
X157308288Y-91662124D01*
X148156288Y-91662124D02*
X148156288Y-91861124D01*
X148173288Y-104762124D02*
X154069288Y-104762124D01*
X152578288Y-97094124D02*
X152578288Y-95012124D01*
X148157288Y-104747124D02*
X148157288Y-104561124D01*
X158806288Y-104762124D02*
X158806288Y-91662124D01*
X148173288Y-104762124D02*
X148157288Y-104747124D01*
X151671288Y-97524124D02*
X151646288Y-97191124D01*
X156769288Y-101412124D02*
X156769288Y-99558124D01*
X154381288Y-101235124D02*
X154381288Y-99787124D01*
X151646288Y-97191124D02*
X156210288Y-96536124D01*
X151714288Y-98974124D02*
X151664288Y-99279124D01*
X157308288Y-104762124D02*
X158806288Y-104762124D01*
X152629288Y-101565124D02*
X152629288Y-99482124D01*
X154069288Y-91662124D02*
X148156288Y-91662124D01*
X156210288Y-95596124D02*
X151613288Y-94808124D01*
X151722288Y-101994124D02*
X156769288Y-101412124D01*
X148158288Y-98466124D02*
X148158288Y-97958124D01*
X156261288Y-101006124D02*
X151697288Y-101661124D01*
X156718288Y-96942124D02*
X151671288Y-97524124D01*
X151613288Y-94808124D02*
X151664288Y-94504124D01*
X148157288Y-91861124D02*
X148157288Y-93893124D01*
D13*
%TO.C,C6*%
X141087536Y-102612124D02*
X141610040Y-102612124D01*
X141087536Y-101612124D02*
X141610040Y-101612124D01*
D14*
%TO.C,P5*%
X157149788Y-64140124D02*
X153974788Y-64140124D01*
X153847788Y-73284124D02*
X154101788Y-73284124D01*
X153847788Y-64140124D02*
X153847788Y-64140124D01*
X153974788Y-64140124D02*
X153847788Y-64140124D01*
X157149788Y-65498124D02*
X157149788Y-64140124D01*
X153847788Y-67126124D02*
X153847788Y-70298124D01*
X157149788Y-73284124D02*
X157149788Y-71926124D01*
X153847788Y-71926124D02*
X153847788Y-73284124D01*
X153974788Y-73284124D02*
X157149788Y-73284124D01*
X157149788Y-70298124D02*
X157149788Y-67126124D01*
X153847788Y-64140124D02*
X153847788Y-65498124D01*
D13*
%TO.C,D9*%
X156698788Y-114737124D02*
X156698788Y-113737124D01*
X156198788Y-114737124D02*
X157198788Y-114737124D01*
%TO.C,C1*%
X152248788Y-67673376D02*
X152248788Y-67150872D01*
X151248788Y-67673376D02*
X151248788Y-67150872D01*
%TO.C,C21*%
X157292608Y-74648838D02*
X157662074Y-75018304D01*
X156585502Y-75355944D02*
X156954968Y-75725410D01*
%TO.C,C7*%
X153498788Y-84850872D02*
X153498788Y-85373376D01*
X152498788Y-84850872D02*
X152498788Y-85373376D01*
%TO.C,R17*%
X149562900Y-70619129D02*
X149241783Y-70298012D01*
X148855793Y-71326236D02*
X148534676Y-71005119D01*
%TO.C,R20*%
X152221724Y-68912124D02*
X152675852Y-68912124D01*
X152221724Y-69912124D02*
X152675852Y-69912124D01*
%TO.C,U3*%
X149316986Y-81899237D02*
X148998788Y-82217435D01*
X144211675Y-76793926D02*
X143893477Y-77112124D01*
X143893477Y-77112124D02*
X144211675Y-77430322D01*
X148680590Y-72325011D02*
X148998788Y-72006813D01*
X153785901Y-77430322D02*
X154104099Y-77112124D01*
X148998788Y-82217435D02*
X148680590Y-81899237D01*
X144211675Y-77430322D02*
X143299507Y-78342490D01*
X148998788Y-72006813D02*
X149316986Y-72325011D01*
X154104099Y-77112124D02*
X153785901Y-76793926D01*
%TO.C,D5*%
X139448788Y-85662124D02*
X140448788Y-85662124D01*
X139948788Y-85662124D02*
X139948788Y-84662124D01*
%TO.C,R2*%
X145775852Y-69712124D02*
X145321724Y-69712124D01*
X145775852Y-68712124D02*
X145321724Y-68712124D01*
%TO.C,Y1*%
X155870971Y-80521312D02*
X156153814Y-80804155D01*
X156012392Y-80379891D02*
X156295235Y-80662733D01*
X154456757Y-79107098D02*
X155870971Y-80521312D01*
X156578078Y-76985778D02*
X157143763Y-76420093D01*
X158557977Y-77834306D02*
X158840819Y-78117149D01*
X157002342Y-79955627D02*
X157285184Y-80238469D01*
X157143763Y-76420093D02*
X158557977Y-77834306D01*
X156012392Y-80379891D02*
X154598179Y-78965677D01*
X158840819Y-78117149D02*
X158275134Y-78682834D01*
X154598179Y-78965677D02*
X155305285Y-78258570D01*
X157002342Y-79955627D02*
X156295235Y-80662733D01*
%TO.C,C5*%
X145742608Y-85623838D02*
X146112074Y-85993304D01*
X145035502Y-86330944D02*
X145404968Y-86700410D01*
%TO.C,D6*%
X151448788Y-90437124D02*
X150448788Y-90437124D01*
X151448788Y-90937124D02*
X151448788Y-89937124D01*
%TO.C,R8*%
X146875852Y-65262124D02*
X146421724Y-65262124D01*
X146875852Y-64262124D02*
X146421724Y-64262124D01*
%TO.C,C11*%
X146210502Y-83430944D02*
X146579968Y-83800410D01*
X146917608Y-82723838D02*
X147287074Y-83093304D01*
%TO.C,D3*%
X148948788Y-64762124D02*
X149948788Y-64762124D01*
X148948788Y-64262124D02*
X148948788Y-65262124D01*
%TO.C,R22*%
X157198788Y-111485060D02*
X157198788Y-111939188D01*
X156198788Y-111485060D02*
X156198788Y-111939188D01*
%TO.C,C15*%
X151129968Y-82523838D02*
X150760502Y-82893304D01*
X151837074Y-83230944D02*
X151467608Y-83600410D01*
%TO.C,D2*%
X158198788Y-85862124D02*
X158198788Y-84862124D01*
X157698788Y-85862124D02*
X158698788Y-85862124D01*
%TO.C,C23*%
X154760502Y-76143304D02*
X155129968Y-75773838D01*
X155467608Y-76850410D02*
X155837074Y-76480944D01*
D14*
%TO.C,P3*%
X140847788Y-80540124D02*
X140847788Y-80540124D01*
X140847788Y-83526124D02*
X140847788Y-86698124D01*
X140974788Y-89684124D02*
X144149788Y-89684124D01*
X140974788Y-80540124D02*
X140847788Y-80540124D01*
X144149788Y-89684124D02*
X144149788Y-88326124D01*
X144149788Y-86698124D02*
X144149788Y-83526124D01*
X140847788Y-80540124D02*
X140847788Y-81898124D01*
X140847788Y-88326124D02*
X140847788Y-89684124D01*
X144149788Y-81898124D02*
X144149788Y-80540124D01*
X144149788Y-80540124D02*
X140974788Y-80540124D01*
X140847788Y-89684124D02*
X141101788Y-89684124D01*
D13*
%TO.C,R11*%
X148221724Y-89937124D02*
X148675852Y-89937124D01*
X148221724Y-90937124D02*
X148675852Y-90937124D01*
%TO.C,R19*%
X157548788Y-73439188D02*
X157548788Y-72985060D01*
X158548788Y-73439188D02*
X158548788Y-72985060D01*
D14*
%TO.C,P4*%
X153847788Y-89684124D02*
X154101788Y-89684124D01*
X153974788Y-80540124D02*
X153847788Y-80540124D01*
X153847788Y-88326124D02*
X153847788Y-89684124D01*
X157149788Y-89684124D02*
X157149788Y-88326124D01*
X157149788Y-80540124D02*
X153974788Y-80540124D01*
X153847788Y-83526124D02*
X153847788Y-86698124D01*
X153847788Y-80540124D02*
X153847788Y-81898124D01*
X157149788Y-86698124D02*
X157149788Y-83526124D01*
X157149788Y-81898124D02*
X157149788Y-80540124D01*
X153847788Y-80540124D02*
X153847788Y-80540124D01*
X153974788Y-89684124D02*
X157149788Y-89684124D01*
D13*
%TO.C,R18*%
X141121724Y-74662124D02*
X141575852Y-74662124D01*
X141121724Y-73662124D02*
X141575852Y-73662124D01*
%TO.C,D8*%
X139898788Y-69262124D02*
X139898788Y-68262124D01*
X139398788Y-69262124D02*
X140398788Y-69262124D01*
%TO.C,D4*%
X142273788Y-92637124D02*
X142273788Y-91637124D01*
X142273788Y-92137124D02*
X141273788Y-92137124D01*
%TO.C,C25*%
X153287074Y-72443304D02*
X152917608Y-72073838D01*
X152579968Y-73150410D02*
X152210502Y-72780944D01*
%TO.C,R21*%
X151971724Y-65262124D02*
X152425852Y-65262124D01*
X151971724Y-64262124D02*
X152425852Y-64262124D01*
%TO.C,C18*%
X145067608Y-73500410D02*
X145437074Y-73130944D01*
X144360502Y-72793304D02*
X144729968Y-72423838D01*
%TO.C,C4*%
X142748788Y-114350872D02*
X142748788Y-114873376D01*
X141748788Y-114350872D02*
X141748788Y-114873376D01*
%TO.C,C9*%
X145360502Y-84730944D02*
X145729968Y-85100410D01*
X146067608Y-84023838D02*
X146437074Y-84393304D01*
%TO.C,D9*%
X136698788Y-114737124D02*
X136698788Y-113737124D01*
X136198788Y-114737124D02*
X137198788Y-114737124D01*
%TO.C,C1*%
X132248788Y-67673376D02*
X132248788Y-67150872D01*
X131248788Y-67673376D02*
X131248788Y-67150872D01*
%TO.C,C22*%
X134667608Y-73823838D02*
X135037074Y-74193304D01*
X133960502Y-74530944D02*
X134329968Y-74900410D01*
%TO.C,C19*%
X126767608Y-71650410D02*
X127137074Y-71280944D01*
X126060502Y-70943304D02*
X126429968Y-70573838D01*
%TO.C,C5*%
X125742608Y-85623838D02*
X126112074Y-85993304D01*
X125035502Y-86330944D02*
X125404968Y-86700410D01*
%TO.C,D7*%
X137598788Y-69237124D02*
X138598788Y-69237124D01*
X138098788Y-69237124D02*
X138098788Y-68237124D01*
%TO.C,R12*%
X129221724Y-66612124D02*
X129675852Y-66612124D01*
X129221724Y-65612124D02*
X129675852Y-65612124D01*
%TO.C,C3*%
X126723788Y-92600872D02*
X126723788Y-93123376D01*
X127723788Y-92600872D02*
X127723788Y-93123376D01*
D12*
%TO.C,U1*%
X119523788Y-96237124D02*
X119823788Y-96237124D01*
X122873788Y-96237124D02*
X122648788Y-96237124D01*
X119523788Y-96237124D02*
X119523788Y-99587124D01*
X122873788Y-96237124D02*
X122873788Y-99587124D01*
X122648788Y-96237124D02*
X122648788Y-95012124D01*
X119523788Y-99587124D02*
X119823788Y-99587124D01*
X122873788Y-99587124D02*
X122573788Y-99587124D01*
D13*
%TO.C,C9*%
X125360502Y-84730944D02*
X125729968Y-85100410D01*
X126067608Y-84023838D02*
X126437074Y-84393304D01*
%TO.C,R16*%
X121575852Y-75062124D02*
X121121724Y-75062124D01*
X121575852Y-76062124D02*
X121121724Y-76062124D01*
%TO.C,C24*%
X130460502Y-71030944D02*
X130829968Y-71400410D01*
X131167608Y-70323838D02*
X131537074Y-70693304D01*
%TO.C,C25*%
X133287074Y-72443304D02*
X132917608Y-72073838D01*
X132579968Y-73150410D02*
X132210502Y-72780944D01*
%TO.C,C6*%
X121087536Y-102612124D02*
X121610040Y-102612124D01*
X121087536Y-101612124D02*
X121610040Y-101612124D01*
%TO.C,C21*%
X137292608Y-74648838D02*
X137662074Y-75018304D01*
X136585502Y-75355944D02*
X136954968Y-75725410D01*
D14*
%TO.C,P1*%
X124149788Y-64140124D02*
X120974788Y-64140124D01*
X120847788Y-73284124D02*
X121101788Y-73284124D01*
X120847788Y-64140124D02*
X120847788Y-64140124D01*
X124149788Y-73284124D02*
X124149788Y-71926124D01*
X120847788Y-67126124D02*
X120847788Y-70298124D01*
X124149788Y-70298124D02*
X124149788Y-67126124D01*
X124149788Y-65498124D02*
X124149788Y-64140124D01*
X120974788Y-64140124D02*
X120847788Y-64140124D01*
X120847788Y-71926124D02*
X120847788Y-73284124D01*
X120847788Y-64140124D02*
X120847788Y-65498124D01*
X120974788Y-73284124D02*
X124149788Y-73284124D01*
D13*
%TO.C,D5*%
X119448788Y-85662124D02*
X120448788Y-85662124D01*
X119948788Y-85662124D02*
X119948788Y-84662124D01*
D14*
%TO.C,DC1*%
X123353788Y-107030124D02*
X123353788Y-106703124D01*
X123353788Y-106703124D02*
X133462788Y-106703124D01*
X133463788Y-117112124D02*
X133463788Y-115802124D01*
X123483788Y-113062124D02*
X123483788Y-117112124D01*
X128451788Y-106282124D02*
X131043788Y-106282124D01*
X133463788Y-117112124D02*
X123483788Y-117112124D01*
X131043788Y-106282124D02*
X131043788Y-106703124D01*
X128451788Y-106703124D02*
X128451788Y-106282124D01*
X133462788Y-106703124D02*
X133462788Y-107030124D01*
X123513788Y-110532124D02*
X123513788Y-109494124D01*
X133463788Y-115722124D02*
X133463788Y-109493124D01*
D13*
%TO.C,R20*%
X132221724Y-68912124D02*
X132675852Y-68912124D01*
X132221724Y-69912124D02*
X132675852Y-69912124D01*
%TO.C,U3*%
X129316986Y-81899237D02*
X128998788Y-82217435D01*
X124211675Y-76793926D02*
X123893477Y-77112124D01*
X123893477Y-77112124D02*
X124211675Y-77430322D01*
X128680590Y-72325011D02*
X128998788Y-72006813D01*
X133785901Y-77430322D02*
X134104099Y-77112124D01*
X128998788Y-82217435D02*
X128680590Y-81899237D01*
X124211675Y-77430322D02*
X123299507Y-78342490D01*
X128998788Y-72006813D02*
X129316986Y-72325011D01*
X134104099Y-77112124D02*
X133785901Y-76793926D01*
%TO.C,C4*%
X122748788Y-114350872D02*
X122748788Y-114873376D01*
X121748788Y-114350872D02*
X121748788Y-114873376D01*
%TO.C,R9*%
X122025852Y-93062124D02*
X121571724Y-93062124D01*
X122025852Y-94062124D02*
X121571724Y-94062124D01*
%TO.C,D6*%
X131448788Y-90437124D02*
X130448788Y-90437124D01*
X131448788Y-90937124D02*
X131448788Y-89937124D01*
%TO.C,R2*%
X125775852Y-69712124D02*
X125321724Y-69712124D01*
X125775852Y-68712124D02*
X125321724Y-68712124D01*
%TO.C,Y1*%
X135870971Y-80521312D02*
X136153814Y-80804155D01*
X136012392Y-80379891D02*
X136295235Y-80662733D01*
X134456757Y-79107098D02*
X135870971Y-80521312D01*
X136578078Y-76985778D02*
X137143763Y-76420093D01*
X138557977Y-77834306D02*
X138840819Y-78117149D01*
X137002342Y-79955627D02*
X137285184Y-80238469D01*
X137143763Y-76420093D02*
X138557977Y-77834306D01*
X136012392Y-80379891D02*
X134598179Y-78965677D01*
X138840819Y-78117149D02*
X138275134Y-78682834D01*
X134598179Y-78965677D02*
X135305285Y-78258570D01*
X137002342Y-79955627D02*
X136295235Y-80662733D01*
%TO.C,C15*%
X131129968Y-82523838D02*
X130760502Y-82893304D01*
X131837074Y-83230944D02*
X131467608Y-83600410D01*
%TO.C,D4*%
X122273788Y-92637124D02*
X122273788Y-91637124D01*
X122273788Y-92137124D02*
X121273788Y-92137124D01*
%TO.C,D3*%
X128948788Y-64762124D02*
X129948788Y-64762124D01*
X128948788Y-64262124D02*
X128948788Y-65262124D01*
%TO.C,R22*%
X137198788Y-111485060D02*
X137198788Y-111939188D01*
X136198788Y-111485060D02*
X136198788Y-111939188D01*
D14*
%TO.C,P3*%
X120847788Y-80540124D02*
X120847788Y-80540124D01*
X120847788Y-83526124D02*
X120847788Y-86698124D01*
X120974788Y-89684124D02*
X124149788Y-89684124D01*
X120974788Y-80540124D02*
X120847788Y-80540124D01*
X124149788Y-89684124D02*
X124149788Y-88326124D01*
X124149788Y-86698124D02*
X124149788Y-83526124D01*
X120847788Y-80540124D02*
X120847788Y-81898124D01*
X120847788Y-88326124D02*
X120847788Y-89684124D01*
X124149788Y-81898124D02*
X124149788Y-80540124D01*
X124149788Y-80540124D02*
X120974788Y-80540124D01*
X120847788Y-89684124D02*
X121101788Y-89684124D01*
D13*
%TO.C,R19*%
X137548788Y-73439188D02*
X137548788Y-72985060D01*
X138548788Y-73439188D02*
X138548788Y-72985060D01*
D14*
%TO.C,P4*%
X133847788Y-89684124D02*
X134101788Y-89684124D01*
X133974788Y-80540124D02*
X133847788Y-80540124D01*
X133847788Y-88326124D02*
X133847788Y-89684124D01*
X137149788Y-89684124D02*
X137149788Y-88326124D01*
X137149788Y-80540124D02*
X133974788Y-80540124D01*
X133847788Y-83526124D02*
X133847788Y-86698124D01*
X133847788Y-80540124D02*
X133847788Y-81898124D01*
X137149788Y-86698124D02*
X137149788Y-83526124D01*
X137149788Y-81898124D02*
X137149788Y-80540124D01*
X133847788Y-80540124D02*
X133847788Y-80540124D01*
X133974788Y-89684124D02*
X137149788Y-89684124D01*
%TO.C,P5*%
X137149788Y-64140124D02*
X133974788Y-64140124D01*
X133847788Y-73284124D02*
X134101788Y-73284124D01*
X133847788Y-64140124D02*
X133847788Y-64140124D01*
X133974788Y-64140124D02*
X133847788Y-64140124D01*
X137149788Y-65498124D02*
X137149788Y-64140124D01*
X133847788Y-67126124D02*
X133847788Y-70298124D01*
X137149788Y-73284124D02*
X137149788Y-71926124D01*
X133847788Y-71926124D02*
X133847788Y-73284124D01*
X133974788Y-73284124D02*
X137149788Y-73284124D01*
X137149788Y-70298124D02*
X137149788Y-67126124D01*
X133847788Y-64140124D02*
X133847788Y-65498124D01*
D13*
%TO.C,R17*%
X129562900Y-70619129D02*
X129241783Y-70298012D01*
X128855793Y-71326236D02*
X128534676Y-71005119D01*
%TO.C,R18*%
X121121724Y-74662124D02*
X121575852Y-74662124D01*
X121121724Y-73662124D02*
X121575852Y-73662124D01*
%TO.C,C23*%
X134760502Y-76143304D02*
X135129968Y-75773838D01*
X135467608Y-76850410D02*
X135837074Y-76480944D01*
%TO.C,D8*%
X119898788Y-69262124D02*
X119898788Y-68262124D01*
X119398788Y-69262124D02*
X120398788Y-69262124D01*
%TO.C,R11*%
X128221724Y-89937124D02*
X128675852Y-89937124D01*
X128221724Y-90937124D02*
X128675852Y-90937124D01*
%TO.C,R21*%
X131971724Y-65262124D02*
X132425852Y-65262124D01*
X131971724Y-64262124D02*
X132425852Y-64262124D01*
%TO.C,C18*%
X125067608Y-73500410D02*
X125437074Y-73130944D01*
X124360502Y-72793304D02*
X124729968Y-72423838D01*
D14*
%TO.C,J2*%
X128173288Y-104762124D02*
X128173288Y-104762124D01*
X131664288Y-94504124D02*
X136718288Y-95088124D01*
X136261288Y-100066124D02*
X136261288Y-101006124D01*
X128158288Y-95418124D02*
X128158288Y-96434124D01*
X128158288Y-101006124D02*
X128158288Y-99990124D01*
X136210288Y-96536124D02*
X136210288Y-95596124D01*
X128157288Y-102529124D02*
X128157288Y-104561124D01*
X136718288Y-95088124D02*
X136718288Y-96942124D01*
X134331288Y-96764124D02*
X134331288Y-95316124D01*
X136769288Y-99558124D02*
X131714288Y-98974124D01*
X131697288Y-101661124D02*
X131722288Y-101994124D01*
X131664288Y-99279124D02*
X136261288Y-100066124D01*
X138806288Y-91662124D02*
X137308288Y-91662124D01*
X128156288Y-91662124D02*
X128156288Y-91861124D01*
X128173288Y-104762124D02*
X134069288Y-104762124D01*
X132578288Y-97094124D02*
X132578288Y-95012124D01*
X128157288Y-104747124D02*
X128157288Y-104561124D01*
X138806288Y-104762124D02*
X138806288Y-91662124D01*
X128173288Y-104762124D02*
X128157288Y-104747124D01*
X131671288Y-97524124D02*
X131646288Y-97191124D01*
X136769288Y-101412124D02*
X136769288Y-99558124D01*
X134381288Y-101235124D02*
X134381288Y-99787124D01*
X131646288Y-97191124D02*
X136210288Y-96536124D01*
X131714288Y-98974124D02*
X131664288Y-99279124D01*
X137308288Y-104762124D02*
X138806288Y-104762124D01*
X132629288Y-101565124D02*
X132629288Y-99482124D01*
X134069288Y-91662124D02*
X128156288Y-91662124D01*
X136210288Y-95596124D02*
X131613288Y-94808124D01*
X131722288Y-101994124D02*
X136769288Y-101412124D01*
X128158288Y-98466124D02*
X128158288Y-97958124D01*
X136261288Y-101006124D02*
X131697288Y-101661124D01*
X136718288Y-96942124D02*
X131671288Y-97524124D01*
X131613288Y-94808124D02*
X131664288Y-94504124D01*
X128157288Y-91861124D02*
X128157288Y-93893124D01*
D13*
%TO.C,R8*%
X126875852Y-65262124D02*
X126421724Y-65262124D01*
X126875852Y-64262124D02*
X126421724Y-64262124D01*
%TO.C,D2*%
X138198788Y-85862124D02*
X138198788Y-84862124D01*
X137698788Y-85862124D02*
X138698788Y-85862124D01*
%TO.C,C11*%
X126210502Y-83430944D02*
X126579968Y-83800410D01*
X126917608Y-82723838D02*
X127287074Y-83093304D01*
%TO.C,C7*%
X133498788Y-84850872D02*
X133498788Y-85373376D01*
X132498788Y-84850872D02*
X132498788Y-85373376D01*
%TO.C,D9*%
X116698788Y-114737124D02*
X116698788Y-113737124D01*
X116198788Y-114737124D02*
X117198788Y-114737124D01*
%TO.C,C1*%
X112248788Y-67673376D02*
X112248788Y-67150872D01*
X111248788Y-67673376D02*
X111248788Y-67150872D01*
%TO.C,C22*%
X114667608Y-73823838D02*
X115037074Y-74193304D01*
X113960502Y-74530944D02*
X114329968Y-74900410D01*
%TO.C,R9*%
X102025852Y-93062124D02*
X101571724Y-93062124D01*
X102025852Y-94062124D02*
X101571724Y-94062124D01*
D14*
%TO.C,DC1*%
X103353788Y-107030124D02*
X103353788Y-106703124D01*
X103353788Y-106703124D02*
X113462788Y-106703124D01*
X113463788Y-117112124D02*
X113463788Y-115802124D01*
X103483788Y-113062124D02*
X103483788Y-117112124D01*
X108451788Y-106282124D02*
X111043788Y-106282124D01*
X113463788Y-117112124D02*
X103483788Y-117112124D01*
X111043788Y-106282124D02*
X111043788Y-106703124D01*
X108451788Y-106703124D02*
X108451788Y-106282124D01*
X113462788Y-106703124D02*
X113462788Y-107030124D01*
X103513788Y-110532124D02*
X103513788Y-109494124D01*
X113463788Y-115722124D02*
X113463788Y-109493124D01*
D13*
%TO.C,C19*%
X106767608Y-71650410D02*
X107137074Y-71280944D01*
X106060502Y-70943304D02*
X106429968Y-70573838D01*
%TO.C,R12*%
X109221724Y-66612124D02*
X109675852Y-66612124D01*
X109221724Y-65612124D02*
X109675852Y-65612124D01*
%TO.C,C3*%
X106723788Y-92600872D02*
X106723788Y-93123376D01*
X107723788Y-92600872D02*
X107723788Y-93123376D01*
%TO.C,D5*%
X99448788Y-85662124D02*
X100448788Y-85662124D01*
X99948788Y-85662124D02*
X99948788Y-84662124D01*
%TO.C,R8*%
X106875852Y-65262124D02*
X106421724Y-65262124D01*
X106875852Y-64262124D02*
X106421724Y-64262124D01*
%TO.C,C9*%
X105360502Y-84730944D02*
X105729968Y-85100410D01*
X106067608Y-84023838D02*
X106437074Y-84393304D01*
D14*
%TO.C,P1*%
X104149788Y-64140124D02*
X100974788Y-64140124D01*
X100847788Y-73284124D02*
X101101788Y-73284124D01*
X100847788Y-64140124D02*
X100847788Y-64140124D01*
X104149788Y-73284124D02*
X104149788Y-71926124D01*
X100847788Y-67126124D02*
X100847788Y-70298124D01*
X104149788Y-70298124D02*
X104149788Y-67126124D01*
X104149788Y-65498124D02*
X104149788Y-64140124D01*
X100974788Y-64140124D02*
X100847788Y-64140124D01*
X100847788Y-71926124D02*
X100847788Y-73284124D01*
X100847788Y-64140124D02*
X100847788Y-65498124D01*
X100974788Y-73284124D02*
X104149788Y-73284124D01*
D13*
%TO.C,R17*%
X109562900Y-70619129D02*
X109241783Y-70298012D01*
X108855793Y-71326236D02*
X108534676Y-71005119D01*
%TO.C,C25*%
X113287074Y-72443304D02*
X112917608Y-72073838D01*
X112579968Y-73150410D02*
X112210502Y-72780944D01*
D14*
%TO.C,J2*%
X108173288Y-104762124D02*
X108173288Y-104762124D01*
X111664288Y-94504124D02*
X116718288Y-95088124D01*
X116261288Y-100066124D02*
X116261288Y-101006124D01*
X108158288Y-95418124D02*
X108158288Y-96434124D01*
X108158288Y-101006124D02*
X108158288Y-99990124D01*
X116210288Y-96536124D02*
X116210288Y-95596124D01*
X108157288Y-102529124D02*
X108157288Y-104561124D01*
X116718288Y-95088124D02*
X116718288Y-96942124D01*
X114331288Y-96764124D02*
X114331288Y-95316124D01*
X116769288Y-99558124D02*
X111714288Y-98974124D01*
X111697288Y-101661124D02*
X111722288Y-101994124D01*
X111664288Y-99279124D02*
X116261288Y-100066124D01*
X118806288Y-91662124D02*
X117308288Y-91662124D01*
X108156288Y-91662124D02*
X108156288Y-91861124D01*
X108173288Y-104762124D02*
X114069288Y-104762124D01*
X112578288Y-97094124D02*
X112578288Y-95012124D01*
X108157288Y-104747124D02*
X108157288Y-104561124D01*
X118806288Y-104762124D02*
X118806288Y-91662124D01*
X108173288Y-104762124D02*
X108157288Y-104747124D01*
X111671288Y-97524124D02*
X111646288Y-97191124D01*
X116769288Y-101412124D02*
X116769288Y-99558124D01*
X114381288Y-101235124D02*
X114381288Y-99787124D01*
X111646288Y-97191124D02*
X116210288Y-96536124D01*
X111714288Y-98974124D02*
X111664288Y-99279124D01*
X117308288Y-104762124D02*
X118806288Y-104762124D01*
X112629288Y-101565124D02*
X112629288Y-99482124D01*
X114069288Y-91662124D02*
X108156288Y-91662124D01*
X116210288Y-95596124D02*
X111613288Y-94808124D01*
X111722288Y-101994124D02*
X116769288Y-101412124D01*
X108158288Y-98466124D02*
X108158288Y-97958124D01*
X116261288Y-101006124D02*
X111697288Y-101661124D01*
X116718288Y-96942124D02*
X111671288Y-97524124D01*
X111613288Y-94808124D02*
X111664288Y-94504124D01*
X108157288Y-91861124D02*
X108157288Y-93893124D01*
D13*
%TO.C,C6*%
X101087536Y-102612124D02*
X101610040Y-102612124D01*
X101087536Y-101612124D02*
X101610040Y-101612124D01*
%TO.C,D4*%
X102273788Y-92637124D02*
X102273788Y-91637124D01*
X102273788Y-92137124D02*
X101273788Y-92137124D01*
%TO.C,C7*%
X113498788Y-84850872D02*
X113498788Y-85373376D01*
X112498788Y-84850872D02*
X112498788Y-85373376D01*
%TO.C,C15*%
X111129968Y-82523838D02*
X110760502Y-82893304D01*
X111837074Y-83230944D02*
X111467608Y-83600410D01*
%TO.C,R20*%
X112221724Y-68912124D02*
X112675852Y-68912124D01*
X112221724Y-69912124D02*
X112675852Y-69912124D01*
%TO.C,C24*%
X110460502Y-71030944D02*
X110829968Y-71400410D01*
X111167608Y-70323838D02*
X111537074Y-70693304D01*
%TO.C,C4*%
X102748788Y-114350872D02*
X102748788Y-114873376D01*
X101748788Y-114350872D02*
X101748788Y-114873376D01*
%TO.C,C5*%
X105742608Y-85623838D02*
X106112074Y-85993304D01*
X105035502Y-86330944D02*
X105404968Y-86700410D01*
%TO.C,Y1*%
X115870971Y-80521312D02*
X116153814Y-80804155D01*
X116012392Y-80379891D02*
X116295235Y-80662733D01*
X114456757Y-79107098D02*
X115870971Y-80521312D01*
X116578078Y-76985778D02*
X117143763Y-76420093D01*
X118557977Y-77834306D02*
X118840819Y-78117149D01*
X117002342Y-79955627D02*
X117285184Y-80238469D01*
X117143763Y-76420093D02*
X118557977Y-77834306D01*
X116012392Y-80379891D02*
X114598179Y-78965677D01*
X118840819Y-78117149D02*
X118275134Y-78682834D01*
X114598179Y-78965677D02*
X115305285Y-78258570D01*
X117002342Y-79955627D02*
X116295235Y-80662733D01*
%TO.C,U3*%
X109316986Y-81899237D02*
X108998788Y-82217435D01*
X104211675Y-76793926D02*
X103893477Y-77112124D01*
X103893477Y-77112124D02*
X104211675Y-77430322D01*
X108680590Y-72325011D02*
X108998788Y-72006813D01*
X113785901Y-77430322D02*
X114104099Y-77112124D01*
X108998788Y-82217435D02*
X108680590Y-81899237D01*
X104211675Y-77430322D02*
X103299507Y-78342490D01*
X108998788Y-72006813D02*
X109316986Y-72325011D01*
X114104099Y-77112124D02*
X113785901Y-76793926D01*
D14*
%TO.C,P5*%
X117149788Y-64140124D02*
X113974788Y-64140124D01*
X113847788Y-73284124D02*
X114101788Y-73284124D01*
X113847788Y-64140124D02*
X113847788Y-64140124D01*
X113974788Y-64140124D02*
X113847788Y-64140124D01*
X117149788Y-65498124D02*
X117149788Y-64140124D01*
X113847788Y-67126124D02*
X113847788Y-70298124D01*
X117149788Y-73284124D02*
X117149788Y-71926124D01*
X113847788Y-71926124D02*
X113847788Y-73284124D01*
X113974788Y-73284124D02*
X117149788Y-73284124D01*
X117149788Y-70298124D02*
X117149788Y-67126124D01*
X113847788Y-64140124D02*
X113847788Y-65498124D01*
D13*
%TO.C,C21*%
X117292608Y-74648838D02*
X117662074Y-75018304D01*
X116585502Y-75355944D02*
X116954968Y-75725410D01*
%TO.C,D6*%
X111448788Y-90437124D02*
X110448788Y-90437124D01*
X111448788Y-90937124D02*
X111448788Y-89937124D01*
%TO.C,R2*%
X105775852Y-69712124D02*
X105321724Y-69712124D01*
X105775852Y-68712124D02*
X105321724Y-68712124D01*
%TO.C,C11*%
X106210502Y-83430944D02*
X106579968Y-83800410D01*
X106917608Y-82723838D02*
X107287074Y-83093304D01*
%TO.C,D3*%
X108948788Y-64762124D02*
X109948788Y-64762124D01*
X108948788Y-64262124D02*
X108948788Y-65262124D01*
%TO.C,R22*%
X117198788Y-111485060D02*
X117198788Y-111939188D01*
X116198788Y-111485060D02*
X116198788Y-111939188D01*
%TO.C,D2*%
X118198788Y-85862124D02*
X118198788Y-84862124D01*
X117698788Y-85862124D02*
X118698788Y-85862124D01*
D14*
%TO.C,P3*%
X100847788Y-80540124D02*
X100847788Y-80540124D01*
X100847788Y-83526124D02*
X100847788Y-86698124D01*
X100974788Y-89684124D02*
X104149788Y-89684124D01*
X100974788Y-80540124D02*
X100847788Y-80540124D01*
X104149788Y-89684124D02*
X104149788Y-88326124D01*
X104149788Y-86698124D02*
X104149788Y-83526124D01*
X100847788Y-80540124D02*
X100847788Y-81898124D01*
X100847788Y-88326124D02*
X100847788Y-89684124D01*
X104149788Y-81898124D02*
X104149788Y-80540124D01*
X104149788Y-80540124D02*
X100974788Y-80540124D01*
X100847788Y-89684124D02*
X101101788Y-89684124D01*
D13*
%TO.C,R11*%
X108221724Y-89937124D02*
X108675852Y-89937124D01*
X108221724Y-90937124D02*
X108675852Y-90937124D01*
%TO.C,R19*%
X117548788Y-73439188D02*
X117548788Y-72985060D01*
X118548788Y-73439188D02*
X118548788Y-72985060D01*
%TO.C,R18*%
X101121724Y-74662124D02*
X101575852Y-74662124D01*
X101121724Y-73662124D02*
X101575852Y-73662124D01*
%TO.C,D8*%
X99898788Y-69262124D02*
X99898788Y-68262124D01*
X99398788Y-69262124D02*
X100398788Y-69262124D01*
D12*
%TO.C,U1*%
X99523788Y-96237124D02*
X99823788Y-96237124D01*
X102873788Y-96237124D02*
X102648788Y-96237124D01*
X99523788Y-96237124D02*
X99523788Y-99587124D01*
X102873788Y-96237124D02*
X102873788Y-99587124D01*
X102648788Y-96237124D02*
X102648788Y-95012124D01*
X99523788Y-99587124D02*
X99823788Y-99587124D01*
X102873788Y-99587124D02*
X102573788Y-99587124D01*
D13*
%TO.C,R16*%
X101575852Y-75062124D02*
X101121724Y-75062124D01*
X101575852Y-76062124D02*
X101121724Y-76062124D01*
%TO.C,D7*%
X117598788Y-69237124D02*
X118598788Y-69237124D01*
X118098788Y-69237124D02*
X118098788Y-68237124D01*
%TO.C,R21*%
X111971724Y-65262124D02*
X112425852Y-65262124D01*
X111971724Y-64262124D02*
X112425852Y-64262124D01*
%TO.C,C18*%
X105067608Y-73500410D02*
X105437074Y-73130944D01*
X104360502Y-72793304D02*
X104729968Y-72423838D01*
D14*
%TO.C,P4*%
X113847788Y-89684124D02*
X114101788Y-89684124D01*
X113974788Y-80540124D02*
X113847788Y-80540124D01*
X113847788Y-88326124D02*
X113847788Y-89684124D01*
X117149788Y-89684124D02*
X117149788Y-88326124D01*
X117149788Y-80540124D02*
X113974788Y-80540124D01*
X113847788Y-83526124D02*
X113847788Y-86698124D01*
X113847788Y-80540124D02*
X113847788Y-81898124D01*
X117149788Y-86698124D02*
X117149788Y-83526124D01*
X117149788Y-81898124D02*
X117149788Y-80540124D01*
X113847788Y-80540124D02*
X113847788Y-80540124D01*
X113974788Y-89684124D02*
X117149788Y-89684124D01*
D13*
%TO.C,C23*%
X114760502Y-76143304D02*
X115129968Y-75773838D01*
X115467608Y-76850410D02*
X115837074Y-76480944D01*
%TO.C,C1*%
X92248788Y-67673376D02*
X92248788Y-67150872D01*
X91248788Y-67673376D02*
X91248788Y-67150872D01*
%TO.C,C24*%
X90460502Y-71030944D02*
X90829968Y-71400410D01*
X91167608Y-70323838D02*
X91537074Y-70693304D01*
%TO.C,D9*%
X96698788Y-114737124D02*
X96698788Y-113737124D01*
X96198788Y-114737124D02*
X97198788Y-114737124D01*
%TO.C,C15*%
X91129968Y-82523838D02*
X90760502Y-82893304D01*
X91837074Y-83230944D02*
X91467608Y-83600410D01*
%TO.C,C6*%
X81087536Y-102612124D02*
X81610040Y-102612124D01*
X81087536Y-101612124D02*
X81610040Y-101612124D01*
%TO.C,C7*%
X93498788Y-84850872D02*
X93498788Y-85373376D01*
X92498788Y-84850872D02*
X92498788Y-85373376D01*
%TO.C,C25*%
X93287074Y-72443304D02*
X92917608Y-72073838D01*
X92579968Y-73150410D02*
X92210502Y-72780944D01*
%TO.C,R20*%
X92221724Y-68912124D02*
X92675852Y-68912124D01*
X92221724Y-69912124D02*
X92675852Y-69912124D01*
%TO.C,C22*%
X94667608Y-73823838D02*
X95037074Y-74193304D01*
X93960502Y-74530944D02*
X94329968Y-74900410D01*
%TO.C,D3*%
X88948788Y-64762124D02*
X89948788Y-64762124D01*
X88948788Y-64262124D02*
X88948788Y-65262124D01*
D14*
%TO.C,P5*%
X97149788Y-64140124D02*
X93974788Y-64140124D01*
X93847788Y-73284124D02*
X94101788Y-73284124D01*
X93847788Y-64140124D02*
X93847788Y-64140124D01*
X93974788Y-64140124D02*
X93847788Y-64140124D01*
X97149788Y-65498124D02*
X97149788Y-64140124D01*
X93847788Y-67126124D02*
X93847788Y-70298124D01*
X97149788Y-73284124D02*
X97149788Y-71926124D01*
X93847788Y-71926124D02*
X93847788Y-73284124D01*
X93974788Y-73284124D02*
X97149788Y-73284124D01*
X97149788Y-70298124D02*
X97149788Y-67126124D01*
X93847788Y-64140124D02*
X93847788Y-65498124D01*
D13*
%TO.C,C4*%
X82748788Y-114350872D02*
X82748788Y-114873376D01*
X81748788Y-114350872D02*
X81748788Y-114873376D01*
D14*
%TO.C,J2*%
X88173288Y-104762124D02*
X88173288Y-104762124D01*
X91664288Y-94504124D02*
X96718288Y-95088124D01*
X96261288Y-100066124D02*
X96261288Y-101006124D01*
X88158288Y-95418124D02*
X88158288Y-96434124D01*
X88158288Y-101006124D02*
X88158288Y-99990124D01*
X96210288Y-96536124D02*
X96210288Y-95596124D01*
X88157288Y-102529124D02*
X88157288Y-104561124D01*
X96718288Y-95088124D02*
X96718288Y-96942124D01*
X94331288Y-96764124D02*
X94331288Y-95316124D01*
X96769288Y-99558124D02*
X91714288Y-98974124D01*
X91697288Y-101661124D02*
X91722288Y-101994124D01*
X91664288Y-99279124D02*
X96261288Y-100066124D01*
X98806288Y-91662124D02*
X97308288Y-91662124D01*
X88156288Y-91662124D02*
X88156288Y-91861124D01*
X88173288Y-104762124D02*
X94069288Y-104762124D01*
X92578288Y-97094124D02*
X92578288Y-95012124D01*
X88157288Y-104747124D02*
X88157288Y-104561124D01*
X98806288Y-104762124D02*
X98806288Y-91662124D01*
X88173288Y-104762124D02*
X88157288Y-104747124D01*
X91671288Y-97524124D02*
X91646288Y-97191124D01*
X96769288Y-101412124D02*
X96769288Y-99558124D01*
X94381288Y-101235124D02*
X94381288Y-99787124D01*
X91646288Y-97191124D02*
X96210288Y-96536124D01*
X91714288Y-98974124D02*
X91664288Y-99279124D01*
X97308288Y-104762124D02*
X98806288Y-104762124D01*
X92629288Y-101565124D02*
X92629288Y-99482124D01*
X94069288Y-91662124D02*
X88156288Y-91662124D01*
X96210288Y-95596124D02*
X91613288Y-94808124D01*
X91722288Y-101994124D02*
X96769288Y-101412124D01*
X88158288Y-98466124D02*
X88158288Y-97958124D01*
X96261288Y-101006124D02*
X91697288Y-101661124D01*
X96718288Y-96942124D02*
X91671288Y-97524124D01*
X91613288Y-94808124D02*
X91664288Y-94504124D01*
X88157288Y-91861124D02*
X88157288Y-93893124D01*
%TO.C,P4*%
X93847788Y-89684124D02*
X94101788Y-89684124D01*
X93974788Y-80540124D02*
X93847788Y-80540124D01*
X93847788Y-88326124D02*
X93847788Y-89684124D01*
X97149788Y-89684124D02*
X97149788Y-88326124D01*
X97149788Y-80540124D02*
X93974788Y-80540124D01*
X93847788Y-83526124D02*
X93847788Y-86698124D01*
X93847788Y-80540124D02*
X93847788Y-81898124D01*
X97149788Y-86698124D02*
X97149788Y-83526124D01*
X97149788Y-81898124D02*
X97149788Y-80540124D01*
X93847788Y-80540124D02*
X93847788Y-80540124D01*
X93974788Y-89684124D02*
X97149788Y-89684124D01*
D13*
%TO.C,R11*%
X88221724Y-89937124D02*
X88675852Y-89937124D01*
X88221724Y-90937124D02*
X88675852Y-90937124D01*
%TO.C,C23*%
X94760502Y-76143304D02*
X95129968Y-75773838D01*
X95467608Y-76850410D02*
X95837074Y-76480944D01*
%TO.C,R22*%
X97198788Y-111485060D02*
X97198788Y-111939188D01*
X96198788Y-111485060D02*
X96198788Y-111939188D01*
%TO.C,R19*%
X97548788Y-73439188D02*
X97548788Y-72985060D01*
X98548788Y-73439188D02*
X98548788Y-72985060D01*
D14*
%TO.C,P3*%
X80847788Y-80540124D02*
X80847788Y-80540124D01*
X80847788Y-83526124D02*
X80847788Y-86698124D01*
X80974788Y-89684124D02*
X84149788Y-89684124D01*
X80974788Y-80540124D02*
X80847788Y-80540124D01*
X84149788Y-89684124D02*
X84149788Y-88326124D01*
X84149788Y-86698124D02*
X84149788Y-83526124D01*
X80847788Y-80540124D02*
X80847788Y-81898124D01*
X80847788Y-88326124D02*
X80847788Y-89684124D01*
X84149788Y-81898124D02*
X84149788Y-80540124D01*
X84149788Y-80540124D02*
X80974788Y-80540124D01*
X80847788Y-89684124D02*
X81101788Y-89684124D01*
D13*
%TO.C,C18*%
X85067608Y-73500410D02*
X85437074Y-73130944D01*
X84360502Y-72793304D02*
X84729968Y-72423838D01*
%TO.C,R21*%
X91971724Y-65262124D02*
X92425852Y-65262124D01*
X91971724Y-64262124D02*
X92425852Y-64262124D01*
%TO.C,D2*%
X98198788Y-85862124D02*
X98198788Y-84862124D01*
X97698788Y-85862124D02*
X98698788Y-85862124D01*
%TO.C,R8*%
X86875852Y-65262124D02*
X86421724Y-65262124D01*
X86875852Y-64262124D02*
X86421724Y-64262124D01*
%TO.C,C3*%
X86723788Y-92600872D02*
X86723788Y-93123376D01*
X87723788Y-92600872D02*
X87723788Y-93123376D01*
%TO.C,C21*%
X97292608Y-74648838D02*
X97662074Y-75018304D01*
X96585502Y-75355944D02*
X96954968Y-75725410D01*
%TO.C,R12*%
X89221724Y-66612124D02*
X89675852Y-66612124D01*
X89221724Y-65612124D02*
X89675852Y-65612124D01*
%TO.C,D4*%
X82273788Y-92637124D02*
X82273788Y-91637124D01*
X82273788Y-92137124D02*
X81273788Y-92137124D01*
%TO.C,R2*%
X85775852Y-69712124D02*
X85321724Y-69712124D01*
X85775852Y-68712124D02*
X85321724Y-68712124D01*
%TO.C,C9*%
X85360502Y-84730944D02*
X85729968Y-85100410D01*
X86067608Y-84023838D02*
X86437074Y-84393304D01*
%TO.C,D5*%
X79448788Y-85662124D02*
X80448788Y-85662124D01*
X79948788Y-85662124D02*
X79948788Y-84662124D01*
%TO.C,C11*%
X86210502Y-83430944D02*
X86579968Y-83800410D01*
X86917608Y-82723838D02*
X87287074Y-83093304D01*
%TO.C,D8*%
X79898788Y-69262124D02*
X79898788Y-68262124D01*
X79398788Y-69262124D02*
X80398788Y-69262124D01*
%TO.C,D7*%
X97598788Y-69237124D02*
X98598788Y-69237124D01*
X98098788Y-69237124D02*
X98098788Y-68237124D01*
%TO.C,R17*%
X89562900Y-70619129D02*
X89241783Y-70298012D01*
X88855793Y-71326236D02*
X88534676Y-71005119D01*
%TO.C,Y1*%
X95870971Y-80521312D02*
X96153814Y-80804155D01*
X96012392Y-80379891D02*
X96295235Y-80662733D01*
X94456757Y-79107098D02*
X95870971Y-80521312D01*
X96578078Y-76985778D02*
X97143763Y-76420093D01*
X98557977Y-77834306D02*
X98840819Y-78117149D01*
X97002342Y-79955627D02*
X97285184Y-80238469D01*
X97143763Y-76420093D02*
X98557977Y-77834306D01*
X96012392Y-80379891D02*
X94598179Y-78965677D01*
X98840819Y-78117149D02*
X98275134Y-78682834D01*
X94598179Y-78965677D02*
X95305285Y-78258570D01*
X97002342Y-79955627D02*
X96295235Y-80662733D01*
D12*
%TO.C,U1*%
X79523788Y-96237124D02*
X79823788Y-96237124D01*
X82873788Y-96237124D02*
X82648788Y-96237124D01*
X79523788Y-96237124D02*
X79523788Y-99587124D01*
X82873788Y-96237124D02*
X82873788Y-99587124D01*
X82648788Y-96237124D02*
X82648788Y-95012124D01*
X79523788Y-99587124D02*
X79823788Y-99587124D01*
X82873788Y-99587124D02*
X82573788Y-99587124D01*
D13*
%TO.C,C5*%
X85742608Y-85623838D02*
X86112074Y-85993304D01*
X85035502Y-86330944D02*
X85404968Y-86700410D01*
%TO.C,C19*%
X86767608Y-71650410D02*
X87137074Y-71280944D01*
X86060502Y-70943304D02*
X86429968Y-70573838D01*
D14*
%TO.C,DC1*%
X83353788Y-107030124D02*
X83353788Y-106703124D01*
X83353788Y-106703124D02*
X93462788Y-106703124D01*
X93463788Y-117112124D02*
X93463788Y-115802124D01*
X83483788Y-113062124D02*
X83483788Y-117112124D01*
X88451788Y-106282124D02*
X91043788Y-106282124D01*
X93463788Y-117112124D02*
X83483788Y-117112124D01*
X91043788Y-106282124D02*
X91043788Y-106703124D01*
X88451788Y-106703124D02*
X88451788Y-106282124D01*
X93462788Y-106703124D02*
X93462788Y-107030124D01*
X83513788Y-110532124D02*
X83513788Y-109494124D01*
X93463788Y-115722124D02*
X93463788Y-109493124D01*
D13*
%TO.C,R16*%
X81575852Y-75062124D02*
X81121724Y-75062124D01*
X81575852Y-76062124D02*
X81121724Y-76062124D01*
%TO.C,U3*%
X89316986Y-81899237D02*
X88998788Y-82217435D01*
X84211675Y-76793926D02*
X83893477Y-77112124D01*
X83893477Y-77112124D02*
X84211675Y-77430322D01*
X88680590Y-72325011D02*
X88998788Y-72006813D01*
X93785901Y-77430322D02*
X94104099Y-77112124D01*
X88998788Y-82217435D02*
X88680590Y-81899237D01*
X84211675Y-77430322D02*
X83299507Y-78342490D01*
X88998788Y-72006813D02*
X89316986Y-72325011D01*
X94104099Y-77112124D02*
X93785901Y-76793926D01*
%TO.C,R18*%
X81121724Y-74662124D02*
X81575852Y-74662124D01*
X81121724Y-73662124D02*
X81575852Y-73662124D01*
%TO.C,D6*%
X91448788Y-90437124D02*
X90448788Y-90437124D01*
X91448788Y-90937124D02*
X91448788Y-89937124D01*
D14*
%TO.C,P1*%
X84149788Y-64140124D02*
X80974788Y-64140124D01*
X80847788Y-73284124D02*
X81101788Y-73284124D01*
X80847788Y-64140124D02*
X80847788Y-64140124D01*
X84149788Y-73284124D02*
X84149788Y-71926124D01*
X80847788Y-67126124D02*
X80847788Y-70298124D01*
X84149788Y-70298124D02*
X84149788Y-67126124D01*
X84149788Y-65498124D02*
X84149788Y-64140124D01*
X80974788Y-64140124D02*
X80847788Y-64140124D01*
X80847788Y-71926124D02*
X80847788Y-73284124D01*
X80847788Y-64140124D02*
X80847788Y-65498124D01*
X80974788Y-73284124D02*
X84149788Y-73284124D01*
D13*
%TO.C,R9*%
X82025852Y-93062124D02*
X81571724Y-93062124D01*
X82025852Y-94062124D02*
X81571724Y-94062124D01*
%TD*%
M02*
